<?xml version="1.0" standalone="no"?>
<!DOCTYPE svg PUBLIC "-//W3C//DTD SVG 20010904//EN"
 "http://www.w3.org/TR/2001/REC-SVG-20010904/DTD/svg10.dtd">
<svg version="1.0" xmlns="http://www.w3.org/2000/svg"
 width="512.000000pt" height="512.000000pt" viewBox="0 0 512.000000 512.000000"
 preserveAspectRatio="xMidYMid meet">
<metadata>
Created by potrace 1.11, written by Peter Selinger 2001-2013
</metadata>
<g transform="translate(0.000000,512.000000) scale(0.100000,-0.100000)"
fill="#000000" stroke="none">
<path d="M0 2560 l0 -2560 2560 0 2560 0 0 2560 0 2560 -2560 0 -2560 0 0
-2560z m3298 1561 c-1 -5 -482 -704 -1068 -1554 l-1065 -1546 -393 -1 -394 0
44 63 c24 34 506 734 1072 1555 l1029 1492 389 0 c220 0 388 -4 386 -9z m1442
3 c0 -3 -480 -703 -1067 -1555 l-1068 -1549 -393 0 -392 0 61 88 c33 48 516
747 1072 1555 l1012 1467 387 0 c214 0 388 -3 388 -6z"/>
</g>
</svg>
