<svg width="65.69mm" height="15.034mm" version="1.1" viewBox="0 0 65.69 15.034" xmlns="http://www.w3.org/2000/svg">
 <g transform="translate(-26.411 -8.2838)">
  <g transform="translate(-6.831e-7 -23.468)" shape-rendering="auto">
   <g transform="matrix(.24143 0 0 .24074 19.833 24.648)">
    <path d="m71.66 87.3 36.63-53.14h-13.36l-36.64 53.14z" color="#000000" color-rendering="auto" dominant-baseline="auto" image-rendering="auto" solid-color="#000000" stop-color="#000000" style="font-feature-settings:normal;font-variant-alternates:normal;font-variant-caps:normal;font-variant-east-asian:normal;font-variant-ligatures:normal;font-variant-numeric:normal;font-variant-position:normal;font-variation-settings:normal;inline-size:0;isolation:auto;mix-blend-mode:normal;shape-margin:0;shape-padding:0;text-decoration-color:#000000;text-decoration-line:none;text-decoration-style:solid;text-indent:0;text-orientation:mixed;text-transform:none;white-space:normal"/>
    <path d="m94.668 33.66-37.33 54.141h14.584l0.15039-0.2168 37.17-53.924zm0.52539 1h12.146l-35.943 52.141h-12.156z" color="#000000" color-rendering="auto" dominant-baseline="auto" image-rendering="auto" solid-color="#000000" stop-color="#000000" style="font-feature-settings:normal;font-variant-alternates:normal;font-variant-caps:normal;font-variant-east-asian:normal;font-variant-ligatures:normal;font-variant-numeric:normal;font-variant-position:normal;font-variation-settings:normal;inline-size:0;isolation:auto;mix-blend-mode:normal;shape-margin:0;shape-padding:0;text-decoration-color:#000000;text-decoration-line:none;text-decoration-style:solid;text-indent:0;text-orientation:mixed;text-transform:none;white-space:normal"/>
   </g>
   <g transform="matrix(.24143 0 0 .24074 13.567 24.648)">
    <path d="m71.66 87.3 36.63-53.14h-13.36l-36.64 53.14z" color="#000000" color-rendering="auto" dominant-baseline="auto" image-rendering="auto" solid-color="#000000" stop-color="#000000" style="font-feature-settings:normal;font-variant-alternates:normal;font-variant-caps:normal;font-variant-east-asian:normal;font-variant-ligatures:normal;font-variant-numeric:normal;font-variant-position:normal;font-variation-settings:normal;inline-size:0;isolation:auto;mix-blend-mode:normal;shape-margin:0;shape-padding:0;text-decoration-color:#000000;text-decoration-line:none;text-decoration-style:solid;text-indent:0;text-orientation:mixed;text-transform:none;white-space:normal"/>
    <path d="m94.668 33.66-37.33 54.141h14.584l0.15039-0.2168 37.17-53.924zm0.52539 1h12.146l-35.943 52.141h-12.156z" color="#000000" color-rendering="auto" dominant-baseline="auto" image-rendering="auto" solid-color="#000000" stop-color="#000000" style="font-feature-settings:normal;font-variant-alternates:normal;font-variant-caps:normal;font-variant-east-asian:normal;font-variant-ligatures:normal;font-variant-numeric:normal;font-variant-position:normal;font-variation-settings:normal;inline-size:0;isolation:auto;mix-blend-mode:normal;shape-margin:0;shape-padding:0;text-decoration-color:#000000;text-decoration-line:none;text-decoration-style:solid;text-indent:0;text-orientation:mixed;text-transform:none;white-space:normal"/>
   </g>
  </g>
  <g stroke-width=".25695">
   <path d="m51.307 9.4026v5.0877h1.1594v-2.0104l1.554 2.0104h1.4739l-1.7514-2.1029c0.62285-0.19734 1.0422-0.70919 1.0422-1.4739 0-0.99903-0.71536-1.5109-1.6589-1.5109zm1.1594 2.2571v-1.332h0.13567c0.43785 0 0.96203 0.03083 0.96203 0.66602 0 0.63519-0.52418 0.66602-0.96203 0.66602z"/>
   <path d="m58.708 9.4026h-1.073l-2.0536 5.0877h1.2457l0.37618-1.0175h1.9364l0.37618 1.0175h1.2457zm0.037 3.0526h-1.147l0.56735-1.48h0.01233z"/>
   <path d="m60.464 10.42h1.2087v4.0701h1.1594v-4.0701h1.2087v-1.0175h-3.5768z"/>
   <path d="m65.75 9.4026h-1.1594v5.0877h1.1594z"/>
   <path d="m68.514 9.3101c-0.82019 0-1.6589 0.60435-1.6589 1.554 0 0.53035 0.35768 1.0052 0.9682 1.3074 0.60435 0.30218 1.147 0.46868 1.147 0.83869 0 0.47485-0.48102 0.49952-0.73386 0.49952-0.56735 0-1.2457-0.57352-1.2457-0.57352l-0.57968 0.97436s0.72152 0.67219 1.9117 0.67219c0.99286 0 1.9179-0.42551 1.9179-1.6404 0-0.66602-0.62285-1.147-1.1902-1.3875-0.57968-0.24667-1.0607-0.45018-1.0607-0.73386 0-0.27751 0.20967-0.45635 0.60435-0.45635 0.52418 0 1.0299 0.35151 1.0299 0.35151l0.46868-0.92503s-0.65369-0.48102-1.5787-0.48102z"/>
   <path d="m70.928 9.4026v5.0877h1.9302c1.0545 0 1.6651-0.57968 1.6651-1.4184 0-0.82019-0.45018-1.1717-1.0854-1.2827 0.43168-0.22201 0.63519-0.62285 0.63519-1.0915 0-0.9682-0.69069-1.295-1.5664-1.295zm1.1594 1.9919v-1.0977h0.0925c0.50568 0 0.77086 0.15417 0.77086 0.51802 0 0.42551-0.27134 0.57968-0.77086 0.57968zm0 2.2016v-1.2025h0.36384c0.54885 0 0.85103 0.16651 0.85103 0.63519 0 0.40085-0.30218 0.56735-0.85103 0.56735z"/>
   <path d="m74.94 11.943c0 1.4862 1.0607 2.6394 2.5654 2.6394 1.4615 0 2.5592-1.1532 2.5592-2.6394 0-1.4862-1.147-2.6332-2.5592-2.6332-1.3999 0-2.5654 1.147-2.5654 2.6332zm1.2519 0c0-0.75852 0.41935-1.517 1.3135-1.517 0.90036 0 1.3074 0.75852 1.3074 1.517 0 0.75852-0.38234 1.517-1.3074 1.517-0.9497 0-1.3135-0.75852-1.3135-1.517z"/>
   <path d="m81.867 11.333h0.01233l2.0227 3.1574h1.1594v-5.0877h-1.1594v3.1574h-0.01233l-2.0227-3.1574h-1.1594v5.0877h1.1594z"/>
   <path d="m88.718 9.4026h-1.073l-2.0536 5.0877h1.2457l0.37618-1.0175h1.9364l0.37618 1.0175h1.2457zm0.037 3.0526h-1.147l0.56735-1.48h0.01233z"/>
   <path d="m54.014 21.15c-1.1655 0-1.6774-0.81403-1.6774-1.4985 0-0.67836 0.51185-1.4924 1.6774-1.4924 0.59202 0 0.99903 0.31451 0.99903 0.31451l0.49335-0.9867s-0.56735-0.46868-1.6712-0.46868c-1.443 0-2.7566 1.184-2.7566 2.6456 0 1.4554 1.3197 2.6271 2.7566 2.6271 1.1039 0 1.6712-0.46868 1.6712-0.46868l-0.49335-0.9867s-0.40701 0.31451-0.99903 0.31451z"/>
   <path d="m55.86 19.652c0 1.4862 1.0607 2.6394 2.5654 2.6394 1.4615 0 2.5592-1.1532 2.5592-2.6394 0-1.4862-1.147-2.6332-2.5592-2.6332-1.3999 0-2.5654 1.147-2.5654 2.6332zm1.2519 0c0-0.75852 0.41935-1.517 1.3135-1.517 0.90036 0 1.3074 0.75852 1.3074 1.517 0 0.75852-0.38234 1.517-1.3074 1.517-0.9497 0-1.3135-0.75852-1.3135-1.517z"/>
   <path d="m61.628 17.111v5.0877h1.4739c1.3999 0 2.5654-1.0607 2.5654-2.5469 0-1.48-1.1717-2.5407-2.5654-2.5407zm1.1594 4.0516v-3.0156h0.17884c0.86336 0 1.4492 0.65985 1.4492 1.5109-0.0062 0.85103-0.59202 1.5047-1.4492 1.5047z"/>
   <path d="m67.473 17.111h-1.1594v5.0877h1.1594z"/>
   <path d="m69.508 19.041h0.01233l2.0227 3.1574h1.1594v-5.0877h-1.1594v3.1574h-0.01233l-2.0227-3.1574h-1.1594v5.0877h1.1594z"/>
   <path d="m78.177 19.35h-2.3496v0.89419h1.1717c0 0.62285-0.54885 0.98053-1.1039 0.98053-0.71536 0-1.295-0.70302-1.295-1.5664 0-0.88186 0.57968-1.591 1.295-1.591 0.45018 0 0.83869 0.17884 1.1347 0.65369l0.75852-0.83253c-0.44401-0.53652-1.0669-0.86953-1.9611-0.86953-1.4307 0-2.4791 1.1779-2.4791 2.6394 0 1.4554 1.11 2.6332 2.4791 2.6332 0.99903 0 2.0721-0.54885 2.3496-1.8377z"/>
   <path d="m83.28 17.111h-2.9108v5.0877h2.9108v-1.0175h-1.7514v-1.0237h1.6774v-1.0175h-1.6774v-1.0114h1.7514z"/>
   <path d="m84.597 20.879c-0.38851 0-0.70302 0.31451-0.70302 0.70919 0 0.38851 0.31451 0.70302 0.70302 0.70302 0.39468 0 0.70919-0.31451 0.70919-0.70302 0-0.39468-0.31451-0.70919-0.70919-0.70919z"/>
   <path d="m87.641 22.199h0.9127l2.1337-5.0877h-1.3074l-1.2827 3.3424-1.2827-3.3424h-1.3074z"/>
   <path d="m90.391 20.879c-0.38851 0-0.70302 0.31451-0.70302 0.70919 0 0.38851 0.31451 0.70302 0.70302 0.70302 0.39468 0 0.70919-0.31451 0.70919-0.70302 0-0.39468-0.31451-0.70919-0.70919-0.70919z"/>
  </g>
 </g>
</svg>
