<?xml version="1.0" encoding="utf-8"?>
<!-- Generator: Adobe Illustrator 26.0.3, SVG Export Plug-In . SVG Version: 6.00 Build 0)  -->
<svg version="1.1" id="Ebene_1" xmlns="http://www.w3.org/2000/svg" xmlns:xlink="http://www.w3.org/1999/xlink" x="0px" y="0px"
	 viewBox="0 0 274.7 316.6" style="enable-background:new 0 0 274.7 316.6;" xml:space="preserve">
<style type="text/css">
	.st0{fill:#473537;}
	.st1{fill:#81BC53;}
	.st2{opacity:0.57;fill:#44A74C;enable-background:new    ;}
	.st3{fill:#056938;}
	.st4{fill:#019147;}
	.st5{opacity:0.41;}
	.st6{fill:#020303;}
	.st7{fill:#44A74C;}
	.st8{opacity:0.2;fill:#020303;enable-background:new    ;}
	.st9{fill:#754E24;}
	.st10{fill:#4AAD4B;}
	.st11{opacity:0.39;fill:#020303;enable-background:new    ;}
	.st12{fill:#77797D;}
	.st13{fill:#DF96C1;}
	.st14{fill:#C5529D;}
	.st15{fill:#C96DAA;}
	.st16{fill:#EBB8D4;}
	.st17{fill:#CC75AE;}
	.st18{fill:#FAC946;}
	.st19{fill:#F4A231;}
	.st20{fill:#FCD959;}
	.st21{fill:#AC4094;}
	.st22{fill:#B34B97;}
	.st23{fill:#EDA356;}
	.st24{fill:#E88A2B;}
	.st25{fill:#EB903A;}
	.st26{fill:#C9772A;}
</style>
<g>
	<polygon id="XMLID_00000138557479638999597550000016534319951234221458_" class="st0" points="253.3,223.2 137.6,287.9 22,223.2 
		22,180.3 137.4,246.9 253,180.3 	"/>
	<polygon id="XMLID_00000080912030620465264840000003961645375350854068_" class="st1" points="260.3,164.7 137.8,234.1 15.1,164.7 
		142.5,96.9 	"/>
	<path id="XMLID_00000110429116312825131190000001257689386681828252_" class="st2" d="M71.8,208.7"/>
	<path id="XMLID_00000078030525695029085080000012025506428270222752_" class="st3" d="M240.3,216.8l-10.6-6.2V195
		c0,0,7.6-15.1,10.6-5.7V216.8z"/>
	<polygon id="XMLID_00000070837034957099678170000015338464892301379464_" class="st3" points="210.5,222.9 203.6,219.1 
		203.6,207.2 210.9,207.2 	"/>
	<polygon id="XMLID_00000131363360579680725660000014689975131408555687_" class="st3" points="35,213.1 44.8,208 45.3,183.8 
		32.7,180.6 	"/>
	<polygon id="XMLID_00000097472138156363479110000016917437714604902843_" class="st3" points="105.9,254.4 112.6,250.3 
		113.9,231.3 104.3,232.6 	"/>
	<ellipse id="XMLID_00000178896971504505323560000013633489654959951546_" class="st4" cx="133.4" cy="215.2" rx="3.7" ry="2.1"/>
	<g id="XMLID_00000142875621648537591280000004251506995878472613_" class="st5">
		<path id="XMLID_00000000940063443904522150000003174330117756788651_" class="st6" d="M213.1,224.8l-37.8,22.1c0,0-11,1-1.8-7.4
			l33.3-18.6L213.1,224.8z"/>
		<path id="XMLID_00000018213046788291476290000009673334997873963946_" class="st6" d="M80.1,248.5l-12.2-5.8c0,0-6.3-5.9,0-6.6
			l12.2,6.2C80.1,242.4,86.6,249.9,80.1,248.5z"/>
		<path id="XMLID_00000162326586441470449390000015206115598338802847_" class="st6" d="M89.1,238.2l-41.4-20.8
			c0,0-9.6-12.4,1.1-8.3l43.6,23.1L89.1,238.2z"/>
		<path id="XMLID_00000080914741387272639940000014930234449248813755_" class="st6" d="M22,215.9l34.4,20.4c0,0,6.8-1.7,0-7.6
			L22,209V215.9z"/>
		<path id="XMLID_00000158026216178593257820000010177537118853896868_" class="st6" d="M126.9,258.1l-10.5-6.9c0,0-4.5-3.7,0-5.2
			l10.5,6C126.9,252.1,132.8,257.7,126.9,258.1z"/>
		<path id="XMLID_00000022540406163211281730000011521152631477031567_" class="st6" d="M193.4,248.5l14.8-7.6c0,0,4.2-5-0.2-4.8
			l-14.7,6.6C193.4,242.8,188.1,248.7,193.4,248.5z"/>
		
			<ellipse id="XMLID_00000078724340866978447720000004687514325968432026_" transform="matrix(0.9318 -0.363 0.363 0.9318 -79.5848 74.8313)" class="st6" cx="159.3" cy="249.2" rx="4.6" ry="2.6"/>
	</g>
	<polygon id="XMLID_00000013160579346574343370000003802532812231618177_" class="st3" points="64.2,219.9 70.9,215.3 70.9,205.5 
		61.9,201.5 	"/>
	<path id="XMLID_00000109003464174067682910000015686688569324606353_" class="st7" d="M64.3,207.1l16.8,9c0,0,5.6,3.7,4.8,8.5
		c-0.8,4.7,0,17.6,0,17.6s6.1,19.2,20,12.2v-17.1c0,0-4.9-13.7,32.3,10.4l-6.4-13.6l-67.5-35V207.1z"/>
	<path id="XMLID_00000041989921078899499240000006022602116518193545_" class="st7" d="M15.1,176.2c0,0,0.4,22,2,25.3
		C18.2,204,22,224,35,213.2v-25.6c0,0,4.1-6.1,9.8,6.1V208c0,0,6.5,19.6,19.5,11.8V199l-47.6-27.7L15.1,176.2z"/>
	<polygon id="XMLID_00000149348895941410774050000017951609621556823685_" class="st7" points="15.1,164.7 137.8,234.1 260.3,164.7 
		260.6,177 138.2,247.7 15,177.7 	"/>
	<path id="XMLID_00000146493753699743449510000017259091565069257090_" class="st7" d="M260.6,177v30.1c0,0-9.8,20-20.4,9.5v-27.4
		c0,0-2.4-9.5-10.6,5.5v18.1c0,0-10.6,19.7-18.7,10v-10c0,0-2-5.3-7.7-2.8c-5.7,2.5-5-3.8-5-3.8L249,175L260.6,177z"/>
	<polygon id="XMLID_00000072277409142196900410000006802956308032617128_" class="st8" points="52.5,240.7 137.6,287.9 221.9,240.7 
		243.1,252.1 138.2,311.7 29.6,252.1 	"/>
	<g id="tree_x5F_3_00000124155470336899953690000008314347978713987466_">
		<ellipse id="XMLID_00000129188930049262355580000009454776473158489261_" class="st4" cx="39.6" cy="163" rx="8" ry="4.5"/>
		<path id="XMLID_00000085209282379645890500000009893240756470879118_" class="st9" d="M38.6,164.3h1.3c1.1,0,2-0.9,2-2v-8.6
			c0-1.1-0.9-2-2-2h-1.3c-1.1,0-2,0.9-2,2v8.6C36.6,163.4,37.5,164.3,38.6,164.3z"/>
		<g id="XMLID_00000093143810545530636590000002810054830198605701_">
			<path id="XMLID_00000005978753607074630500000006432502712613899162_" class="st4" d="M50.4,137.9l2.7,6.1c0,0-0.7,0.7-2,1.7
				l-2.8-6.3C49.2,138.8,49.9,138.4,50.4,137.9z"/>
			<path id="XMLID_00000075150835074495400250000008465293992608767118_" class="st4" d="M27,145.4c-0.5-0.4-1.1-0.9-1.5-1.4
				l2.6-6.2c0.6,0.5,1.1,0.9,1.6,1.3L27,145.4z"/>
			<path id="XMLID_00000046327144277467526500000001924720815975771041_" class="st3" d="M27,145.4c10.4,8.6,20,3.3,24,0.2l2,4.6
				c0,0-13.5,13.9-28,0L27,145.4z"/>
			<path id="XMLID_00000145031820244767781680000010685250463553856903_" class="st4" d="M27,145.4l2.6-6.3
				c7.7,5.5,14.8,2.8,18.7,0.2l2.8,6.3C47.1,148.8,37.5,154.1,27,145.4z"/>
			<path id="XMLID_00000064350686871719345730000013777921482222266512_" class="st10" d="M39,108.3L51.5,137c0,0-0.3,0.4-1.1,0.9
				c-0.5,0.4-1.2,1-2,1.5c-3.9,2.5-11,5.3-18.7-0.2c-0.6-0.4-1.1-0.8-1.6-1.3c-0.3-0.2-0.7-0.6-1-0.9L39,108.3z"/>
		</g>
		<g id="XMLID_00000156556598937217988430000001743889341056846739_">
			<path id="XMLID_00000101077848905500073670000013377689680122604435_" class="st10" d="M50.4,137.9L45,125.3l0.7-1.6l5.8,13.3
				C51.5,137,51.1,137.4,50.4,137.9z"/>
			<path id="XMLID_00000116914653543764855980000006460382395743599489_" class="st4" d="M50.4,137.9l2.7,6.1c0,0-0.7,0.7-2,1.7
				l-2.8-6.3C49.2,138.8,49.9,138.4,50.4,137.9z"/>
			<path id="XMLID_00000127009804892319301560000000903013210944141497_" class="st11" d="M50.4,137.9l2.7,6.1c0,0-0.7,0.7-2,1.7
				l-2.8-6.3C49.2,138.8,49.9,138.4,50.4,137.9z"/>
			<path id="XMLID_00000119831821624130905340000000289172743593474211_" class="st10" d="M43.6,128.3l1.4-3.1l5.5,12.6
				c-0.5,0.4-1.2,1-2,1.5L43.6,128.3z"/>
			<path id="XMLID_00000075876332994042971160000008123581240875200396_" class="st3" d="M51.1,145.7l2,4.6c0,0-9.6,9.9-21.3,4.6
				l2.4-5.5C41.7,151.7,48.1,148,51.1,145.7z"/>
			<path id="XMLID_00000082359093515853986820000012816149764693780354_" class="st11" d="M51.1,145.7l2,4.6c0,0-9.6,9.9-21.3,4.6
				l2.4-5.5C41.7,151.7,48.1,148,51.1,145.7z"/>
			<path id="XMLID_00000178916882964328916450000013792163880398242215_" class="st4" d="M34.2,149.4l3.2-7.2
				c4.6,0.5,8.5-1.2,11-2.9l2.8,6.3C48.1,148,41.7,151.7,34.2,149.4z"/>
			<path id="XMLID_00000168821341384178971420000005692780907950807201_" class="st11" d="M34.2,149.4l3.2-7.2
				c4.6,0.5,8.5-1.2,11-2.9l2.8,6.3C48.1,148,41.7,151.7,34.2,149.4z"/>
			<path id="XMLID_00000133491807688063077180000001021173386464190090_" class="st10" d="M37.4,142.3l6.2-13.9l4.8,11.1
				C45.9,141,41.9,142.8,37.4,142.3z"/>
			<path id="XMLID_00000093156881983069771540000017940090113739790513_" class="st11" d="M43.6,128.3l1.4-3.1l0.7-1.6l5.8,13.3
				c0,0-0.3,0.4-1.1,0.9c-0.5,0.4-1.2,1-2,1.5c-2.5,1.6-6.4,3.4-11,2.9L43.6,128.3z"/>
		</g>
	</g>
	<path id="XMLID_00000152971537220103809790000017457879838848619923_" class="st12" d="M189.7,104.9"/>
</g>
<g>
	<path class="st13" d="M99.3,57c6.5-4.3,13.3-8,20.6-10.8c0.6-0.2,1.1-0.4,1.8-0.4c0.1,0.1,0.2,0.2,0.3,0.2l0.2,0c0,0.3,0,0.6,0,0.9
		c0,0.1,0,0.2-0.1,0.4c-0.1,0.1-0.1,0.2,0,0.3c-0.9,1.4-0.6,3-0.4,4.5c-0.2,0.5-0.2,1,0.1,1.5c-0.4,0.7-0.1,1.3,0.2,1.9
		c0.9,2.1,2.5,3.7,4.3,5c-0.3,0.2-0.5,0.4-0.8,0.6c-1.5,0.7-3.1,1.3-4.4,2.4c-1.1,0.1-2,0.6-2.6,1.6c-1.3,1.7-1,2.9,0.7,4.2
		c0.4,0.6,0.7,1.1,1.4,1.4c3.9,1.8,7.7,2,11.6,0c5.2-2.7,10.4-5.4,15.7-8c4.9-2.5,9.8-4.8,14.6-7.4c2.9-1.6,2.9-4,0.3-6.1
		c-1.4-1.1-3.1-1.4-4.7-2c0.6-2.1,1.8-4.1,2-6.3c0.1,0,0.2,0,0.2-0.1c8.4,1.2,16.6,3.1,24.2,7c12.2,6.2,21.4,15.4,27,28
		c2.8,6.4,4.4,13.2,4.6,20.3c0.2,6.9-0.4,13.7-1.7,20.4c-0.3,0.1-0.5,0.3-0.6,0.6c-1.8,8.2-5,15.8-9.4,22.9
		c-1.4,2.4-3.2,4.5-4.7,6.9c-1,0.2-1,1-1.1,1.8c-0.8,0.1-1,0.9-1.5,1.5c-2.1,1.6-3.5,3.8-5.5,5.5c-1.1,0.9-2.5,1.6-2.6,3.3l0,0
		c-0.4,0-0.8,0-1.1,0.4c-1.8,1.3-3.7,2.6-5.5,3.9c-1.1,0.8-2.2,1.6-2.9,2.7c-0.8-0.1-1.3,0.4-1.8,0.8c-5.3,3.4-10.9,6.3-16.8,8.6
		c-3.6,1.4-7.2,2.6-10.8,4c-0.7,0-1.4,0.1-2.2,0.3c-7.2,1.7-14.4,2.8-21.8,2.7c-3.8-0.1-7.6-0.2-11.3-0.4c-4.8-0.7-9.4-2-14-3.3
		c-1.7-0.8-3.4-1.6-5.1-2.3c-1.2-0.5-0.9-1-0.4-1.7c0.8-0.4,1.6-0.6,2.3-1.1c2.8-1.7,5.7-3.1,7.5-6.1c2.2-3.8,2-7.8,0.9-11.8
		c-2.6-9.4-7.9-17-15.9-22.6c-6.3-4.4-12.8-6.1-19.7-1.3c-1.3,0.9-3,1.4-4.2,3.1c5.5-0.4,10.1,1.4,14,4.4c6.5,5,11.5,11.3,14.4,19.1
		c2,5.3,2.7,10.5,0.2,15.9c-1.1,0.6-1.7,1.8-2.9,2.5c-4,2.2-7.9,1.3-11.7-0.4c-3.7-1.6-6.7-4.3-9.8-6.8c-0.6-0.7-1.1-1.5-1.8-2.1
		c-1.8-1.7-2.9-4-4.6-5.8c-1.9-3.9-4-7.8-4.6-12.1c-0.6-4.4-0.7-8.8,2.6-12.5c0.5-0.5,0.5-1.1,0.3-1.7c-0.9-3.6-1.1-7.3-1.2-10.9
		c-0.1-4.1,0.4-8.2,1.1-12.2c1.7-9.7,5.4-18.6,10.4-27.1c0.9-1.4,2.3-2.6,2.4-4.4c0.8,0,1.2-0.6,1.6-1.1c2.2-2.6,4.9-4.4,8-5.6
		C89,72,93.6,71.9,98.3,72c0.2,0,0.4,0,0.5-0.1c2.2-1.8,4.5-3.5,6.7-5.3c0.6-0.5,0.3-1.1-0.2-1.6c-1.6-1.8-3.2-3.7-4.8-5.5
		C99.9,58.7,99.1,58.1,99.3,57z M146.3,74.6c-0.1-0.3-0.2-0.3-0.4,0c-4.2-2.8-7.3-2.1-9.7,2.5c-2.9,5.4-4.1,11.3-4.8,17.4
		c-0.1,0.7,0.2,1,0.8,1.1c7.9,1.5,13.6,6.2,18.1,12.7c1.5,2.2,2.4,4.8,4,6.9c0.1,0.2,0.1,0.5,0.2,0.5c1.8,0.5,3.6,0.3,5.4,0.1
		c0.5,0,0.7-0.6,0.6-1c-0.2-1.8,0.4-3.5,0.4-5.3c0-4.3,0-8.7-0.7-13c-0.9-5.9-2.5-11.5-6.2-16.2C152.2,77.6,149.7,75.4,146.3,74.6
		L146.3,74.6z M81.6,115.1c0-3.3-1.5-6.2-4.2-8.5c-2.7-2.2-5.8-1.2-7.3,1.9c-1.8,3.8,0.8,10.3,4.3,12.4c3,1.8,5.9,0.6,7-2.7
		C81.6,117.4,81.5,116.4,81.6,115.1z M115.8,135.9c0.1-3.4-0.9-6.2-3.1-8.5c-1.5-1.6-3.4-2.5-5.6-1.9c-2,0.5-2.8,2.3-3.1,4.1
		c-0.8,4,0.6,7.4,3.4,10.2c2.2,2.2,4.4,2.4,6.3,1C115.3,139.6,116,137.8,115.8,135.9z M74.6,155.4c0-3-2.7-6.8-5.5-7.8
		c-2.3-0.8-3.7,0.3-3.7,2.7c0,2.9,2.9,6.8,5.7,7.7C73.1,158.7,74.5,157.6,74.6,155.4z M88.2,163.2c0-3-2.9-6.9-5.8-7.8
		c-2.1-0.6-3.3,0.3-3.4,2.5c-0.1,3,2.6,6.9,5.5,7.9C86.6,166.5,88.2,165.5,88.2,163.2z"/>
	<path class="st14" d="M98.3,72c-4.7-0.1-9.3,0-13.7,1.7c-3.1,1.2-5.8,3-8,5.6c-0.4,0.5-0.8,1.1-1.6,1.1c-2.8-6.8-5-13.7-5.8-21
		c-0.2-2.1-0.2-4.2,0.2-6.2c0.6-3.3,2.2-5.7,5.5-6.7c2.8,0.1,5.1,1.3,7.3,3c3.5,2.8,6.1,6.3,8.6,9.9C93.6,63.4,96.3,67.5,98.3,72z"
		/>
	<path class="st15" d="M211.3,151.6c-0.3,3.4-0.7,6.8-0.9,10.2c-0.2,3.7-1.8,6.3-5,7.9c-7.3,3.6-14.6,3.5-21.9,0
		c-1.1-0.5-1.9-1.3-2.6-2.2c0.3-1.4,1.7-1.2,2.6-1.6c-0.1,1,0.2,1.7,1.4,1.4c2.5-0.6,4.4-2,5-4.5c0.3-1.3,1.5-3.1-0.9-4
		c0.1-1.7,1.5-2.5,2.6-3.3c2-1.6,3.5-3.9,5.5-5.5c0.8,0.6,1.6,1.2,2.4,1.8c0.4,0.3,0.9,0.5,1.3,0.1c0.5-0.5,0.3-1-0.1-1.4
		c-0.7-0.7-1.4-1.3-2.2-2c0.1-0.8,0.1-1.6,1.1-1.8c0.7-0.1,1.3,0.4,1.8,0.7c2,1.3,4.7,0.5,5.6-1.6c0.3-0.6,0.5-1.4-0.2-1.8
		c-0.7-0.4-0.9,0.4-1.2,0.8c-0.2,0.2-0.4,0.5-0.6,0.7c-0.4,0.3-0.7,1.1-1.3,0.5c-0.4-0.4,0.1-1,0.3-1.5c1.7-3.1,4.8-1.7,7.3-2.4
		c0.3-0.1,0.3,0.6,0.3,0.9C211.7,145.9,211.5,148.7,211.3,151.6z"/>
	<path class="st16" d="M98.3,72c-1.9-4.5-4.6-8.6-7.5-12.6c-2.5-3.6-5.2-7.1-8.6-9.9c-2.2-1.7-4.5-2.9-7.3-3
		c1.9-2.2,4.3-2.1,6.7-1.5c4.4,1.1,7.8,3.9,11.2,6.8c1.7,1.4,3.3,3,4.9,4.5c0.5,0.5,1,0.7,1.6,0.7c-0.1,1.1,0.6,1.8,1.3,2.5
		c1.6,1.8,3.2,3.7,4.8,5.5c0.5,0.5,0.8,1.1,0.2,1.6c-2.2,1.8-4.4,3.6-6.7,5.3C98.7,72,98.4,72,98.3,72z"/>
	<path class="st17" d="M211.9,143.1c0-0.3,0-1-0.3-0.9c-2.5,0.7-5.6-0.6-7.3,2.4c-0.3,0.5-0.8,1-0.3,1.5c0.6,0.6,0.9-0.3,1.3-0.5
		c0.2-0.2,0.4-0.4,0.6-0.7c0.3-0.4,0.5-1.2,1.2-0.8c0.7,0.4,0.5,1.1,0.2,1.8c-1,2.1-3.7,2.9-5.6,1.6c-0.6-0.4-1.1-0.8-1.8-0.7
		c1.4-2.4,3.2-4.5,4.7-6.9c4.3-7.2,7.5-14.8,9.4-22.9c0.1-0.3,0.2-0.5,0.6-0.6c-0.1,1.5-0.2,2.9-0.4,4.4c0,0.3-0.1,0.5-0.1,0.8
		C213.5,128.6,212.8,135.9,211.9,143.1z"/>
	<path class="st18" d="M128.3,34c2.2-3.3,5-6,8.5-7.9c0,0.8,0.7,0.9,1.2,1.2c1.3,1,3,1.1,4,2.6c-0.1,0.4-0.3,0.8-0.4,1.2
		c0,0,0,0,0,0c-0.4,0-0.7,0-1.1,0c-0.3-1.5-1.8-1.5-2.8-2.2c-2.2-1.5-3-1.4-4.8,0.6c-0.7,0.8-0.7,1.3,0.3,1.8
		c1.4,0.6,2.7,1.4,3.9,2.3c-0.1,0.5-0.2,1-0.4,1.4c0,0,0,0,0,0c-0.1,0-0.3,0-0.4,0c-0.9-1-2.3-1.4-3.4-2.1c-1.5-1-2.8-1.5-3.8,0.5
		C129.1,33.9,128.7,34,128.3,34z"/>
	<path class="st19" d="M142,29.9c-0.9-1.5-2.7-1.6-4-2.6c-0.5-0.4-1.2-0.4-1.2-1.2c0.4-0.2,0.7-0.4,1.1-0.5c0.8-0.1,1.5-0.5,2.2-1
		c0.5-0.2,0.9-0.4,1.4-0.5c0.3,0.9,1.3,0.9,1.8,1.4c1,0.8,2.6,0.8,3,2.4c-1.3,0.5-2.6,0.9-3.3,2.2l0,0
		C142.7,29.9,142.3,29.9,142,29.9z"/>
	<path class="st19" d="M123,43.8c0.1-0.2,0.1-0.4,0.2-0.6c0,0,0-0.1,0-0.1c0-0.1,0-0.2,0.1-0.2c0.8-1.3,1.5-1.4,2.8-0.5
		c1.1,0.8,2.2,1.7,3.6,1.9c0.1,1.5-0.9,2.6-1.1,4c-1.5-0.3-2.7-1.2-4.1-1.9C123.4,46,122.6,45.2,123,43.8z"/>
	<path class="st18" d="M129.8,44.3c-1.4-0.2-2.5-1.2-3.6-1.9c-1.3-0.9-2.1-0.8-2.8,0.5c1-3.2,2.4-6.2,4.9-8.6c1.2,2,3.6,2.5,5.3,3.8
		c-0.1,0.6-0.3,1.1-0.7,1.4c-1.4-0.9-2.9-1.7-4.3-2.7c-0.8-0.5-1.6-0.4-2,0.4c-0.5,0.9-1.8,2.2-0.7,2.9c1.6,1.1,3,2.7,5.2,2.7
		C130.5,43.4,130.2,43.9,129.8,44.3z"/>
	<path class="st19" d="M133.5,38.1c-1.7-1.3-4.1-1.8-5.3-3.8c0-0.1,0-0.2,0.1-0.3c0.4,0,0.8-0.1,0.9-0.5c1-2.1,2.3-1.6,3.8-0.5
		c1.1,0.8,2.4,1.1,3.4,2.1c-0.6,0.4-1.2,0.9-1.1,1.8c0,0,0,0,0,0C134.4,36.9,134.3,38.1,133.5,38.1z"/>
	<path class="st19" d="M143.1,23.4c3.3-1.2,6.3-0.1,9.1,1.6c0.5,0.3,1,0.7,1.5,1c-0.1,0.8-0.8,0.6-1.3,0.6c-1.4,0-2.8,0-4.2,0
		C146.7,25.3,144.7,24.6,143.1,23.4z"/>
	<path class="st20" d="M148.2,26.7c1.4,0,2.8,0,4.2,0c0.5,0,1.2,0.2,1.3-0.6c4.5,1.5,6.8,4.5,7,9.1c0,1.8,0.1,3.7-0.5,5.4
		c-0.1,0.1-0.1,0.1-0.2,0.1c-0.4-0.2-0.4-0.6-0.3-1c0.6-1.5,0.3-3,0.3-4.5c0-2.6-0.9-5-2.9-6.6c-2.6-2.2-5.6-1.6-8.6-0.8
		c-1.9,0.5-3.4,2-5.4,2.3c0.8-1.2,2-1.7,3.3-2.2C146.9,27.4,147.9,27.5,148.2,26.7z"/>
	<path class="st18" d="M123,43.8c-0.4,1.5,0.4,2.2,1.6,2.7c1.4,0.6,2.6,1.6,4.1,1.9c-0.2,0.6-0.4,1.2-0.7,1.9c-1.8-1-3.5-2.3-5.6-3
		c-0.1-0.1-0.2-0.2-0.4-0.4c0-0.3,0-0.6,0-0.9c0,0,0,0,0,0c0-0.2,0-0.4,0-0.6C122.4,44.9,122.7,44.3,123,43.8z"/>
	<path class="st18" d="M148.2,26.7c-0.3,0.8-1.3,0.7-1.9,1.1c-0.4-1.6-2-1.6-3-2.4c-0.6-0.5-1.5-0.5-1.8-1.4c0.3-0.7,1-0.6,1.6-0.6
		C144.7,24.6,146.7,25.3,148.2,26.7z"/>
	<path class="st18" d="M140.1,24.5c-0.6,0.5-1.3,0.9-2.2,1C138.4,24.7,139.2,24.4,140.1,24.5z"/>
	<path class="st13" d="M213.8,121.4c0-0.3,0.1-0.5,0.1-0.8C214.1,120.9,214,121.2,213.8,121.4z"/>
	<polygon class="st18" points="123.2,43.1 123.2,43.2 123.1,43.1 	"/>
	<path class="st13" d="M122.1,45.4c0,0.2,0,0.4,0,0.6c0,0-0.2,0-0.2,0c-0.1-0.1-0.2-0.2-0.3-0.2C121.8,45.7,121.9,45.6,122.1,45.4z"
		/>
	<path class="st15" d="M150.1,179.2c-0.4,3-0.8,5.9-1.2,8.9c-0.4,2.7-0.7,5.3-1.1,8c-0.4,2.6-2.2,4.3-4.4,5.3
		c-7.4,3.6-15,3.8-22.4-0.1c-2.7-1.4-4.3-3.7-4.6-7c-0.3-4.2-1.1-8.3-1.7-12.5c3.8,0.3,7.5,0.4,11.3,0.4c7.4,0.1,14.7-1,21.8-2.7
		C148.7,179.3,149.4,179.2,150.1,179.2z"/>
	<path class="st14" d="M94.7,174c2.5-5.3,1.8-10.6-0.2-15.9c-2.9-7.8-7.9-14.1-14.4-19.1c-4-3-8.5-4.8-14-4.4
		c1.2-1.7,2.9-2.1,4.2-3.1c6.9-4.8,13.4-3.1,19.7,1.3c8.1,5.6,13.3,13.2,15.9,22.6c1.1,3.9,1.3,8-0.9,11.8c-1.7,2.9-4.7,4.4-7.5,6.1
		c-0.7,0.4-1.5,0.7-2.3,1.1C95.1,174.3,94.9,174.1,94.7,174z"/>
	<path class="st14" d="M154.4,115.1c-1.7-2.1-2.5-4.7-4-6.9c-4.5-6.4-10.2-11.1-18.1-12.7c-0.6-0.1-0.9-0.4-0.8-1.1
		c0.7-6,1.9-11.9,4.8-17.4c2.4-4.5,5.5-5.3,9.7-2.5c0.1,0,0.2,0,0.4,0c0,0,0,0,0,0c0.1,0.3,0.2,0.6,0.3,0.8c3.3,3.3,4.6,7.6,5.6,12
		C154.3,96.5,154.7,105.7,154.4,115.1z"/>
	<path class="st18" d="M143,29.9c2-0.2,3.5-1.8,5.4-2.3c3-0.8,6-1.4,8.6,0.8c2,1.7,2.9,4,2.9,6.6c0,1.5,0.3,3-0.3,4.5
		c-0.1,0.3-0.1,0.7,0.3,1c-0.2,2.2-1.3,4.2-2,6.3c-3.7,6.4-8.1,12.1-14.8,15.5c-3.9,2-7.9,3.1-12,0.4c-0.2-0.6-0.7-0.7-1.2-0.8
		c-0.2-0.1-0.4-0.2-0.6-0.3c-0.1-0.1-0.2-0.1-0.3-0.2l0,0c0.1-1-0.4-1.7-0.8-2.5c0.7-0.8,0.3-1.7,0.2-2.6c-0.3-1.8-0.4-3.5,0.1-5.3
		c1.2-4.6,3.1-8.8,6-12.6c0.4-0.5,0.7-1,0.7-1.7c0,0,0,0,0,0c1.1-0.1,1.3-1,1.5-1.8c0,0,0,0,0,0c1.2-0.9,2.7-1.4,3.3-3l0,0
		c0.7-0.1,1.4-0.2,1.5-1.1c0,0,0,0,0,0C142.2,31,142.9,30.9,143,29.9L143,29.9z M132.4,53.5c0.1,3.3,2.1,5.5,5.1,5.5
		c1.2,0,2.3,0.1,3.5-0.2c3.8-1.1,6.7-3.6,9.2-6.4c3.7-4.2,6.2-9.1,6.1-14.9c-0.1-3.7-2.9-6.4-6.4-6c-1.6,0.2-3.2,0.6-4.7,1.4
		c-5.8,3.1-9.6,7.9-11.9,13.9C132.4,48.9,131.5,51.2,132.4,53.5z"/>
	<path class="st16" d="M154.4,115.1c0.3-9.3-0.2-18.6-2.2-27.7c-1-4.4-2.3-8.6-5.6-12c-0.2-0.2-0.2-0.5-0.3-0.8
		c3.4,0.8,5.9,3,7.9,5.6c3.7,4.7,5.3,10.3,6.2,16.2c0.7,4.3,0.7,8.6,0.7,13c0,1.8-0.6,3.5-0.4,5.3c0,0.5-0.1,1-0.6,1
		c-1.8,0.2-3.6,0.4-5.4-0.1C154.5,115.5,154.5,115.2,154.4,115.1z"/>
	<path class="st21" d="M131.2,62.9c4.1,2.6,8.1,1.5,12-0.4c6.8-3.4,11.1-9.2,14.8-15.5c1.6,0.6,3.3,0.9,4.7,2
		c2.6,2.1,2.6,4.5-0.3,6.1c-4.8,2.6-9.7,4.9-14.6,7.4c-5.2,2.7-10.5,5.3-15.7,8c-3.9,2.1-7.7,1.9-11.6,0c-0.7-0.3-1-0.8-1.4-1.4
		c0.1-0.5,0.2-1.1,0.4-1.5c0.7-1.4,0.7-2.4-1.1-2.6c0.6-1,1.5-1.4,2.6-1.6c-0.7,2.2,0.2,4.5,2,5.3c2.3,1,4.1,0.3,5.4-2
		c0.2-0.4,0.6-0.7,0.2-1.1c-0.4-0.4-1-0.3-1.4-0.1c-0.3,0.2-0.5,0.6-0.8,0.9c-0.4,0.4-0.8,1-1.3,0.6c-0.6-0.5,0.1-0.9,0.3-1.4
		c0.5-1.2,2.4-1.5,2-3.2c0.6,0,0.9,0.5,1.4,0.8c0.7,0.4,1.4,0.7,1.6-0.5C130.5,62.8,130.8,62.8,131.2,62.9z"/>
	<path class="st15" d="M94.7,174c0.2,0.2,0.3,0.3,0.5,0.5c-0.5,0.7-0.8,1.3,0.4,1.7c1.7,0.6,3.4,1.5,5.1,2.3
		c-2.7,3.3-6.6,4.4-10.6,4.9c-4.7,0.7-9.3,0.1-13.6-1.9c-4-1.8-6-5-6-9.5c0-0.9-0.2-1.8-0.3-2.7c3.1,2.5,6.1,5.2,9.8,6.8
		c3.9,1.6,7.7,2.6,11.7,0.4C93,175.8,93.6,174.6,94.7,174z"/>
	<path class="st14" d="M81.6,115.1c-0.1,1.3,0,2.2-0.3,3.2c-1.1,3.3-4,4.5-7,2.7c-3.5-2.1-6.1-8.6-4.3-12.4c1.5-3.2,4.6-4.1,7.3-1.9
		C80.1,108.9,81.6,111.8,81.6,115.1z"/>
	<path class="st14" d="M115.8,135.9c0.3,1.9-0.5,3.7-2.2,4.9c-1.9,1.3-4.1,1.1-6.3-1c-2.8-2.8-4.2-6.2-3.4-10.2
		c0.4-1.9,1.1-3.6,3.1-4.1c2.2-0.6,4.1,0.2,5.6,1.9C114.8,129.7,115.9,132.5,115.8,135.9z"/>
	<path class="st21" d="M74.6,155.4c0,2.2-1.4,3.3-3.5,2.6c-2.8-0.9-5.7-4.8-5.7-7.7c0-2.4,1.4-3.5,3.7-2.7
		C71.9,148.6,74.6,152.4,74.6,155.4z"/>
	<path class="st21" d="M88.2,163.2c0,2.2-1.6,3.3-3.7,2.6c-2.9-1-5.6-4.9-5.5-7.9c0.1-2.2,1.3-3.1,3.4-2.5
		C85.3,156.3,88.2,160.2,88.2,163.2z"/>
	<path class="st17" d="M189.1,158.9c2.4,0.8,1.2,2.7,0.9,4c-0.6,2.5-2.5,3.9-5,4.5c-1.2,0.3-1.5-0.4-1.4-1.4
		c1.4-0.1,2.1-0.8,2.4-2.6c0.1-0.2-0.1,0-0.2,0.2c-0.1,0.4,0.3,0.1,0.3,0.1c0.2-0.1,0.3-0.3,0.5-0.4c-0.1-0.1-0.2-0.2-0.6,0.1
		c-1.5,0.6-1.6,1.9-2.4,2.6c-1,0.4-2.3,0.2-2.6,1.6c-0.7-0.4-1.1-0.9-1.4-1.6c0.7-1.2,1.8-1.9,2.9-2.7c1.8-1.3,3.7-2.6,5.5-3.9
		c0.5,1.2-1.2,1.9-1,3.2C188.3,161.5,189,160.4,189.1,158.9L189.1,158.9z"/>
	<path class="st22" d="M127.2,62.4c0.4,1.7-1.5,2.1-2,3.2c-0.2,0.5-0.9,0.9-0.3,1.4c0.6,0.4,1-0.2,1.3-0.6c0.3-0.3,0.5-0.7,0.8-0.9
		c0.4-0.2,1-0.3,1.4,0.1c0.4,0.4,0,0.8-0.2,1.1c-1.3,2.3-3.1,2.9-5.4,2c-1.8-0.8-2.7-3.1-2-5.3c1.3-1.1,2.9-1.7,4.4-2.4
		c0.1,0.9,0.8,0.9,1.5,1.1l0,0C127,62.2,127.1,62.3,127.2,62.4L127.2,62.4z"/>
	<path class="st19" d="M122.4,47.3c2,0.6,3.7,1.9,5.6,3c-0.1,1.5-0.3,2.9-0.4,4.4c-2.1-0.5-3.6-2-5.5-2.9c0-1.4-0.1-2.8-0.1-4.2
		c0-0.1,0-0.2,0-0.3C122.1,47.3,122.3,47.3,122.4,47.3z"/>
	<path class="st23" d="M128.3,59.1c0.3,0.8,0.9,1.6,0.8,2.5c-0.5-0.1-0.9-0.2-1.4-0.3c-0.4-0.5-0.9-0.7-1.5-0.8
		c-1.9-1.3-3.4-2.8-4.3-5c-0.3-0.6-0.6-1.2-0.2-1.9c0.5,0.4,0.9,0.8,1.4,1.1c-0.2,1.7,0.6,3,1.9,3.8c1.3,0.9,1.5-1.1,2.4-1.2
		c0.1,0,0.1,0,0.2,0C127.9,57.8,128.1,58.5,128.3,59.1z"/>
	<path class="st18" d="M123.1,54.7c-0.5-0.4-0.9-0.8-1.4-1.1c-0.3-0.5-0.3-1-0.1-1.5c0.2-0.1,0.3-0.2,0.5-0.3
		c1.9,0.9,3.4,2.4,5.5,2.9c0,0.6,0,1.2,0,1.9C125.9,56.2,124.9,54.5,123.1,54.7z"/>
	<path class="st17" d="M198.6,148.6c0.7,0.7,1.4,1.3,2.2,2c0.4,0.4,0.6,0.9,0.1,1.4c-0.4,0.4-0.9,0.3-1.3-0.1
		c-0.8-0.6-1.6-1.2-2.4-1.8C197.6,149.5,197.8,148.7,198.6,148.6z"/>
	<path class="st22" d="M118.3,64.9c1.8,0.3,1.8,1.3,1.1,2.6c-0.2,0.5-0.3,1-0.4,1.5C117.3,67.9,117.1,66.7,118.3,64.9z"/>
	<path class="st15" d="M189.1,158.9c-0.1,1.5-0.7,2.6-2.1,3.6c-0.2-1.4,1.5-2,1-3.2C188.2,158.9,188.6,158.9,189.1,158.9z"/>
	<path class="st23" d="M122,51.7c-0.2,0.1-0.3,0.2-0.5,0.3c-0.2-1.5-0.5-3.1,0.4-4.5C122,48.9,122,50.3,122,51.7z"/>
	<path class="st21" d="M126.2,60.4c0.5,0.2,1.1,0.4,1.5,0.8c-0.5,0-0.8,0.2-0.8,0.8c-0.7-0.1-1.3-0.2-1.5-1.1
		C125.6,60.8,125.9,60.6,126.2,60.4z"/>
	<path class="st23" d="M122.4,47.3c-0.1,0-0.3,0-0.4,0c0-0.1,0-0.2,0.1-0.4C122.2,47,122.3,47.1,122.4,47.3z"/>
	<polygon class="st23" points="121.9,46 122.1,46 122.1,46 	"/>
	<path class="st16" d="M146.3,74.6c-0.1,0-0.2,0-0.4,0C146.1,74.3,146.2,74.3,146.3,74.6z"/>
	<path class="st19" d="M137.1,33.7c-1.2-1-2.5-1.7-3.9-2.3c-1-0.5-1-1-0.3-1.8c1.8-2,2.6-2.2,4.8-0.6c1,0.7,2.5,0.7,2.8,2.2
		c-0.2,0.3-0.5,0.6-0.4,1.1c0,0,0,0,0,0C138.8,32.1,138.3,33.5,137.1,33.7z"/>
	<path class="st20" d="M137.1,33.7c1.2-0.2,1.7-1.6,2.9-1.5c-0.6,1.5-2.1,2.1-3.3,3C136.9,34.7,137,34.2,137.1,33.7z"/>
	<path class="st20" d="M136.8,35.1c-0.2,0.9-0.3,1.7-1.5,1.8c-0.1-0.9,0.5-1.4,1.1-1.8C136.5,35.1,136.6,35.1,136.8,35.1z"/>
	<path class="st20" d="M140.1,32.2c-0.1-0.4,0.2-0.7,0.4-1.1c0.4,0,0.7,0,1.1,0C141.4,32,140.8,32.1,140.1,32.2z"/>
	<path class="st20" d="M143,30c-0.1,0.9-0.8,1-1.5,1.1c0.1-0.4,0.3-0.8,0.4-1.2C142.3,29.9,142.7,29.9,143,30z"/>
	<path class="st20" d="M127.6,56.5c0-0.6,0-1.2,0-1.9c0.1-1.5,0.3-2.9,0.4-4.4c0.2-0.6,0.4-1.2,0.7-1.9c0.2-1.4,1.3-2.5,1.1-4
		c0.4-0.5,0.7-1,1.1-1.5c0.6-1.1,1.2-2.2,1.8-3.3c0.5-0.4,0.6-0.9,0.7-1.4c0.8,0,0.9-1.3,1.8-1.2c0,0.7-0.3,1.2-0.7,1.7
		c-2.9,3.8-4.8,8-6,12.6c-0.5,1.7-0.3,3.5-0.1,5.3c0.1,0.9,0.5,1.8-0.2,2.6c-0.2-0.6-0.5-1.2-0.7-1.8
		C127.6,57,127.6,56.8,127.6,56.5z"/>
	<path class="st19" d="M132.7,39.6c-0.6,1.1-1.2,2.2-1.8,3.3c-2.2,0-3.6-1.6-5.2-2.7c-1.1-0.7,0.2-2,0.7-2.9c0.5-0.8,1.2-0.9,2-0.4
		C129.8,37.8,131.3,38.7,132.7,39.6z"/>
	<path class="st24" d="M132.4,53.5c-0.8-2.4,0-4.6,0.8-6.7c2.4-6,6.1-10.9,11.9-13.9c1.5-0.8,3.1-1.3,4.7-1.4c3.5-0.3,6.3,2.3,6.4,6
		c0.1,5.8-2.4,10.7-6.1,14.9c-2.5,2.9-5.4,5.4-9.2,6.4c-1.2,0.3-2.3,0.2-3.5,0.2c-0.2-1.2,0.1-2.2,1.3-2.9c1.2-0.8,1.5-2,1.3-3.3
		c0.3,0,0.6-0.1,0.8-0.4c0.9,0.1,1.7,0.8,2.6,0.3c0.6-0.3,0.6,0.1,0.7,0.5c0.1,0.4,0.2,0.7,0.7,0.6c0.5-0.1,0.8-0.4,0.8-0.9
		c-0.2-1.4,0.7-2.1,1.6-2.9c0.8-0.7,1.4-1.5,1.8-2.5c0.4-1.2,0.8-2.6-0.1-3.7c-0.9-1-2.1-0.6-3.3-0.2c-0.6,0.2-1.2,0.4-1.8,0.3
		c-0.5,0-0.9-0.2-1-0.6c-0.2-1.1,0.6-1.8,1.3-2.5c0.7-0.7,1.5-1.7,2.4-1c1,0.6,1.5,0.2,2.1-0.3c0.3-0.2,0.3-0.6,0.1-1
		c-0.4-0.7-1.1-1-1.9-0.8c-0.8,0.2-1.3,0.3-1.4-0.7c0-0.5-0.6-0.3-0.9-0.4c-0.2,0.1-0.3,0.2-0.5,0.4c0,0,0,0,0,0
		c-0.7-0.1-1.5,0.1-1.4,1c0,1.1-0.6,1.7-1.3,2.3c-0.7,0.6-1.2,1.4-1.7,2.3c-0.6-0.2-1.1-0.5-1.7-0.6c-0.5-0.2-1-0.2-1.3,0.3
		c-0.4,0.5,0.2,0.7,0.4,1.1c0.5,0.8,1.1,1.5,1.5,2.3c0.3,0.6,0.7,1.4-0.7,1.4c-1.2,0.1-1.3,0.7-0.5,1.5c0.7,0.7,1.5,1.2,1.9,2.1
		c0,0.1,0,0.2-0.1,0.4c-0.3-0.1-0.7-0.1-1-0.3c-3.3-2-4.6-1.6-5.6,2.2C132.7,53.2,132.5,53.3,132.4,53.5z M135.8,44.4
		c-0.5,0.2-1.1,0.5-1.2,1.3c0,0.7,0.5,0.9,1.1,0.9c0.7-0.1,1.3-0.5,1.3-1.3C137.1,44.6,136.6,44.4,135.8,44.4z"/>
	<path class="st25" d="M132.4,53.5c0.1-0.2,0.3-0.4,0.3-0.6c1-3.8,2.2-4.2,5.6-2.2c0.3,0.2,0.7,0.2,1,0.3c0,0.7,0,1.5,0.8,1.8
		c0.2,1.4-0.1,2.6-1.3,3.3c-1.1,0.7-1.4,1.7-1.3,2.9C134.5,59,132.5,56.9,132.4,53.5z M137.9,53.8c0.1-1.3-1.1-1.8-2-2
		c-1-0.1-1.7,0.6-1.7,1.9c0,1.4,0.9,1.9,2.1,2C137.4,55.8,137.9,55,137.9,53.8z"/>
	<path class="st22" d="M126.8,62c0-0.5,0.4-0.7,0.8-0.8c0.5,0.1,0.9,0.2,1.4,0.3c0,0,0,0,0,0c0,0.2,0.1,0.3,0.3,0.2
		c0.2,0.1,0.4,0.2,0.6,0.3c0.1,0.2,0.1,0.4,0.2,0.6c-0.2,1.1-0.9,0.9-1.6,0.5c-0.4-0.3-0.8-0.8-1.4-0.8l0,0
		C127.1,62.3,127,62.2,126.8,62L126.8,62z"/>
	<path class="st23" d="M130.2,62.7c-0.1-0.2-0.1-0.4-0.2-0.6c0.5,0,1,0.1,1.2,0.8C130.8,62.8,130.5,62.8,130.2,62.7z"/>
	<path class="st23" d="M129.4,61.9c-0.2,0.1-0.3,0-0.3-0.2C129.2,61.7,129.3,61.8,129.4,61.9z"/>
	<path class="st15" d="M183.5,165.9c0.8-0.7,0.9-2,2.2-2.2C185.7,165.1,185,165.9,183.5,165.9z"/>
	<path class="st15" d="M186.1,162.9c0.2,0.1,0.3,0.2,0.5,0.3c-0.2,0.1-0.3,0.3-0.5,0.4c0,0-0.4,0.3-0.3-0.1
		C185.8,163.3,186,163.2,186.1,162.9z"/>
	<path class="st21" d="M126.8,62c0.1,0.1,0.2,0.2,0.4,0.4C127.1,62.3,127,62.2,126.8,62z"/>
	<path class="st19" d="M127.6,56.5c0,0.2,0,0.5,0.1,0.7c-0.1,0-0.1,0-0.2,0c-0.9,0.2-1.1,2.1-2.4,1.2c-1.3-0.9-2.1-2.1-1.9-3.8
		C124.9,54.5,125.9,56.2,127.6,56.5z"/>
	<path class="st18" d="M144.6,36.6c0.3,0,0.9-0.1,0.9,0.4c0.1,1.1,0.6,0.9,1.4,0.7c0.8-0.2,1.5,0.1,1.9,0.8c0.2,0.4,0.2,0.7-0.1,1
		c-0.6,0.5-1.1,0.9-2.1,0.3c-1-0.7-1.8,0.4-2.4,1c-0.7,0.7-1.5,1.4-1.3,2.5c0.1,0.5,0.5,0.6,1,0.6c0.6,0,1.2-0.1,1.8-0.3
		c1.1-0.4,2.4-0.8,3.3,0.2c0.9,1.1,0.6,2.4,0.1,3.7c-0.4,1-1,1.9-1.8,2.5c-0.9,0.8-1.8,1.5-1.6,2.9c0.1,0.5-0.3,0.8-0.8,0.9
		c-0.5,0.1-0.6-0.3-0.7-0.6c-0.1-0.4-0.1-0.8-0.7-0.5c-0.9,0.5-1.7-0.2-2.6-0.3c0-0.6-1-1-0.4-1.8c0,0,0,0,0,0
		c0.2-0.1,0.5-0.3,0.7-0.4c0.5-0.3,1-0.3,1.5,0c0.3,0.5,0.7,0.9,1.2,0.6c1.3-0.7,2.7-1.2,3.3-2.7c0.7-1.6,0.3-2.2-1.5-2.2
		c-1.4,0-2.6,0.9-4,0.7c-1.3-1.8-1.2-4,0.6-5.8c1.1-1.1,2.1-2.1,2-3.8c0,0,0,0,0,0C144.3,36.9,144.5,36.8,144.6,36.6z"/>
	<path class="st25" d="M141.6,46.6c1.4,0.2,2.6-0.7,4-0.7c1.1,0.6,0.6,1.5,0.2,2.2c-0.6,1.4-1.5,2.4-3.2,2.2c-0.5-0.3-1-0.3-1.5,0
		c-0.6-0.5-0.7,0-0.7,0.4c0,0,0,0,0,0c-0.4,0-0.7,0-1.1,0c-0.4-0.9-1.3-1.4-1.9-2.1c-0.8-0.8-0.8-1.5,0.5-1.5c1.4-0.1,1-0.8,0.7-1.4
		c-0.4-0.8-1-1.5-1.5-2.3c-0.2-0.3-0.8-0.5-0.4-1.1c0.3-0.5,0.8-0.4,1.3-0.3c0.6,0.2,1.1,0.4,1.7,0.6
		C139.2,45.7,139.4,46.1,141.6,46.6z"/>
	<path class="st26" d="M141.6,46.6c-2.2-0.4-2.4-0.8-1.9-4c0.5-0.8,1-1.6,1.7-2.3c0.7-0.6,1.3-1.2,1.3-2.3c0-0.9,0.7-1,1.4-1
		c0.2,1.7-0.9,2.6-2,3.8C140.4,42.6,140.3,44.8,141.6,46.6z"/>
	<path class="st25" d="M135.8,44.4c0.8,0,1.3,0.2,1.3,0.9c0,0.8-0.6,1.2-1.3,1.3c-0.6,0.1-1.1-0.2-1.1-0.9
		C134.7,44.9,135.3,44.5,135.8,44.4z"/>
	<path class="st26" d="M139.4,50.6c0.4,0,0.7,0,1.1,0c-0.6,0.8,0.4,1.2,0.4,1.8c-0.2,0.3-0.5,0.4-0.8,0.4c-0.8-0.4-0.8-1.1-0.8-1.8
		C139.3,50.9,139.3,50.7,139.4,50.6z"/>
	<path class="st26" d="M144.6,36.6c-0.2,0.1-0.3,0.2-0.5,0.4C144.3,36.9,144.5,36.8,144.6,36.6z"/>
	<path class="st24" d="M137.9,53.8c0,1.3-0.5,2-1.6,1.9c-1.2-0.1-2-0.6-2.1-2c0-1.2,0.6-2,1.7-1.9C136.8,52,138,52.5,137.9,53.8z"/>
	<path class="st26" d="M142.6,50.2c1.7,0.2,2.6-0.8,3.2-2.2c0.3-0.7,0.8-1.6-0.2-2.2c1.8,0.1,2.1,0.6,1.5,2.2
		c-0.6,1.5-2,2.1-3.3,2.7C143.3,51.1,142.9,50.7,142.6,50.2z"/>
	<path class="st26" d="M140.5,50.6c0-0.5,0.1-0.9,0.7-0.4C140.9,50.4,140.7,50.5,140.5,50.6z"/>
</g>
</svg>
