<?xml version="1.0" encoding="utf-8"?>
<!-- Generator: Adobe Illustrator 26.0.3, SVG Export Plug-In . SVG Version: 6.00 Build 0)  -->
<svg version="1.1" id="Ebene_1" xmlns="http://www.w3.org/2000/svg" xmlns:xlink="http://www.w3.org/1999/xlink" x="0px" y="0px"
	 viewBox="0 0 375 550" style="enable-background:new 0 0 375 550;" xml:space="preserve">
<style type="text/css">
	.st0{fill:#473437;}
	.st1{fill:#82BD53;}
	.st2{opacity:0.57;fill:#44A84E;enable-background:new    ;}
	.st3{fill:#056938;}
	.st4{fill:#F9B03D;}
	.st5{fill:#009245;}
	.st6{fill:#754D24;}
	.st7{fill:#48AE4D;}
	.st8{opacity:0.39;fill:#010202;enable-background:new    ;}
	.st9{opacity:0.41;}
	.st10{fill:#010202;}
	.st11{fill:#44A84E;}
	.st12{opacity:0.41;fill:#010202;enable-background:new    ;}
	.st13{fill:#C3C4C6;}
	.st14{fill:#97989A;}
	.st15{fill:#BC6817;}
	.st16{fill:#DE9F5C;}
	.st17{fill:#D3842F;}
	.st18{fill:#BC6818;}
	.st19{fill:#A34617;}
	.st20{fill:#BB6417;}
	.st21{fill:#ADADB1;}
	.st22{fill:#77797D;}
	.st23{opacity:0.49;fill:#515152;enable-background:new    ;}
	.st24{fill:#515152;}
	.st25{fill:#474649;}
	.st26{fill:#D5D5D6;}
	.st27{fill:#8F9194;}
	.st28{fill:none;stroke:#474649;stroke-width:2;stroke-miterlimit:10;}
	.st29{fill:#F3F7E8;}
	.st30{font-family:'Roboto-Bold';}
	.st31{font-size:25.9211px;}
	.st32{fill:#4E4D4F;}
	.st33{fill:#747476;}
</style>
<g id="Ebene_3">
</g>
<g>
	<g>
		<polygon id="XMLID_574_" class="st0" points="45.7,418.9 187.8,498.3 329.7,418.9 329.7,366.2 188,448 46,366.2 		"/>
		<polygon id="XMLID_569_" class="st1" points="37.1,347 187.5,432.3 338.1,347 181.7,263.8 		"/>
		<path id="XMLID_578_" class="st2" d="M268.5,401.1"/>
		<path id="XMLID_575_" class="st3" d="M61.7,411l13-7.6v-19.2c0,0-9.3-18.5-13-7L61.7,411z"/>
		<polygon id="XMLID_550_" class="st3" points="98.2,418.5 106.7,413.8 106.7,399.2 97.7,399.2 		"/>
		<polygon id="XMLID_579_" class="st3" points="313.7,406.5 301.7,400.2 301.1,370.5 316.5,366.6 		"/>
		<polygon id="XMLID_581_" class="st3" points="226.7,457.2 218.4,452.2 216.8,428.8 228.6,430.4 		"/>
		<path id="XMLID_583_" class="st4" d="M205.7,378.6c0,0-5.8,6.3-0.5,7.5s13.2-3.4,15.3,0.9c2.2,4.2,7.1,21.9,11.9,19.6
			c4.7-2.3,39.7-22.1,39.7-22.1s9.8-4.5,0-5.7s-24.7-24.2-24.7-24.2L205.7,378.6z"/>
		<ellipse id="XMLID_582_" class="st5" cx="176" cy="405.3" rx="6.7" ry="3.8"/>
		<ellipse id="XMLID_584_" class="st5" cx="275" cy="337.3" rx="6.7" ry="3.8"/>
		<ellipse id="XMLID_585_" class="st5" cx="192.9" cy="409.1" rx="4.6" ry="2.6"/>
		<g id="tree_x5F_1">
			<ellipse id="XMLID_586_" class="st5" cx="63.1" cy="348" rx="9.8" ry="5.5"/>
			<path id="XMLID_587_" class="st6" d="M64.3,349.5h-1.6c-1.3,0-2.4-1.1-2.4-2.4v-10.5c0-1.3,1.1-2.4,2.4-2.4h1.6
				c1.3,0,2.4,1.1,2.4,2.4v10.5C66.7,348.4,65.6,349.5,64.3,349.5z"/>
			<g id="XMLID_589_">
				<path id="XMLID_603_" class="st5" d="M49.8,317.2l-3.3,7.5c0,0,0.9,0.9,2.4,2.1l3.4-7.7C51.3,318.3,50.4,317.7,49.8,317.2z"/>
				<path id="XMLID_602_" class="st5" d="M78.5,326.4c0.6-0.5,1.3-1.1,1.9-1.7l-3.2-7.6c-0.7,0.6-1.3,1.1-2,1.6L78.5,326.4z"/>
				<path id="XMLID_600_" class="st3" d="M78.5,326.4c-12.8,10.6-24.6,4.1-29.5,0.3l-2.4,5.6c0,0,16.6,17.1,34.4,0L78.5,326.4z"/>
				<path id="XMLID_599_" class="st5" d="M78.5,326.4l-3.2-7.7c-9.5,6.8-18.2,3.4-23,0.3l-3.4,7.7C53.9,330.5,65.7,337,78.5,326.4z"
					/>
				<path id="XMLID_6_" class="st7" d="M63.8,280.8L48.5,316c0,0,0.4,0.5,1.3,1.1c0.6,0.5,1.5,1.2,2.5,1.8c4.8,3.1,13.5,6.5,23-0.3
					c0.7-0.5,1.3-1,2-1.6c0.4-0.3,0.8-0.7,1.2-1.1L63.8,280.8z"/>
			</g>
			<g id="XMLID_605_">
				<path id="XMLID_618_" class="st7" d="M49.8,317.2l6.7-15.5l-0.9-2L48.5,316C48.5,316,49,316.5,49.8,317.2z"/>
				<path id="XMLID_620_" class="st5" d="M49.8,317.2l-3.3,7.5c0,0,0.9,0.9,2.4,2.1l3.4-7.7C51.3,318.3,50.4,317.7,49.8,317.2z"/>
				<path id="XMLID_619_" class="st8" d="M49.8,317.2l-3.3,7.5c0,0,0.9,0.9,2.4,2.1l3.4-7.7C51.3,318.3,50.4,317.7,49.8,317.2z"/>
				<path id="XMLID_622_" class="st7" d="M58.2,305.4l-1.7-3.8l-6.7,15.5c0.6,0.5,1.5,1.2,2.5,1.8L58.2,305.4z"/>
				<path id="XMLID_624_" class="st3" d="M48.9,326.7l-2.4,5.6c0,0,11.8,12.2,26.2,5.7l-3-6.8C60.5,334.1,52.7,329.6,48.9,326.7z"/>
				<path id="XMLID_623_" class="st8" d="M48.9,326.7l-2.4,5.6c0,0,11.8,12.2,26.2,5.7l-3-6.8C60.5,334.1,52.7,329.6,48.9,326.7z"/>
				<path id="XMLID_626_" class="st5" d="M69.7,331.3l-3.9-8.8c-5.6,0.6-10.4-1.5-13.5-3.5l-3.4,7.7
					C52.7,329.6,60.5,334.1,69.7,331.3z"/>
				<path id="XMLID_625_" class="st8" d="M69.7,331.3l-3.9-8.8c-5.6,0.6-10.4-1.5-13.5-3.5l-3.4,7.7
					C52.7,329.6,60.5,334.1,69.7,331.3z"/>
				<path id="XMLID_628_" class="st7" d="M65.8,322.5l-7.6-17.1L52.3,319C55.4,321,60.2,323.2,65.8,322.5z"/>
				<path id="XMLID_8_" class="st8" d="M58.2,305.4l-1.7-3.8l-0.9-2l-7.1,16.3c0,0,0.4,0.5,1.3,1.1c0.6,0.5,1.5,1.2,2.5,1.8
					c3.1,2,7.9,4.2,13.5,3.5L58.2,305.4z"/>
			</g>
		</g>
		<g id="XMLID_696_" class="st9">
			<path id="XMLID_689_" class="st10" d="M95,420.8l46.4,27.1c0,0,13.5,1.2,2.2-9.1L102.7,416L95,420.8z"/>
			<path id="XMLID_691_" class="st10" d="M258.4,450l15-7.1c0,0,7.7-7.3,0-8.1l-15,7.6C258.4,442.5,250.4,451.7,258.4,450z"/>
			<path id="XMLID_692_" class="st10" d="M247.3,437.3l50.8-25.6c0,0,11.8-15.2-1.3-10.2l-53.5,28.4L247.3,437.3z"/>
			<path id="XMLID_693_" class="st10" d="M329.7,409.9l-42.2,25c0,0-8.3-2.1,0-9.3l42.2-24.1V409.9z"/>
			<path id="XMLID_694_" class="st10" d="M200.9,461.7l12.9-8.5c0,0,5.5-4.6,0-6.4l-12.9,7.4C200.9,454.3,193.6,461.2,200.9,461.7z"
				/>
			<path id="XMLID_695_" class="st10" d="M119.2,450l-18.2-9.3c0,0-5.2-6.2,0.2-5.9l18,8.1C119.2,443,125.7,450.2,119.2,450z"/>
			
				<ellipse id="XMLID_684_" transform="matrix(0.363 -0.9318 0.9318 0.363 -317.4273 437.2315)" class="st10" cx="161.1" cy="450.8" rx="3.2" ry="5.6"/>
		</g>
		<polygon id="XMLID_580_" class="st3" points="277.9,414.8 269.7,409.2 269.7,397.2 280.7,392.2 		"/>
		<path id="XMLID_577_" class="st11" d="M277.7,399.1l-20.6,11.1c0,0-6.9,4.5-5.9,10.4c1,5.8,0,21.6,0,21.6s-7.5,23.6-24.5,15v-21
			c0,0,6-16.8-39.7,12.8l7.8-16.7l82.9-43V399.1z"/>
		<path id="XMLID_576_" class="st11" d="M338.1,361.2c0,0-0.5,27-2.4,31.1c-1.4,3-6,27.5-22,14.3v-31.4c0,0-5-7.5-12,7.5v17.5
			c0,0-8,24.1-24,14.5v-25.5l58.4-34L338.1,361.2z"/>
		<polygon id="XMLID_1_" class="st11" points="338.1,347 187.5,432.3 37.1,347 36.7,362.1 187,449 338.3,363 		"/>
		<path id="XMLID_546_" class="st11" d="M36.7,362.2v37c0,0,12,24.5,25,11.7v-33.7c0,0,3-11.7,13,6.8v22.2c0,0,13,24.2,23,12.3
			v-12.3c0,0,2.4-6.5,9.4-3.4s6.2-4.7,6.2-4.7L51,359.7L36.7,362.2z"/>
		<polygon id="XMLID_2_" class="st12" points="292.2,440.4 187.8,498.3 84.2,440.4 58.2,454.4 187,527.6 320.3,454.4 		"/>
		<g id="tree_x5F_2">
			<ellipse id="XMLID_27_" class="st5" cx="98.1" cy="324" rx="9.8" ry="5.5"/>
			<path id="XMLID_26_" class="st6" d="M99.3,325.5h-1.6c-1.3,0-2.4-1.1-2.4-2.4v-10.5c0-1.3,1.1-2.4,2.4-2.4h1.6
				c1.3,0,2.4,1.1,2.4,2.4v10.5C101.7,324.4,100.6,325.5,99.3,325.5z"/>
			<g id="XMLID_20_">
				<path id="XMLID_25_" class="st5" d="M84.8,293.2l-3.3,7.5c0,0,0.9,0.9,2.4,2.1l3.4-7.7C86.3,294.3,85.4,293.7,84.8,293.2z"/>
				<path id="XMLID_24_" class="st5" d="M113.5,302.4c0.6-0.5,1.3-1.1,1.9-1.7l-3.2-7.6c-0.7,0.6-1.3,1.1-2,1.6L113.5,302.4z"/>
				<path id="XMLID_23_" class="st3" d="M113.5,302.4c-12.8,10.6-24.6,4.1-29.5,0.3l-2.4,5.6c0,0,16.6,17.1,34.4,0L113.5,302.4z"/>
				<path id="XMLID_22_" class="st5" d="M113.5,302.4l-3.2-7.7c-9.5,6.8-18.2,3.4-23,0.3l-3.4,7.7C88.9,306.5,100.7,313,113.5,302.4
					z"/>
				<path id="XMLID_21_" class="st7" d="M98.8,256.8L83.5,292c0,0,0.4,0.5,1.3,1.1c0.6,0.5,1.5,1.2,2.5,1.8c4.8,3.1,13.5,6.5,23-0.3
					c0.7-0.5,1.3-1,2-1.6c0.4-0.3,0.8-0.7,1.2-1.1L98.8,256.8z"/>
			</g>
			<g id="XMLID_9_">
				<path id="XMLID_19_" class="st7" d="M84.8,293.2l6.7-15.5l-0.9-2L83.5,292C83.5,292,84,292.5,84.8,293.2z"/>
				<path id="XMLID_18_" class="st5" d="M84.8,293.2l-3.3,7.5c0,0,0.9,0.9,2.4,2.1l3.4-7.7C86.3,294.3,85.4,293.7,84.8,293.2z"/>
				<path id="XMLID_17_" class="st8" d="M84.8,293.2l-3.3,7.5c0,0,0.9,0.9,2.4,2.1l3.4-7.7C86.3,294.3,85.4,293.7,84.8,293.2z"/>
				<path id="XMLID_16_" class="st7" d="M93.2,281.4l-1.7-3.8l-6.7,15.5c0.6,0.5,1.5,1.2,2.5,1.8L93.2,281.4z"/>
				<path id="XMLID_15_" class="st3" d="M83.9,302.7l-2.4,5.6c0,0,11.8,12.2,26.2,5.7l-3-6.8C95.5,310.1,87.7,305.6,83.9,302.7z"/>
				<path id="XMLID_14_" class="st8" d="M83.9,302.7l-2.4,5.6c0,0,11.8,12.2,26.2,5.7l-3-6.8C95.5,310.1,87.7,305.6,83.9,302.7z"/>
				<path id="XMLID_13_" class="st5" d="M104.7,307.3l-3.9-8.8c-5.6,0.6-10.4-1.5-13.5-3.5l-3.4,7.7
					C87.7,305.6,95.5,310.1,104.7,307.3z"/>
				<path id="XMLID_12_" class="st8" d="M104.7,307.3l-3.9-8.8c-5.6,0.6-10.4-1.5-13.5-3.5l-3.4,7.7
					C87.7,305.6,95.5,310.1,104.7,307.3z"/>
				<path id="XMLID_11_" class="st7" d="M100.8,298.5l-7.6-17.1L87.3,295C90.4,297,95.2,299.2,100.8,298.5z"/>
				<path id="XMLID_10_" class="st8" d="M93.2,281.4l-1.7-3.8l-0.9-2l-7.1,16.3c0,0,0.4,0.5,1.3,1.1c0.6,0.5,1.5,1.2,2.5,1.8
					c3.1,2,7.9,4.2,13.5,3.5L93.2,281.4z"/>
			</g>
		</g>
		<g id="tree_x5F_3">
			<ellipse id="XMLID_47_" class="st5" cx="308.1" cy="345" rx="9.8" ry="5.5"/>
			<path id="XMLID_46_" class="st6" d="M309.3,346.5h-1.6c-1.3,0-2.4-1.1-2.4-2.4v-10.5c0-1.3,1.1-2.4,2.4-2.4h1.6
				c1.3,0,2.4,1.1,2.4,2.4v10.5C311.7,345.4,310.6,346.5,309.3,346.5z"/>
			<g id="XMLID_40_">
				<path id="XMLID_45_" class="st5" d="M294.8,314.2l-3.3,7.5c0,0,0.9,0.9,2.4,2.1l3.4-7.7C296.3,315.3,295.4,314.7,294.8,314.2z"
					/>
				<path id="XMLID_44_" class="st5" d="M323.5,323.4c0.6-0.5,1.3-1.1,1.9-1.7l-3.2-7.6c-0.7,0.6-1.3,1.1-2,1.6L323.5,323.4z"/>
				<path id="XMLID_43_" class="st3" d="M323.5,323.4c-12.8,10.6-24.6,4.1-29.5,0.3l-2.4,5.6c0,0,16.6,17.1,34.4,0L323.5,323.4z"/>
				<path id="XMLID_42_" class="st5" d="M323.5,323.4l-3.2-7.7c-9.5,6.8-18.2,3.4-23,0.3l-3.4,7.7
					C298.9,327.5,310.7,334,323.5,323.4z"/>
				<path id="XMLID_41_" class="st7" d="M308.8,277.8L293.5,313c0,0,0.4,0.5,1.3,1.1c0.6,0.5,1.5,1.2,2.5,1.8
					c4.8,3.1,13.5,6.5,23-0.3c0.7-0.5,1.3-1,2-1.6c0.4-0.3,0.8-0.7,1.2-1.1L308.8,277.8z"/>
			</g>
			<g id="XMLID_29_">
				<path id="XMLID_39_" class="st7" d="M294.8,314.2l6.7-15.5l-0.9-2l-7.1,16.3C293.5,313,294,313.5,294.8,314.2z"/>
				<path id="XMLID_38_" class="st5" d="M294.8,314.2l-3.3,7.5c0,0,0.9,0.9,2.4,2.1l3.4-7.7C296.3,315.3,295.4,314.7,294.8,314.2z"
					/>
				<path id="XMLID_37_" class="st8" d="M294.8,314.2l-3.3,7.5c0,0,0.9,0.9,2.4,2.1l3.4-7.7C296.3,315.3,295.4,314.7,294.8,314.2z"
					/>
				<path id="XMLID_36_" class="st7" d="M303.2,302.4l-1.7-3.8l-6.7,15.5c0.6,0.5,1.5,1.2,2.5,1.8L303.2,302.4z"/>
				<path id="XMLID_35_" class="st3" d="M293.9,323.7l-2.4,5.6c0,0,11.8,12.2,26.2,5.7l-3-6.8C305.5,331.1,297.7,326.6,293.9,323.7z
					"/>
				<path id="XMLID_34_" class="st8" d="M293.9,323.7l-2.4,5.6c0,0,11.8,12.2,26.2,5.7l-3-6.8C305.5,331.1,297.7,326.6,293.9,323.7z
					"/>
				<path id="XMLID_33_" class="st5" d="M314.7,328.3l-3.9-8.8c-5.6,0.6-10.4-1.5-13.5-3.5l-3.4,7.7
					C297.7,326.6,305.5,331.1,314.7,328.3z"/>
				<path id="XMLID_32_" class="st8" d="M314.7,328.3l-3.9-8.8c-5.6,0.6-10.4-1.5-13.5-3.5l-3.4,7.7
					C297.7,326.6,305.5,331.1,314.7,328.3z"/>
				<path id="XMLID_31_" class="st7" d="M310.8,319.5l-7.6-17.1l-5.9,13.6C300.4,318,305.2,320.2,310.8,319.5z"/>
				<path id="XMLID_30_" class="st8" d="M303.2,302.4l-1.7-3.8l-0.9-2l-7.1,16.3c0,0,0.4,0.5,1.3,1.1c0.6,0.5,1.5,1.2,2.5,1.8
					c3.1,2,7.9,4.2,13.5,3.5L303.2,302.4z"/>
			</g>
		</g>
		<g id="XMLID_49_">
			<path id="XMLID_50_" class="st13" d="M187.3,229.4l0.1,160l18.4-10.7l-0.6-63c-0.3-18.4,10.3-29.2,14.1-32.5
				c0.9-0.7,0.7-0.9,1.8-1.2c18.7-5.6,19.2,16,19.2,16l-0.4,61l16.3-9.5l0.2-160L187.3,229.4z"/>
		</g>
		<path id="XMLID_570_" class="st14" d="M247.3,354.4l-7.5,4.4l0.1-61.5c0,0,1.5-20.1-18.6-16c0,0,20.5-11,25,3.5L247.3,354.4z"/>
		<g id="XMLID_110_">
			<g id="XMLID_109_">
				<path id="XMLID_106_" class="st15" d="M201.8,379.5l44.3-24.2l-0.6-67.3c0,0-2.2-9.1-10.8-10.7l-1.6-0.2
					c-1.4,0.2-2.9,0.5-4.6,0.9c-2,0.5-3.7,1.1-5.2,1.7c-7,5.5-9.4,7.7-10,8.5c0,0.1-1.3,1.7-1.3,1.7l0,0c0,0-9.5,15.1-9.9,25.3
					L201.8,379.5z"/>
				<g id="XMLID_108_">
					<g id="XMLID_99_">
						<path id="XMLID_105_" class="st16" d="M214.8,289.5c0,0-3.8,5-6.6,12.9c-1.7,4.7-2.7,10.6-2.9,16.5c-0.6,14-0.2,52.8-0.2,60.7
							l10.9-6.4L214.8,289.5z"/>
						<path id="XMLID_104_" class="st16" d="M224.8,280.6c0,0-7.8,6.2-9,8.3l0.6,84l9.5-5.5L224.8,280.6z"/>
						<path id="XMLID_103_" class="st16" d="M234.6,277.8c0,0-7,1-8.9,2.6l0.8,86.6l9.8-5.7L234.6,277.8z"/>
						<path id="XMLID_100_" class="st16" d="M245.5,288.2c0,0-1.9-9.6-9.9-10.6l1.4,82.8l9.1-5.3L245.5,288.2z"/>
					</g>
					<g id="XMLID_52_">
						<g id="XMLID_92_">
							<path id="XMLID_143_" class="st17" d="M205.2,322.9c0.1-1.5,0.3-6.5,0.4-7.4l39.7-22.4l-0.1,6.8
								C230.2,308.8,207.8,322.1,205.2,322.9z"/>
							<g id="XMLID_138_">
								<path id="XMLID_139_" class="st18" d="M245,293.5v6.2c-14.4,8.7-35.9,21.3-39.5,22.8c0.1-1.8,0.3-5.8,0.3-6.9L245,293.5
									 M245.5,292.6L245.5,292.6L245.5,292.6z M245.5,292.6l-40.2,22.7c0,0-0.3,6.6-0.4,7.8c0,0,0,0,0.1,0
									c1.9,0,40.5-23.2,40.5-23.2L245.5,292.6L245.5,292.6z"/>
							</g>
						</g>
						<g id="XMLID_91_">
							<path id="XMLID_135_" class="st17" d="M204.8,359.5c0.1-1.5,0.3-6.5,0.4-7.4l40.7-22.5l-0.1,6.8
								C230.4,345.5,207.4,358.7,204.8,359.5z"/>
							<g id="XMLID_130_">
								<path id="XMLID_131_" class="st18" d="M245.6,330.1v6.2c-14.8,8.7-36.8,21.3-40.5,22.8c0.1-1.7,0.3-5.8,0.3-6.9L245.6,330.1
									 M246.1,329.2L246.1,329.2L246.1,329.2z M246.1,329.2l-41.2,22.7c0,0-0.3,6.6-0.4,7.8c0,0,0,0,0.1,0
									c1.9,0,41.4-23.2,41.4-23.2L246.1,329.2L246.1,329.2z"/>
							</g>
						</g>
					</g>
				</g>
			</g>
			<g id="XMLID_93_">
				<g id="XMLID_95_">
					<path id="XMLID_98_" class="st19" d="M240.6,329.5L240.6,329.5c-0.7,0-1.3-0.6-1.3-1.3v-12.5c0-0.7,0.6-1.3,1.3-1.3l0,0
						c0.7,0,1.3,0.6,1.3,1.3v12.5C241.9,328.9,241.3,329.5,240.6,329.5z"/>
					<rect id="XMLID_97_" x="240.6" y="314.3" class="st19" width="1" height="0.9"/>
					<rect id="XMLID_96_" x="240.5" y="328.6" class="st19" width="1" height="0.9"/>
				</g>
				<path id="XMLID_94_" class="st20" d="M241.5,329.5L241.5,329.5c-0.7,0-1.3-0.6-1.3-1.3v-12.5c0-0.7,0.6-1.3,1.3-1.3l0,0
					c0.7,0,1.3,0.6,1.3,1.3v12.5C242.8,328.9,242.2,329.5,241.5,329.5z"/>
			</g>
		</g>
		<g id="XMLID_3_">
			<g id="XMLID_564_">
				<g id="XMLID_488_">
					<polygon id="XMLID_490_" class="st21" points="118.4,348.3 187.2,388.3 187.3,228.4 118.1,188.3 					"/>
				</g>
				<g id="XMLID_65_">
					<polygon id="XMLID_548_" class="st22" points="157.9,212.4 141.9,202.7 142,216.4 152,234.9 157.7,231.7 					"/>
					<polygon id="XMLID_547_" class="st14" points="152,234.9 141.9,202.7 133.5,198.4 144.7,230.7 					"/>
				</g>
			</g>
			<g id="XMLID_4_">
				<polygon id="XMLID_565_" class="st23" points="143.9,274.1 143.7,274 140.9,275.4 155.3,283.3 157.6,281.6 				"/>
				<path id="XMLID_567_" class="st23" d="M144.7,246.5l-1,27.5l-2.8,1.4v-24.7C140.9,250.7,141.7,246.5,144.7,246.5z"/>
				<path id="XMLID_566_" class="st24" d="M143.7,274l13.9,7.5l0.4-24c0,0-4.2-12.9-14.2-10.8L143.7,274L143.7,274z"/>
				<polygon id="XMLID_64_" class="st25" points="143.7,274 157.6,266.9 157.6,281.6 				"/>
			</g>
		</g>
		<g id="XMLID_7_">
			<path id="XMLID_111_" class="st13" d="M208.2,296.9c-7-2.2-13.7-3.1-21-3.5v95.9l18.4-10.7l-0.6-63
				C204.9,308.2,206,301.8,208.2,296.9z"/>
		</g>
		<g id="XMLID_53_">
			<polygon id="XMLID_54_" class="st14" points="187.1,305.7 178.8,301 178.8,291.6 187,295.9 			"/>
			<polygon id="XMLID_55_" class="st26" points="187,305.7 195.3,301 195.3,291.6 187.1,295.9 			"/>
			<polygon id="XMLID_56_" class="st22" points="178.8,291.6 180.3,290.9 187,294.4 187,295.9 			"/>
			<polygon id="XMLID_57_" class="st14" points="195.3,291.6 193.8,290.9 187,294.4 187,295.9 			"/>
		</g>
		<g id="XMLID_58_">
			<polygon id="XMLID_114_" class="st14" points="187.4,321.7 179.1,316.9 179.1,307.6 187.3,311.9 			"/>
			<polygon id="XMLID_113_" class="st26" points="187.3,321.7 195.6,316.9 195.6,307.6 187.4,311.9 			"/>
			<polygon id="XMLID_90_" class="st22" points="179.1,307.6 180.6,306.9 187.3,310.4 187.3,311.9 			"/>
			<polygon id="XMLID_59_" class="st14" points="195.5,307.6 194,306.9 187.3,310.4 187.3,311.9 			"/>
		</g>
		<g id="XMLID_115_">
			<polygon id="XMLID_119_" class="st14" points="187.3,336.8 179,332.1 179,322.8 187.2,327.1 			"/>
			<polygon id="XMLID_118_" class="st26" points="187.2,336.8 195.5,332.1 195.5,322.8 187.3,327.1 			"/>
			<polygon id="XMLID_117_" class="st22" points="179,322.8 180.5,322.1 187.2,325.6 187.2,327.1 			"/>
			<polygon id="XMLID_116_" class="st14" points="195.5,322.8 194,322.1 187.3,325.6 187.3,327.1 			"/>
		</g>
		<path id="XMLID_137_" class="st22" d="M123.8,273.6"/>
		<g id="XMLID_66_">
			<polygon id="XMLID_68_" class="st22" points="187.3,229.4 170.9,219.7 171,233.4 181,251.9 187.3,248.5 			"/>
			<polygon id="XMLID_67_" class="st14" points="181,251.9 170.9,219.7 162.5,215.1 173.7,247.7 			"/>
		</g>
		<g id="XMLID_69_">
			<polygon id="XMLID_71_" class="st22" points="130.3,196.6 113.9,187.2 114,199.4 124,217.9 130.3,214.5 			"/>
			<polygon id="XMLID_70_" class="st14" points="124,217.9 113.9,187.2 106,182.6 116.7,213.7 			"/>
		</g>
		<g id="XMLID_72_">
			<polygon id="XMLID_120_" class="st14" points="187.3,229.4 203.6,219.7 203.4,233.4 193.5,251.9 187.3,248.5 			"/>
			<polygon id="XMLID_73_" class="st26" points="193.5,251.9 203.6,219.7 211.9,215.2 200.7,247.7 			"/>
		</g>
		<g id="XMLID_121_">
			<polygon id="XMLID_123_" class="st14" points="244.7,196.3 260.6,187.2 260.5,200.4 250.7,218.9 244.7,215.5 			"/>
			<polygon id="XMLID_122_" class="st26" points="250.5,218.9 260.6,187.2 268.9,182.4 257.7,214.7 			"/>
		</g>
		<g id="XMLID_124_">
			<polygon id="XMLID_126_" class="st14" points="216.7,212.3 232.6,203.2 232.5,216.4 222.7,234.9 216.7,231.5 			"/>
			<polygon id="XMLID_125_" class="st26" points="222.5,234.9 232.6,203.2 240.9,198.4 229.7,230.7 			"/>
		</g>
	</g>
</g>
<g>
	<polygon id="XMLID_89_" class="st27" points="170.5,119.8 115.5,150.9 128.6,159.6 148.5,148.7 184.5,127.7 	"/>
	<polygon id="XMLID_86_" class="st21" points="198.3,92.9 198.6,119.6 184.5,127.7 184.3,99.9 	"/>
	<polygon id="XMLID_85_" class="st26" points="184.3,85.9 170.3,92.9 184.3,99.9 198.3,92.9 	"/>
	<polygon id="XMLID_88_" class="st27" points="184.4,99.9 170.3,92.9 170.5,119.8 184.5,127.7 	"/>
	<g>
		<line id="XMLID_683_" class="st28" x1="176.2" y1="126.5" x2="176.5" y2="35.5"/>
		<ellipse id="XMLID_61_" class="st25" cx="176.4" cy="126.5" rx="1.9" ry="0.7"/>
		<ellipse id="XMLID_127_" class="st16" cx="176.6" cy="34.6" rx="2.4" ry="2.1"/>
		<g id="XMLID_144_">
			<polygon id="XMLID_146_" class="st7" points="263.1,33 203.5,33 203.3,62 263.1,62 245.3,47.5 			"/>
		</g>
		<polygon id="XMLID_62_" class="st25" points="217.2,38 203.3,33 203.3,38 		"/>
		<g id="flag_x5F_0">
			<rect id="XMLID_679_" x="173.2" y="38" class="st1" width="44" height="29"/>
			<text id="XMLID_680_" transform="matrix(1 0 0 1 186.3116 62.0699)" class="st29 st30 st31">H</text>
		</g>
	</g>
	<polygon id="XMLID_154_" class="st27" points="245.8,161.2 220.5,148.7 184.5,127.7 198.6,119.6 256.8,149.9 	"/>
	<polygon id="XMLID_153_" class="st25" points="128.6,159.6 184.5,127.7 253,164.7 186.9,200.9 	"/>
	<polygon id="XMLID_152_" class="st32" points="184.5,159.1 184.5,127.7 128.6,159.6 184.5,199.2 	"/>
	<path id="XMLID_147_" class="st33" d="M256.8,191.3"/>
	<path id="XMLID_142_" class="st14" d="M128.6,159.6"/>
	<polygon id="XMLID_141_" class="st33" points="187.4,192.9 128.6,159.6 114.5,167.7 187.5,209.7 	"/>
	<polygon id="XMLID_140_" class="st27" points="246,160.2 187.1,193.5 187.5,209.7 260.5,167.7 	"/>
	<path id="XMLID_132_" class="st14" d="M128.6,159.6"/>
	<polygon id="XMLID_84_" class="st27" points="100.7,179.9 187.9,230.1 187.5,209.7 100.9,159.6 	"/>
	<polygon id="XMLID_83_" class="st21" points="187.9,230.1 274.3,179.5 274.3,159.7 187.5,209.7 	"/>
	<polygon id="XMLID_82_" class="st27" points="146.1,106.9 146.3,133.8 160.3,141.7 160.2,113.9 	"/>
	<polygon id="XMLID_81_" class="st21" points="174.1,106.9 174.4,133.6 160.3,141.7 160.1,113.9 	"/>
	<polygon id="XMLID_80_" class="st26" points="160.1,99.9 146.1,106.9 160.1,113.9 174.1,106.9 	"/>
	<polygon id="XMLID_112_" class="st27" points="197.8,161 197.6,187.4 212,195.4 211.9,168 	"/>
	<polygon id="XMLID_151_" class="st27" points="194.4,105.9 194.6,132.8 208.6,140.7 208.5,112.9 	"/>
	<polygon id="XMLID_150_" class="st21" points="222.4,105.9 222.7,132.6 208.6,140.7 208.4,112.9 	"/>
	<polygon id="XMLID_149_" class="st26" points="208.4,98.9 194.4,105.9 208.4,112.9 222.4,105.9 	"/>
	<polygon id="XMLID_161_" class="st27" points="218.2,119.1 218.4,146 232.4,153.9 232.3,126.1 	"/>
	<polygon id="XMLID_160_" class="st21" points="246.2,119.1 246.5,145.8 232.4,153.9 232.2,126.1 	"/>
	<polygon id="XMLID_60_" class="st26" points="232.2,112.1 218.2,119.1 232.2,126.1 246.2,119.1 	"/>
	<g>
		<rect x="234" y="153.1" class="st27" width="8.6" height="7.8"/>
		<path d="M242.1,153.6v6.8h-7.6v-6.8H242.1 M243.1,152.6h-9.6v8.8h9.6V152.6L243.1,152.6z"/>
	</g>
	<polygon id="XMLID_133_" class="st26" points="260.3,125.9 246.3,132.9 260.3,139.9 274.3,132.9 	"/>
	<polygon id="XMLID_102_" class="st27" points="246.3,132.9 245.8,160.1 260.5,167.7 260.4,139.9 	"/>
	<polygon id="XMLID_101_" class="st21" points="274.3,132.9 274.3,160.7 260.5,167.7 260.3,139.9 	"/>
	<polygon id="XMLID_159_" class="st26" points="236.7,139.4 222.7,146.4 236.7,153.4 250.7,146.4 	"/>
	<polygon id="XMLID_158_" class="st27" points="222.7,146.4 222.5,172.8 236.9,180.8 236.8,153.4 	"/>
	<polygon id="XMLID_157_" class="st21" points="250.7,146.4 251,173.1 236.9,181.2 236.7,153.4 	"/>
	<polygon id="XMLID_134_" class="st26" points="211.8,154 197.8,161 211.8,168 225.8,161 	"/>
	<polygon id="XMLID_107_" class="st21" points="225.8,161 226.1,187.7 212,195.8 211.8,168 	"/>
	<polygon id="XMLID_164_" class="st27" points="122.1,120.9 122.3,147.8 136.3,155.7 136.2,127.9 	"/>
	<polygon id="XMLID_163_" class="st21" points="150.1,120.9 150.4,147.6 136.3,155.7 136.1,127.9 	"/>
	<polygon id="XMLID_162_" class="st26" points="136.1,113.9 122.1,120.9 136.1,127.9 150.1,120.9 	"/>
	<polygon id="XMLID_76_" class="st27" points="100.7,132.7 100.9,159.6 114.7,167.6 114.8,139.7 	"/>
	<polygon id="XMLID_75_" class="st21" points="128.7,132.7 129,159.4 114.7,167.6 114.7,139.7 	"/>
	<polygon id="XMLID_74_" class="st26" points="114.8,125.7 100.7,132.7 114.8,139.7 128.8,132.7 	"/>
	<polygon id="XMLID_79_" class="st27" points="124.3,146.4 124.1,173 138.5,181.4 138.4,153.4 	"/>
	<polygon id="XMLID_78_" class="st21" points="152.3,146.4 152.6,173.1 138.5,181.4 138.3,153.4 	"/>
	<polygon id="XMLID_77_" class="st26" points="138.3,139.4 124.3,146.4 138.3,153.4 152.3,146.4 	"/>
	<polygon id="XMLID_156_" class="st27" points="148.7,161 148.5,187.4 162.9,195.6 162.8,168 	"/>
	<polygon id="XMLID_155_" class="st21" points="176.7,161 177,187.7 162.9,195.6 162.7,168 	"/>
	<polygon id="XMLID_148_" class="st26" points="162.7,154 148.7,161 162.7,168 176.7,161 	"/>
	<polygon id="XMLID_136_" class="st26" points="187.3,167.9 173.3,174.9 187.3,181.9 201.3,174.9 	"/>
	<polygon id="XMLID_129_" class="st27" points="173.3,174.9 173.1,201.3 187.5,209.7 187.4,181.9 	"/>
	<polygon id="XMLID_128_" class="st21" points="201.3,174.9 201.6,201.6 187.5,209.7 187.3,181.9 	"/>
</g>
</svg>
