<?xml version="1.0" encoding="UTF-8" standalone="no"?>
<svg
   id="Ebene_1"
   data-name="Ebene 1"
   viewBox="0 0 386.66668 580.00001"
   version="1.1"
   sodipodi:docname="hackaburg_school.svg"
   width="386.66669"
   height="580"
   inkscape:version="1.2 (dc2aedaf03, 2022-05-15)"
   xmlns:inkscape="http://www.inkscape.org/namespaces/inkscape"
   xmlns:sodipodi="http://sodipodi.sourceforge.net/DTD/sodipodi-0.dtd"
   xmlns="http://www.w3.org/2000/svg"
   xmlns:svg="http://www.w3.org/2000/svg">
  <sodipodi:namedview
     id="namedview367"
     pagecolor="#ffffff"
     bordercolor="#666666"
     borderopacity="1.0"
     inkscape:showpageshadow="2"
     inkscape:pageopacity="0.0"
     inkscape:pagecheckerboard="0"
     inkscape:deskcolor="#d1d1d1"
     showgrid="false"
     inkscape:zoom="1.6052137"
     inkscape:cx="75.379372"
     inkscape:cy="381.88062"
     inkscape:window-width="1920"
     inkscape:window-height="1430"
     inkscape:window-x="-11"
     inkscape:window-y="694"
     inkscape:window-maximized="1"
     inkscape:current-layer="Ebene_1" />
  <defs
     id="defs4">
    <style
       id="style2">.cls-1{fill:#473437;}.cls-2{fill:#82bd53;}.cls-12,.cls-3{fill:#44a84e;}.cls-13,.cls-24,.cls-3,.cls-9{isolation:isolate;}.cls-3{opacity:0.57;}.cls-4{fill:#056938;}.cls-5{fill:#f9b03d;}.cls-6{fill:#009245;}.cls-7{fill:#754d24;}.cls-8{fill:#48ae4d;}.cls-11,.cls-13,.cls-9{fill:#010202;}.cls-9{opacity:0.39;}.cls-10,.cls-13{opacity:0.41;}.cls-14{fill:#c3c4c6;}.cls-15{fill:#97989a;}.cls-16{fill:#bc6817;}.cls-17{fill:#de9f5c;}.cls-18{fill:#d3842f;}.cls-19{fill:#bc6818;}.cls-20{fill:#a34617;}.cls-21{fill:#bb6417;}.cls-22{fill:#adadb1;}.cls-23{fill:#77797d;}.cls-24,.cls-25{fill:#515152;}.cls-24{opacity:0.49;}.cls-26{fill:#474649;}.cls-27{fill:#d5d5d6;}.cls-28{fill:#8f9194;}.cls-29{fill:#4e4d4f;}.cls-30{fill:#747476;}.cls-31{fill:none;stroke:#474649;stroke-miterlimit:10;stroke-width:2px;}.cls-32{font-size:25.92px;fill:#f3f7e8;font-family:Roboto-Bold, Roboto;font-weight:700;}</style>
  </defs>
  <g
     id="g778"
     transform="translate(42.533344,63.8)">
    <polygon
       class="cls-1"
       points="292.6,343.7 150.5,423.1 8.6,343.7 8.6,291 150.3,372.8 292.3,291 "
       id="polygon6" />
    <polygon
       class="cls-2"
       points="0.2,271.8 156.6,188.6 301.2,271.8 150.8,357.1 "
       id="polygon8" />
    <path
       class="cls-3"
       d="M 69.8,325.9"
       id="path10" />
    <path
       class="cls-4"
       d="m 276.6,335.8 -13,-7.6 V 309 c 0,0 9.3,-18.5 13,-7 z"
       id="path12" />
    <polygon
       class="cls-4"
       points="231.6,324 240.6,324 240.1,343.3 231.6,338.6 "
       id="polygon14" />
    <polygon
       class="cls-4"
       points="37.2,295.3 21.8,291.4 24.6,331.3 36.6,325 "
       id="polygon16" />
    <polygon
       class="cls-4"
       points="121.5,353.6 109.7,355.2 111.6,382 119.9,377 "
       id="polygon18" />
    <path
       class="cls-5"
       d="m 132.6,303.4 c 0,0 5.8,6.3 0.5,7.5 -5.3,1.2 -13.2,-3.4 -15.3,0.9 -2.1,4.3 -7.1,21.9 -11.9,19.6 -4.8,-2.3 -39.7,-22.1 -39.7,-22.1 0,0 -9.8,-4.5 0,-5.7 9.8,-1.2 24.7,-24.2 24.7,-24.2 z"
       id="path20" />
    <ellipse
       class="cls-6"
       cx="162.3"
       cy="330.10001"
       rx="6.6999998"
       ry="3.8"
       id="ellipse22" />
    <ellipse
       class="cls-6"
       cx="63.299999"
       cy="262.10001"
       rx="6.6999998"
       ry="3.8"
       id="ellipse24" />
    <ellipse
       class="cls-6"
       cx="145.39999"
       cy="333.89999"
       rx="4.5999999"
       ry="2.5999999"
       id="ellipse26" />
    <g
       id="tree_1">
      <ellipse
         class="cls-6"
         cx="275.20001"
         cy="272.79999"
         rx="9.8000002"
         ry="5.5"
         id="ellipse28" />
      <path
         class="cls-7"
         d="m 310.7,349.5 h 1.6 a 2.43,2.43 0 0 0 2.4,-2.4 v -10.5 a 2.43,2.43 0 0 0 -2.4,-2.4 h -1.6 a 2.43,2.43 0 0 0 -2.4,2.4 v 10.5 a 2.43,2.43 0 0 0 2.4,2.4 z"
         transform="translate(-36.7,-75.2)"
         id="path30" />
      <path
         class="cls-6"
         d="m 325.2,317.2 3.3,7.5 c 0,0 -0.9,0.9 -2.4,2.1 l -3.4,-7.7 c 1,-0.8 1.9,-1.4 2.5,-1.9 z"
         transform="translate(-36.7,-75.2)"
         id="path32" />
      <path
         class="cls-6"
         d="m 296.5,326.4 c -0.6,-0.5 -1.3,-1.1 -1.9,-1.7 l 3.2,-7.6 c 0.7,0.6 1.3,1.1 2,1.6 z"
         transform="translate(-36.7,-75.2)"
         id="path34" />
      <path
         class="cls-4"
         d="m 296.5,326.4 c 12.8,10.6 24.6,4.1 29.5,0.3 l 2.4,5.6 c 0,0 -16.6,17.1 -34.4,0 z"
         transform="translate(-36.7,-75.2)"
         id="path36" />
      <path
         class="cls-6"
         d="m 296.5,326.4 3.2,-7.7 c 9.5,6.8 18.2,3.4 23,0.3 l 3.4,7.7 c -5,3.8 -16.8,10.3 -29.6,-0.3 z"
         transform="translate(-36.7,-75.2)"
         id="path38" />
      <path
         class="cls-8"
         d="m 311.2,280.8 15.3,35.2 a 6.12,6.12 0 0 1 -1.3,1.1 20.58,20.58 0 0 1 -2.5,1.8 c -4.8,3.1 -13.5,6.5 -23,-0.3 -0.7,-0.5 -1.3,-1 -2,-1.6 a 12,12 0 0 1 -1.2,-1.1 z"
         transform="translate(-36.7,-75.2)"
         id="path40" />
      <path
         class="cls-8"
         d="m 325.2,317.2 -6.7,-15.5 0.9,-2 7.1,16.3 c 0,0 -0.5,0.5 -1.3,1.2 z"
         transform="translate(-36.7,-75.2)"
         id="path42" />
      <path
         class="cls-6"
         d="m 325.2,317.2 3.3,7.5 c 0,0 -0.9,0.9 -2.4,2.1 l -3.4,-7.7 c 1,-0.8 1.9,-1.4 2.5,-1.9 z"
         transform="translate(-36.7,-75.2)"
         id="path44" />
      <path
         class="cls-9"
         d="m 325.2,317.2 3.3,7.5 c 0,0 -0.9,0.9 -2.4,2.1 l -3.4,-7.7 c 1,-0.8 1.9,-1.4 2.5,-1.9 z"
         transform="translate(-36.7,-75.2)"
         id="path46" />
      <path
         class="cls-8"
         d="m 316.8,305.4 1.7,-3.8 6.7,15.5 a 20.58,20.58 0 0 1 -2.5,1.8 z"
         transform="translate(-36.7,-75.2)"
         id="path48" />
      <path
         class="cls-4"
         d="m 326.1,326.7 2.4,5.6 c 0,0 -11.8,12.2 -26.2,5.7 l 3,-6.8 c 9.2,2.9 17,-1.6 20.8,-4.5 z"
         transform="translate(-36.7,-75.2)"
         id="path50" />
      <path
         class="cls-9"
         d="m 326.1,326.7 2.4,5.6 c 0,0 -11.8,12.2 -26.2,5.7 l 3,-6.8 c 9.2,2.9 17,-1.6 20.8,-4.5 z"
         transform="translate(-36.7,-75.2)"
         id="path52" />
      <path
         class="cls-6"
         d="m 305.3,331.3 3.9,-8.8 a 21,21 0 0 0 13.5,-3.5 l 3.4,7.7 c -3.8,2.9 -11.6,7.4 -20.8,4.6 z"
         transform="translate(-36.7,-75.2)"
         id="path54" />
      <path
         class="cls-9"
         d="m 305.3,331.3 3.9,-8.8 a 21,21 0 0 0 13.5,-3.5 l 3.4,7.7 c -3.8,2.9 -11.6,7.4 -20.8,4.6 z"
         transform="translate(-36.7,-75.2)"
         id="path56" />
      <path
         class="cls-8"
         d="m 309.2,322.5 7.6,-17.1 5.9,13.6 a 20.45,20.45 0 0 1 -13.5,3.5 z"
         transform="translate(-36.7,-75.2)"
         id="path58" />
      <path
         class="cls-9"
         d="m 316.8,305.4 1.7,-3.8 0.9,-2 7.1,16.3 a 6.12,6.12 0 0 1 -1.3,1.1 23.28,23.28 0 0 1 -16,5.3 z"
         transform="translate(-36.7,-75.2)"
         id="path60" />
    </g>
    <g
       class="cls-10"
       id="g77">
      <path
         class="cls-11"
         d="m 280,420.8 -46.4,27.1 c 0,0 -13.5,1.2 -2.2,-9.1 L 272.3,416 Z"
         transform="translate(-36.7,-75.2)"
         id="path63" />
      <path
         class="cls-11"
         d="m 116.6,450 -15,-7.1 c 0,0 -7.7,-7.3 0,-8.1 l 15,7.6 c 0,0.1 8,9.3 0,7.6 z"
         transform="translate(-36.7,-75.2)"
         id="path65" />
      <path
         class="cls-11"
         d="M 127.7,437.3 76.9,411.7 c 0,0 -11.8,-15.2 1.3,-10.2 l 53.5,28.4 z"
         transform="translate(-36.7,-75.2)"
         id="path67" />
      <path
         class="cls-11"
         d="m 45.3,409.9 42.2,25 c 0,0 8.3,-2.1 0,-9.3 L 45.3,401.5 Z"
         transform="translate(-36.7,-75.2)"
         id="path69" />
      <path
         class="cls-11"
         d="m 174.1,461.7 -12.9,-8.5 c 0,0 -5.5,-4.6 0,-6.4 l 12.9,7.4 c 0,0.1 7.3,7 0,7.5 z"
         transform="translate(-36.7,-75.2)"
         id="path71" />
      <path
         class="cls-11"
         d="m 255.8,450 18.2,-9.3 c 0,0 5.2,-6.2 -0.2,-5.9 l -18,8.1 c 0,0.1 -6.5,7.3 0,7.1 z"
         transform="translate(-36.7,-75.2)"
         id="path73" />
      <ellipse
         class="cls-11"
         cx="213.92999"
         cy="450.78"
         rx="5.5999999"
         ry="3.2"
         transform="rotate(-21.28,-4.509895,510.93753)"
         id="ellipse75" />
    </g>
    <polygon
       class="cls-4"
       points="68.6,322 57.6,317 60.4,339.6 68.6,334 "
       id="polygon79" />
    <path
       class="cls-12"
       d="M 60.6,323.9 81.2,335 c 0,0 6.9,4.5 5.9,10.4 -1,5.9 0,21.6 0,21.6 0,0 7.5,23.6 24.5,15 v -21 c 0,0 -6,-16.8 39.7,12.8 l -7.8,-16.7 -82.9,-43 z"
       id="path81" />
    <path
       class="cls-12"
       d="m 0.2,286 c 0,0 0.5,27 2.4,31.1 1.4,3 6,27.5 22,14.3 V 300 c 0,0 5,-7.5 12,7.5 V 325 c 0,0 8,24.1 24,14.5 V 314 L 2.2,280 Z"
       id="path83" />
    <polygon
       class="cls-12"
       points="0.2,271.8 150.8,357.1 301.2,271.8 301.6,286.9 151.3,373.8 0,287.8 "
       id="polygon85" />
    <path
       class="cls-12"
       d="m 301.6,287 v 37 c 0,0 -12,24.5 -25,11.7 V 302 c 0,0 -3,-11.7 -13,6.8 V 331 c 0,0 -13,24.2 -23,12.3 V 331 c 0,0 -2.4,-6.5 -9.4,-3.4 -7,3.1 -6.2,-4.7 -6.2,-4.7 l 62.3,-38.4 z"
       id="path87" />
    <polygon
       class="cls-13"
       points="46.1,365.2 150.5,423.1 254.1,365.2 280.1,379.2 151.3,452.4 18,379.2 "
       id="polygon89" />
    <g
       id="tree_2">
      <ellipse
         class="cls-6"
         cx="240.2"
         cy="248.8"
         rx="9.8000002"
         ry="5.5"
         id="ellipse91" />
      <path
         class="cls-7"
         d="m 275.7,325.5 h 1.6 a 2.43,2.43 0 0 0 2.4,-2.4 v -10.5 a 2.43,2.43 0 0 0 -2.4,-2.4 h -1.6 a 2.43,2.43 0 0 0 -2.4,2.4 v 10.5 a 2.43,2.43 0 0 0 2.4,2.4 z"
         transform="translate(-36.7,-75.2)"
         id="path93" />
      <path
         class="cls-6"
         d="m 290.2,293.2 3.3,7.5 c 0,0 -0.9,0.9 -2.4,2.1 l -3.4,-7.7 c 1,-0.8 1.9,-1.4 2.5,-1.9 z"
         transform="translate(-36.7,-75.2)"
         id="path95" />
      <path
         class="cls-6"
         d="m 261.5,302.4 c -0.6,-0.5 -1.3,-1.1 -1.9,-1.7 l 3.2,-7.6 c 0.7,0.6 1.3,1.1 2,1.6 z"
         transform="translate(-36.7,-75.2)"
         id="path97" />
      <path
         class="cls-4"
         d="m 261.5,302.4 c 12.8,10.6 24.6,4.1 29.5,0.3 l 2.4,5.6 c 0,0 -16.6,17.1 -34.4,0 z"
         transform="translate(-36.7,-75.2)"
         id="path99" />
      <path
         class="cls-6"
         d="m 261.5,302.4 3.2,-7.7 c 9.5,6.8 18.2,3.4 23,0.3 l 3.4,7.7 c -5,3.8 -16.8,10.3 -29.6,-0.3 z"
         transform="translate(-36.7,-75.2)"
         id="path101" />
      <path
         class="cls-8"
         d="m 276.2,256.8 15.3,35.2 a 6.12,6.12 0 0 1 -1.3,1.1 20.58,20.58 0 0 1 -2.5,1.8 c -4.8,3.1 -13.5,6.5 -23,-0.3 -0.7,-0.5 -1.3,-1 -2,-1.6 a 12,12 0 0 1 -1.2,-1.1 z"
         transform="translate(-36.7,-75.2)"
         id="path103" />
      <path
         class="cls-8"
         d="m 290.2,293.2 -6.7,-15.5 0.9,-2 7.1,16.3 c 0,0 -0.5,0.5 -1.3,1.2 z"
         transform="translate(-36.7,-75.2)"
         id="path105" />
      <path
         class="cls-6"
         d="m 290.2,293.2 3.3,7.5 c 0,0 -0.9,0.9 -2.4,2.1 l -3.4,-7.7 c 1,-0.8 1.9,-1.4 2.5,-1.9 z"
         transform="translate(-36.7,-75.2)"
         id="path107" />
      <path
         class="cls-9"
         d="m 290.2,293.2 3.3,7.5 c 0,0 -0.9,0.9 -2.4,2.1 l -3.4,-7.7 c 1,-0.8 1.9,-1.4 2.5,-1.9 z"
         transform="translate(-36.7,-75.2)"
         id="path109" />
      <path
         class="cls-8"
         d="m 281.8,281.4 1.7,-3.8 6.7,15.5 a 20.58,20.58 0 0 1 -2.5,1.8 z"
         transform="translate(-36.7,-75.2)"
         id="path111" />
      <path
         class="cls-4"
         d="m 291.1,302.7 2.4,5.6 c 0,0 -11.8,12.2 -26.2,5.7 l 3,-6.8 c 9.2,2.9 17,-1.6 20.8,-4.5 z"
         transform="translate(-36.7,-75.2)"
         id="path113" />
      <path
         class="cls-9"
         d="m 291.1,302.7 2.4,5.6 c 0,0 -11.8,12.2 -26.2,5.7 l 3,-6.8 c 9.2,2.9 17,-1.6 20.8,-4.5 z"
         transform="translate(-36.7,-75.2)"
         id="path115" />
      <path
         class="cls-6"
         d="m 270.3,307.3 3.9,-8.8 a 21,21 0 0 0 13.5,-3.5 l 3.4,7.7 c -3.8,2.9 -11.6,7.4 -20.8,4.6 z"
         transform="translate(-36.7,-75.2)"
         id="path117" />
      <path
         class="cls-9"
         d="m 270.3,307.3 3.9,-8.8 a 21,21 0 0 0 13.5,-3.5 l 3.4,7.7 c -3.8,2.9 -11.6,7.4 -20.8,4.6 z"
         transform="translate(-36.7,-75.2)"
         id="path119" />
      <path
         class="cls-8"
         d="m 274.2,298.5 7.6,-17.1 5.9,13.6 a 20.45,20.45 0 0 1 -13.5,3.5 z"
         transform="translate(-36.7,-75.2)"
         id="path121" />
      <path
         class="cls-9"
         d="m 281.8,281.4 1.7,-3.8 0.9,-2 7.1,16.3 a 6.12,6.12 0 0 1 -1.3,1.1 23.28,23.28 0 0 1 -16,5.3 z"
         transform="translate(-36.7,-75.2)"
         id="path123" />
    </g>
    <g
       id="tree_3">
      <ellipse
         class="cls-6"
         cx="30.200001"
         cy="269.79999"
         rx="9.8000002"
         ry="5.5"
         id="ellipse126" />
      <path
         class="cls-7"
         d="m 65.7,346.5 h 1.6 a 2.43,2.43 0 0 0 2.4,-2.4 v -10.5 a 2.43,2.43 0 0 0 -2.4,-2.4 h -1.6 a 2.43,2.43 0 0 0 -2.4,2.4 v 10.5 a 2.43,2.43 0 0 0 2.4,2.4 z"
         transform="translate(-36.7,-75.2)"
         id="path128" />
      <path
         class="cls-6"
         d="m 80.2,314.2 3.3,7.5 c 0,0 -0.9,0.9 -2.4,2.1 l -3.4,-7.7 c 1,-0.8 1.9,-1.4 2.5,-1.9 z"
         transform="translate(-36.7,-75.2)"
         id="path130" />
      <path
         class="cls-6"
         d="m 51.5,323.4 c -0.6,-0.5 -1.3,-1.1 -1.9,-1.7 l 3.2,-7.6 c 0.7,0.6 1.3,1.1 2,1.6 z"
         transform="translate(-36.7,-75.2)"
         id="path132" />
      <path
         class="cls-4"
         d="m 51.5,323.4 c 12.8,10.6 24.6,4.1 29.5,0.3 l 2.4,5.6 c 0,0 -16.6,17.1 -34.4,0 z"
         transform="translate(-36.7,-75.2)"
         id="path134" />
      <path
         class="cls-6"
         d="m 51.5,323.4 3.2,-7.7 c 9.5,6.8 18.2,3.4 23,0.3 l 3.4,7.7 c -5,3.8 -16.8,10.3 -29.6,-0.3 z"
         transform="translate(-36.7,-75.2)"
         id="path136" />
      <path
         class="cls-8"
         d="M 66.2,277.8 81.5,313 a 6.12,6.12 0 0 1 -1.3,1.1 20.58,20.58 0 0 1 -2.5,1.8 c -4.8,3.1 -13.5,6.5 -23,-0.3 -0.7,-0.5 -1.3,-1 -2,-1.6 a 12,12 0 0 1 -1.2,-1.1 z"
         transform="translate(-36.7,-75.2)"
         id="path138" />
      <path
         class="cls-8"
         d="m 80.2,314.2 -6.7,-15.5 0.9,-2 7.1,16.3 c 0,0 -0.5,0.5 -1.3,1.2 z"
         transform="translate(-36.7,-75.2)"
         id="path140" />
      <path
         class="cls-6"
         d="m 80.2,314.2 3.3,7.5 c 0,0 -0.9,0.9 -2.4,2.1 l -3.4,-7.7 c 1,-0.8 1.9,-1.4 2.5,-1.9 z"
         transform="translate(-36.7,-75.2)"
         id="path142" />
      <path
         class="cls-9"
         d="m 80.2,314.2 3.3,7.5 c 0,0 -0.9,0.9 -2.4,2.1 l -3.4,-7.7 c 1,-0.8 1.9,-1.4 2.5,-1.9 z"
         transform="translate(-36.7,-75.2)"
         id="path144" />
      <path
         class="cls-8"
         d="m 71.8,302.4 1.7,-3.8 6.7,15.5 a 20.58,20.58 0 0 1 -2.5,1.8 z"
         transform="translate(-36.7,-75.2)"
         id="path146" />
      <path
         class="cls-4"
         d="m 81.1,323.7 2.4,5.6 c 0,0 -11.8,12.2 -26.2,5.7 l 3,-6.8 c 9.2,2.9 17,-1.6 20.8,-4.5 z"
         transform="translate(-36.7,-75.2)"
         id="path148" />
      <path
         class="cls-9"
         d="m 81.1,323.7 2.4,5.6 c 0,0 -11.8,12.2 -26.2,5.7 l 3,-6.8 c 9.2,2.9 17,-1.6 20.8,-4.5 z"
         transform="translate(-36.7,-75.2)"
         id="path150" />
      <path
         class="cls-6"
         d="m 60.3,328.3 3.9,-8.8 A 21,21 0 0 0 77.7,316 l 3.4,7.7 c -3.8,2.9 -11.6,7.4 -20.8,4.6 z"
         transform="translate(-36.7,-75.2)"
         id="path152" />
      <path
         class="cls-9"
         d="m 60.3,328.3 3.9,-8.8 A 21,21 0 0 0 77.7,316 l 3.4,7.7 c -3.8,2.9 -11.6,7.4 -20.8,4.6 z"
         transform="translate(-36.7,-75.2)"
         id="path154" />
      <path
         class="cls-8"
         d="m 64.2,319.5 7.6,-17.1 5.9,13.6 a 20.45,20.45 0 0 1 -13.5,3.5 z"
         transform="translate(-36.7,-75.2)"
         id="path156" />
      <path
         class="cls-9"
         d="m 71.8,302.4 1.7,-3.8 0.9,-2 7.1,16.3 a 6.12,6.12 0 0 1 -1.3,1.1 20.58,20.58 0 0 1 -2.5,1.8 20.45,20.45 0 0 1 -13.5,3.5 z"
         transform="translate(-36.7,-75.2)"
         id="path158" />
    </g>
    <path
       class="cls-14"
       d="m 151,154.2 -0.1,160 -18.4,-10.7 0.6,-63 A 42,42 0 0 0 119,208 c -0.9,-0.7 -0.7,-0.9 -1.8,-1.2 -18.7,-5.6 -19.2,16 -19.2,16 l 0.4,61 -16.3,-9.5 -0.2,-160 z"
       id="path161" />
    <path
       class="cls-15"
       d="m 91,279.2 7.5,4.4 -0.1,-61.5 c 0,0 -1.5,-20.1 18.6,-16 0,0 -20.5,-11 -25,3.5 z"
       id="path163" />
    <path
       class="cls-16"
       d="m 136.5,304.3 -44.3,-24.2 0.6,-67.3 c 0,0 2.2,-9.1 10.8,-10.7 l 1.6,-0.2 c 1.4,0.2 2.9,0.5 4.6,0.9 a 39.74,39.74 0 0 1 5.2,1.7 c 7,5.5 9.4,7.7 10,8.5 0,0.1 1.3,1.7 1.3,1.7 v 0 c 0,0 9.5,15.1 9.9,25.3 z"
       id="path165" />
    <path
       class="cls-17"
       d="m 123.5,214.3 a 51.9,51.9 0 0 1 6.6,12.9 55.74,55.74 0 0 1 2.9,16.5 c 0.6,14 0.2,52.8 0.2,60.7 L 122.3,298 Z"
       id="path167" />
    <path
       class="cls-17"
       d="m 113.5,205.4 c 0,0 7.8,6.2 9,8.3 l -0.6,84 -9.5,-5.5 z"
       id="path169" />
    <path
       class="cls-17"
       d="m 103.7,202.6 c 0,0 7,1 8.9,2.6 l -0.8,86.6 -9.8,-5.7 z"
       id="path171" />
    <path
       class="cls-17"
       d="m 92.8,213 c 0,0 1.9,-9.6 9.9,-10.6 l -1.4,82.8 -9.1,-5.3 z"
       id="path173" />
    <path
       class="cls-18"
       d="m 133.1,247.7 c -0.1,-1.5 -0.3,-6.5 -0.4,-7.4 L 93,217.9 l 0.1,6.8 c 15,8.9 37.4,22.2 40,23 z"
       id="path175" />
    <path
       class="cls-19"
       d="m 93.3,218.3 39.2,22.1 c 0,1.1 0.2,5.1 0.3,6.9 -3.6,-1.5 -25.1,-14.1 -39.5,-22.8 v -6.2 m -0.5,-0.9 z m 0,0 v 7.3 c 0,0 38.6,23.2 40.5,23.2 h 0.1 c -0.1,-1.2 -0.4,-7.8 -0.4,-7.8 z"
       id="path177" />
    <path
       class="cls-18"
       d="m 133.5,284.3 c -0.1,-1.5 -0.3,-6.5 -0.4,-7.4 l -40.7,-22.5 0.1,6.8 c 15.4,9.1 38.4,22.3 41,23.1 z"
       id="path179" />
    <path
       class="cls-19"
       d="m 92.7,254.9 40.2,22.1 c 0,1.1 0.2,5.2 0.3,6.9 -3.7,-1.5 -25.7,-14.1 -40.5,-22.8 v -6.2 M 92.2,254 Z m 0,0 0.1,7.3 c 0,0 39.5,23.2 41.4,23.2 h 0.1 c -0.1,-1.2 -0.4,-7.8 -0.4,-7.8 z"
       id="path181" />
    <path
       class="cls-20"
       d="m 97.7,254.3 v 0 A 1.32,1.32 0 0 0 99,253 v -12.5 a 1.32,1.32 0 0 0 -1.3,-1.3 v 0 a 1.32,1.32 0 0 0 -1.3,1.3 V 253 a 1.32,1.32 0 0 0 1.3,1.3 z"
       id="path183" />
    <rect
       class="cls-20"
       x="96.699997"
       y="239.10001"
       width="1"
       height="0.89999998"
       id="rect185" />
    <rect
       class="cls-20"
       x="96.800003"
       y="253.39999"
       width="1"
       height="0.89999998"
       id="rect187" />
    <path
       class="cls-21"
       d="m 96.8,254.3 v 0 a 1.32,1.32 0 0 0 1.3,-1.3 v -12.5 a 1.32,1.32 0 0 0 -1.3,-1.3 v 0 a 1.32,1.32 0 0 0 -1.3,1.3 V 253 a 1.32,1.32 0 0 0 1.3,1.3 z"
       id="path189" />
    <polygon
       class="cls-22"
       points="151,153.2 220.2,113.1 219.9,273.1 151.1,313.1 "
       id="polygon191" />
    <polygon
       class="cls-23"
       points="180.15,196.15 179.95,176.85 195.95,167.15 195.85,180.85 185.85,199.35 "
       id="polygon193" />
    <polygon
       class="cls-15"
       points="204.35,162.85 193.15,195.15 185.85,199.35 195.95,167.15 "
       id="polygon195" />
    <polygon
       class="cls-24"
       points="166.53,269.11 180.23,261.61 180.43,261.51 183.23,262.91 168.83,270.81 "
       id="polygon197" />
    <path
       class="cls-24"
       d="m 179.43,234.01 1,27.5 2.8,1.4 v -24.7 c 0,0 -0.8,-4.2 -3.8,-4.2 z"
       id="path199" />
    <path
       class="cls-25"
       d="m 180.43,261.51 -13.9,7.5 -0.4,-24 c 0,0 4.2,-12.9 14.2,-10.8 z"
       id="path201" />
    <polygon
       class="cls-26"
       points="180.43,261.51 166.53,254.41 166.53,269.11 "
       id="polygon203" />
    <polygon
       class="cls-24"
       points="197.68,254.69 211.38,247.19 211.58,247.09 214.38,248.49 199.98,256.39 "
       id="polygon205" />
    <path
       class="cls-24"
       d="m 210.58,219.59 1,27.5 2.8,1.4 V 223.8 c 0,0 -0.8,-4.21 -3.8,-4.21 z"
       id="path207" />
    <path
       class="cls-25"
       d="m 211.58,247.09 -13.9,7.5 -0.4,-24 c 0,0 4.2,-12.9 14.2,-10.8 z"
       id="path209" />
    <polygon
       class="cls-26"
       points="211.58,247.09 197.68,239.99 197.68,254.69 "
       id="polygon211" />
    <path
       class="cls-14"
       d="m 130.1,221.7 a 83.14,83.14 0 0 1 21,-3.5 v 95.9 l -18.4,-10.7 0.6,-63 c 0.1,-7.4 -1,-13.8 -3.2,-18.7 z"
       id="path213" />
    <polygon
       class="cls-15"
       points="159.2,232.4 151,236.7 150.9,246.5 159.2,241.7 "
       id="polygon215" />
    <polygon
       class="cls-27"
       points="142.7,232.4 150.9,236.7 151,246.5 142.7,241.7 "
       id="polygon217" />
    <polygon
       class="cls-23"
       points="151,235.2 151,236.7 159.2,232.4 157.7,231.7 "
       id="polygon219" />
    <polygon
       class="cls-15"
       points="151,235.2 151,236.7 142.8,232.4 144.3,231.7 "
       id="polygon221" />
    <polygon
       class="cls-15"
       points="159.3,247.6 151.1,251.9 151,261.6 159.3,256.9 "
       id="polygon223" />
    <polygon
       class="cls-27"
       points="142.8,247.6 151,251.9 151.1,261.6 142.8,256.9 "
       id="polygon225" />
    <polygon
       class="cls-23"
       points="151.1,250.4 151.1,251.9 159.3,247.6 157.8,246.9 "
       id="polygon227" />
    <polygon
       class="cls-15"
       points="151,250.4 151,251.9 142.8,247.6 144.3,246.9 "
       id="polygon229" />
    <path
       class="cls-23"
       d="M 214.5,198.4"
       id="path231" />
    <polygon
       class="cls-23"
       points="150.55,212.95 150.55,193.85 166.95,184.15 166.85,197.85 156.85,216.35 "
       id="polygon233" />
    <polygon
       class="cls-15"
       points="175.35,179.55 164.15,212.15 156.85,216.35 166.95,184.15 "
       id="polygon235" />
    <polygon
       class="cls-23"
       points="207.55,178.95 207.55,161.05 223.95,151.65 223.85,163.85 213.85,182.35 "
       id="polygon237" />
    <polygon
       class="cls-15"
       points="231.85,147.05 221.15,178.15 213.85,182.35 223.95,151.65 "
       id="polygon239" />
    <polygon
       class="cls-15"
       points="150.55,212.95 150.55,193.85 134.25,184.15 134.45,197.85 144.35,216.35 "
       id="polygon241" />
    <polygon
       class="cls-27"
       points="125.95,179.65 137.15,212.15 144.35,216.35 134.25,184.15 "
       id="polygon243" />
    <polygon
       class="cls-15"
       points="93.15,179.95 93.15,160.75 77.25,151.65 77.35,164.85 87.15,183.35 "
       id="polygon245" />
    <polygon
       class="cls-27"
       points="68.95,146.85 80.15,179.15 87.35,183.35 77.25,151.65 "
       id="polygon247" />
    <polygon
       class="cls-15"
       points="121.15,195.95 121.15,176.75 105.25,167.65 105.35,180.85 115.15,199.35 "
       id="polygon249" />
    <polygon
       class="cls-27"
       points="96.95,162.85 108.15,195.15 115.35,199.35 105.25,167.65 "
       id="polygon251" />
    <polygon
       class="cls-22"
       points="154.26,93.7 168.26,85.8 223.26,116.9 210.16,125.6 190.26,114.7 "
       id="polygon253" />
    <polygon
       class="cls-22"
       points="154.26,93.7 154.46,65.9 140.46,58.9 140.16,85.6 "
       id="polygon255" />
    <polygon
       class="cls-27"
       points="154.46,65.9 140.46,58.9 154.46,51.9 168.46,58.9 "
       id="polygon257" />
    <polygon
       class="cls-28"
       points="168.26,85.8 154.26,93.7 154.36,65.9 168.46,58.9 "
       id="polygon259" />
    <polygon
       class="cls-28"
       points="81.96,115.9 92.96,127.2 118.26,114.7 154.26,93.7 140.16,85.6 "
       id="polygon261" />
    <polygon
       class="cls-26"
       points="85.76,130.7 151.86,166.9 210.16,125.6 154.26,93.7 "
       id="polygon263" />
    <polygon
       class="cls-29"
       points="210.16,125.6 154.26,165.2 154.26,125.1 154.26,93.7 "
       id="polygon265" />
    <path
       class="cls-30"
       d="M 81.96,157.3"
       id="path267" />
    <path
       class="cls-15"
       d="M 210.16,125.6"
       id="path269" />
    <polygon
       class="cls-30"
       points="224.26,133.7 151.26,175.7 151.36,158.9 210.16,125.6 "
       id="polygon271" />
    <polygon
       class="cls-28"
       points="151.26,175.7 78.26,133.7 92.76,126.2 151.66,159.5 "
       id="polygon273" />
    <path
       class="cls-15"
       d="M 210.16,125.6"
       id="path275" />
    <polygon
       class="cls-28"
       points="151.26,175.7 237.86,125.6 238.06,145.9 150.86,196.1 "
       id="polygon277" />
    <polygon
       class="cls-22"
       points="64.46,125.7 151.26,175.7 150.86,196.1 64.46,145.5 "
       id="polygon279" />
    <polygon
       class="cls-28"
       points="178.46,107.7 178.56,79.9 192.66,72.9 192.46,99.8 "
       id="polygon281" />
    <polygon
       class="cls-22"
       points="178.46,107.7 178.66,79.9 164.66,72.9 164.36,99.6 "
       id="polygon283" />
    <polygon
       class="cls-27"
       points="178.66,79.9 164.66,72.9 178.66,65.9 192.66,72.9 "
       id="polygon285" />
    <polygon
       class="cls-28"
       points="126.76,161.4 126.86,134 140.96,127 141.16,153.4 "
       id="polygon287" />
    <polygon
       class="cls-28"
       points="130.16,106.7 130.26,78.9 144.36,71.9 144.16,98.8 "
       id="polygon289" />
    <polygon
       class="cls-22"
       points="130.16,106.7 130.36,78.9 116.36,71.9 116.06,98.6 "
       id="polygon291" />
    <polygon
       class="cls-27"
       points="130.36,78.9 116.36,71.9 130.36,64.9 144.36,71.9 "
       id="polygon293" />
    <polygon
       class="cls-28"
       points="106.36,119.9 106.46,92.1 120.56,85.1 120.36,112 "
       id="polygon295" />
    <polygon
       class="cls-22"
       points="106.36,119.9 106.56,92.1 92.56,85.1 92.26,111.8 "
       id="polygon297" />
    <polygon
       class="cls-27"
       points="106.56,92.1 92.56,85.1 106.56,78.1 120.56,85.1 "
       id="polygon299" />
    <rect
       class="cls-28"
       x="96.160004"
       y="119.1"
       width="8.6000004"
       height="7.8000002"
       id="rect301" />
    <path
       d="m 96.66,119.6 h 7.64 v 6.8 h -7.6 v -6.8 m -1,-1 v 8.8 h 9.6 v -8.8 z"
       id="path303" />
    <polygon
       class="cls-27"
       points="78.46,105.9 64.46,98.9 78.46,91.9 92.46,98.9 "
       id="polygon305" />
    <polygon
       class="cls-28"
       points="78.26,133.7 78.36,105.9 92.46,98.9 92.96,126.1 "
       id="polygon307" />
    <polygon
       class="cls-22"
       points="78.26,133.7 78.46,105.9 64.46,98.9 64.46,126.7 "
       id="polygon309" />
    <polygon
       class="cls-27"
       points="102.06,119.4 88.06,112.4 102.06,105.4 116.06,112.4 "
       id="polygon311" />
    <polygon
       class="cls-28"
       points="101.86,146.8 101.96,119.4 116.06,112.4 116.26,138.8 "
       id="polygon313" />
    <polygon
       class="cls-22"
       points="101.86,147.2 102.06,119.4 88.06,112.4 87.76,139.1 "
       id="polygon315" />
    <polygon
       class="cls-27"
       points="126.96,134 112.96,127 126.96,120 140.96,127 "
       id="polygon317" />
    <polygon
       class="cls-22"
       points="126.76,161.8 126.96,134 112.96,127 112.66,153.7 "
       id="polygon319" />
    <polygon
       class="cls-28"
       points="202.46,121.7 202.56,93.9 216.66,86.9 216.46,113.8 "
       id="polygon321" />
    <polygon
       class="cls-22"
       points="202.46,121.7 202.66,93.9 188.66,86.9 188.36,113.6 "
       id="polygon323" />
    <polygon
       class="cls-27"
       points="202.66,93.9 188.66,86.9 202.66,79.9 216.66,86.9 "
       id="polygon325" />
    <polygon
       class="cls-28"
       points="224.06,133.6 223.96,105.7 238.06,98.7 237.86,125.6 "
       id="polygon327" />
    <polygon
       class="cls-22"
       points="224.06,133.6 224.06,105.7 210.06,98.7 209.76,125.4 "
       id="polygon329" />
    <polygon
       class="cls-27"
       points="223.96,105.7 209.96,98.7 223.96,91.7 238.06,98.7 "
       id="polygon331" />
    <polygon
       class="cls-28"
       points="200.26,147.4 200.36,119.4 214.46,112.4 214.66,139 "
       id="polygon333" />
    <polygon
       class="cls-22"
       points="200.26,147.4 200.46,119.4 186.46,112.4 186.16,139.1 "
       id="polygon335" />
    <polygon
       class="cls-27"
       points="200.46,119.4 186.46,112.4 200.46,105.4 214.46,112.4 "
       id="polygon337" />
    <polygon
       class="cls-28"
       points="175.86,161.6 175.96,134 190.06,127 190.26,153.4 "
       id="polygon339" />
    <polygon
       class="cls-22"
       points="175.86,161.6 176.06,134 162.06,127 161.76,153.7 "
       id="polygon341" />
    <polygon
       class="cls-27"
       points="176.06,134 162.06,127 176.06,120 190.06,127 "
       id="polygon343" />
    <polygon
       class="cls-27"
       points="151.46,147.9 137.46,140.9 151.46,133.9 165.46,140.9 "
       id="polygon345" />
    <polygon
       class="cls-28"
       points="151.26,175.7 151.36,147.9 165.46,140.9 165.66,167.3 "
       id="polygon347" />
    <polygon
       class="cls-22"
       points="151.26,175.7 151.46,147.9 137.46,140.9 137.16,167.6 "
       id="polygon349" />
    <line
       class="cls-31"
       x1="162.67999"
       y1="94"
       x2="162.98"
       y2="3"
       id="line351" />
    <ellipse
       class="cls-26"
       cx="162.88"
       cy="94"
       rx="1.9"
       ry="0.69999999"
       id="ellipse353" />
    <ellipse
       class="cls-17"
       cx="163.08"
       cy="2.0999999"
       rx="2.4000001"
       ry="2.0999999"
       id="ellipse355" />
    <polygon
       class="cls-8"
       points="231.78,15 249.58,0.5 189.98,0.5 189.78,29.5 249.58,29.5 "
       id="polygon357" />
    <polygon
       class="cls-26"
       points="203.68,5.5 189.78,0.5 189.78,5.5 "
       id="polygon359" />
    <g
       id="flag_0">
      <rect
         class="cls-2"
         x="159.67999"
         y="5.5"
         width="44"
         height="29"
         id="rect361" />
      <text
         class="cls-32"
         transform="translate(172.79,29.57)"
         id="text363">H</text>
    </g>
  </g>
</svg>
