<svg id="Ebene_1" data-name="Ebene 1" xmlns="http://www.w3.org/2000/svg" viewBox="0 0 274.67 316.63"><defs><style>.cls-1{fill:#473537;}.cls-2{fill:#81bc53;}.cls-11,.cls-3{fill:#44a74c;}.cls-12,.cls-3,.cls-8{isolation:isolate;}.cls-3{opacity:0.57;}.cls-4{fill:#056938;}.cls-5{fill:#019147;}.cls-6{fill:#754e24;}.cls-7{fill:#4aad4b;}.cls-10,.cls-12,.cls-8{fill:#020303;}.cls-8{opacity:0.39;}.cls-9{opacity:0.41;}.cls-12{opacity:0.2;}.cls-13{fill:#77797d;}.cls-14{fill:#7d7d7d;}.cls-15{fill:#3a3a3a;}</style></defs><polygon class="cls-1" points="266.47 217.64 137.06 289.95 7.83 217.64 7.83 169.64 136.88 244.14 266.2 169.64 266.47 217.64"/><polygon class="cls-2" points="274.31 152.16 137.34 229.84 0.18 152.16 142.62 76.39 274.31 152.16"/><path class="cls-3" d="M113,316.26" transform="translate(-49.41 -114.84)"/><path class="cls-4" d="M301.31,325.28l-11.84-6.92V300.87s8.47-16.85,11.84-6.37Z" transform="translate(-49.41 -114.84)"/><polygon class="cls-4" points="218.66 217.27 210.92 212.99 210.92 199.7 219.12 199.7 218.66 217.27"/><polygon class="cls-4" points="22.4 206.34 33.33 200.61 33.88 173.56 19.85 170.01 22.4 206.34"/><polygon class="cls-4" points="101.64 252.52 109.19 247.96 110.65 226.65 99.91 228.11 101.64 252.52"/><ellipse class="cls-5" cx="147.81" cy="205.25" rx="6.1" ry="3.46"/><ellipse class="cls-5" cx="57.65" cy="143.32" rx="6.1" ry="3.46"/><ellipse class="cls-5" cx="132.42" cy="208.71" rx="4.19" ry="2.37"/><g id="tree_1"><ellipse class="cls-5" cx="234.92" cy="153.77" rx="8.92" ry="5.01"/><path class="cls-6" d="M283.23,270h1.46a2.21,2.21,0,0,0,2.18-2.18v-9.56a2.21,2.21,0,0,0-2.18-2.19h-1.46a2.21,2.21,0,0,0-2.18,2.19v9.56A2.21,2.21,0,0,0,283.23,270Z" transform="translate(-49.41 -114.84)"/><path class="cls-5" d="M296.44,240.56l3,6.83s-.82.82-2.18,1.91l-3.1-7C295.07,241.56,295.89,241,296.44,240.56Z" transform="translate(-49.41 -114.84)"/><path class="cls-5" d="M270.3,248.94c-.55-.46-1.18-1-1.73-1.55l2.91-6.92c.64.54,1.19,1,1.82,1.45Z" transform="translate(-49.41 -114.84)"/><path class="cls-4" d="M270.3,248.94c11.66,9.65,22.4,3.73,26.87.27l2.18,5.1s-15.12,15.57-31.33,0Z" transform="translate(-49.41 -114.84)"/><path class="cls-5" d="M270.3,248.94l2.91-7c8.66,6.2,16.58,3.1,21,.28l3.1,7C292.7,252.67,282,258.59,270.3,248.94Z" transform="translate(-49.41 -114.84)"/><path class="cls-7" d="M283.69,207.41l13.93,32.06a5.61,5.61,0,0,1-1.18,1,20.22,20.22,0,0,1-2.28,1.64c-4.37,2.82-12.29,5.92-21-.28-.63-.45-1.18-.91-1.82-1.45a11.15,11.15,0,0,1-1.09-1Z" transform="translate(-49.41 -114.84)"/><path class="cls-7" d="M296.44,240.56l-6.1-14.12.81-1.82,6.47,14.85S297.17,239.92,296.44,240.56Z" transform="translate(-49.41 -114.84)"/><path class="cls-5" d="M296.44,240.56l3,6.83s-.82.82-2.18,1.91l-3.1-7C295.07,241.56,295.89,241,296.44,240.56Z" transform="translate(-49.41 -114.84)"/><path class="cls-8" d="M296.44,240.56l3,6.83s-.82.82-2.18,1.91l-3.1-7C295.07,241.56,295.89,241,296.44,240.56Z" transform="translate(-49.41 -114.84)"/><path class="cls-7" d="M288.79,229.81l1.55-3.46,6.1,14.12a20.22,20.22,0,0,1-2.28,1.64Z" transform="translate(-49.41 -114.84)"/><path class="cls-4" d="M297.26,249.21l2.18,5.1s-10.74,11.11-23.86,5.19l2.73-6.19C286.69,256,293.8,251.85,297.26,249.21Z" transform="translate(-49.41 -114.84)"/><path class="cls-8" d="M297.26,249.21l2.18,5.1s-10.74,11.11-23.86,5.19l2.73-6.19C286.69,256,293.8,251.85,297.26,249.21Z" transform="translate(-49.41 -114.84)"/><path class="cls-5" d="M278.31,253.4l3.56-8a19.12,19.12,0,0,0,12.29-3.18l3.1,7C293.8,251.85,286.69,256,278.31,253.4Z" transform="translate(-49.41 -114.84)"/><path class="cls-8" d="M278.31,253.4l3.56-8a19.12,19.12,0,0,0,12.29-3.18l3.1,7C293.8,251.85,286.69,256,278.31,253.4Z" transform="translate(-49.41 -114.84)"/><path class="cls-7" d="M281.87,245.38l6.92-15.57,5.37,12.39A18.6,18.6,0,0,1,281.87,245.38Z" transform="translate(-49.41 -114.84)"/><path class="cls-8" d="M288.79,229.81l1.55-3.46.81-1.82,6.47,14.84a5.44,5.44,0,0,1-1.18,1,19.09,19.09,0,0,1-2.28,1.63,18.54,18.54,0,0,1-12.29,3.19Z" transform="translate(-49.41 -114.84)"/></g><g class="cls-9"><path class="cls-10" d="M271,334.2l-42.25,24.68s-12.3,1.1-2-8.28L264,329.83Z" transform="translate(-49.41 -114.84)"/><path class="cls-10" d="M122.17,360.8l-13.66-6.47s-7-6.65,0-7.38l13.66,6.93C122.17,354,129.46,362.35,122.17,360.8Z" transform="translate(-49.41 -114.84)"/><path class="cls-10" d="M132.28,349.23,86,325.92s-10.75-13.85,1.18-9.29l48.72,25.86Z" transform="translate(-49.41 -114.84)"/><path class="cls-10" d="M57.24,324.28l38.43,22.77s7.56-1.92,0-8.47L57.24,316.63Z" transform="translate(-49.41 -114.84)"/><path class="cls-10" d="M174.54,371.45l-11.75-7.74s-5-4.19,0-5.83l11.75,6.74C174.54,364.71,181.19,371,174.54,371.45Z" transform="translate(-49.41 -114.84)"/><path class="cls-10" d="M248.94,360.8l16.58-8.47s4.73-5.65-.18-5.38l-16.4,7.38C248.94,354.42,243,361,248.94,360.8Z" transform="translate(-49.41 -114.84)"/><ellipse class="cls-10" cx="210.81" cy="361.51" rx="5.1" ry="2.91" transform="translate(-166.25 -13.66) rotate(-21.28)"/></g><polygon class="cls-4" points="55.01 213.9 62.48 208.8 62.48 197.88 52.46 193.32 55.01 213.9"/><path class="cls-11" d="M104.6,314.44l18.76,10.11s6.28,4.1,5.37,9.47,0,19.67,0,19.67,6.83,21.5,22.31,13.66V348.23s-5.46-15.3,36.16,11.66l-7.11-15.21L104.6,305.52Z" transform="translate(-49.41 -114.84)"/><path class="cls-11" d="M49.59,279.93s.45,24.59,2.18,28.32c1.28,2.73,5.47,25,20,13V292.68s4.55-6.83,10.93,6.83v15.93S90,337.39,104.6,328.65V305.43l-53.19-31Z" transform="translate(-49.41 -114.84)"/><polygon class="cls-11" points="0.18 152.16 137.34 229.84 274.31 152.16 274.67 165.91 137.79 245.05 0 166.73 0.18 152.16"/><path class="cls-11" d="M324.08,280.84v33.69s-10.93,22.32-22.77,10.66V294.5s-2.73-10.66-11.84,6.19v20.22s-11.84,22-21,11.2v-11.2s-2.18-5.92-8.56-3.1-5.64-4.28-5.64-4.28l56.73-35Z" transform="translate(-49.41 -114.84)"/><polygon class="cls-12" points="41.98 237.22 137.06 289.95 231.41 237.22 255.09 249.97 137.79 316.63 16.39 249.97 41.98 237.22"/><g id="tree_3"><ellipse class="cls-5" cx="27.5" cy="150.34" rx="8.92" ry="5.01"/><path class="cls-6" d="M75.82,266.54h1.45a2.22,2.22,0,0,0,2.19-2.19v-9.56a2.22,2.22,0,0,0-2.19-2.19H75.82a2.22,2.22,0,0,0-2.19,2.19v9.56A2.22,2.22,0,0,0,75.82,266.54Z" transform="translate(-49.41 -114.84)"/><path class="cls-5" d="M89,237.12,92,244s-.82.82-2.19,1.92l-3.09-7C87.66,238.12,88.48,237.58,89,237.12Z" transform="translate(-49.41 -114.84)"/><path class="cls-5" d="M62.89,245.5A22.17,22.17,0,0,1,61.16,244L64.07,237c.64.55,1.18,1,1.82,1.46Z" transform="translate(-49.41 -114.84)"/><path class="cls-4" d="M62.89,245.5c11.65,9.65,22.4,3.74,26.86.27l2.19,5.1s-15.12,15.58-31.33,0Z" transform="translate(-49.41 -114.84)"/><path class="cls-5" d="M62.89,245.5l2.91-7c8.65,6.19,16.57,3.1,21,.27l3.09,7C85.29,249.24,74.54,255.15,62.89,245.5Z" transform="translate(-49.41 -114.84)"/><path class="cls-7" d="M76.27,204,90.21,236A5.53,5.53,0,0,1,89,237a18.05,18.05,0,0,1-2.27,1.64c-4.38,2.82-12.3,5.92-21-.27-.64-.46-1.18-.91-1.82-1.46a10,10,0,0,1-1.09-1Z" transform="translate(-49.41 -114.84)"/><path class="cls-7" d="M89,237.12,82.92,223l.82-1.82L90.21,236S89.75,236.49,89,237.12Z" transform="translate(-49.41 -114.84)"/><path class="cls-5" d="M89,237.12,92,244s-.82.82-2.19,1.92l-3.09-7C87.66,238.12,88.48,237.58,89,237.12Z" transform="translate(-49.41 -114.84)"/><path class="cls-8" d="M89,237.12,92,244s-.82.82-2.19,1.92l-3.09-7C87.66,238.12,88.48,237.58,89,237.12Z" transform="translate(-49.41 -114.84)"/><path class="cls-7" d="M81.37,226.38l1.55-3.46L89,237a18.05,18.05,0,0,1-2.27,1.64Z" transform="translate(-49.41 -114.84)"/><path class="cls-4" d="M89.84,245.77l2.19,5.1S81.28,262,68.17,256.07l2.73-6.2C79.28,252.51,86.38,248.42,89.84,245.77Z" transform="translate(-49.41 -114.84)"/><path class="cls-8" d="M89.84,245.77l2.19,5.1S81.28,262,68.17,256.07l2.73-6.2C79.28,252.51,86.38,248.42,89.84,245.77Z" transform="translate(-49.41 -114.84)"/><path class="cls-5" d="M70.9,250l3.55-8a19.17,19.17,0,0,0,12.3-3.19l3.09,7C86.38,248.42,79.28,252.51,70.9,250Z" transform="translate(-49.41 -114.84)"/><path class="cls-8" d="M70.9,250l3.55-8a19.17,19.17,0,0,0,12.3-3.19l3.09,7C86.38,248.42,79.28,252.51,70.9,250Z" transform="translate(-49.41 -114.84)"/><path class="cls-7" d="M74.45,242l6.92-15.57,5.38,12.38A18.64,18.64,0,0,1,74.45,242Z" transform="translate(-49.41 -114.84)"/><path class="cls-8" d="M81.37,226.38l1.55-3.46.82-1.83,6.47,14.85a5.9,5.9,0,0,1-1.19,1,18.05,18.05,0,0,1-2.27,1.64,18.7,18.7,0,0,1-12.3,3.19Z" transform="translate(-49.41 -114.84)"/></g><path class="cls-13" d="M244.75,200.15" transform="translate(-49.41 -114.84)"/><polygon points="144.22 168.64 178.84 189.33 178.75 149.09 144.22 129.65 144.22 168.64"/><polygon class="cls-14" points="178.84 189.33 196.15 179.04 196.15 139.05 178.75 149.09 178.84 189.33"/><polygon class="cls-15" points="144.22 129.65 178.75 149.09 196.15 139.05 162.29 119.03 144.22 129.65"/><polygon points="75.73 128.58 110.35 149.27 110.26 109.04 75.73 89.6 75.73 128.58"/><polygon class="cls-14" points="110.35 149.27 127.66 138.99 127.66 98.99 110.26 109.04 110.35 149.27"/><polygon class="cls-15" points="75.73 89.6 110.26 109.04 127.66 98.99 93.8 78.98 75.73 89.6"/><polygon points="109.58 109.19 144.2 129.87 144.11 89.64 109.58 70.2 109.58 109.19"/><polygon class="cls-14" points="144.2 129.87 162.29 119.03 161.51 79.59 144.11 89.64 144.2 129.87"/><polygon class="cls-15" points="109.58 70.2 144.11 89.64 161.51 79.59 127.27 59.35 109.58 70.2"/><polygon points="75.33 49.61 109.95 70.3 109.87 30.06 75.33 10.62 75.33 49.61"/><polygon class="cls-14" points="109.95 70.3 127.66 59.78 127.27 20.01 109.87 30.06 109.95 70.3"/><polygon class="cls-15" points="75.33 10.62 109.87 30.06 127.27 20.01 93.41 0 75.33 10.62"/><polygon points="143.82 90.06 178.45 110.75 178.36 70.52 143.82 51.08 143.82 90.06"/><polygon class="cls-14" points="178.45 110.75 195.76 100.47 195.76 60.47 178.36 70.52 178.45 110.75"/><polygon class="cls-15" points="143.82 51.08 178.36 70.52 195.76 60.47 161.9 40.46 143.82 51.08"/></svg>