<?xml version="1.0" encoding="utf-8"?>
<!-- Generator: Adobe Illustrator 26.0.3, SVG Export Plug-In . SVG Version: 6.00 Build 0)  -->
<svg version="1.1" id="Layer_1" xmlns="http://www.w3.org/2000/svg" xmlns:xlink="http://www.w3.org/1999/xlink" x="0px" y="0px"
	 viewBox="0 0 555.3 113.7" style="enable-background:new 0 0 555.3 113.7;" xml:space="preserve">
<style type="text/css">
	.st0{fill:#FFFFFF;}
</style>
<path class="st0" d="M84.8,112.6L161.9,1.1h-28.1L56.6,112.6H84.8z"/>
<path class="st0" d="M133.2,0L54.6,113.6h30.7l0.3-0.5L163.9,0H133.2z M134.3,2.1h25.6L84.2,111.5H58.6L134.3,2.1z"/>
<path class="st0" d="M30.1,112.6L107.3,1.1H79.1L2,112.6H30.1z"/>
<path class="st0" d="M78.6,0L0,113.6h30.7l0.3-0.5L109.3,0H78.6z M79.7,2.1h25.6L29.6,111.5H4L79.7,2.1z"/>
<path class="st0" d="M208.4,1v44.4h10.1V27.9L232,45.4h12.9l-15.3-18.3c5.4-1.7,9.1-6.2,9.1-12.9c0-8.7-6.2-13.2-14.5-13.2L208.4,1z
	 M218.5,20.7V9.1h1.2c3.8,0,8.4,0.3,8.4,5.8s-4.6,5.8-8.4,5.8L218.5,20.7z"/>
<path class="st0" d="M272.9,1h-9.4l-17.9,44.4h10.9l3.3-8.9h16.9l3.3,8.9h10.9L272.9,1z M273.2,27.7h-10l5-12.9h0.1L273.2,27.7z"/>
<path class="st0" d="M288.2,9.9h10.5v35.5h10.1V9.9h10.5V1h-31.2V9.9z"/>
<path class="st0" d="M334.3,1h-10.1v44.4h10.1V1z"/>
<path class="st0" d="M358.4,0.2c-7.1,0-14.5,5.3-14.5,13.5c0,4.6,3.1,8.8,8.4,11.4s10,4.1,10,7.3c0,4.1-4.2,4.4-6.4,4.4
	c-5,0-10.9-5-10.9-5l-5.1,8.5c4.7,3.8,10.6,5.9,16.7,5.9c8.7,0,16.7-3.7,16.7-14.3c0-5.8-5.4-10-10.4-12.1s-9.2-3.9-9.2-6.4
	s1.8-4,5.3-4c4.6,0,9,3.1,9,3.1l4.1-8.1C368.1,1.7,363.3,0.2,358.4,0.2L358.4,0.2z"/>
<path class="st0" d="M379.5,1v44.4h16.8c9.2,0,14.5-5,14.5-12.4c0-7.1-3.9-10.2-9.5-11.2c3.6-1.8,5.7-5.5,5.5-9.5
	c0-8.4-6-11.3-13.7-11.3H379.5z M389.6,18.4V8.8h0.8c4.4,0,6.7,1.3,6.7,4.5c0,3.7-2.4,5.1-6.7,5.1H389.6z M389.6,37.6V27.1h3.2
	c4.8,0,7.4,1.5,7.4,5.5c0,3.5-2.6,4.9-7.4,4.9H389.6z"/>
<path class="st0" d="M414.4,23.2c0,13,9.2,23,22.4,23c12.7,0,22.3-10,22.3-23s-10-23-22.3-23c-12.5,0.1-22.5,10.3-22.4,22.8
	C414.4,23.1,414.4,23.1,414.4,23.2z M425.4,23.2c0-6.6,3.6-13.2,11.5-13.2s11.4,6.6,11.4,13.2s-3.3,13.2-11.4,13.2
	C428.5,36.4,425.4,29.8,425.4,23.2z"/>
<path class="st0" d="M474.8,17.9h0.1l17.6,27.5h10.1V1h-10.1v27.5h-0.1L474.8,1h-10.1v44.4h10.1V17.9z"/>
<path class="st0" d="M534.6,1h-9.4l-17.9,44.4h10.9l3.3-8.9h16.9l3.3,8.9h10.9L534.6,1z M534.9,27.7h-10l5-12.9h0.1L534.9,27.7z"/>
<path class="st0" d="M232,103.5c-10.2,0-14.6-7.1-14.6-13.1s4.5-13,14.6-13c3.1,0,6.1,1,8.7,2.7l4.3-8.6c0,0-5-4.1-14.6-4.1
	c-12.6,0-24,10.3-24,23.1s11.5,22.9,24,22.9c9.6,0,14.6-4.1,14.6-4.1l-4.3-8.6C238.1,102.5,235.1,103.5,232,103.5L232,103.5z"/>
<path class="st0" d="M248,90.4c0,13,9.2,23,22.4,23c12.8,0,22.3-10,22.3-23s-10-23-22.3-23c-12.5,0.1-22.5,10.3-22.4,22.8
	C248,90.3,248,90.3,248,90.4z M259,90.4c0-6.6,3.7-13.2,11.5-13.2s11.4,6.6,11.4,13.2s-3.3,13.2-11.4,13.2
	C262.1,103.6,259,97,259,90.4L259,90.4z"/>
<path class="st0" d="M298.4,68.2v44.4h12.9c12.2,0,22.4-9.2,22.4-22.2s-10.2-22.2-22.4-22.2H298.4z M308.5,103.6V77.3h1.6
	c7.5,0,12.6,5.8,12.6,13.2s-5.2,13.1-12.6,13.1H308.5z"/>
<path class="st0" d="M349.3,68.2h-10.1v44.4h10.1L349.3,68.2z"/>
<path class="st0" d="M367,85.1h0.1l17.6,27.5h10.1V68.2h-10.1v27.5h-0.1L367,68.2H357v44.4H367V85.1z"/>
<path class="st0" d="M442.7,87.8h-20.5v7.8h10.2c0,5.4-4.8,8.5-9.6,8.5c-6.2,0-11.3-6.1-11.3-13.7c0-7.7,5-13.9,11.3-13.9
	c3.9,0,7.3,1.6,9.9,5.7l6.6-7.3c-3.9-4.7-9.3-7.6-17.1-7.6c-12.5,0-21.6,10.3-21.6,23s9.7,23,21.6,23c8.7,0,18.1-4.8,20.5-16V87.8z"
	/>
<path class="st0" d="M487.1,68.2h-25.4v44.4h25.4v-8.8h-15.3v-9h14.6v-8.9h-14.6v-8.8h15.3V68.2z"/>
<path class="st0" d="M498.6,101.1c-3.4,0-6.1,2.8-6.1,6.2s2.8,6.1,6.2,6.1c3.4,0,6.1-2.8,6.1-6.1c0-3.4-2.7-6.2-6.1-6.2
	C498.7,101.1,498.7,101.1,498.6,101.1z"/>
<path class="st0" d="M525.2,112.6h8l18.6-44.4h-11.4l-11.2,29.1L518,68.2h-11.4L525.2,112.6z"/>
<path class="st0" d="M549.2,101.1c-3.4,0-6.2,2.8-6.1,6.2s2.8,6.2,6.2,6.1c3.4,0,6.1-2.8,6.1-6.1
	C555.4,103.9,552.6,101.1,549.2,101.1C549.2,101.1,549.2,101.1,549.2,101.1z"/>
</svg>
