<?xml version="1.0" encoding="utf-8"?>
<!-- Generator: Adobe Illustrator 26.0.3, SVG Export Plug-In . SVG Version: 6.00 Build 0)  -->
<svg version="1.1" id="Ebene_1" xmlns="http://www.w3.org/2000/svg" xmlns:xlink="http://www.w3.org/1999/xlink" x="0px" y="0px"
	 viewBox="0 0 274.7 316.6" style="enable-background:new 0 0 274.7 316.6;" xml:space="preserve">
<style type="text/css">
	.st0{fill:#473537;}
	.st1{fill:#81BC53;}
	.st2{opacity:0.57;fill:#44A74C;enable-background:new    ;}
	.st3{fill:#056938;}
	.st4{fill:#019147;}
	.st5{opacity:0.41;}
	.st6{fill:#020303;}
	.st7{fill:#44A74C;}
	.st8{opacity:0.2;fill:#020303;enable-background:new    ;}
	.st9{fill:#754E24;}
	.st10{fill:#4AAD4B;}
	.st11{opacity:0.39;fill:#020303;enable-background:new    ;}
	.st12{fill:#77797D;}
	.st13{fill:#136D82;}
	.st14{fill:#1886A7;}
	.st15{fill:#1EA0BA;}
	.st16{fill:#E7DBC2;}
	.st17{fill:#DDC3A4;}
	.st18{fill:#1DA1B9;}
	.st19{fill:#2B9DB7;}
	.st20{fill:#BBBBBB;}
	.st21{fill:#EC473C;}
	.st22{fill:#E3362C;}
	.st23{fill:#D42C27;}
	.st24{fill:#A5C2C8;}
	.st25{opacity:0.69;fill:#ADDFE9;}
	.st26{fill:#52C7EA;}
	.st27{fill:#ADDFE9;}
	.st28{fill:#89D4EE;}
	.st29{fill:none;stroke:#BBE4ED;stroke-width:3;stroke-miterlimit:10;}
	.st30{fill:#24A74A;}
	.st31{fill:#6EBD45;}
	.st32{opacity:0.36;fill:#C1C0C0;}
</style>
<g>
	<polygon id="XMLID_00000124145762277257219700000017594335994166825374_" class="st0" points="262.8,216 137.1,286.3 11.5,216 
		11.5,169.4 136.9,241.8 262.6,169.4 	"/>
	<polygon id="XMLID_00000134971548688491857050000012947728822625112706_" class="st1" points="270.4,152.4 137.3,227.9 4,152.4 
		142.5,78.7 	"/>
	<path id="XMLID_00000128458077729027214440000003227978124873043619_" class="st2" d="M65.6,200.2"/>
	<path id="XMLID_00000155831925463247682970000007592907300720734622_" class="st3" d="M248.7,209l-11.5-6.7v-17
		c0,0,8.2-16.4,11.5-6.2V209z"/>
	<polygon id="XMLID_00000035507207723485384700000003014951668842991259_" class="st3" points="216.4,215.6 208.8,211.5 
		208.8,198.6 216.8,198.6 	"/>
	<polygon id="XMLID_00000019679805677459944630000006813818380867839896_" class="st3" points="25.6,205 36.3,199.4 36.8,173.2 
		23.2,169.7 	"/>
	<polygon id="XMLID_00000146464274471773966340000014270896758715803016_" class="st3" points="102.6,249.9 110,245.5 111.4,224.8 
		101,226.2 	"/>
	<ellipse id="XMLID_00000023267816586399488710000013910293682193482648_" class="st4" cx="132.6" cy="207.3" rx="4.1" ry="2.3"/>
	<g id="XMLID_00000072255343266569875520000003861019783526015671_" class="st5">
		<path id="XMLID_00000043437451808728205810000008230884001856673183_" class="st6" d="M219.2,217.7l-41.1,24c0,0-11.9,1.1-1.9-8.1
			l36.2-20.2L219.2,217.7z"/>
		<path id="XMLID_00000029752369798323323250000003649053628171971458_" class="st6" d="M74.6,243.5l-13.3-6.3c0,0-6.8-6.5,0-7.2
			l13.3,6.7C74.6,236.9,81.7,245,74.6,243.5z"/>
		<path id="XMLID_00000127722683158759319120000012232041822268963503_" class="st6" d="M84.4,232.3l-45-22.7c0,0-10.4-13.5,1.2-9
			l47.3,25.1L84.4,232.3z"/>
		<path id="XMLID_00000059279168226355902890000016916567190202020776_" class="st6" d="M11.5,208l37.3,22.1c0,0,7.3-1.9,0-8.2
			l-37.3-21.3V208z"/>
		<path id="XMLID_00000136412630388634740620000000936798896569847436_" class="st6" d="M125.5,253.9l-11.4-7.5c0,0-4.9-4.1,0-5.7
			l11.4,6.5C125.5,247.3,131.9,253.4,125.5,253.9z"/>
		<path id="XMLID_00000087409820981978196590000012937979173234665091_" class="st6" d="M197.8,243.5l16.1-8.2c0,0,4.6-5.5-0.2-5.2
			l-15.9,7.2C197.8,237.3,192,243.7,197.8,243.5z"/>
		
			<ellipse id="XMLID_00000109740036067174286850000011067593133188973226_" transform="matrix(0.9318 -0.363 0.363 0.9318 -77.6853 75.0005)" class="st6" cx="160.7" cy="244.2" rx="5" ry="2.8"/>
	</g>
	<polygon id="XMLID_00000173158152215816484420000005372153109315096250_" class="st3" points="57.3,212.4 64.6,207.4 64.6,196.8 
		54.8,192.4 	"/>
	<path id="XMLID_00000150806172209714925550000004261356031595551402_" class="st7" d="M57.5,198.5l18.2,9.8c0,0,6.1,4,5.2,9.2
		c-0.9,5.1,0,19.1,0,19.1s6.6,20.9,21.7,13.3v-18.6c0,0-5.3-14.9,35.1,11.3l-6.9-14.8l-73.4-38.1V198.5z"/>
	<path id="XMLID_00000075136363546526184480000016420815907193743778_" class="st7" d="M4,164.9c0,0,0.4,23.9,2.1,27.5
		c1.2,2.7,5.3,24.3,19.5,12.7v-27.8c0,0,4.4-6.6,10.6,6.6v15.5c0,0,7.1,21.3,21.2,12.8v-22.6L5.8,159.6L4,164.9z"/>
	<polygon id="XMLID_00000012469031209749270230000003372686702534171816_" class="st7" points="4,152.4 137.3,227.9 270.4,152.4 
		270.8,165.7 137.8,242.6 3.9,166.5 	"/>
	<path id="XMLID_00000011735457749059482540000007249907766702379393_" class="st7" d="M270.8,165.8v32.7c0,0-10.6,21.7-22.1,10.4
		v-29.8c0,0-2.7-10.4-11.5,6v19.6c0,0-11.5,21.4-20.4,10.9v-10.9c0,0-2.1-5.8-8.3-3c-6.2,2.7-5.5-4.2-5.5-4.2l55.1-34L270.8,165.8z"
		/>
	<polygon id="XMLID_00000024002694108774355290000003515757506704233861_" class="st8" points="44.7,235 137.1,286.3 228.8,235 
		251.8,247.4 137.8,312.2 19.8,247.4 	"/>
	<g id="tree_x5F_3_00000163052791356446028250000006462729821997361537_">
		<ellipse id="XMLID_00000093868727550910819220000012706336485172363424_" class="st4" cx="30.6" cy="150.6" rx="8.7" ry="4.9"/>
		<path id="XMLID_00000088120423536326641520000012729172394349116322_" class="st9" d="M29.5,151.9H31c1.2,0,2.1-1,2.1-2.1v-9.3
			c0-1.2-1-2.1-2.1-2.1h-1.4c-1.2,0-2.1,1-2.1,2.1v9.3C27.4,150.9,28.4,151.9,29.5,151.9z"/>
		<g id="XMLID_00000026159081584652124590000003869413651283662781_">
			<path id="XMLID_00000124842345239079788280000000521461938468401041_" class="st4" d="M42.4,123.3l2.9,6.6c0,0-0.8,0.8-2.1,1.9
				l-3-6.8C41,124.3,41.8,123.8,42.4,123.3z"/>
			<path id="XMLID_00000012466810423475265340000017988720804566375312_" class="st4" d="M17,131.5c-0.5-0.4-1.2-1-1.7-1.5l2.8-6.7
				c0.6,0.5,1.2,1,1.8,1.4L17,131.5z"/>
			<path id="XMLID_00000183250996401264555480000004630882715651387579_" class="st3" d="M17,131.5c11.3,9.4,21.8,3.6,26.1,0.3
				l2.1,5c0,0-14.7,15.1-30.4,0L17,131.5z"/>
			<path id="XMLID_00000138561494206618401800000001215375672696375687_" class="st4" d="M17,131.5l2.8-6.8c8.4,6,16.1,3,20.4,0.3
				l3,6.8C38.7,135.1,28.3,140.9,17,131.5z"/>
			<path id="XMLID_00000150817944014104751500000015607649939994080419_" class="st10" d="M30,91.1l13.5,31.2c0,0-0.4,0.4-1.2,1
				c-0.5,0.4-1.3,1.1-2.2,1.6c-4.2,2.7-11.9,5.8-20.4-0.3c-0.6-0.4-1.2-0.9-1.8-1.4c-0.4-0.3-0.7-0.6-1.1-1L30,91.1z"/>
		</g>
		<g id="XMLID_00000034078056188942241790000010031651530650780806_">
			<path id="XMLID_00000160874358074665848130000001067804651007917199_" class="st10" d="M42.4,123.3l-5.9-13.7l0.8-1.8l6.3,14.4
				C43.5,122.3,43.1,122.7,42.4,123.3z"/>
			<path id="XMLID_00000122702149711806256500000012774510669680037536_" class="st4" d="M42.4,123.3l2.9,6.6c0,0-0.8,0.8-2.1,1.9
				l-3-6.8C41,124.3,41.8,123.8,42.4,123.3z"/>
			<path id="XMLID_00000013173427578357020220000008921144896721680061_" class="st11" d="M42.4,123.3l2.9,6.6c0,0-0.8,0.8-2.1,1.9
				l-3-6.8C41,124.3,41.8,123.8,42.4,123.3z"/>
			<path id="XMLID_00000154388510086039842230000005307879197688033200_" class="st10" d="M34.9,112.9l1.5-3.4l5.9,13.7
				c-0.5,0.4-1.3,1.1-2.2,1.6L34.9,112.9z"/>
			<path id="XMLID_00000007417304030311812990000007870334597663144616_" class="st3" d="M43.2,131.7l2.1,5c0,0-10.4,10.8-23.2,5
				l2.7-6C32.9,138.3,39.8,134.3,43.2,131.7z"/>
			<path id="XMLID_00000006708554582363620630000000271164340218910142_" class="st11" d="M43.2,131.7l2.1,5c0,0-10.4,10.8-23.2,5
				l2.7-6C32.9,138.3,39.8,134.3,43.2,131.7z"/>
			<path id="XMLID_00000140733010929825857900000000003715468504317577_" class="st4" d="M24.8,135.8l3.5-7.8
				c5,0.5,9.2-1.3,11.9-3.1l3,6.8C39.8,134.3,32.9,138.3,24.8,135.8z"/>
			<path id="XMLID_00000072958345387681866860000006811379372570256821_" class="st11" d="M24.8,135.8l3.5-7.8
				c5,0.5,9.2-1.3,11.9-3.1l3,6.8C39.8,134.3,32.9,138.3,24.8,135.8z"/>
			<path id="XMLID_00000029011457665469841530000004952582616834919609_" class="st10" d="M28.2,128l6.7-15.1l5.2,12
				C37.4,126.7,33.2,128.6,28.2,128z"/>
			<path id="XMLID_00000036228101371817440510000013350644137172566459_" class="st11" d="M34.9,112.9l1.5-3.4l0.8-1.8l6.3,14.4
				c0,0-0.4,0.4-1.2,1c-0.5,0.4-1.3,1.1-2.2,1.6c-2.7,1.8-7,3.7-11.9,3.1L34.9,112.9z"/>
		</g>
	</g>
	<path id="XMLID_00000176724923285556517080000018097570254785433261_" class="st12" d="M193.7,87.4"/>
</g>
<g>
	<g>
		<polygon class="st13" points="247.1,124.7 249.7,123.3 249.7,120.1 117.7,196.3 117.7,219.4 249.7,143.5 249.7,140.6 247.3,138.9 
					"/>
	</g>
	<polygon class="st13" points="36.4,172.5 117.7,219.4 249.7,143.5 168.6,96.7 	"/>
	<polygon class="st14" points="36.4,149.1 36.4,172.5 117.7,219.4 117.7,196.3 	"/>
	<polygon class="st15" points="36.4,149.1 117.7,196.3 249.7,120.1 168.6,73.3 	"/>
	<polygon class="st16" points="40,154.7 40,171.4 117.7,216.1 117.7,199.6 	"/>
	<polygon class="st17" points="247.1,124.7 247.4,141.3 117.7,216.1 117.7,199.6 	"/>
	<polygon class="st18" points="40,171.4 42.4,170.2 42.4,156.1 40,154.7 	"/>
	<polygon class="st18" points="117.7,216.1 117.7,213.4 42.4,170.2 40,171.4 	"/>
	<polygon class="st19" points="249.7,140.6 247.3,138.9 244.8,140.3 117.7,213.4 117.7,216.1 	"/>
	<path class="st20" d="M260.1,132.9"/>
	<polygon class="st21" points="58.2,169.1 70.9,176.6 67.4,178.6 54.7,171.4 	"/>
	<polygon class="st22" points="67.4,178.6 65.7,181.5 53.9,174.7 54.7,171.4 	"/>
	<g>
		<polygon class="st23" points="53.9,174.7 53.9,194.6 59.8,189.9 65.7,201.6 65.7,181.5 		"/>
	</g>
	<g>
		<polygon class="st24" points="212.4,123.6 161.3,94.1 132.1,110.9 183.2,140.5 		"/>
	</g>
</g>
<path class="st25" d="M182.3,129.9c-5.9-18.6-35.5-50.5-35.5-50.5V57.6H97.5v21.8c-22.8,23.4-31.6,39.1-34.9,48.5
	c-1.4,3.1-2.1,6.4-2.1,9.8c0,20.8,27.6,37.7,61.6,37.7s61.6-16.9,61.6-37.7C183.7,135,183.2,132.4,182.3,129.9z"/>
<g>
	<ellipse class="st26" cx="122.2" cy="45.6" rx="26.4" ry="13.2"/>
	<ellipse class="st27" cx="122.1" cy="48.1" rx="25.6" ry="13.2"/>
	<path class="st28" d="M92.5,45.3l0.2,10.5c0,0,4.2,9.2,26.8,12.7c1.8,0.3,3.6,0.3,5.4,0.1c7.2-0.9,26.1-4.2,26.8-14.1v-9.2
		c0,0-0.9,15.4-30.7,16.3C121.1,61.6,92.3,58.9,92.5,45.3z"/>
	<ellipse class="st29" cx="122.1" cy="45.6" rx="28" ry="14.4"/>
</g>
<ellipse class="st30" cx="122.2" cy="134.3" rx="58.6" ry="37.1"/>
<polygon class="st30" points="85.2,97.3 66.9,122 177.2,121.6 159.1,97.3 "/>
<ellipse class="st31" cx="122.2" cy="110.6" rx="42.5" ry="26.9"/>
<circle class="st32" cx="86.4" cy="142.4" r="5.6"/>
<ellipse transform="matrix(0.6558 -0.7549 0.7549 0.6558 -60.9001 105.85)" class="st32" cx="85.6" cy="119.7" rx="12.5" ry="9"/>
</svg>
