<?xml version="1.0" encoding="utf-8"?>
<!-- Generator: Adobe Illustrator 26.0.3, SVG Export Plug-In . SVG Version: 6.00 Build 0)  -->
<svg version="1.1" id="Ebene_1" xmlns="http://www.w3.org/2000/svg" xmlns:xlink="http://www.w3.org/1999/xlink" x="0px" y="0px"
	 viewBox="0 0 274.7 316.6" style="enable-background:new 0 0 274.7 316.6;" xml:space="preserve">
<style type="text/css">
	.st0{fill:#473537;}
	.st1{fill:#81BC53;}
	.st2{opacity:0.57;fill:#44A74C;enable-background:new    ;}
	.st3{fill:#056938;}
	.st4{fill:#019147;}
	.st5{opacity:0.41;}
	.st6{fill:#020303;}
	.st7{fill:#44A74C;}
	.st8{opacity:0.2;fill:#020303;enable-background:new    ;}
	.st9{fill:#754E24;}
	.st10{fill:#4AAD4B;}
	.st11{opacity:0.39;fill:#020303;enable-background:new    ;}
	.st12{fill:#77797D;}
	.st13{fill:#7B2347;}
	.st14{fill:#C73974;}
	.st15{fill:#E7DBC2;}
	.st16{fill:#DDC3A4;}
	.st17{fill:#BBBBBB;}
	.st18{fill:#EC473C;}
	.st19{fill:#E3362C;}
	.st20{fill:#D42C27;}
	.st21{fill:#A5C2C8;}
	.st22{fill:#136D82;}
	.st23{fill:#1886A7;}
	.st24{fill:#1EA0BA;}
	.st25{fill:#1DA1B9;}
	.st26{fill:#2B9DB7;}
	.st27{fill:#3F4952;}
	.st28{fill:#64727E;}
	.st29{fill:#2F373C;}
	.st30{fill:#F0D15B;}
</style>
<g>
	<polygon id="XMLID_00000179623881707574242490000016358433623984124581_" class="st0" points="252.1,217.6 134.8,283.2 17.6,217.6 
		17.6,174.1 134.6,241.7 251.8,174.1 	"/>
	<polygon id="XMLID_00000035510976997953429130000000376436032648283582_" class="st1" points="259.2,158.3 135,228.7 10.7,158.3 
		139.8,89.6 	"/>
	<path id="XMLID_00000060002069902592070310000006346827504074805183_" class="st2" d="M68.2,202.9"/>
	<path id="XMLID_00000121982296091903978940000014944233813317620662_" class="st3" d="M238.9,211.1l-10.7-6.3V189
		c0,0,7.7-15.3,10.7-5.8L238.9,211.1z"/>
	<polygon id="XMLID_00000163762456011628184010000016140338541822646686_" class="st3" points="208.7,217.3 201.7,213.4 
		201.7,201.4 209.1,201.4 	"/>
	<polygon id="XMLID_00000005955234699970872650000016930805670242195076_" class="st3" points="30.9,207.4 40.8,202.2 41.3,177.7 
		28.5,174.5 	"/>
	<polygon id="XMLID_00000029765756277303884250000013262457858719440283_" class="st3" points="102.7,249.3 109.5,245.1 
		110.8,225.8 101.1,227.1 	"/>
	<ellipse id="XMLID_00000174595604581399920100000002269945001481831091_" class="st4" cx="130.6" cy="209.5" rx="3.8" ry="2.1"/>
	<g id="XMLID_00000103259405932699282940000014377448734257717398_" class="st5">
		<path id="XMLID_00000165946857459580535220000005943198886868115842_" class="st6" d="M211.4,219.2l-38.3,22.4c0,0-11.1,1-1.8-7.5
			l33.8-18.8L211.4,219.2z"/>
		<path id="XMLID_00000148663389813057536180000016782463567092073918_" class="st6" d="M76.5,243.3l-12.4-5.9c0,0-6.4-6,0-6.7
			l12.4,6.3C76.5,237.1,83.1,244.7,76.5,243.3z"/>
		<path id="XMLID_00000106852658656712820120000011528464769342511796_" class="st6" d="M85.7,232.8l-41.9-21.1
			c0,0-9.7-12.5,1.1-8.4L89,226.7L85.7,232.8z"/>
		<path id="XMLID_00000034052571242948001250000000747940053536445879_" class="st6" d="M17.6,210.2l34.8,20.6c0,0,6.9-1.7,0-7.7
			l-34.8-19.9V210.2z"/>
		<path id="XMLID_00000088841910166668808960000018122174433757474981_" class="st6" d="M124,253l-10.6-7c0,0-4.5-3.8,0-5.3
			l10.6,6.1C124,246.9,130,252.6,124,253z"/>
		<path id="XMLID_00000076589359456589729470000004333271464810164146_" class="st6" d="M191.4,243.3l15-7.7c0,0,4.3-5.1-0.2-4.9
			l-14.9,6.7C191.4,237.5,186,243.5,191.4,243.3z"/>
		
			<ellipse id="XMLID_00000121258841706110431800000011740863088814277560_" transform="matrix(0.9318 -0.363 0.363 0.9318 -77.8553 73.5701)" class="st6" cx="156.8" cy="243.9" rx="4.6" ry="2.6"/>
	</g>
	<polygon id="XMLID_00000166663607547986748810000002104939223233718700_" class="st3" points="60.4,214.3 67.2,209.6 67.2,199.7 
		58.1,195.6 	"/>
	<path id="XMLID_00000044151519407313954430000017686232669501353134_" class="st7" d="M60.6,201.3l17,9.2c0,0,5.7,3.7,4.9,8.6
		c-0.8,4.8,0,17.8,0,17.8s6.2,19.5,20.2,12.4v-17.3c0,0-5-13.9,32.8,10.6l-6.4-13.8l-68.4-35.5V201.3z"/>
	<path id="XMLID_00000133492308306054296590000001450253868417909911_" class="st7" d="M10.7,170c0,0,0.4,22.3,2,25.7
		c1.2,2.5,5,22.7,18.2,11.8v-25.9c0,0,4.1-6.2,9.9,6.2v14.4c0,0,6.6,19.9,19.8,12v-21l-48.2-28.1L10.7,170z"/>
	<polygon id="XMLID_00000047030080475115892880000010192739004629745792_" class="st7" points="10.7,158.3 135,228.7 259.2,158.3 
		259.5,170.8 135.4,242.5 10.5,171.5 	"/>
	<path id="XMLID_00000135675269848749076940000015357666487226534828_" class="st7" d="M259.5,170.8v30.5c0,0-9.9,20.2-20.6,9.7
		v-27.8c0,0-2.5-9.7-10.7,5.6v18.3c0,0-10.7,20-19,10.2v-10.2c0,0-2-5.4-7.8-2.8s-5.1-3.9-5.1-3.9l51.4-31.7L259.5,170.8z"/>
	<polygon id="XMLID_00000171701690120413976430000011470086917958754712_" class="st8" points="48.6,235.4 134.8,283.2 220.3,235.4 
		241.7,246.9 135.4,307.4 25.4,246.9 	"/>
	<g id="tree_x5F_3_00000180359592860076058810000006073151293275865525_">
		<ellipse id="XMLID_00000099657491056574173960000016477797815749168274_" class="st4" cx="35.5" cy="156.6" rx="8.1" ry="4.5"/>
		<path id="XMLID_00000092457424765548478360000017842481039814222255_" class="st9" d="M34.5,157.9h1.3c1.1,0,2-0.9,2-2v-8.7
			c0-1.1-0.9-2-2-2h-1.3c-1.1,0-2,0.9-2,2v8.7C32.5,157,33.4,157.9,34.5,157.9z"/>
		<g id="XMLID_00000056402179982115293110000005345546383570633618_">
			<path id="XMLID_00000050657025325619643650000000968571400101896602_" class="st4" d="M46.5,131.2l2.7,6.2c0,0-0.7,0.7-2,1.7
				l-2.8-6.4C45.2,132.1,46,131.6,46.5,131.2z"/>
			<path id="XMLID_00000081612645028221546860000000554743558423972028_" class="st4" d="M22.8,138.8c-0.5-0.4-1.1-0.9-1.6-1.4
				l2.6-6.3c0.6,0.5,1.1,0.9,1.7,1.3L22.8,138.8z"/>
			<path id="XMLID_00000161614224978968312430000006892994025456234168_" class="st3" d="M22.8,138.8c10.6,8.7,20.3,3.4,24.3,0.2
				l2,4.6c0,0-13.7,14.1-28.4,0L22.8,138.8z"/>
			<path id="XMLID_00000172411326446999836980000013475444378645854879_" class="st4" d="M22.8,138.8l2.6-6.4c7.8,5.6,15,2.8,19,0.2
				l2.8,6.4C43.1,142.2,33.3,147.6,22.8,138.8z"/>
			<path id="XMLID_00000169528586953660711130000011666338213289262491_" class="st10" d="M34.9,101.2l12.6,29.1
				c0,0-0.3,0.4-1.1,0.9c-0.5,0.4-1.2,1-2.1,1.5c-4,2.6-11.1,5.4-19-0.2c-0.6-0.4-1.1-0.8-1.7-1.3c-0.3-0.2-0.7-0.6-1-0.9
				L34.9,101.2z"/>
		</g>
		<g id="XMLID_00000147934078866338548880000004225326741984731299_">
			<path id="XMLID_00000059308948040444702720000002518817999493808053_" class="st10" d="M46.5,131.2l-5.5-12.8l0.7-1.7l5.9,13.5
				C47.5,130.2,47.1,130.6,46.5,131.2z"/>
			<path id="XMLID_00000131326548750538103270000007357114828054890168_" class="st4" d="M46.5,131.2l2.7,6.2c0,0-0.7,0.7-2,1.7
				l-2.8-6.4C45.2,132.1,46,131.6,46.5,131.2z"/>
			<path id="XMLID_00000151534543794876327000000009917016273481617852_" class="st11" d="M46.5,131.2l2.7,6.2c0,0-0.7,0.7-2,1.7
				l-2.8-6.4C45.2,132.1,46,131.6,46.5,131.2z"/>
			<path id="XMLID_00000176736296162882179810000000534732151798633616_" class="st10" d="M39.5,121.5l1.4-3.1l5.5,12.8
				c-0.5,0.4-1.2,1-2.1,1.5L39.5,121.5z"/>
			<path id="XMLID_00000145766791039737185120000017330985624705208500_" class="st3" d="M47.2,139.1l2,4.6c0,0-9.7,10.1-21.6,4.7
				l2.5-5.6C37.6,145.2,44.1,141.5,47.2,139.1z"/>
			<path id="XMLID_00000112626549100359826950000004633490218518258331_" class="st11" d="M47.2,139.1l2,4.6c0,0-9.7,10.1-21.6,4.7
				l2.5-5.6C37.6,145.2,44.1,141.5,47.2,139.1z"/>
			<path id="XMLID_00000014619721743400812560000003200272982160184503_" class="st4" d="M30,142.9l3.2-7.3
				c4.6,0.5,8.6-1.2,11.1-2.9l2.8,6.4C44.1,141.5,37.6,145.2,30,142.9z"/>
			<path id="XMLID_00000106146896517008931230000000052655278581010879_" class="st11" d="M30,142.9l3.2-7.3
				c4.6,0.5,8.6-1.2,11.1-2.9l2.8,6.4C44.1,141.5,37.6,145.2,30,142.9z"/>
			<path id="XMLID_00000167361241495330006740000016134014458194030502_" class="st10" d="M33.2,135.6l6.3-14.1l4.9,11.2
				C41.8,134.4,37.9,136.2,33.2,135.6z"/>
			<path id="XMLID_00000069373764959180712250000003503725254904006591_" class="st11" d="M39.5,121.5l1.4-3.1l0.7-1.7l5.9,13.5
				c0,0-0.3,0.4-1.1,0.9c-0.5,0.4-1.2,1-2.1,1.5c-2.6,1.7-6.5,3.5-11.1,2.9L39.5,121.5z"/>
		</g>
	</g>
	<path id="XMLID_00000162326931725759565090000004273570868925014202_" class="st12" d="M187.6,97.7"/>
</g>
<g>
	<g>
		<polygon class="st13" points="237.4,132.5 239.8,131.2 239.8,128.2 116.7,199.3 116.7,220.8 239.8,150 239.8,147.3 237.5,145.7 		
			"/>
	</g>
	<polygon class="st13" points="40.9,177 116.7,220.8 239.8,150 164.2,106.4 	"/>
	<polygon class="st13" points="40.9,155.2 40.9,177 116.7,220.8 116.7,199.3 	"/>
	<polygon class="st14" points="40.9,155.2 116.7,199.3 239.8,128.2 164.2,84.6 	"/>
	<polygon class="st15" points="44.2,160.5 44.2,176 116.7,217.7 116.7,202.3 	"/>
	<polygon class="st16" points="237.4,132.5 237.6,147.9 116.7,217.7 116.7,202.3 	"/>
	<polygon class="st14" points="44.2,176 46.5,174.9 46.5,161.8 44.2,160.5 	"/>
	<polygon class="st14" points="116.7,217.7 116.7,215.2 46.5,174.9 44.2,176 	"/>
	<polygon class="st14" points="239.8,147.3 237.5,145.7 235.2,147 116.7,215.2 116.7,217.7 	"/>
	<path class="st17" d="M249.5,140.1"/>
	<polygon class="st18" points="61.2,173.9 73.1,180.9 69.8,182.8 58,176 	"/>
	<polygon class="st19" points="69.8,182.8 68.2,185.5 57.2,179.1 58,176 	"/>
	<g>
		<polygon class="st20" points="57.2,179.1 57.2,197.7 62.7,193.3 68.2,204.2 68.2,185.5 		"/>
	</g>
	<g>
		<polygon class="st21" points="205,131.5 157.4,104 130.1,119.6 177.8,147.2 		"/>
	</g>
</g>
<g>
	<g>
		<polygon class="st22" points="252.1,114.8 254.4,113.5 254.4,110.5 131.3,181.6 131.3,203.1 254.4,132.3 254.4,129.6 252.2,128 		
			"/>
	</g>
	<polygon class="st22" points="55.5,159.3 131.3,203.1 254.4,132.3 178.8,88.7 	"/>
	<polygon class="st23" points="55.5,137.5 55.5,159.3 131.3,203.1 131.3,181.6 	"/>
	<polygon class="st24" points="55.5,137.5 131.3,181.6 254.4,110.5 178.8,66.8 	"/>
	<polygon class="st15" points="58.9,142.8 58.9,158.3 131.3,200 131.3,184.6 	"/>
	<polygon class="st16" points="252.1,114.8 252.3,130.2 131.3,200 131.3,184.6 	"/>
	<polygon class="st25" points="58.9,158.3 61.2,157.2 61.2,144.1 58.9,142.8 	"/>
	<polygon class="st25" points="131.3,200 131.3,197.5 61.2,157.2 58.9,158.3 	"/>
	<polygon class="st26" points="254.4,129.6 252.2,128 249.9,129.3 131.3,197.5 131.3,200 	"/>
	<path class="st17" d="M264.2,122.4"/>
	<g>
		<polygon class="st21" points="219.7,113.8 172.1,86.3 144.7,101.9 192.5,129.5 		"/>
	</g>
</g>
<g>
	<rect x="99.4" y="121.5" class="st27" width="9.7" height="16.2"/>
	<path class="st28" d="M49.4,64.8c3.6-2.1,7.2-4.3,10.9-6.4c5.5-3.2,11.1-6.3,16.6-9.6c20.1-12.1,40.6-23.5,60.9-35.3
		c2.8-1.7,5.7-3.3,8.6-5c0.6-0.4,1.1-0.4,1.8,0c15.1,8.8,30.3,17.5,45.5,26.3c7.4,4.3,14.8,8.4,22.1,12.8
		c9.4,5.7,19.1,11.1,28.6,16.7c0.2,0.1,0.5,0.3,0.7,0.5c-0.2,0.1-0.4,0.3-0.6,0.4c-5.7,3.3-11.5,6.5-17.1,9.9
		c-8.1,4.8-16.3,9.3-24.4,14.3c-7,4.3-14.2,8.3-21.3,12.4c-6.6,3.8-13.2,7.6-19.8,11.4c-4.8,2.8-9.7,5.6-14.5,8.3
		c-1.6-0.7-3.1-1.7-4.6-2.6c-5.5-3.2-11.1-6.4-16.7-9.6c-6.8-3.9-13.5-7.8-20.3-11.8c-1.4-0.8-3-1.4-4.2-2.6c0.4-1,1.1-1.6,2-2.1
		c2.5-1.5,5.1-3.1,7.6-4.6c9.8-5.8,19.7-11.4,29.5-17.1c2.6-1.5,5.2-3,7.8-4.5c1.1-0.7,1.3-1.9,0.7-2.9c-0.6-1-1.7-1.3-2.8-0.8
		c-0.4,0.2-0.8,0.4-1.1,0.6c-13.1,7.6-26.2,15.1-39.3,22.7c-3.1,1.8-6.2,3.4-8.3,6.5c-0.3,0-0.5-0.1-0.8-0.3
		c-2.3-1.4-4.5-2.7-6.8-4.1c-4.8-2.9-9.7-5.6-14.6-8.4c-5.7-3.3-11.4-6.6-17.2-10C55.2,68.2,52.3,66.5,49.4,64.8z"/>
	<path class="st27" d="M198.7,99.8c0,1.7,0,3.4,0.1,5.1c0,7,0,14,0,20.9c0,0.4,0,0.8-0.1,1.2c-0.3,0.2-0.3,0.4,0,0.6
		c0,3.2-1.1,6-2.7,8.7c-2.9,4.7-7,8.1-11.8,10.9c-7.2,4.2-15.1,6.6-23.4,7.9c-11.3,1.7-22.6,1.4-33.8-1.3c-8.2-2-16-5.1-22.6-10.5
		c-1.2-1-2.2-2-3.3-3.1c0.4-1.5,0.8-2.9,1.2-4.4c0.4-1.5,0.4-3-0.6-4.3c-0.2-0.3-0.2-0.4,0-0.7c2.9-3.2,2.7-6.1-0.6-9
		c-0.4-0.3-0.9-0.5-0.9-1.2c0-6.1,0-12.2,0.1-18.3c0.2,0.1,0.4,0.1,0.6,0.2c3.2,1.8,6.5,3.7,9.7,5.5c2.8,1.6,5.6,3.2,8.5,4.8
		c4,2.3,7.9,4.6,11.9,6.8c2.5,1.4,4.9,3.1,7.5,4.5c2.3,1.3,4.7,2.5,6.9,4c0.6,0.4,1.3,1.2,2.3,0.6c1.3-0.8,2.7-1.4,3.9-2.2
		c2.9-1.8,6.1-3.4,9-5.3c2.8-1.9,5.8-3.3,8.7-5c4.7-2.7,9.4-5.3,14-8c3.8-2.2,7.6-4.4,11.4-6.5C196.1,101.1,197.3,100.2,198.7,99.8z
		"/>
	<path class="st29" d="M198.7,107.2c-1.5,0.3-2.6,1.3-3.9,2c-3.8,2.1-7.6,4.4-11.4,6.6c-4.7,2.7-9.4,5.4-14,8.1
		c-2.9,1.7-5.9,3.1-8.7,5c-2.9,2-6,3.5-9,5.4c-1.3,0.8-2.6,1.5-3.9,2.3c-1,0.6-1.6-0.2-2.3-0.6c-2.3-1.4-4.6-2.7-6.9-4
		c-2.6-1.4-4.9-3.1-7.5-4.6c-4-2.2-7.9-4.6-11.9-6.9c-2.8-1.6-5.6-3.3-8.5-4.9c-3.2-1.9-6.5-3.7-9.7-5.6c-0.2-0.1-0.4-0.1-0.6-0.2
		c0-4.1,0-8.1,0-12.2c0.5,0.1,0.9,0.4,1.4,0.6c2.9,1.7,5.7,3.4,8.6,5c4.2,2.4,8.3,4.8,12.5,7.2c4.3,2.5,8.6,5,12.9,7.5
		c1.5,0.9,3.1,1.7,4.6,2.6c2.1,1.2,4.2,2.5,6.3,3.7c0.5,0.3,0.5-0.1,0.5-0.4c0-0.8,0-1.6,0-2.4c4.8-2.8,9.7-5.6,14.5-8.3
		c6.6-3.8,13.2-7.6,19.8-11.4c7.1-4.1,14.3-8.1,21.3-12.4c8-4.9,16.3-9.4,24.4-14.3c5.7-3.4,11.4-6.6,17.1-9.9
		c0.2-0.1,0.4-0.3,0.6-0.4c0.5,0.9,0.1,1.9,0.2,2.8c0,0.4-0.4,0.4-0.7,0.6c-9.5,5.5-18.9,10.9-28.4,16.4c-2.1,1.2-4.3,2.3-6.3,3.7
		c-3.3,2.2-6.9,4.1-10.3,6.1c-0.5,0.3-0.6,0.7-0.6,1.2C198.8,99.5,198.7,103.3,198.7,107.2z"/>
	<path class="st30" d="M100.4,97.7c0,4.1,0,8.1,0,12.2c0,6.2,0,12.4-0.1,18.6c0,0.7,0.5,0.9,0.9,1.2c3.3,2.9,3.6,5.8,0.6,9.1
		c-0.3,0.3-0.2,0.4,0,0.7c1,1.3,1.1,2.8,0.6,4.3c-0.4,1.5-0.8,3-1.2,4.5c-0.5,1.3-1,2.6-1.4,3.9c-0.5,1.3-0.9,2.6-1.4,3.9
		c-0.2-0.1-0.3-0.2-0.3-0.3c-1.6-4.2-3.2-8.3-4.2-12.7c-0.3-1.3-0.1-2.4,0.6-3.4c0.3-0.5,0.4-0.7-0.1-1.2c-2.6-2.6-2.3-6.4,0.6-8.7
		c0.3-0.2,0.5-0.4,0.6-0.7c0.5-0.1,0.4-0.5,0.4-0.9c0-7.1,0-14.2,0-21.3c0-1.9,0-3.8,0-5.6c0-2-0.2-4.1,0.4-6.1
		c0.4-0.9,0.7-1.7,1.1-2.6c2-3.1,5.2-4.7,8.3-6.5c13.1-7.6,26.2-15.1,39.3-22.7c0.4-0.2,0.8-0.4,1.1-0.6c1.1-0.5,2.3-0.2,2.8,0.8
		c0.6,1,0.4,2.3-0.7,2.9c-2.6,1.6-5.2,3-7.8,4.5c-9.9,5.7-19.8,11.3-29.5,17.1c-2.5,1.5-5.1,3-7.6,4.6c-0.8,0.5-1.6,1.2-2,2.1
		C100.7,95.7,100.5,96.7,100.4,97.7z"/>
	<path class="st27" d="M97.5,92.7c-0.4,0.9-0.7,1.7-1.1,2.6c-0.4,0-0.5-0.3-0.8-0.4c-2.8-1.6-5.6-3.3-8.4-5
		c-12.2-7.5-24.8-14.4-37.2-21.7c-0.6-0.3-0.9-0.7-0.7-1.4c0.1-0.7-0.2-1.4,0.2-2.1c2.9,1.7,5.9,3.5,8.8,5.2
		c5.7,3.3,11.4,6.7,17.2,10c4.9,2.8,9.8,5.5,14.6,8.4c2.3,1.4,4.5,2.7,6.8,4.1C96.9,92.5,97.2,92.7,97.5,92.7z"/>
	<path class="st27" d="M96,107c0,7.1,0,14.2,0,21.3c0,0.4,0,0.8-0.4,0.9c0-7.4,0-14.8,0-22.2C95.7,107,95.8,107,96,107z"/>
	<path class="st29" d="M96,107c-0.1,0-0.3,0-0.4,0c0-4.1,0-8.1,0-12.2c0.3,0.1,0.5,0.4,0.8,0.4c-0.6,2-0.3,4.1-0.4,6.1
		C96,103.3,96,105.1,96,107z"/>
	<path class="st27" d="M100.4,97.7c0.1-1,0.3-1.9,1-2.7c1.2,1.2,2.8,1.8,4.2,2.6c6.7,3.9,13.5,7.9,20.3,11.8
		c5.5,3.2,11.1,6.4,16.7,9.6c1.5,0.9,3,1.9,4.6,2.6c0,0.8,0,1.6,0,2.4c0,0.3,0,0.6-0.5,0.4c-2.1-1.2-4.2-2.5-6.3-3.7
		c-1.5-0.9-3.1-1.7-4.6-2.6c-4.3-2.5-8.6-5-12.9-7.5c-4.2-2.4-8.3-4.8-12.5-7.2c-2.9-1.7-5.7-3.3-8.6-5
		C101.3,98,100.9,97.8,100.4,97.7z"/>
</g>
</svg>
