<?xml version="1.0" encoding="utf-8"?>
<!-- Generator: Adobe Illustrator 28.3.0, SVG Export Plug-In . SVG Version: 6.00 Build 0)  -->
<svg version="1.1" id="Layer_1" xmlns="http://www.w3.org/2000/svg" xmlns:xlink="http://www.w3.org/1999/xlink" x="0px" y="0px"
	 viewBox="0 0 1450 450" style="enable-background:new 0 0 1450 450;" xml:space="preserve">
<style type="text/css">
	.st0{fill:none;stroke:#AFAEB1;stroke-width:2;stroke-dasharray:7,7;}
	.st1{font-family:'MyriadPro-Regular';}
	.st2{font-size:18px;}
	.st3{fill:#4BAE4C;}
	.st4{fill:none;stroke:#4BAE4C;stroke-width:2;}
	.st5{fill:none;stroke:#000000;stroke-width:2;}
	.st6{fill:#AFAEB1;}
</style>
<line class="st0" x1="1357.1" y1="275.3" x2="1409.1" y2="275.3"/>
<text transform="matrix(1 0 0 1 47.3515 165.8908)"><tspan x="0" y="0" class="st1 st2">bobry were first</tspan><tspan x="0" y="21.6" class="st1 st2">added to the world </tspan><tspan x="0" y="43.2" class="st1 st2">(kurwa)</tspan></text>
<text transform="matrix(1 0 0 1 258.9032 166.15)"><tspan x="0" y="0" class="st1 st2">“they” did </tspan><tspan x="0" y="21.6" class="st1 st2">surgery</tspan><tspan x="0" y="43.2" class="st1 st2">on a grape</tspan></text>
<text transform="matrix(1 0 0 1 608.9999 151.0999)"><tspan x="0" y="0" class="st1 st2">founding of the</tspan><tspan x="0" y="21.6" class="st1 st2">resistance as a result</tspan></text>
<ellipse class="st3" cx="1188.1" cy="108.3" rx="9.4" ry="9.5"/>
<line class="st4" x1="965.8" y1="108.5" x2="1189.3" y2="108.5"/>
<ellipse class="st3" cx="964.6" cy="108.3" rx="9.4" ry="9.5"/>
<line class="st5" x1="607.3" y1="191.7" x2="1409.4" y2="191.7"/>
<path class="st5" d="M513.1,109.6c9.3-0.5,25,1.6,47.3,35.8c9.2,15.9,27.4,51.4,48.6,45.6"/>
<path class="st4" d="M607.3,191.7c13.5-0.6,35.1,8,67.6,47.7c21.1,27.2,32.6,36.1,63.9,35.9h618.3"/>
<line class="st4" x1="93.4" y1="108" x2="965.3" y2="109.2"/>
<ellipse class="st3" cx="93.1" cy="108.3" rx="9.4" ry="9.5"/>
<ellipse class="st3" cx="293.7" cy="108.3" rx="8.8" ry="9.5"/>
<ellipse class="st3" cx="741.2" cy="108.3" rx="9.4" ry="9.5"/>
<ellipse class="st3" cx="517.2" cy="108.3" rx="8.8" ry="9.5"/>
<ellipse cx="1188.1" cy="192.3" rx="9.4" ry="8.9"/>
<ellipse class="st3" cx="1409.4" cy="108.6" rx="9.4" ry="9.5"/>
<line class="st4" x1="1187.1" y1="108.8" x2="1410.6" y2="108.8"/>
<ellipse cx="1410.6" cy="191.6" rx="9" ry="9"/>
<ellipse class="st6" cx="1185.8" cy="364.7" rx="9.4" ry="9.5"/>
<line class="st0" x1="843" y1="363.7" x2="1181.6" y2="363.7"/>
<ellipse class="st3" cx="738.9" cy="364.7" rx="9.4" ry="9.5"/>
<ellipse class="st3" cx="842.4" cy="364.1" rx="8.8" ry="8.9"/>
<path class="st4" d="M606.1,197.1l26.7,70.7c17.9,47.5,57.5,83.5,106.5,96.8l0,0l104,0.6"/>
<ellipse class="st3" cx="1247.5" cy="274.8" rx="9.4" ry="9.5"/>
<ellipse class="st3" cx="1301.2" cy="275.3" rx="9.4" ry="9.5"/>
<ellipse class="st3" cx="1359.4" cy="274.8" rx="9.4" ry="9.5"/>
<ellipse class="st6" cx="1410.9" cy="275.3" rx="9.4" ry="9.5"/>
<ellipse cx="606.1" cy="192.3" rx="8.8" ry="8.9"/>
<text transform="matrix(1.2495 0 0 1 70.388 43.8)" class="st1 st2">1974</text>
<text transform="matrix(1.2495 0 0 1 270.7298 43.7999)" class="st1 st2">1975</text>
<text transform="matrix(1.2495 0 0 1 494.7999 43.7998)" class="st1 st2">1976</text>
<text transform="matrix(1.2495 0 0 1 719.9999 43.7997)" class="st1 st2">1977</text>
<text transform="matrix(1.2495 0 0 1 942.0351 43.9973)" class="st1 st2">1978</text>
<text transform="matrix(1.2495 0 0 1 1166.8625 43.812)" class="st1 st2">1979</text>
<text transform="matrix(1.2495 0 0 1 1373.9808 44.1949)" class="st1 st2">1980</text>
<text transform="matrix(1 0 0 1 667.399 400.1709)"><tspan x="0" y="0" class="st1 st2">this is just a</tspan><tspan x="0" y="21.6" class="st1 st2">representation of my pp</tspan></text>
<text transform="matrix(1 0 0 1 778.5457 345.9922)" class="st1 st2">((its not that long))</text>
<text transform="matrix(1 0 0 1 1125.8281 400.1711)"><tspan x="0" y="0" class="st1 st2">((but it has a decent</tspan><tspan x="0" y="21.6" class="st1 st2">firing range))</tspan></text>
<text transform="matrix(1 0 0 1 1110.731 151.2975)"><tspan x="0" y="0" class="st1 st2">resistance first</tspan><tspan x="0" y="21.6" class="st1 st2">acknowledged by ingsoc</tspan></text>
<text transform="matrix(1 0 0 1 1188.1002 236.9598)"><tspan x="0" y="0" class="st1 st2">splinter parties</tspan><tspan x="0" y="21.6" class="st1 st2">begin to emerge</tspan></text>
<text transform="matrix(1 0 0 1 1309.2747 307.5914)"><tspan x="0" y="0" class="st1 st2">they are found</tspan><tspan x="0" y="21.6" class="st1 st2">out to be</tspan><tspan x="0" y="43.2" class="st1 st2">constructed by</tspan><tspan x="0" y="64.8" class="st1 st2">ingsoc</tspan></text>
<text transform="matrix(1 0 0 1 892.7075 69.9474)"><tspan x="0" y="0" class="st1 st2">massive jump ahead</tspan><tspan x="0" y="21.6" class="st1 st2">begins</tspan></text>
</svg>
