<?xml version="1.0" encoding="utf-8"?>
<!-- Generator: Adobe Illustrator 26.0.3, SVG Export Plug-In . SVG Version: 6.00 Build 0)  -->
<svg version="1.1" id="Layer_1" xmlns="http://www.w3.org/2000/svg" xmlns:xlink="http://www.w3.org/1999/xlink" x="0px" y="0px"
	 viewBox="0 0 1450 450" style="enable-background:new 0 0 1450 450;" xml:space="preserve">
<style type="text/css">
	.st0{fill:none;stroke:#AFAEB1;stroke-width:2;stroke-dasharray:7,7;}
	.st1{fill:#7D7987;}
	.st2{fill:#4BAE4C;}
	.st3{fill:none;stroke:#4BAE4C;stroke-width:2;}
	.st4{fill:none;stroke:url(#SVGID_1_);stroke-width:2;}
	.st5{fill:none;stroke:url(#SVGID_00000053527329659271832230000008266901968569499825_);stroke-width:2;}
	.st6{fill:url(#SVGID_00000155830614509610875860000016781005883439264680_);}
	.st7{enable-background:new    ;}
	.st8{fill:url(#SVGID_00000067196213259586088860000001552912345429222581_);}
	.st9{fill:#AFAEB1;}
	.st10{fill:url(#SVGID_00000155841968580226386940000014708671828619615143_);}
</style>
<line class="st0" x1="1357.1" y1="275.3" x2="1409.1" y2="275.3"/>
<path class="st1" d="M73.1,44.6v-0.8l4.6-4.9c0.6-0.6,1.1-1.2,1.4-1.8s0.5-1.2,0.5-1.9c0-0.8-0.2-1.4-0.7-1.8s-1.2-0.6-2.1-0.6
	c-0.7,0-1.4,0.1-1.9,0.4s-1.1,0.6-1.7,1.2l-0.5-0.9c0.5-0.5,1.1-0.9,1.8-1.2c0.7-0.3,1.5-0.5,2.3-0.5c1.2,0,2.2,0.3,2.9,0.9
	c0.7,0.6,1,1.4,1,2.5c0,0.8-0.2,1.6-0.6,2.3s-1,1.5-1.7,2.2L74.2,44v-0.3h7v1h-8.1V44.6z M87.7,44.8c-1.4,0-2.5-0.6-3.3-1.7
	c-0.8-1.1-1.1-2.7-1.1-4.8s0.4-3.8,1.1-4.8c0.8-1.1,1.8-1.7,3.3-1.7c1.4,0,2.5,0.6,3.3,1.7s1.1,2.7,1.1,4.8S91.7,42,91,43.1
	C90.2,44.2,89.1,44.8,87.7,44.8z M87.7,43.8c1.1,0,1.9-0.5,2.4-1.4s0.8-2.3,0.8-4.2s-0.3-3.3-0.8-4.2s-1.4-1.3-2.4-1.3
	c-1.1,0-1.9,0.4-2.4,1.3c-0.5,0.9-0.8,2.3-0.8,4.1c0,1.9,0.3,3.3,0.8,4.2C85.8,43.3,86.6,43.8,87.7,43.8z M95.5,44.6v-1h3V32.9h0.6
	L95.7,35v-1.2l3-2h0.8v11.7h2.8v1L95.5,44.6L95.5,44.6z M109.7,44.8c-1.5,0-2.7-0.5-3.5-1.6s-1.2-2.6-1.2-4.5c0-1.5,0.2-2.7,0.6-3.7
	s1-1.8,1.8-2.3s1.7-0.8,2.8-0.8c0.6,0,1.3,0.1,2,0.4s1.2,0.7,1.6,1.1l-0.4,0.9c-0.5-0.5-1-0.9-1.5-1.1s-1.1-0.4-1.7-0.4
	c-1.3,0-2.3,0.5-3,1.4s-1,2.3-1,4.2v1.9h-0.1c0.1-0.7,0.3-1.3,0.6-1.9c0.3-0.5,0.8-0.9,1.3-1.2c0.6-0.3,1.2-0.4,1.9-0.4
	c0.8,0,1.5,0.2,2.1,0.5s1.1,0.8,1.4,1.4c0.3,0.6,0.5,1.3,0.5,2.1s-0.2,1.5-0.5,2.1s-0.8,1.1-1.4,1.4
	C111.1,44.6,110.4,44.8,109.7,44.8z M109.6,43.8c0.6,0,1.1-0.1,1.6-0.4s0.8-0.6,1.1-1.1c0.3-0.5,0.4-1,0.4-1.6s-0.1-1.1-0.4-1.6
	s-0.6-0.8-1.1-1.1s-1-0.4-1.6-0.4s-1.1,0.1-1.6,0.4s-0.8,0.6-1.1,1.1c-0.3,0.4-0.4,1-0.4,1.6s0.1,1.1,0.4,1.6s0.6,0.8,1.1,1.1
	C108.4,43.7,109,43.8,109.6,43.8z"/>
<path class="st1" d="M55.4,158.9v-10.6h0.9v4.8h6.8v-4.8H64v10.6h-0.9V154h-6.8v4.9H55.4z M69.6,159c-0.7,0-1.3-0.2-1.8-0.5
	s-0.9-0.8-1.2-1.3c-0.3-0.5-0.4-1.3-0.4-2.1s0.1-1.5,0.4-2.1s0.7-1,1.2-1.3s1.1-0.5,1.8-0.5c0.7,0,1.3,0.2,1.8,0.5
	c0.5,0.4,0.8,0.9,1,1.5h-0.2l0.2-1.9h0.9c0,0.3-0.1,0.6-0.1,0.9c0,0.3,0,0.6,0,0.8v5.8h-0.9v-1.9h0.2c-0.2,0.6-0.5,1.1-1,1.5
	C70.8,158.8,70.2,159,69.6,159z M69.7,158.2c0.8,0,1.4-0.3,1.8-0.8s0.7-1.3,0.7-2.3s-0.2-1.8-0.7-2.3s-1.1-0.8-1.8-0.8
	c-0.8,0-1.4,0.3-1.8,0.8c-0.5,0.5-0.7,1.3-0.7,2.3s0.2,1.8,0.7,2.3C68.3,157.9,68.9,158.2,69.7,158.2z M78.6,159
	c-0.7,0-1.3-0.2-1.9-0.5c-0.5-0.3-0.9-0.8-1.2-1.4c-0.3-0.6-0.4-1.3-0.4-2.1s0.1-1.5,0.4-2.1s0.7-1,1.2-1.3s1.2-0.4,1.9-0.4
	c0.5,0,0.9,0.1,1.4,0.3s0.8,0.4,1.1,0.8l-0.4,0.7c-0.3-0.3-0.6-0.5-1-0.7c-0.4-0.1-0.7-0.2-1.1-0.2c-0.8,0-1.5,0.3-1.9,0.8
	s-0.7,1.3-0.7,2.3s0.2,1.8,0.7,2.3s1.1,0.8,1.9,0.8c0.3,0,0.7-0.1,1.1-0.2c0.4-0.1,0.7-0.4,1-0.7l0.4,0.7c-0.3,0.3-0.7,0.6-1.1,0.8
	C79.5,158.9,79.1,159,78.6,159z M82.9,158.9v-11h0.9v6.9l0,0l3.7-3.4h1.2l-4.3,3.9v-0.6l4.7,4.2H88l-4.1-3.6l0,0v3.6L82.9,158.9
	L82.9,158.9z M93.2,159c-0.7,0-1.3-0.2-1.8-0.5s-0.9-0.8-1.2-1.3c-0.3-0.6-0.4-1.3-0.4-2.1s0.1-1.5,0.4-2.1s0.7-1,1.2-1.3
	s1.1-0.5,1.8-0.5c0.7,0,1.3,0.2,1.8,0.5c0.5,0.4,0.8,0.9,1,1.5h-0.2l0.2-1.9h0.9c0,0.3-0.1,0.6-0.1,0.9c0,0.3,0,0.6,0,0.8v5.8h-0.9
	v-1.9H96c-0.2,0.6-0.5,1.1-1,1.5S93.9,159,93.2,159z M93.3,158.2c0.8,0,1.4-0.3,1.8-0.8c0.5-0.5,0.7-1.3,0.7-2.3s-0.2-1.8-0.7-2.3
	c-0.4-0.5-1.1-0.8-1.8-0.8c-0.8,0-1.4,0.3-1.8,0.8c-0.5,0.5-0.7,1.3-0.7,2.3s0.2,1.8,0.7,2.3C91.9,157.9,92.5,158.2,93.3,158.2z
	 M102.7,159c-0.7,0-1.3-0.2-1.8-0.5c-0.5-0.4-0.8-0.9-1-1.5h0.2v1.9h-0.9v-11h0.9v5.4H100c0.2-0.6,0.5-1.1,1-1.5s1.1-0.5,1.8-0.5
	c0.7,0,1.3,0.2,1.8,0.5s0.9,0.8,1.2,1.3c0.3,0.6,0.4,1.3,0.4,2.1s-0.1,1.5-0.4,2.1s-0.7,1-1.2,1.3C104,158.8,103.4,159,102.7,159z
	 M102.6,158.2c0.8,0,1.4-0.3,1.8-0.8c0.5-0.5,0.7-1.3,0.7-2.3s-0.2-1.8-0.7-2.3s-1.1-0.8-1.8-0.8c-0.8,0-1.4,0.3-1.8,0.8
	s-0.7,1.3-0.7,2.3s0.2,1.8,0.7,2.3C101.2,157.9,101.9,158.2,102.6,158.2z M110.7,159c-0.9,0-1.5-0.2-2-0.7s-0.7-1.2-0.7-2.2v-4.8
	h0.9v4.7c0,0.8,0.2,1.3,0.5,1.7s0.8,0.5,1.4,0.5c0.7,0,1.3-0.2,1.7-0.7c0.4-0.5,0.7-1.1,0.7-1.9v-4.3h0.9v7.5h-0.9V157h0.2
	c-0.2,0.6-0.6,1.1-1,1.4C111.9,158.8,111.3,159,110.7,159z M116.6,158.9v-5.8c0-0.3,0-0.6,0-0.9c0-0.3,0-0.6-0.1-0.9h0.9l0.1,1.7
	h-0.2c0.1-0.4,0.3-0.8,0.5-1c0.3-0.3,0.6-0.5,0.9-0.6s0.7-0.2,1.1-0.2c0.1,0,0.2,0,0.4,0c0.1,0,0.2,0,0.3,0.1v0.8
	c-0.1,0-0.2-0.1-0.4-0.1c-0.1,0-0.2,0-0.4,0c-0.4,0-0.8,0.1-1.2,0.3c-0.3,0.2-0.6,0.5-0.8,0.8s-0.3,0.7-0.3,1v4.6h-0.8V158.9z
	 M125,162.2c-0.6,0-1.2-0.1-1.8-0.3c-0.5-0.2-1-0.4-1.5-0.8l0.3-0.7c0.3,0.2,0.6,0.4,0.9,0.5s0.6,0.2,0.9,0.3s0.7,0.1,1,0.1
	c0.8,0,1.3-0.2,1.7-0.6c0.4-0.4,0.6-1,0.6-1.7v-2.4h0.2c-0.2,0.6-0.5,1.1-1,1.5s-1.1,0.5-1.8,0.5c-0.7,0-1.3-0.2-1.8-0.4
	c-0.5-0.3-0.9-0.7-1.2-1.3c-0.3-0.6-0.4-1.2-0.4-2s0.1-1.4,0.4-2s0.7-1,1.2-1.3s1.1-0.5,1.8-0.5c0.7,0,1.3,0.2,1.8,0.5
	c0.5,0.4,0.8,0.8,1,1.5l-0.2-0.2l0.1-1.7h0.9c0,0.3-0.1,0.6-0.1,0.9c0,0.3,0,0.6,0,0.8v5.9c0,1.1-0.3,1.9-0.8,2.4
	C126.8,161.9,126,162.2,125,162.2z M124.8,157.9c0.8,0,1.4-0.3,1.8-0.8c0.5-0.5,0.7-1.2,0.7-2.2c0-0.9-0.2-1.7-0.7-2.2
	c-0.4-0.5-1.1-0.8-1.8-0.8s-1.4,0.3-1.9,0.8s-0.7,1.2-0.7,2.2c0,0.9,0.2,1.7,0.7,2.2C123.4,157.7,124,157.9,124.8,157.9z
	 M44.5,178.9l-2.7-7.5h1l2.4,7h-0.4l2.5-7h0.9l2.5,7h-0.4l2.4-7h0.9l-2.7,7.5H50l-2.5-7.1H48l-2.5,7.1H44.5z M55.5,178.9v-7.6h0.9
	v7.5h-0.9V178.9z M55.4,169.5v-1.1h1.2v1.1H55.4z M58.9,178.9v-5.8c0-0.3,0-0.6,0-0.9c0-0.3,0-0.6-0.1-0.9h0.9l0.1,1.7h-0.2
	c0.1-0.4,0.3-0.8,0.5-1c0.3-0.3,0.6-0.5,0.9-0.6s0.7-0.2,1-0.2c0.1,0,0.2,0,0.4,0c0.1,0,0.2,0,0.3,0.1v0.8c-0.1,0-0.2-0.1-0.4-0.1
	c-0.1,0-0.2,0-0.4,0c-0.5,0-0.8,0.1-1.2,0.3c-0.3,0.2-0.6,0.5-0.8,0.8s-0.3,0.7-0.3,1v4.6h-0.7V178.9z M66.9,179
	c-0.7,0-1.3-0.2-1.8-0.5s-0.9-0.8-1.2-1.3s-0.4-1.3-0.4-2.1s0.1-1.5,0.4-2.1c0.3-0.6,0.7-1,1.2-1.3s1.1-0.5,1.8-0.5
	c0.7,0,1.3,0.2,1.8,0.5c0.5,0.4,0.8,0.8,1,1.5h-0.2v-5.4h0.9v11h-0.9v-1.9h0.2c-0.2,0.6-0.5,1.1-1,1.5C68.2,178.8,67.6,179,66.9,179
	z M67,178.2c0.8,0,1.4-0.3,1.8-0.8c0.5-0.5,0.7-1.3,0.7-2.3s-0.2-1.8-0.7-2.3S67.7,172,67,172c-0.8,0-1.4,0.3-1.8,0.8
	c-0.5,0.5-0.7,1.3-0.7,2.3s0.2,1.8,0.7,2.3C65.6,177.9,66.3,178.2,67,178.2z M80,182.2c-0.6,0-1.2-0.1-1.8-0.3
	c-0.5-0.2-1-0.4-1.5-0.8l0.3-0.7c0.3,0.2,0.6,0.4,0.9,0.5s0.6,0.2,0.9,0.3s0.7,0.1,1,0.1c0.8,0,1.3-0.2,1.7-0.6
	c0.4-0.4,0.6-1,0.6-1.7v-2.4h0.2c-0.2,0.6-0.5,1.1-1,1.5s-1.1,0.5-1.8,0.5c-0.7,0-1.3-0.2-1.8-0.4c-0.5-0.3-0.9-0.7-1.2-1.3
	c-0.3-0.6-0.4-1.2-0.4-2s0.1-1.4,0.4-2s0.7-1,1.2-1.3s1.1-0.5,1.8-0.5c0.7,0,1.3,0.2,1.8,0.5c0.5,0.4,0.8,0.8,1,1.5l-0.2-0.2
	l0.1-1.7h0.9c0,0.3-0.1,0.6-0.1,0.9c0,0.3,0,0.6,0,0.8v5.9c0,1.1-0.3,1.9-0.8,2.4C81.8,181.9,81,182.2,80,182.2z M79.7,177.9
	c0.8,0,1.4-0.3,1.8-0.8c0.5-0.5,0.7-1.2,0.7-2.2c0-0.9-0.2-1.7-0.7-2.2c-0.4-0.5-1.1-0.8-1.8-0.8s-1.4,0.3-1.9,0.8s-0.7,1.2-0.7,2.2
	c0,0.9,0.2,1.7,0.7,2.2C78.3,177.7,79,177.9,79.7,177.9z M88.9,179c-1.1,0-2-0.3-2.7-1s-1-1.6-1-2.8c0-0.8,0.1-1.5,0.4-2.1
	s0.7-1,1.2-1.4c0.5-0.3,1.1-0.5,1.8-0.5c0.7,0,1.2,0.1,1.7,0.4c0.5,0.3,0.8,0.7,1.1,1.2c0.2,0.5,0.4,1.1,0.4,1.9v0.4h-6v-0.7h5.4
	l-0.3,0.2c0-0.9-0.2-1.5-0.6-2s-1-0.7-1.7-0.7c-0.8,0-1.5,0.3-1.9,0.9c-0.5,0.6-0.7,1.3-0.7,2.2v0.1c0,1,0.2,1.8,0.7,2.3
	s1.2,0.8,2.1,0.8c0.5,0,0.9-0.1,1.3-0.2c0.4-0.1,0.8-0.4,1.2-0.7l0.4,0.7c-0.3,0.3-0.7,0.6-1.2,0.8C90,178.9,89.4,179,88.9,179z
	 M97,182.2c-0.6,0-1.2-0.1-1.8-0.3c-0.5-0.2-1-0.4-1.5-0.8l0.3-0.7c0.3,0.2,0.6,0.4,0.9,0.5s0.6,0.2,0.9,0.3s0.7,0.1,1,0.1
	c0.8,0,1.3-0.2,1.7-0.6c0.4-0.4,0.6-1,0.6-1.7v-2.4h0.2c-0.2,0.6-0.5,1.1-1,1.5s-1.1,0.5-1.8,0.5c-0.7,0-1.3-0.2-1.8-0.4
	c-0.5-0.3-0.9-0.7-1.2-1.3c-0.3-0.6-0.4-1.2-0.4-2s0.1-1.4,0.4-2s0.7-1,1.2-1.3s1.1-0.5,1.8-0.5c0.7,0,1.3,0.2,1.8,0.5
	c0.5,0.4,0.8,0.8,1,1.5l-0.2-0.2l0.1-1.7h0.9c0,0.3-0.1,0.6-0.1,0.9c0,0.3,0,0.6,0,0.8v5.9c0,1.1-0.3,1.9-0.8,2.4
	C98.9,181.9,98.1,182.2,97,182.2z M96.8,177.9c0.8,0,1.4-0.3,1.8-0.8c0.5-0.5,0.7-1.2,0.7-2.2c0-0.9-0.2-1.7-0.7-2.2
	c-0.4-0.5-1.1-0.8-1.8-0.8c-0.8,0-1.4,0.3-1.9,0.8s-0.7,1.2-0.7,2.2c0,0.9,0.2,1.7,0.7,2.2C95.4,177.7,96,177.9,96.8,177.9z
	 M102.7,178.9v-5.8c0-0.3,0-0.6,0-0.9c0-0.3,0-0.6-0.1-0.9h0.9l0.1,1.7h-0.2c0.1-0.4,0.3-0.8,0.5-1c0.3-0.3,0.6-0.5,0.9-0.6
	s0.7-0.2,1.1-0.2c0.1,0,0.2,0,0.4,0c0.1,0,0.2,0,0.3,0.1v0.8c-0.1,0-0.2-0.1-0.4-0.1c-0.1,0-0.2,0-0.4,0c-0.4,0-0.8,0.1-1.2,0.3
	c-0.3,0.2-0.6,0.5-0.8,0.8s-0.3,0.7-0.3,1v4.6h-0.8V178.9z M110.6,179c-0.9,0-1.5-0.2-2-0.7c-0.4-0.5-0.7-1.2-0.7-2.2v-4.8h0.9v4.7
	c0,0.8,0.2,1.3,0.5,1.7s0.8,0.5,1.4,0.5c0.7,0,1.3-0.2,1.7-0.7c0.4-0.5,0.7-1.1,0.7-1.9v-4.3h0.9v7.5h-0.9V177h0.2
	c-0.2,0.6-0.6,1.1-1,1.4C111.8,178.8,111.2,179,110.6,179z M111.7,169.6v-1.1h1.1v1.1H111.7z M109.2,169.6v-1.1h1.1v1.1H109.2z
	 M116.5,178.9v-5.8c0-0.3,0-0.5,0-0.8s-0.1-0.6-0.1-0.9h0.9l0.1,1.7h-0.2c0.2-0.6,0.6-1.1,1.1-1.4c0.5-0.3,1.1-0.5,1.7-0.5
	c0.9,0,1.6,0.2,2,0.7c0.5,0.5,0.7,1.2,0.7,2.2v4.7h-0.9v-4.7c0-0.8-0.2-1.3-0.5-1.7c-0.3-0.3-0.8-0.5-1.4-0.5
	c-0.8,0-1.4,0.2-1.8,0.7s-0.7,1.1-0.7,1.9v4.3h-0.9C116.5,178.8,116.5,178.9,116.5,178.9z M128,179c-0.7,0-1.3-0.2-1.8-0.5
	s-0.9-0.8-1.2-1.3c-0.3-0.6-0.4-1.3-0.4-2.1s0.1-1.5,0.4-2.1s0.7-1,1.2-1.3s1.1-0.5,1.8-0.5c0.7,0,1.3,0.2,1.8,0.5
	c0.5,0.4,0.8,0.8,1,1.5h-0.2v-5.4h0.9v11h-0.9v-1.9h0.2c-0.2,0.6-0.5,1.1-1,1.5C129.3,178.8,128.7,179,128,179z M128.1,178.2
	c0.8,0,1.4-0.3,1.8-0.8c0.5-0.5,0.7-1.3,0.7-2.3s-0.2-1.8-0.7-2.3s-1.1-0.8-1.8-0.8s-1.4,0.3-1.8,0.8s-0.7,1.3-0.7,2.3
	s0.2,1.8,0.7,2.3S127.4,178.2,128.1,178.2z M137.3,179c-1.1,0-2-0.3-2.7-1s-1-1.6-1-2.8c0-0.8,0.1-1.5,0.4-2.1s0.7-1,1.2-1.4
	c0.5-0.3,1.1-0.5,1.8-0.5s1.2,0.1,1.7,0.4c0.5,0.3,0.8,0.7,1.1,1.2c0.2,0.5,0.4,1.1,0.4,1.9v0.4h-6v-0.7h5.4l-0.3,0.2
	c0-0.9-0.2-1.5-0.6-2c-0.4-0.5-1-0.7-1.7-0.7c-0.8,0-1.5,0.3-1.9,0.9c-0.5,0.6-0.7,1.3-0.7,2.2v0.1c0,1,0.2,1.8,0.7,2.3
	s1.2,0.8,2.1,0.8c0.5,0,0.9-0.1,1.3-0.2c0.4-0.1,0.8-0.4,1.2-0.7l0.4,0.7c-0.3,0.3-0.7,0.6-1.2,0.8C138.3,178.9,137.8,179,137.3,179
	z M144.6,179c-0.7,0-1.2-0.2-1.5-0.6c-0.4-0.4-0.5-1-0.5-1.8v-4.5H141v-0.8h1.5v-2.1l0.9-0.3v2.4h2.2v0.7h-2.2v4.3
	c0,0.6,0.1,1.1,0.3,1.4c0.2,0.3,0.5,0.4,1,0.4c0.2,0,0.4,0,0.5-0.1c0.2,0,0.3-0.1,0.4-0.1v0.8c-0.1,0.1-0.3,0.1-0.5,0.1
	C145,179,144.8,179,144.6,179z M27.9,199c-0.9,0-1.6-0.2-2-0.7s-0.7-1.2-0.7-2.2v-4.8h0.9v4.7c0,0.8,0.2,1.3,0.5,1.7
	s0.8,0.5,1.4,0.5c0.7,0,1.3-0.2,1.7-0.7c0.4-0.5,0.7-1.1,0.7-1.9v-4.3h0.9v7.5h-0.9V197h0.2c-0.2,0.6-0.6,1.1-1,1.4
	C29.1,198.8,28.5,199,27.9,199z M33.8,198.9v-5.8c0-0.3,0-0.5,0-0.8s-0.1-0.6-0.1-0.9h0.9l0.1,1.7h-0.2c0.2-0.6,0.6-1.1,1.1-1.4
	c0.5-0.3,1.1-0.5,1.7-0.5c0.9,0,1.6,0.2,2,0.7c0.5,0.5,0.7,1.2,0.7,2.2v4.7h-0.9v-4.7c0-0.8-0.2-1.3-0.5-1.7
	c-0.3-0.3-0.8-0.5-1.4-0.5c-0.8,0-1.4,0.2-1.8,0.7c-0.4,0.5-0.7,1.1-0.7,1.9v4.3h-0.9C33.8,198.8,33.8,198.9,33.8,198.9z M45.3,199
	c-0.7,0-1.3-0.2-1.8-0.5s-0.9-0.8-1.2-1.3s-0.4-1.3-0.4-2.1s0.1-1.5,0.4-2.1s0.7-1,1.2-1.3s1.1-0.5,1.8-0.5s1.3,0.2,1.8,0.5
	c0.5,0.4,0.9,0.8,1,1.5h-0.2v-5.4h0.9v11H48v-1.9h0.2c-0.2,0.6-0.5,1.1-1,1.5C46.6,198.8,46,199,45.3,199z M45.4,198.2
	c0.8,0,1.4-0.3,1.8-0.8c0.5-0.5,0.7-1.3,0.7-2.3s-0.2-1.8-0.7-2.3s-1.1-0.8-1.8-0.8c-0.8,0-1.4,0.3-1.8,0.8
	c-0.5,0.5-0.7,1.3-0.7,2.3s0.2,1.8,0.7,2.3C44.1,197.9,44.7,198.2,45.4,198.2z M55.5,198.9v-6.8H54v-0.8h1.7l-0.2,0.2v-1.2
	c0-0.8,0.2-1.4,0.6-1.9c0.4-0.4,1-0.7,1.7-0.7c0.2,0,0.4,0,0.6,0.1c0.2,0,0.4,0.1,0.5,0.1v0.8c-0.1-0.1-0.3-0.1-0.4-0.1
	c-0.2,0-0.3-0.1-0.5-0.1c-0.5,0-0.9,0.2-1.1,0.5c-0.2,0.3-0.4,0.8-0.4,1.4v1.2l-0.1-0.2H61v7.5h-1v-6.8h-3.6v6.8H55.5z M59.8,189.5
	v-1.1H61v1.1H59.8z M63.4,198.9v-5.8c0-0.3,0-0.5,0-0.8s0-0.6-0.1-0.9h0.9l0.1,1.7h-0.2c0.2-0.6,0.6-1.1,1.1-1.4
	c0.5-0.3,1.1-0.5,1.7-0.5c0.9,0,1.6,0.2,2,0.7c0.5,0.5,0.7,1.2,0.7,2.2v4.7h-0.9v-4.7c0-0.8-0.2-1.3-0.5-1.7
	c-0.3-0.3-0.8-0.5-1.4-0.5c-0.8,0-1.4,0.2-1.8,0.7s-0.7,1.1-0.7,1.9v4.3h-0.9C63.4,198.8,63.4,198.9,63.4,198.9z M74.9,199
	c-0.7,0-1.3-0.2-1.8-0.5s-0.9-0.8-1.2-1.3c-0.3-0.5-0.4-1.3-0.4-2.1s0.1-1.5,0.4-2.1s0.7-1,1.2-1.3s1.1-0.5,1.8-0.5s1.3,0.2,1.8,0.5
	c0.5,0.4,0.8,0.8,1,1.5h-0.2v-5.4h0.9v11h-0.9v-1.9h0.2c-0.2,0.6-0.5,1.1-1,1.5C76.2,198.8,75.6,199,74.9,199z M75,198.2
	c0.8,0,1.4-0.3,1.8-0.8c0.5-0.5,0.7-1.3,0.7-2.3s-0.2-1.8-0.7-2.3S75.7,192,75,192c-0.8,0-1.4,0.3-1.8,0.8c-0.5,0.5-0.7,1.3-0.7,2.3
	s0.2,1.8,0.7,2.3C73.7,197.9,74.3,198.2,75,198.2z M84.2,199c-1.1,0-2-0.3-2.7-1s-1-1.6-1-2.8c0-0.8,0.1-1.5,0.4-2.1s0.7-1,1.2-1.4
	c0.5-0.3,1.1-0.5,1.8-0.5c0.7,0,1.2,0.1,1.7,0.4c0.5,0.3,0.8,0.7,1.1,1.2c0.2,0.5,0.4,1.1,0.4,1.9v0.4h-6v-0.7h5.4l-0.3,0.2
	c0-0.9-0.2-1.5-0.6-2s-1-0.7-1.7-0.7c-0.8,0-1.5,0.3-1.9,0.9c-0.5,0.6-0.7,1.3-0.7,2.2v0.1c0,1,0.2,1.8,0.7,2.3s1.2,0.8,2.1,0.8
	c0.5,0,0.9-0.1,1.3-0.2s0.8-0.4,1.2-0.7L87,198c-0.3,0.3-0.7,0.6-1.2,0.8C85.3,198.9,84.7,199,84.2,199z M91.5,199
	c-0.7,0-1.2-0.2-1.5-0.6c-0.4-0.4-0.5-1-0.5-1.8v-4.5H88v-0.8h1.5v-2.1l0.9-0.3v2.4h2.2v0.7h-2.2v4.3c0,0.6,0.1,1.1,0.3,1.4
	c0.2,0.3,0.5,0.4,1,0.4c0.2,0,0.4,0,0.5-0.1c0.2,0,0.3-0.1,0.4-0.1v0.8c-0.1,0.1-0.3,0.1-0.5,0.1C91.9,199,91.7,199,91.5,199z
	 M100.8,199c-0.7,0-1.3-0.2-1.8-0.5s-0.9-0.8-1.2-1.3c-0.3-0.6-0.4-1.3-0.4-2.1s0.1-1.5,0.4-2.1s0.7-1,1.2-1.3s1.1-0.5,1.8-0.5
	c0.7,0,1.3,0.2,1.8,0.5c0.5,0.4,0.8,0.8,1,1.5h-0.2v-5.4h0.9v11h-0.9v-1.9h0.2c-0.2,0.6-0.5,1.1-1,1.5
	C102.1,198.8,101.5,199,100.8,199z M100.9,198.2c0.8,0,1.4-0.3,1.8-0.8c0.5-0.5,0.7-1.3,0.7-2.3s-0.2-1.8-0.7-2.3s-1.1-0.8-1.8-0.8
	c-0.8,0-1.4,0.3-1.8,0.8s-0.7,1.3-0.7,2.3s0.2,1.8,0.7,2.3S100.2,198.2,100.9,198.2z M109.7,199c-0.7,0-1.3-0.2-1.8-0.5
	s-0.9-0.8-1.2-1.3s-0.4-1.3-0.4-2.1s0.1-1.5,0.4-2.1s0.7-1,1.2-1.3s1.1-0.5,1.8-0.5c0.7,0,1.3,0.2,1.8,0.5c0.5,0.4,0.8,0.9,1,1.5
	h-0.2l0.2-1.9h0.9c0,0.3-0.1,0.6-0.1,0.9c0,0.3,0,0.6,0,0.8v5.8h-0.9v-1.9h0.2c-0.2,0.6-0.5,1.1-1,1.5
	C111,198.8,110.4,199,109.7,199z M109.8,198.2c0.8,0,1.4-0.3,1.8-0.8s0.7-1.3,0.7-2.3s-0.2-1.8-0.7-2.3s-1.1-0.8-1.8-0.8
	c-0.8,0-1.4,0.3-1.8,0.8s-0.7,1.3-0.7,2.3s0.2,1.8,0.7,2.3C108.4,197.9,109,198.2,109.8,198.2z M118.1,199c-0.6,0-1.1-0.1-1.6-0.3
	s-0.9-0.4-1.2-0.7l0.4-0.7c0.4,0.3,0.8,0.5,1.2,0.7c0.4,0.1,0.9,0.2,1.3,0.2c0.6,0,1.1-0.1,1.5-0.4c0.3-0.2,0.5-0.6,0.5-1
	c0-0.3-0.1-0.6-0.3-0.8s-0.6-0.4-1.1-0.4l-1.3-0.3c-0.6-0.2-1.1-0.4-1.4-0.7s-0.5-0.7-0.5-1.2c0-0.4,0.1-0.8,0.3-1.1
	c0.2-0.3,0.6-0.6,1-0.8s0.9-0.3,1.5-0.3c0.5,0,1,0.1,1.5,0.3s0.8,0.4,1.1,0.7l-0.4,0.7c-0.3-0.3-0.6-0.5-1-0.7
	c-0.4-0.1-0.8-0.2-1.2-0.2c-0.6,0-1.1,0.1-1.4,0.4c-0.3,0.2-0.5,0.6-0.5,1c0,0.3,0.1,0.6,0.3,0.8c0.2,0.2,0.5,0.3,0.9,0.4l1.4,0.3
	c0.7,0.1,1.2,0.4,1.5,0.7s0.5,0.7,0.5,1.2c0,0.4-0.1,0.8-0.4,1.2c-0.2,0.3-0.6,0.6-1,0.7S118.7,199,118.1,199z M130.2,199
	c-1.1,0-2-0.3-2.7-1s-1-1.6-1-2.8c0-0.8,0.1-1.5,0.4-2.1s0.7-1,1.2-1.4c0.5-0.3,1.1-0.5,1.8-0.5s1.2,0.1,1.7,0.4
	c0.5,0.3,0.8,0.7,1.1,1.2c0.2,0.5,0.4,1.1,0.4,1.9v0.4h-6v-0.7h5.4l-0.3,0.2c0-0.9-0.2-1.5-0.6-2c-0.4-0.5-1-0.7-1.7-0.7
	c-0.8,0-1.5,0.3-1.9,0.9c-0.5,0.6-0.7,1.3-0.7,2.2v0.1c0,1,0.2,1.8,0.7,2.3c0.5,0.5,1.2,0.8,2.1,0.8c0.5,0,0.9-0.1,1.3-0.2
	c0.4-0.1,0.8-0.4,1.2-0.7l0.4,0.7c-0.3,0.3-0.7,0.6-1.2,0.8C131.2,198.9,130.7,199,130.2,199z M135.1,198.9v-5.8c0-0.3,0-0.6,0-0.9
	c0-0.3,0-0.6-0.1-0.9h0.9l0.1,1.7h-0.2c0.1-0.4,0.3-0.8,0.5-1c0.3-0.3,0.6-0.5,0.9-0.6s0.7-0.2,1-0.2c0.1,0,0.2,0,0.4,0
	c0.1,0,0.2,0,0.3,0.1v0.8c-0.1,0-0.2-0.1-0.4-0.1s-0.2,0-0.4,0c-0.4,0-0.8,0.1-1.2,0.3c-0.3,0.2-0.6,0.5-0.8,0.8s-0.3,0.7-0.3,1v4.6
	h-0.7V198.9z M142.7,199c-0.6,0-1.1-0.1-1.6-0.3s-0.9-0.4-1.2-0.7l0.4-0.7c0.4,0.3,0.8,0.5,1.2,0.7c0.4,0.1,0.9,0.2,1.4,0.2
	c0.6,0,1.1-0.1,1.5-0.4c0.3-0.2,0.5-0.6,0.5-1c0-0.3-0.1-0.6-0.3-0.8s-0.6-0.4-1.1-0.4l-1.3-0.3c-0.6-0.2-1.1-0.4-1.4-0.7
	c-0.3-0.3-0.5-0.7-0.5-1.2c0-0.4,0.1-0.8,0.3-1.1s0.6-0.6,1-0.8s0.9-0.3,1.5-0.3c0.5,0,1,0.1,1.5,0.3s0.8,0.4,1.1,0.7l-0.4,0.7
	c-0.3-0.3-0.6-0.5-1-0.7c-0.4-0.1-0.8-0.2-1.2-0.2c-0.6,0-1.1,0.1-1.4,0.4c-0.3,0.2-0.5,0.6-0.5,1c0,0.3,0.1,0.6,0.3,0.8
	s0.5,0.3,0.9,0.4l1.4,0.3c0.7,0.1,1.2,0.4,1.5,0.7s0.5,0.7,0.5,1.2c0,0.4-0.1,0.8-0.4,1.2c-0.2,0.3-0.6,0.6-1,0.7
	C143.7,198.9,143.2,199,142.7,199z M150,199c-0.7,0-1.2-0.2-1.5-0.6c-0.3-0.4-0.5-1-0.5-1.8v-4.5h-1.5v-0.8h1.5v-2.1l0.9-0.3v2.4
	h2.2v0.7h-2.2v4.3c0,0.6,0.1,1.1,0.3,1.4s0.5,0.4,1,0.4c0.2,0,0.4,0,0.5-0.1c0.2,0,0.3-0.1,0.4-0.1v0.8c-0.1,0.1-0.3,0.1-0.5,0.1
	C150.4,199,150.2,199,150,199z M155.8,199c-1.1,0-2-0.3-2.7-1s-1-1.6-1-2.8c0-0.8,0.1-1.5,0.4-2.1c0.3-0.6,0.7-1,1.2-1.4
	c0.5-0.3,1.1-0.5,1.8-0.5s1.2,0.1,1.7,0.4c0.5,0.3,0.8,0.7,1.1,1.2c0.2,0.5,0.4,1.1,0.4,1.9v0.4h-6v-0.7h5.4l-0.3,0.2
	c0-0.9-0.2-1.5-0.6-2c-0.4-0.5-1-0.7-1.7-0.7c-0.8,0-1.5,0.3-1.9,0.9c-0.5,0.6-0.7,1.3-0.7,2.2v0.1c0,1,0.2,1.8,0.7,2.3
	s1.2,0.8,2.1,0.8c0.5,0,0.9-0.1,1.3-0.2c0.4-0.1,0.8-0.4,1.2-0.7l0.4,0.7c-0.3,0.3-0.7,0.6-1.2,0.8C156.9,198.9,156.3,199,155.8,199
	z M23.8,218.9v-10.6h0.8l4.4,10h-0.4l4.4-10h0.8v10.6h-0.9v-9.5h0.4l-4.2,9.5h-0.7l-4.2-9.5h0.4v9.5H23.8z M39.3,219
	c-0.7,0-1.3-0.2-1.8-0.5s-0.9-0.8-1.2-1.3c-0.3-0.6-0.4-1.3-0.4-2.1s0.1-1.5,0.4-2.1s0.7-1,1.2-1.3s1.1-0.5,1.8-0.5s1.3,0.2,1.8,0.5
	c0.5,0.4,0.8,0.9,1,1.5h-0.2l0.1-1.9h0.9c0,0.3-0.1,0.6-0.1,0.9c0,0.3,0,0.6,0,0.8v5.8h-0.9v-1.9H42c-0.2,0.6-0.5,1.1-1,1.5
	S39.9,219,39.3,219z M39.4,218.2c0.8,0,1.4-0.3,1.8-0.8c0.5-0.5,0.7-1.3,0.7-2.3s-0.2-1.8-0.7-2.3c-0.4-0.5-1.1-0.8-1.8-0.8
	c-0.8,0-1.4,0.3-1.8,0.8c-0.5,0.5-0.7,1.3-0.7,2.3s0.2,1.8,0.7,2.3C38,217.9,38.6,218.2,39.4,218.2z M45.3,218.9v-11h0.9v11H45.3z
	 M55.4,219c-0.7,0-1.3-0.2-1.8-0.5s-0.9-0.8-1.2-1.3s-0.4-1.3-0.4-2.1s0.1-1.5,0.4-2.1c0.3-0.6,0.7-1,1.2-1.3s1.1-0.5,1.8-0.5
	s1.3,0.2,1.8,0.5c0.5,0.4,0.8,0.9,1,1.5H58l0.2-1.9H59c0,0.3-0.1,0.6-0.1,0.9c0,0.3,0,0.6,0,0.8v5.8H58v-1.9h0.2
	c-0.2,0.6-0.5,1.1-1,1.5C56.6,218.8,56,219,55.4,219z M55.5,218.2c0.8,0,1.4-0.3,1.8-0.8s0.7-1.3,0.7-2.3s-0.2-1.8-0.7-2.3
	s-1.1-0.8-1.8-0.8s-1.4,0.3-1.8,0.8c-0.5,0.5-0.7,1.3-0.7,2.3s0.2,1.8,0.7,2.3C54.1,217.9,54.7,218.2,55.5,218.2z M61.4,218.9v-5.8
	c0-0.3,0-0.5,0-0.8s-0.1-0.6-0.1-0.9h0.9l0.1,1.7h-0.2c0.2-0.6,0.6-1.1,1.1-1.4c0.5-0.3,1.1-0.5,1.7-0.5c0.9,0,1.6,0.2,2,0.7
	c0.5,0.5,0.7,1.2,0.7,2.2v4.7h-0.9v-4.7c0-0.8-0.2-1.3-0.5-1.7c-0.3-0.3-0.8-0.5-1.4-0.5c-0.8,0-1.4,0.2-1.8,0.7
	c-0.4,0.5-0.7,1.1-0.7,1.9v4.3h-0.9C61.4,218.8,61.4,218.9,61.4,218.9z M76.7,219c-0.7,0-1.3-0.2-1.8-0.5s-0.9-0.8-1.2-1.3
	c-0.3-0.5-0.4-1.3-0.4-2.1s0.1-1.5,0.4-2.1s0.7-1,1.2-1.3s1.1-0.5,1.8-0.5c0.7,0,1.3,0.2,1.8,0.5c0.5,0.4,0.9,0.8,1,1.5h-0.2v-5.4
	h0.9v11h-0.9v-1.9h0.2c-0.2,0.6-0.5,1.1-1,1.5C78,218.8,77.4,219,76.7,219z M76.8,218.2c0.8,0,1.4-0.3,1.8-0.8
	c0.5-0.5,0.7-1.3,0.7-2.3s-0.2-1.8-0.7-2.3s-1.1-0.8-1.8-0.8c-0.8,0-1.4,0.3-1.8,0.8c-0.5,0.5-0.7,1.3-0.7,2.3s0.2,1.8,0.7,2.3
	C75.4,217.9,76.1,218.2,76.8,218.2z M85.9,219c-1.1,0-2-0.3-2.7-1s-1-1.6-1-2.8c0-0.8,0.1-1.5,0.4-2.1s0.7-1,1.2-1.4
	c0.5-0.3,1.1-0.5,1.8-0.5c0.7,0,1.2,0.1,1.7,0.4c0.5,0.3,0.8,0.7,1.1,1.2c0.2,0.5,0.4,1.1,0.4,1.9v0.4h-6v-0.7h5.4l-0.3,0.2
	c0-0.9-0.2-1.5-0.6-2s-1-0.7-1.7-0.7c-0.8,0-1.5,0.3-1.9,0.9c-0.5,0.6-0.7,1.3-0.7,2.2v0.1c0,1,0.2,1.8,0.7,2.3s1.2,0.8,2.1,0.8
	c0.5,0,0.9-0.1,1.3-0.2s0.8-0.4,1.2-0.7l0.4,0.7c-0.3,0.3-0.7,0.6-1.2,0.8C87,218.9,86.5,219,85.9,219z M90.8,218.9v-5.8
	c0-0.3,0-0.6,0-0.9c0-0.3,0-0.6-0.1-0.9h0.9l0.1,1.7h-0.2c0.1-0.4,0.3-0.8,0.5-1c0.3-0.3,0.6-0.5,0.9-0.6s0.7-0.2,1.1-0.2
	c0.1,0,0.2,0,0.4,0c0.1,0,0.2,0,0.3,0.1v0.8c-0.1,0-0.2-0.1-0.4-0.1c-0.1,0-0.2,0-0.4,0c-0.5,0-0.8,0.1-1.2,0.3
	c-0.3,0.2-0.6,0.5-0.8,0.8s-0.3,0.7-0.3,1v4.6h-0.8V218.9z M99.6,213.6c0-1.1,0.2-2.1,0.6-2.9c0.4-0.8,0.9-1.4,1.6-1.9
	c0.7-0.4,1.6-0.7,2.6-0.7s1.8,0.2,2.5,0.7c0.7,0.4,1.3,1.1,1.7,1.9c0.4,0.8,0.6,1.8,0.6,2.9c0,1.1-0.2,2.1-0.6,2.9s-0.9,1.4-1.7,1.9
	c-0.7,0.4-1.6,0.7-2.5,0.7c-1,0-1.8-0.2-2.5-0.7s-1.3-1.1-1.6-1.9C99.8,215.6,99.6,214.7,99.6,213.6z M100.6,213.6
	c0,1.4,0.3,2.6,1,3.4c0.6,0.8,1.6,1.2,2.8,1.2c1.2,0,2.1-0.4,2.8-1.2c0.7-0.8,1-1.9,1-3.4c0-1.4-0.3-2.6-1-3.4
	c-0.7-0.8-1.6-1.2-2.8-1.2c-1.2,0-2.2,0.4-2.8,1.2C101,211,100.6,212.1,100.6,213.6z M113.5,218.9v-9.8h-3.8v-0.8h8.6v0.8h-3.8v9.8
	H113.5z M119.8,218.9v-10.6h0.9v4.8h6.8v-4.8h0.9v10.6h-0.9V214h-6.8v4.9H119.8z M137.3,219c-0.6,0-1.1-0.1-1.6-0.3
	s-0.9-0.4-1.2-0.7l0.4-0.7c0.4,0.3,0.8,0.5,1.2,0.7c0.4,0.1,0.9,0.2,1.3,0.2c0.6,0,1.1-0.1,1.5-0.4c0.3-0.2,0.5-0.6,0.5-1
	c0-0.3-0.1-0.6-0.3-0.8s-0.6-0.4-1-0.4l-1.3-0.3c-0.6-0.2-1.1-0.4-1.4-0.7s-0.5-0.7-0.5-1.2c0-0.4,0.1-0.8,0.3-1.1s0.6-0.6,1-0.8
	s0.9-0.3,1.5-0.3c0.5,0,1,0.1,1.5,0.3s0.8,0.4,1.1,0.7l-0.4,0.7c-0.3-0.3-0.6-0.5-1-0.7c-0.4-0.1-0.8-0.2-1.2-0.2
	c-0.6,0-1.1,0.1-1.4,0.4c-0.3,0.2-0.5,0.6-0.5,1c0,0.3,0.1,0.6,0.3,0.8s0.5,0.3,0.9,0.4l1.3,0.3c0.7,0.1,1.2,0.4,1.5,0.7
	s0.5,0.7,0.5,1.2c0,0.4-0.1,0.8-0.4,1.2c-0.2,0.3-0.6,0.6-1,0.7C138.4,218.9,137.9,219,137.3,219z M144.7,219
	c-0.7,0-1.2-0.2-1.5-0.6c-0.4-0.4-0.5-1-0.5-1.8v-4.5h-1.5v-0.8h1.5v-2.1l0.9-0.3v2.4h2.2v0.7h-2.2v4.3c0,0.6,0.1,1.1,0.3,1.4
	s0.5,0.4,1,0.4c0.2,0,0.4,0,0.5-0.1c0.2,0,0.3-0.1,0.4-0.1v0.8c-0.1,0.1-0.3,0.1-0.5,0.1C145.1,219,144.9,219,144.7,219z M150.2,219
	c-0.7,0-1.3-0.2-1.8-0.5s-0.9-0.8-1.2-1.3c-0.3-0.6-0.4-1.3-0.4-2.1s0.1-1.5,0.4-2.1c0.3-0.6,0.7-1,1.2-1.3s1.1-0.5,1.8-0.5
	s1.3,0.2,1.8,0.5c0.5,0.4,0.8,0.9,1,1.5h-0.2l0.1-1.9h0.9c0,0.3-0.1,0.6-0.1,0.9c0,0.3,0,0.6,0,0.8v5.8h-0.9v-1.9h0.2
	c-0.2,0.6-0.5,1.1-1,1.5C151.4,218.8,150.8,219,150.2,219z M150.3,218.2c0.8,0,1.4-0.3,1.8-0.8s0.7-1.3,0.7-2.3s-0.2-1.8-0.7-2.3
	s-1.1-0.8-1.8-0.8c-0.8,0-1.4,0.3-1.8,0.8c-0.4,0.5-0.7,1.3-0.7,2.3s0.2,1.8,0.7,2.3C148.9,217.9,149.5,218.2,150.3,218.2z
	 M158.6,219c-0.7,0-1.2-0.2-1.5-0.6c-0.4-0.4-0.5-1-0.5-1.8v-4.5H155v-0.8h1.5v-2.1l0.9-0.3v2.4h2.2v0.7h-2.2v4.3
	c0,0.6,0.1,1.1,0.3,1.4s0.5,0.4,1,0.4c0.2,0,0.4,0,0.5-0.1c0.2,0,0.3-0.1,0.4-0.1v0.8c-0.1,0.1-0.3,0.1-0.5,0.1
	C159,219,158.8,219,158.6,219z M163.5,219c-0.7,0-1.2-0.2-1.5-0.6c-0.3-0.4-0.5-1-0.5-1.8v-4.5H160v-0.8h1.5v-2.1l0.9-0.3v2.4h2.2
	v0.7h-2.2v4.3c0,0.6,0.1,1.1,0.3,1.4s0.5,0.4,1,0.4c0.2,0,0.4,0,0.5-0.1c0.2,0,0.3-0.1,0.4-0.1v0.8c-0.1,0.1-0.3,0.1-0.5,0.1
	C163.9,219,163.7,219,163.5,219z"/>
<path class="st1" d="M451.9,143.4v-10.6h0.9v4.8h6.8v-4.8h0.9v10.6h-0.9v-4.9h-6.8v4.9H451.9z M466.1,143.5c-0.7,0-1.3-0.2-1.8-0.5
	s-0.9-0.8-1.2-1.3s-0.4-1.3-0.4-2.1s0.1-1.5,0.4-2.1s0.7-1,1.2-1.3s1.1-0.5,1.8-0.5c0.7,0,1.3,0.2,1.8,0.5c0.5,0.4,0.8,0.8,1,1.5
	h-0.2l0.1-1.9h0.9c0,0.3-0.1,0.6-0.1,0.9s0,0.6,0,0.8v5.8h-0.9v-1.9h0.2c-0.2,0.6-0.5,1.1-1,1.5
	C467.3,143.3,466.7,143.5,466.1,143.5z M466.2,142.7c0.8,0,1.4-0.3,1.8-0.8c0.5-0.5,0.7-1.3,0.7-2.3s-0.2-1.8-0.7-2.3
	s-1.1-0.8-1.8-0.8c-0.8,0-1.4,0.3-1.8,0.8c-0.5,0.5-0.7,1.3-0.7,2.3s0.2,1.8,0.7,2.3C464.8,142.5,465.4,142.7,466.2,142.7z
	 M475.1,143.5c-0.7,0-1.3-0.2-1.9-0.5c-0.5-0.3-0.9-0.8-1.2-1.4c-0.3-0.6-0.4-1.3-0.4-2.1s0.1-1.5,0.4-2.1s0.7-1,1.2-1.3
	s1.1-0.5,1.9-0.5c0.5,0,0.9,0.1,1.4,0.3c0.4,0.2,0.8,0.4,1.1,0.8l-0.4,0.7c-0.3-0.3-0.6-0.5-1-0.7s-0.7-0.2-1.1-0.2
	c-0.8,0-1.5,0.3-1.9,0.8c-0.5,0.5-0.7,1.3-0.7,2.3s0.2,1.8,0.7,2.3s1.1,0.8,1.9,0.8c0.3,0,0.7-0.1,1-0.2c0.4-0.1,0.7-0.4,1-0.7
	l0.4,0.7c-0.3,0.3-0.7,0.6-1.1,0.8C476,143.4,475.6,143.5,475.1,143.5z M479.4,143.4v-11h0.9v6.9l0,0l3.7-3.4h1.2l-4.3,3.9v-0.6
	l4.7,4.2h-1.2l-4.1-3.6l0,0v3.6L479.4,143.4L479.4,143.4z M489.7,143.5c-0.7,0-1.3-0.2-1.8-0.5s-0.9-0.8-1.2-1.3
	c-0.3-0.6-0.4-1.3-0.4-2.1s0.1-1.5,0.4-2.1s0.7-1,1.2-1.3s1.1-0.5,1.8-0.5c0.7,0,1.3,0.2,1.8,0.5c0.5,0.4,0.8,0.8,1,1.5h-0.2
	l0.1-1.9h0.9c0,0.3-0.1,0.6-0.1,0.9s0,0.6,0,0.8v5.8h-0.9v-1.9h0.2c-0.2,0.6-0.5,1.1-1,1.5C491,143.3,490.4,143.5,489.7,143.5z
	 M489.8,142.7c0.8,0,1.4-0.3,1.8-0.8c0.5-0.5,0.7-1.3,0.7-2.3s-0.2-1.8-0.7-2.3c-0.4-0.5-1.1-0.8-1.8-0.8s-1.4,0.3-1.8,0.8
	c-0.5,0.5-0.7,1.3-0.7,2.3s0.2,1.8,0.7,2.3C488.4,142.5,489,142.7,489.8,142.7z M499.2,143.5c-0.7,0-1.3-0.2-1.8-0.5
	c-0.5-0.4-0.8-0.9-1-1.5h0.2v1.9h-0.9v-11h0.9v5.4h-0.2c0.2-0.6,0.5-1.1,1-1.5s1.1-0.5,1.8-0.5c0.7,0,1.3,0.2,1.8,0.5
	s0.9,0.8,1.2,1.3c0.3,0.6,0.4,1.3,0.4,2.1s-0.1,1.5-0.4,2.1s-0.7,1-1.2,1.3C500.5,143.4,499.9,143.5,499.2,143.5z M499.1,142.7
	c0.8,0,1.4-0.3,1.8-0.8c0.5-0.5,0.7-1.3,0.7-2.3s-0.2-1.8-0.7-2.3s-1.1-0.8-1.8-0.8c-0.8,0-1.4,0.3-1.8,0.8
	c-0.5,0.5-0.7,1.3-0.7,2.3s0.2,1.8,0.7,2.3C497.7,142.5,498.4,142.7,499.1,142.7z M507.2,143.5c-0.9,0-1.5-0.2-2-0.7
	s-0.7-1.2-0.7-2.2v-4.7h0.9v4.7c0,0.8,0.2,1.3,0.5,1.7s0.8,0.5,1.4,0.5c0.7,0,1.3-0.2,1.7-0.7c0.4-0.5,0.7-1.1,0.7-1.9v-4.3h0.9v7.5
	h-0.9v-1.8h0.2c-0.2,0.6-0.6,1.1-1,1.4C508.4,143.3,507.9,143.5,507.2,143.5z M513.1,143.4v-5.8c0-0.3,0-0.6,0-0.9s0-0.6-0.1-0.9
	h0.9l0.1,1.7h-0.2c0.1-0.4,0.3-0.8,0.5-1c0.3-0.3,0.6-0.5,0.9-0.6c0.3-0.1,0.7-0.2,1.1-0.2c0.1,0,0.2,0,0.4,0c0.1,0,0.2,0,0.3,0.1
	v0.8c-0.1,0-0.2-0.1-0.4-0.1s-0.2,0-0.4,0c-0.5,0-0.8,0.1-1.2,0.3c-0.3,0.2-0.6,0.5-0.8,0.8s-0.3,0.7-0.3,1v4.6h-0.8V143.4z
	 M521.5,146.7c-0.6,0-1.2-0.1-1.8-0.3c-0.5-0.2-1-0.4-1.5-0.8l0.3-0.7c0.3,0.2,0.6,0.4,0.9,0.5c0.3,0.1,0.6,0.2,0.9,0.3
	s0.7,0.1,1,0.1c0.8,0,1.3-0.2,1.7-0.6c0.4-0.4,0.6-1,0.6-1.7v-2.4h0.2c-0.2,0.6-0.5,1.1-1,1.5c-0.5,0.3-1.1,0.5-1.8,0.5
	s-1.3-0.1-1.8-0.4s-0.9-0.7-1.2-1.3s-0.4-1.2-0.4-2s0.1-1.4,0.4-2c0.3-0.6,0.7-1,1.2-1.3s1.1-0.5,1.8-0.5s1.3,0.2,1.8,0.5
	s0.8,0.8,1,1.5l-0.2-0.2l0.1-1.7h0.9c0,0.3-0.1,0.6-0.1,0.9s0,0.6,0,0.8v5.9c0,1.1-0.3,1.9-0.8,2.4
	C523.3,146.5,522.5,146.7,521.5,146.7z M521.3,142.4c0.8,0,1.4-0.3,1.8-0.8c0.5-0.5,0.7-1.2,0.7-2.2c0-0.9-0.2-1.7-0.7-2.2
	s-1.1-0.8-1.8-0.8s-1.4,0.3-1.9,0.8s-0.7,1.2-0.7,2.2c0,0.9,0.2,1.7,0.7,2.2C519.9,142.2,520.5,142.4,521.3,142.4z M448.4,163.4
	l-2.7-7.5h1l2.4,7h-0.4l2.5-7h0.9l2.5,7h-0.4l2.4-7h0.9l-2.7,7.5h-0.9l-2.5-7.1h0.5l-2.6,7.1H448.4z M462.5,163.5
	c-1.1,0-2-0.3-2.7-1s-1-1.6-1-2.8c0-0.8,0.1-1.5,0.4-2.1s0.7-1,1.2-1.4c0.5-0.3,1.1-0.5,1.8-0.5c0.7,0,1.2,0.1,1.7,0.4
	c0.5,0.3,0.8,0.7,1.1,1.2c0.2,0.5,0.4,1.1,0.4,1.9v0.4h-6v-0.7h5.4l-0.3,0.2c0-0.9-0.2-1.5-0.6-2s-1-0.7-1.7-0.7
	c-0.8,0-1.5,0.3-1.9,0.9c-0.5,0.6-0.7,1.3-0.7,2.2v0.1c0,1,0.2,1.8,0.7,2.3s1.2,0.8,2.1,0.8c0.5,0,0.9-0.1,1.3-0.2s0.8-0.4,1.2-0.7
	l0.4,0.7c-0.3,0.3-0.7,0.6-1.2,0.8C463.5,163.4,463,163.5,462.5,163.5z M470.4,163.5c-0.7,0-1.3-0.2-1.9-0.5
	c-0.5-0.3-0.9-0.8-1.2-1.4c-0.3-0.6-0.4-1.3-0.4-2.1s0.1-1.5,0.4-2.1s0.7-1,1.2-1.3s1.1-0.4,1.9-0.4c0.5,0,0.9,0.1,1.4,0.3
	s0.8,0.4,1.1,0.8l-0.4,0.7c-0.3-0.3-0.6-0.5-1-0.7c-0.4-0.1-0.7-0.2-1.1-0.2c-0.8,0-1.5,0.3-1.9,0.8s-0.7,1.3-0.7,2.3
	s0.2,1.8,0.7,2.3s1.1,0.8,1.9,0.8c0.3,0,0.7-0.1,1-0.2c0.4-0.1,0.7-0.4,1-0.7l0.4,0.7c-0.3,0.3-0.7,0.6-1.1,0.8
	C471.3,163.4,470.9,163.5,470.4,163.5z M474.7,163.4v-11h0.9v5.3h-0.2c0.2-0.6,0.6-1.1,1.1-1.4c0.5-0.3,1.1-0.5,1.7-0.5
	c0.9,0,1.6,0.2,2,0.7s0.7,1.2,0.7,2.2v4.8H480v-4.7c0-0.8-0.1-1.3-0.5-1.7c-0.3-0.3-0.8-0.5-1.4-0.5c-0.8,0-1.4,0.2-1.8,0.7
	s-0.7,1.1-0.7,1.8v4.3L474.7,163.4L474.7,163.4z M485.8,163.5c-0.6,0-1.1-0.1-1.6-0.3s-0.9-0.4-1.2-0.7l0.4-0.7
	c0.4,0.3,0.8,0.5,1.2,0.7c0.4,0.1,0.9,0.2,1.4,0.2c0.6,0,1.1-0.1,1.5-0.4c0.3-0.2,0.5-0.6,0.5-1c0-0.3-0.1-0.6-0.3-0.8
	s-0.6-0.4-1-0.4l-1.4-0.3c-0.6-0.2-1.1-0.4-1.4-0.7s-0.5-0.7-0.5-1.2c0-0.4,0.1-0.8,0.3-1.1c0.2-0.3,0.6-0.6,1-0.8s0.9-0.3,1.5-0.3
	c0.5,0,1,0.1,1.5,0.3s0.8,0.4,1.1,0.7l-0.4,0.7c-0.3-0.3-0.6-0.5-1-0.7c-0.4-0.1-0.8-0.2-1.2-0.2c-0.6,0-1.1,0.1-1.4,0.4
	c-0.3,0.2-0.5,0.6-0.5,1c0,0.3,0.1,0.6,0.3,0.8c0.2,0.2,0.5,0.3,0.9,0.4l1.4,0.3c0.7,0.1,1.2,0.4,1.5,0.7s0.5,0.7,0.5,1.2
	c0,0.4-0.1,0.8-0.4,1.2c-0.2,0.3-0.6,0.6-1,0.7S486.4,163.5,485.8,163.5z M494.1,163.5c-1.1,0-2-0.3-2.7-1s-1-1.6-1-2.8
	c0-0.8,0.1-1.5,0.4-2.1s0.7-1,1.2-1.4c0.5-0.3,1.1-0.5,1.8-0.5c0.7,0,1.2,0.1,1.7,0.4c0.5,0.3,0.8,0.7,1.1,1.2
	c0.2,0.5,0.4,1.1,0.4,1.9v0.4h-6v-0.7h5.4l-0.3,0.2c0-0.9-0.2-1.5-0.6-2s-1-0.7-1.7-0.7c-0.8,0-1.5,0.3-1.9,0.9
	c-0.5,0.6-0.7,1.3-0.7,2.2v0.1c0,1,0.2,1.8,0.7,2.3s1.2,0.8,2.1,0.8c0.5,0,0.9-0.1,1.3-0.2s0.8-0.4,1.2-0.7l0.4,0.7
	c-0.3,0.3-0.7,0.6-1.2,0.8C495.1,163.4,494.6,163.5,494.1,163.5z M499,163.4v-11h0.9v11H499z M504.8,163.5c-0.7,0-1.2-0.2-1.5-0.6
	c-0.4-0.4-0.5-1-0.5-1.8v-4.5h-1.5v-0.7h1.5v-2.1l0.9-0.3v2.4h2.2v0.7h-2.2v4.3c0,0.6,0.1,1.1,0.3,1.4c0.2,0.3,0.5,0.4,1,0.4
	c0.2,0,0.4,0,0.5-0.1c0.2,0,0.3-0.1,0.4-0.1v0.8c-0.1,0.1-0.3,0.1-0.5,0.1C505.2,163.5,505,163.5,504.8,163.5z M511.3,163.4v-7.5
	h0.9v7.5H511.3z M511.1,154v-1.1h1.2v1.1H511.1z M514.7,163.4v-5.8c0-0.3,0-0.5,0-0.8s-0.1-0.6-0.1-0.9h0.9l0.1,1.7h-0.2
	c0.2-0.6,0.6-1.1,1.1-1.4c0.5-0.3,1.1-0.5,1.7-0.5c0.9,0,1.6,0.2,2,0.7c0.5,0.5,0.7,1.2,0.7,2.2v4.7H520v-4.7c0-0.8-0.2-1.3-0.5-1.7
	c-0.3-0.3-0.8-0.5-1.4-0.5c-0.8,0-1.4,0.2-1.8,0.7c-0.4,0.5-0.7,1.1-0.7,1.9v4.3h-0.9L514.7,163.4L514.7,163.4z M403.2,183.5
	c-0.7,0-1.3-0.2-1.8-0.5s-0.9-0.8-1.2-1.3c-0.3-0.6-0.4-1.3-0.4-2.1s0.1-1.5,0.4-2.1s0.7-1,1.2-1.3s1.1-0.5,1.8-0.5
	c0.7,0,1.3,0.2,1.8,0.5c0.5,0.4,0.9,0.8,1,1.5h-0.2v-5.4h0.9v11h-0.9v-1.9h0.2c-0.2,0.6-0.5,1.1-1,1.5S403.9,183.5,403.2,183.5z
	 M403.3,182.7c0.8,0,1.4-0.3,1.8-0.8c0.5-0.5,0.7-1.3,0.7-2.3s-0.2-1.8-0.7-2.3s-1.1-0.8-1.8-0.8c-0.8,0-1.4,0.3-1.8,0.8
	s-0.7,1.3-0.7,2.3s0.2,1.8,0.7,2.3C401.9,182.5,402.5,182.7,403.3,182.7z M409.2,183.4v-7.5h0.9v7.5H409.2z M409,174v-1.1h1.2v1.1
	H409z M415.8,183.5c-1.1,0-2-0.3-2.7-1s-1-1.6-1-2.8c0-0.8,0.1-1.5,0.4-2.1s0.7-1,1.2-1.4c0.5-0.3,1.1-0.5,1.8-0.5
	c0.7,0,1.2,0.1,1.7,0.4c0.5,0.3,0.8,0.7,1.1,1.2c0.2,0.5,0.4,1.1,0.4,1.9v0.4h-6v-0.7h5.4l-0.3,0.2c0-0.9-0.2-1.5-0.6-2
	s-1-0.7-1.7-0.7c-0.8,0-1.5,0.3-1.9,0.9c-0.5,0.6-0.7,1.3-0.7,2.2v0.1c0,1,0.2,1.8,0.7,2.3s1.2,0.8,2.1,0.8c0.5,0,0.9-0.1,1.3-0.2
	s0.8-0.4,1.2-0.7l0.4,0.7c-0.3,0.3-0.7,0.6-1.2,0.8C416.9,183.4,416.4,183.5,415.8,183.5z M424.6,183.4v-5.8c0-0.3,0-0.5,0-0.8
	s-0.1-0.6-0.1-0.9h0.9l0.1,1.7h-0.2c0.2-0.6,0.6-1.1,1.1-1.4c0.5-0.3,1.1-0.5,1.7-0.5c0.9,0,1.6,0.2,2,0.7c0.5,0.5,0.7,1.2,0.7,2.2
	v4.7h-0.9v-4.7c0-0.8-0.2-1.3-0.5-1.7c-0.3-0.3-0.8-0.5-1.4-0.5c-0.8,0-1.4,0.2-1.8,0.7s-0.7,1.1-0.7,1.9v4.3h-0.9L424.6,183.4
	L424.6,183.4z M436.5,183.5c-1.1,0-2-0.3-2.7-1s-1-1.6-1-2.8c0-0.8,0.1-1.5,0.4-2.1s0.7-1,1.2-1.4c0.5-0.3,1.1-0.5,1.8-0.5
	c0.7,0,1.2,0.1,1.7,0.4c0.5,0.3,0.8,0.7,1.1,1.2c0.2,0.5,0.4,1.1,0.4,1.9v0.4h-6v-0.7h5.4l-0.3,0.2c0-0.9-0.2-1.5-0.6-2
	s-1-0.7-1.7-0.7c-0.8,0-1.5,0.3-1.9,0.9c-0.5,0.6-0.7,1.3-0.7,2.2v0.1c0,1,0.2,1.8,0.7,2.3s1.2,0.8,2.1,0.8c0.5,0,0.9-0.1,1.3-0.2
	s0.8-0.4,1.2-0.7l0.4,0.7c-0.3,0.3-0.7,0.6-1.2,0.8C437.6,183.4,437,183.5,436.5,183.5z M444,183.5c-0.9,0-1.6-0.2-2-0.7
	s-0.7-1.2-0.7-2.2v-4.7h0.9v4.7c0,0.8,0.2,1.3,0.5,1.7s0.8,0.5,1.4,0.5c0.7,0,1.3-0.2,1.7-0.7c0.4-0.5,0.7-1.1,0.7-1.9v-4.3h0.9v7.5
	h-0.9v-1.8h0.2c-0.2,0.6-0.6,1.1-1,1.4C445.2,183.3,444.7,183.5,444,183.5z M453.2,183.5c-1.1,0-2-0.3-2.7-1s-1-1.6-1-2.8
	c0-0.8,0.1-1.5,0.4-2.1s0.7-1,1.2-1.4c0.5-0.3,1.1-0.5,1.8-0.5c0.7,0,1.2,0.1,1.7,0.4c0.5,0.3,0.8,0.7,1.1,1.2
	c0.2,0.5,0.4,1.1,0.4,1.9v0.4h-6v-0.7h5.4l-0.3,0.2c0-0.9-0.2-1.5-0.6-2s-1-0.7-1.7-0.7c-0.8,0-1.5,0.3-1.9,0.9
	c-0.5,0.6-0.7,1.3-0.7,2.2v0.1c0,1,0.2,1.8,0.7,2.3s1.2,0.8,2.1,0.8c0.5,0,0.9-0.1,1.3-0.2s0.8-0.4,1.2-0.7l0.4,0.7
	c-0.3,0.3-0.7,0.6-1.2,0.8C454.2,183.4,453.7,183.5,453.2,183.5z M464.6,183.4v-9.8h-3.8v-0.8h8.6v0.8h-3.8v9.8H464.6z M472.9,183.5
	c-1.1,0-2-0.3-2.7-1s-1-1.6-1-2.8c0-0.8,0.1-1.5,0.4-2.1s0.7-1,1.2-1.4c0.5-0.3,1.1-0.5,1.8-0.5c0.7,0,1.2,0.1,1.7,0.4
	c0.5,0.3,0.8,0.7,1.1,1.2c0.2,0.5,0.4,1.1,0.4,1.9v0.4h-6v-0.7h5.4l-0.3,0.2c0-0.9-0.2-1.5-0.6-2s-1-0.7-1.7-0.7
	c-0.8,0-1.5,0.3-1.9,0.9c-0.5,0.6-0.7,1.3-0.7,2.2v0.1c0,1,0.2,1.8,0.7,2.3s1.2,0.8,2.1,0.8c0.5,0,0.9-0.1,1.3-0.2s0.8-0.4,1.2-0.7
	l0.4,0.7c-0.3,0.3-0.7,0.6-1.2,0.8C474,183.4,473.5,183.5,472.9,183.5z M480.9,183.5c-0.7,0-1.3-0.2-1.9-0.5
	c-0.5-0.3-0.9-0.8-1.2-1.4c-0.3-0.6-0.4-1.3-0.4-2.1s0.1-1.5,0.4-2.1s0.7-1,1.2-1.3s1.1-0.4,1.9-0.4c0.5,0,0.9,0.1,1.4,0.3
	s0.8,0.4,1.1,0.8l-0.4,0.7c-0.3-0.3-0.6-0.5-1-0.7c-0.4-0.1-0.7-0.2-1.1-0.2c-0.8,0-1.5,0.3-1.9,0.8s-0.7,1.3-0.7,2.3
	s0.2,1.8,0.7,2.3s1.1,0.8,1.9,0.8c0.3,0,0.7-0.1,1-0.2c0.4-0.1,0.7-0.4,1-0.7l0.4,0.7c-0.3,0.3-0.7,0.6-1.1,0.8
	C481.8,183.4,481.3,183.5,480.9,183.5z M485.2,183.4v-11h0.9v5.3H486c0.2-0.6,0.6-1.1,1.1-1.4c0.5-0.3,1.1-0.5,1.7-0.5
	c0.9,0,1.6,0.2,2,0.7s0.7,1.2,0.7,2.2v4.8h-0.9v-4.7c0-0.8-0.1-1.3-0.5-1.7c-0.3-0.3-0.8-0.5-1.4-0.5c-0.8,0-1.4,0.2-1.8,0.7
	s-0.7,1.1-0.7,1.8v4.3L485.2,183.4L485.2,183.4z M497.4,183.5c-0.7,0-1.3-0.2-1.8-0.5c-0.5-0.4-0.8-0.9-1-1.5h0.2v1.9h-0.9v-11h0.9
	v5.4h-0.2c0.2-0.6,0.5-1.1,1-1.5s1.1-0.5,1.8-0.5c0.7,0,1.3,0.2,1.8,0.5s0.9,0.8,1.2,1.3c0.3,0.6,0.4,1.3,0.4,2.1s-0.1,1.5-0.4,2.1
	s-0.7,1-1.2,1.3C498.7,183.4,498.1,183.5,497.4,183.5z M497.3,182.7c0.8,0,1.4-0.3,1.8-0.8c0.5-0.5,0.7-1.3,0.7-2.3
	s-0.2-1.8-0.7-2.3s-1.1-0.8-1.8-0.8c-0.8,0-1.4,0.3-1.8,0.8c-0.5,0.5-0.7,1.3-0.7,2.3s0.2,1.8,0.7,2.3
	C495.9,182.5,496.5,182.7,497.3,182.7z M505.6,183.5c-0.7,0-1.3-0.2-1.8-0.5s-0.9-0.8-1.2-1.3c-0.3-0.6-0.4-1.3-0.4-2.1
	s0.1-1.5,0.4-2.1s0.7-1,1.2-1.3s1.1-0.5,1.8-0.5c0.7,0,1.3,0.2,1.8,0.5c0.5,0.4,0.8,0.9,1,1.5h-0.2l0.1-1.9h0.9
	c0,0.3-0.1,0.6-0.1,0.9c0,0.3,0,0.6,0,0.8v5.8h-0.9v-1.9h0.2c-0.2,0.6-0.5,1.1-1,1.5C506.9,183.3,506.3,183.5,505.6,183.5z
	 M505.7,182.7c0.8,0,1.4-0.3,1.8-0.8s0.7-1.3,0.7-2.3s-0.2-1.8-0.7-2.3s-1.1-0.8-1.8-0.8c-0.8,0-1.4,0.3-1.8,0.8s-0.7,1.3-0.7,2.3
	s0.2,1.8,0.7,2.3C504.3,182.5,505,182.7,505.7,182.7z M514,183.5c-0.6,0-1.1-0.1-1.6-0.3s-0.9-0.4-1.2-0.7l0.4-0.7
	c0.4,0.3,0.8,0.5,1.2,0.7c0.4,0.1,0.9,0.2,1.3,0.2c0.6,0,1.1-0.1,1.5-0.4c0.3-0.2,0.5-0.6,0.5-1c0-0.3-0.1-0.6-0.3-0.8
	s-0.6-0.4-1-0.4l-1.4-0.3c-0.6-0.2-1.1-0.4-1.4-0.7c-0.3-0.3-0.5-0.7-0.5-1.2c0-0.4,0.1-0.8,0.3-1.1s0.6-0.6,1-0.8
	c0.4-0.2,0.9-0.3,1.5-0.3c0.5,0,1,0.1,1.5,0.3s0.8,0.4,1.1,0.7l-0.4,0.7c-0.3-0.3-0.6-0.5-1-0.7c-0.4-0.1-0.8-0.2-1.2-0.2
	c-0.6,0-1.1,0.1-1.4,0.4c-0.3,0.2-0.5,0.6-0.5,1c0,0.3,0.1,0.6,0.3,0.8s0.5,0.3,0.9,0.4l1.3,0.3c0.7,0.1,1.2,0.4,1.5,0.7
	s0.5,0.7,0.5,1.2c0,0.4-0.1,0.8-0.4,1.2c-0.2,0.3-0.6,0.6-1,0.7C515.1,183.3,514.6,183.5,514,183.5z M522.3,183.5
	c-1.1,0-2-0.3-2.7-1s-1-1.6-1-2.8c0-0.8,0.1-1.5,0.4-2.1s0.7-1,1.2-1.4c0.5-0.3,1.1-0.5,1.8-0.5s1.2,0.1,1.7,0.4
	c0.5,0.3,0.8,0.7,1.1,1.2c0.2,0.5,0.4,1.1,0.4,1.9v0.4h-6v-0.7h5.4l-0.3,0.2c0-0.9-0.2-1.5-0.6-2c-0.4-0.5-1-0.7-1.7-0.7
	c-0.8,0-1.5,0.3-1.9,0.9c-0.5,0.6-0.7,1.3-0.7,2.2v0.1c0,1,0.2,1.8,0.7,2.3s1.2,0.8,2.1,0.8c0.5,0,0.9-0.1,1.3-0.2
	c0.4-0.1,0.8-0.4,1.2-0.7l0.4,0.7c-0.3,0.3-0.7,0.6-1.2,0.8C523.3,183.4,522.8,183.5,522.3,183.5z"/>
<path class="st1" d="M627.6,148.5c-1.1,0-2.1-0.2-2.9-0.6c-0.8-0.4-1.3-1.1-1.7-1.9s-0.6-1.8-0.6-2.9c0-1.1,0.2-2.1,0.6-2.9
	c0.4-0.8,1-1.4,1.7-1.9c0.8-0.4,1.7-0.7,2.7-0.7c0.8,0,1.4,0.1,2,0.4c0.6,0.2,1.1,0.6,1.5,1l-0.4,0.8c-0.3-0.3-0.6-0.6-1-0.7
	c-0.3-0.2-0.6-0.3-1-0.4c-0.3-0.1-0.7-0.1-1.2-0.1c-1.3,0-2.3,0.4-3,1.2s-1,1.9-1,3.4s0.3,2.6,1,3.4s1.7,1.2,3.2,1.2
	c0.5,0,1-0.1,1.5-0.2c0.5-0.1,0.9-0.2,1.4-0.4l-0.2,0.6v-4h-2.8V143h3.6v4.8c-0.4,0.2-0.9,0.4-1.6,0.5
	C628.8,148.4,628.2,148.5,627.6,148.5z M633.5,148.4v-5.8c0-0.3,0-0.6,0-0.9s0-0.6-0.1-0.9h0.9l0.1,1.7h-0.2c0.1-0.4,0.3-0.8,0.5-1
	c0.3-0.3,0.6-0.5,0.9-0.6c0.3-0.1,0.7-0.2,1.1-0.2c0.1,0,0.2,0,0.4,0c0.1,0,0.2,0,0.3,0.1v0.8c-0.1,0-0.2-0.1-0.4-0.1
	c-0.1,0-0.2,0-0.4,0c-0.5,0-0.8,0.1-1.2,0.3c-0.3,0.2-0.6,0.5-0.8,0.8s-0.3,0.7-0.3,1v4.6h-0.8V148.4z M641.4,148.5
	c-0.9,0-1.6-0.2-2-0.7c-0.5-0.5-0.7-1.2-0.7-2.2v-4.7h0.9v4.7c0,0.8,0.2,1.3,0.5,1.7s0.8,0.5,1.4,0.5c0.7,0,1.3-0.2,1.7-0.7
	s0.7-1.1,0.7-1.9v-4.3h0.9v7.5h-0.9v-1.8h0.2c-0.2,0.6-0.6,1.1-1,1.4C642.6,148.3,642.1,148.5,641.4,148.5z M642.5,139.1V138h1.1
	v1.1H642.5z M640,139.1V138h1.1v1.1H640z M647.3,148.4v-5.8c0-0.3,0-0.5,0-0.8s0-0.6-0.1-0.9h0.9l0.1,1.7H648
	c0.2-0.6,0.6-1.1,1.1-1.4s1.1-0.5,1.7-0.5c0.9,0,1.6,0.2,2,0.7c0.5,0.5,0.7,1.2,0.7,2.2v4.7h-0.9v-4.7c0-0.8-0.2-1.3-0.5-1.7
	c-0.3-0.3-0.8-0.5-1.4-0.5c-0.8,0-1.4,0.2-1.8,0.7c-0.4,0.5-0.7,1.1-0.7,1.9v4.3h-0.9L647.3,148.4L647.3,148.4z M658.8,148.5
	c-0.7,0-1.3-0.2-1.8-0.5s-0.9-0.8-1.2-1.3c-0.3-0.6-0.4-1.3-0.4-2.1s0.1-1.5,0.4-2.1c0.3-0.6,0.7-1,1.2-1.3s1.1-0.5,1.8-0.5
	s1.3,0.2,1.8,0.5s0.9,0.8,1,1.5h-0.2v-5.4h0.9v11h-0.9v-1.9h0.2c-0.2,0.6-0.5,1.1-1,1.5C660.1,148.3,659.5,148.5,658.8,148.5z
	 M659,147.7c0.8,0,1.4-0.3,1.8-0.8c0.5-0.5,0.7-1.3,0.7-2.3s-0.2-1.8-0.7-2.3s-1.1-0.8-1.8-0.8s-1.4,0.3-1.8,0.8
	c-0.4,0.5-0.7,1.3-0.7,2.3s0.2,1.8,0.7,2.3C657.6,147.5,658.2,147.7,659,147.7z M667.5,148.5c-0.9,0-1.5-0.2-2-0.7s-0.7-1.2-0.7-2.2
	v-4.7h0.9v4.7c0,0.8,0.2,1.3,0.5,1.7s0.8,0.5,1.4,0.5c0.7,0,1.3-0.2,1.7-0.7s0.7-1.1,0.7-1.9v-4.3h0.9v7.5H670v-1.8h0.2
	c-0.2,0.6-0.6,1.1-1,1.4C668.7,148.3,668.1,148.5,667.5,148.5z M673.4,148.4v-5.8c0-0.3,0-0.5,0-0.8s-0.1-0.6-0.1-0.9h0.9l0.1,1.7
	h-0.2c0.2-0.6,0.6-1.1,1.1-1.4s1.1-0.5,1.7-0.5c0.9,0,1.6,0.2,2,0.7c0.5,0.5,0.7,1.2,0.7,2.2v4.7h-0.9v-4.7c0-0.8-0.2-1.3-0.5-1.7
	c-0.3-0.3-0.8-0.5-1.4-0.5c-0.8,0-1.4,0.2-1.8,0.7c-0.4,0.5-0.7,1.1-0.7,1.9v4.3h-0.9L673.4,148.4L673.4,148.4z M685.3,151.7
	c-0.6,0-1.2-0.1-1.8-0.3c-0.5-0.2-1-0.4-1.5-0.8l0.3-0.7c0.3,0.2,0.6,0.4,0.9,0.5c0.3,0.1,0.6,0.2,0.9,0.3c0.3,0.1,0.7,0.1,1,0.1
	c0.8,0,1.3-0.2,1.7-0.6c0.4-0.4,0.6-1,0.6-1.7v-2.4h0.2c-0.2,0.6-0.5,1.1-1,1.5c-0.5,0.3-1.1,0.5-1.8,0.5s-1.3-0.2-1.8-0.5
	s-0.9-0.7-1.2-1.3s-0.4-1.2-0.4-2s0.1-1.4,0.4-2c0.3-0.6,0.7-1,1.2-1.3s1.1-0.5,1.8-0.5s1.3,0.2,1.8,0.5s0.8,0.8,1,1.5l-0.2-0.2
	l0.1-1.7h0.9c0,0.3-0.1,0.6-0.1,0.9s0,0.6,0,0.8v5.9c0,1.1-0.3,1.9-0.8,2.4C687.2,151.4,686.4,151.7,685.3,151.7z M685.1,147.4
	c0.8,0,1.4-0.3,1.8-0.8c0.5-0.5,0.7-1.2,0.7-2.2c0-0.9-0.2-1.7-0.7-2.2s-1.1-0.8-1.8-0.8c-0.8,0-1.4,0.3-1.9,0.8s-0.7,1.2-0.7,2.2
	c0,0.9,0.2,1.7,0.7,2.2C683.7,147.2,684.3,147.4,685.1,147.4z M622.8,168.4v-10.6h4.2c1.1,0,1.9,0.3,2.5,0.8s0.9,1.2,0.9,2.2
	c0,0.6-0.1,1.1-0.4,1.5c-0.3,0.4-0.6,0.7-1.1,1c-0.5,0.2-1,0.3-1.7,0.3l0.3-0.2h0.2c0.4,0,0.8,0.1,1.1,0.3s0.6,0.5,0.8,1l1.5,3.7h-1
	l-1.4-3.5c-0.2-0.5-0.5-0.8-0.8-1c-0.4-0.1-0.8-0.2-1.4-0.2h-2.7v4.7H622.8z M623.7,162.9h3.1c0.8,0,1.5-0.2,1.9-0.6
	c0.5-0.4,0.7-0.9,0.7-1.6c0-0.7-0.2-1.2-0.7-1.6c-0.4-0.4-1.1-0.6-1.9-0.6h-3.1V162.9z M635.8,168.5c-0.7,0-1.3-0.2-1.8-0.5
	s-0.9-0.8-1.2-1.3s-0.4-1.3-0.4-2.1s0.1-1.5,0.4-2.1c0.3-0.6,0.7-1,1.2-1.3s1.1-0.5,1.8-0.5s1.3,0.2,1.8,0.5c0.5,0.4,0.8,0.9,1,1.5
	h-0.2l0.2-1.9h0.9c0,0.3-0.1,0.6-0.1,0.9c0,0.3,0,0.6,0,0.8v5.8h-0.9v-1.9h0.2c-0.2,0.6-0.5,1.1-1,1.5
	C637.1,168.3,636.5,168.5,635.8,168.5z M636,167.7c0.8,0,1.4-0.3,1.8-0.8c0.5-0.5,0.7-1.3,0.7-2.3s-0.2-1.8-0.7-2.3
	s-1.1-0.8-1.8-0.8s-1.4,0.3-1.8,0.8c-0.5,0.5-0.7,1.3-0.7,2.3s0.2,1.8,0.7,2.3C634.6,167.5,635.2,167.7,636,167.7z M644.3,168.5
	c-0.7,0-1.2-0.2-1.5-0.6c-0.4-0.4-0.5-1-0.5-1.8v-4.5h-1.5v-0.7h1.5v-2.1l0.9-0.3v2.4h2.2v0.7h-2.2v4.3c0,0.6,0.1,1.1,0.3,1.4
	c0.2,0.3,0.5,0.4,1,0.4c0.2,0,0.4,0,0.5-0.1c0.2,0,0.3-0.1,0.4-0.1v0.8c-0.1,0.1-0.3,0.1-0.5,0.1
	C644.7,168.5,644.5,168.5,644.3,168.5z M646.9,168.4v-7.5h0.9v7.5H646.9z M646.8,159v-1.1h1.2v1.1H646.8z M652.8,168.5
	c-0.6,0-1.1-0.1-1.6-0.3s-0.9-0.4-1.2-0.7l0.4-0.7c0.4,0.3,0.8,0.5,1.2,0.7c0.4,0.1,0.9,0.2,1.4,0.2c0.6,0,1.1-0.1,1.5-0.4
	c0.3-0.2,0.5-0.6,0.5-1c0-0.3-0.1-0.6-0.3-0.8s-0.6-0.4-1.1-0.4l-1.3-0.3c-0.6-0.1-1.1-0.4-1.4-0.7c-0.3-0.3-0.5-0.7-0.5-1.2
	c0-0.4,0.1-0.8,0.3-1.1s0.6-0.6,1-0.8s0.9-0.3,1.5-0.3c0.5,0,1,0.1,1.5,0.3s0.8,0.4,1.1,0.7l-0.4,0.7c-0.3-0.3-0.6-0.5-1-0.7
	s-0.8-0.2-1.2-0.2c-0.6,0-1.1,0.1-1.4,0.4c-0.3,0.2-0.5,0.6-0.5,1c0,0.3,0.1,0.6,0.3,0.8s0.5,0.3,0.9,0.4l1.3,0.3
	c0.7,0.1,1.2,0.4,1.5,0.7s0.5,0.7,0.5,1.2c0,0.4-0.1,0.8-0.4,1.2c-0.2,0.3-0.6,0.6-1,0.7S653.3,168.5,652.8,168.5z M661.3,168.5
	c-0.7,0-1.3-0.2-1.8-0.5c-0.5-0.4-0.8-0.9-1-1.5h0.2v1.9h-0.9v-11h0.9v5.4h-0.2c0.2-0.6,0.5-1.1,1-1.5s1.1-0.5,1.8-0.5
	s1.3,0.2,1.8,0.5s0.9,0.8,1.2,1.3c0.3,0.6,0.4,1.3,0.4,2.1s-0.1,1.5-0.4,2.1c-0.3,0.6-0.7,1-1.2,1.3
	C662.5,168.3,661.9,168.5,661.3,168.5z M661.1,167.7c0.8,0,1.4-0.3,1.8-0.8c0.5-0.5,0.7-1.3,0.7-2.3s-0.2-1.8-0.7-2.3
	s-1.1-0.8-1.8-0.8c-0.8,0-1.4,0.3-1.8,0.8c-0.5,0.5-0.7,1.3-0.7,2.3s0.2,1.8,0.7,2.3C659.8,167.5,660.4,167.7,661.1,167.7z
	 M669.6,168.5c-0.7,0-1.3-0.2-1.8-0.5s-0.9-0.8-1.2-1.3c-0.3-0.6-0.4-1.3-0.4-2.1s0.1-1.5,0.4-2.1c0.3-0.6,0.7-1,1.2-1.3
	s1.1-0.5,1.8-0.5s1.3,0.2,1.8,0.5s0.9,0.8,1.2,1.3c0.3,0.6,0.4,1.3,0.4,2.1s-0.1,1.5-0.4,2.1c-0.3,0.6-0.7,1-1.2,1.3
	C670.9,168.3,670.3,168.5,669.6,168.5z M669.6,167.7c0.8,0,1.4-0.3,1.8-0.8c0.5-0.5,0.7-1.3,0.7-2.3s-0.2-1.8-0.7-2.3
	s-1.1-0.8-1.8-0.8c-0.8,0-1.4,0.3-1.8,0.8c-0.5,0.5-0.7,1.3-0.7,2.3s0.2,1.8,0.7,2.3C668.2,167.5,668.8,167.7,669.6,167.7z
	 M675,168.4v-5.8c0-0.3,0-0.5,0-0.8s0-0.6-0.1-0.9h0.9l0.1,1.7h-0.2c0.2-0.6,0.6-1.1,1.1-1.4c0.5-0.3,1.1-0.5,1.7-0.5
	c0.9,0,1.6,0.2,2,0.7c0.5,0.5,0.7,1.2,0.7,2.2v4.7h-0.9v-4.7c0-0.8-0.2-1.3-0.5-1.7c-0.3-0.3-0.8-0.5-1.4-0.5
	c-0.8,0-1.4,0.2-1.8,0.7c-0.4,0.5-0.7,1.1-0.7,1.9v4.3H675V168.4z M686.5,168.5c-0.7,0-1.3-0.2-1.8-0.5s-0.9-0.8-1.2-1.3
	s-0.4-1.3-0.4-2.1s0.1-1.5,0.4-2.1c0.3-0.6,0.7-1,1.2-1.3s1.1-0.5,1.8-0.5s1.3,0.2,1.8,0.5c0.5,0.4,0.8,0.9,1,1.5h-0.2l0.2-1.9h0.9
	c0,0.3-0.1,0.6-0.1,0.9c0,0.3,0,0.6,0,0.8v5.8h-0.9v-1.9h0.2c-0.2,0.6-0.5,1.1-1,1.5C687.8,168.3,687.2,168.5,686.5,168.5z
	 M686.7,167.7c0.8,0,1.4-0.3,1.8-0.8c0.5-0.5,0.7-1.3,0.7-2.3s-0.2-1.8-0.7-2.3s-1.1-0.8-1.8-0.8c-0.8,0-1.4,0.3-1.8,0.8
	c-0.5,0.5-0.7,1.3-0.7,2.3s0.2,1.8,0.7,2.3C685.3,167.5,685.9,167.7,686.7,167.7z M701,168.5c-1,0-1.9-0.2-2.7-0.6
	c-0.7-0.4-1.3-1.1-1.7-1.9s-0.6-1.8-0.6-2.9c0-1.1,0.2-2.1,0.6-2.9c0.4-0.8,0.9-1.4,1.7-1.9c0.7-0.4,1.6-0.7,2.7-0.7
	c0.8,0,1.4,0.1,2,0.4c0.6,0.2,1.1,0.6,1.5,1l-0.4,0.8c-0.5-0.5-1-0.8-1.5-1s-1.1-0.3-1.7-0.3c-1.3,0-2.2,0.4-2.9,1.2s-1,1.9-1,3.3
	s0.3,2.6,1,3.4c0.7,0.8,1.6,1.2,2.9,1.2c0.7,0,1.2-0.1,1.7-0.3s1-0.5,1.5-1l0.4,0.8c-0.4,0.5-1,0.8-1.6,1.1
	C702.4,168.4,701.7,168.5,701,168.5z M709.1,168.5c-0.7,0-1.3-0.2-1.8-0.5s-0.9-0.8-1.2-1.3c-0.3-0.6-0.4-1.3-0.4-2.1
	s0.1-1.5,0.4-2.1c0.3-0.6,0.7-1,1.2-1.3s1.1-0.5,1.8-0.5s1.3,0.2,1.8,0.5s0.9,0.8,1.2,1.3c0.3,0.6,0.4,1.3,0.4,2.1s-0.1,1.5-0.4,2.1
	c-0.3,0.6-0.7,1-1.2,1.3C710.4,168.3,709.8,168.5,709.1,168.5z M709.1,167.7c0.8,0,1.4-0.3,1.8-0.8c0.5-0.5,0.7-1.3,0.7-2.3
	s-0.2-1.8-0.7-2.3s-1.1-0.8-1.8-0.8c-0.8,0-1.4,0.3-1.8,0.8c-0.5,0.5-0.7,1.3-0.7,2.3s0.2,1.8,0.7,2.3
	C707.7,167.5,708.3,167.7,709.1,167.7z M717.4,168.5c-0.7,0-1.3-0.2-1.8-0.5s-0.9-0.8-1.2-1.3c-0.3-0.6-0.4-1.3-0.4-2.1
	s0.1-1.5,0.4-2.1c0.3-0.6,0.7-1,1.2-1.3s1.1-0.5,1.8-0.5s1.3,0.2,1.8,0.5c0.5,0.4,0.9,0.8,1,1.5H720v-5.4h0.9v11H720v-1.9h0.2
	c-0.2,0.6-0.5,1.1-1,1.5C718.6,168.3,718.1,168.5,717.4,168.5z M717.5,167.7c0.8,0,1.4-0.3,1.8-0.8c0.5-0.5,0.7-1.3,0.7-2.3
	s-0.2-1.8-0.7-2.3s-1.1-0.8-1.8-0.8s-1.4,0.3-1.8,0.8c-0.4,0.5-0.7,1.3-0.7,2.3s0.2,1.8,0.7,2.3
	C716.1,167.5,716.7,167.7,717.5,167.7z M723.4,168.4v-7.5h0.9v7.5H723.4z M723.2,159v-1.1h1.2v1.1H723.2z M726.8,168.4v-5.8
	c0-0.3,0-0.5,0-0.8s0-0.6-0.1-0.9h0.9l0.1,1.7h-0.2c0.2-0.6,0.6-1.1,1.1-1.4c0.5-0.3,1.1-0.5,1.7-0.5c0.9,0,1.6,0.2,2,0.7
	c0.5,0.5,0.7,1.2,0.7,2.2v4.7h-0.9v-4.7c0-0.8-0.2-1.3-0.5-1.7c-0.3-0.3-0.8-0.5-1.4-0.5c-0.8,0-1.4,0.2-1.8,0.7
	c-0.4,0.5-0.7,1.1-0.7,1.9v4.3h-0.9L726.8,168.4L726.8,168.4z M738.7,171.7c-0.6,0-1.2-0.1-1.8-0.3c-0.5-0.2-1-0.4-1.5-0.8l0.3-0.7
	c0.3,0.2,0.6,0.4,0.9,0.5c0.3,0.1,0.6,0.2,0.9,0.3c0.3,0.1,0.7,0.1,1,0.1c0.8,0,1.3-0.2,1.7-0.6c0.4-0.4,0.6-1,0.6-1.7v-2.4h0.2
	c-0.2,0.6-0.5,1.1-1,1.5c-0.5,0.3-1.1,0.5-1.8,0.5s-1.3-0.1-1.8-0.4c-0.5-0.3-0.9-0.7-1.2-1.3s-0.4-1.2-0.4-2s0.1-1.4,0.4-2
	c0.3-0.6,0.7-1,1.2-1.3s1.1-0.5,1.8-0.5s1.3,0.2,1.8,0.5c0.5,0.4,0.8,0.8,1,1.5l-0.2-0.2l0.1-1.7h0.9c0,0.3-0.1,0.6-0.1,0.9
	c0,0.3,0,0.6,0,0.8v5.9c0,1.1-0.3,1.9-0.8,2.4C740.6,171.4,739.8,171.7,738.7,171.7z M738.5,167.4c0.8,0,1.4-0.3,1.8-0.8
	c0.5-0.5,0.7-1.2,0.7-2.2c0-0.9-0.2-1.7-0.7-2.2c-0.4-0.5-1.1-0.8-1.8-0.8s-1.4,0.3-1.9,0.8s-0.7,1.2-0.7,2.2c0,0.9,0.2,1.7,0.7,2.2
	C737.1,167.2,737.7,167.4,738.5,167.4z M751.4,168.5c-1.1,0-2-0.3-2.7-1s-1-1.6-1-2.8c0-0.8,0.1-1.5,0.4-2.1c0.3-0.6,0.7-1,1.2-1.4
	c0.5-0.3,1.1-0.5,1.8-0.5s1.2,0.1,1.7,0.4c0.5,0.3,0.8,0.7,1.1,1.2c0.2,0.5,0.4,1.1,0.4,1.9v0.4h-6v-0.7h5.4l-0.3,0.2
	c0-0.8-0.2-1.5-0.6-2c-0.4-0.5-1-0.7-1.7-0.7c-0.8,0-1.5,0.3-1.9,0.9c-0.5,0.6-0.7,1.3-0.7,2.2v0.1c0,1,0.2,1.8,0.7,2.3
	s1.2,0.8,2.1,0.8c0.5,0,0.9-0.1,1.3-0.2c0.4-0.1,0.8-0.4,1.2-0.7l0.4,0.7c-0.3,0.3-0.7,0.6-1.2,0.8
	C752.5,168.4,752,168.5,751.4,168.5z M756.1,168.4v-1.3h1.3v1.3H756.1z M762.3,168.4l-4.6-10.6h1l4.2,9.9h-0.4l4.3-9.9h1l-4.6,10.6
	H762.3z M768.2,168.4v-1.3h1.3v1.3H768.2z"/>
<path class="st1" d="M273.2,44.6v-0.8l4.6-4.9c0.6-0.6,1.1-1.2,1.4-1.8s0.5-1.2,0.5-1.9c0-0.8-0.2-1.4-0.7-1.8s-1.2-0.6-2.1-0.6
	c-0.7,0-1.4,0.1-1.9,0.4c-0.6,0.3-1.1,0.6-1.7,1.2l-0.5-0.9c0.5-0.5,1.1-0.9,1.8-1.2c0.7-0.3,1.5-0.5,2.3-0.5c1.2,0,2.2,0.3,2.9,0.9
	c0.7,0.6,1,1.4,1,2.5c0,0.8-0.2,1.6-0.6,2.3s-1,1.5-1.7,2.2l-4.2,4.3v-0.3h7v1h-8.1L273.2,44.6L273.2,44.6z M287.7,44.8
	c-1.4,0-2.5-0.6-3.3-1.7c-0.8-1.1-1.1-2.7-1.1-4.8s0.4-3.8,1.1-4.8c0.8-1.1,1.8-1.7,3.3-1.7c1.4,0,2.5,0.6,3.3,1.7s1.1,2.7,1.1,4.8
	s-0.4,3.7-1.1,4.8C290.2,44.2,289.1,44.8,287.7,44.8z M287.7,43.8c1.1,0,1.9-0.5,2.4-1.4s0.8-2.3,0.8-4.2s-0.3-3.3-0.8-4.2
	s-1.4-1.3-2.4-1.3c-1.1,0-1.9,0.4-2.4,1.3c-0.5,0.9-0.8,2.3-0.8,4.1c0,1.9,0.3,3.3,0.8,4.2C285.8,43.3,286.6,43.8,287.7,43.8z
	 M295.5,44.6v-1h3V32.9h0.6l-3.4,2.1v-1.2l3-2h0.8v11.7h2.8v1L295.5,44.6L295.5,44.6z M306.2,44.6l6.3-12.3v0.6h-7.3v-1h8.2v0.8
	l-6,11.9H306.2z"/>
<path class="st1" d="M497.8,44.6v-0.8l4.6-4.9c0.6-0.6,1.1-1.2,1.4-1.8s0.5-1.2,0.5-1.9c0-0.8-0.2-1.4-0.7-1.8s-1.2-0.6-2.1-0.6
	c-0.7,0-1.4,0.1-1.9,0.4c-0.6,0.3-1.1,0.6-1.7,1.2l-0.5-0.9c0.5-0.5,1.1-0.9,1.8-1.2c0.7-0.3,1.5-0.5,2.3-0.5c1.2,0,2.2,0.3,2.9,0.9
	c0.7,0.6,1,1.4,1,2.5c0,0.8-0.2,1.6-0.6,2.3s-1,1.5-1.7,2.2l-4.2,4.3v-0.3h7v1h-8.1L497.8,44.6L497.8,44.6z M512.3,44.8
	c-1.4,0-2.5-0.6-3.3-1.7c-0.8-1.1-1.1-2.7-1.1-4.8s0.4-3.8,1.1-4.8c0.8-1.1,1.8-1.7,3.3-1.7c1.4,0,2.5,0.6,3.3,1.7s1.1,2.7,1.1,4.8
	s-0.4,3.7-1.1,4.8C514.8,44.2,513.8,44.8,512.3,44.8z M512.3,43.8c1.1,0,1.9-0.5,2.4-1.4s0.8-2.3,0.8-4.2s-0.3-3.3-0.8-4.2
	s-1.4-1.3-2.4-1.3c-1.1,0-1.9,0.4-2.4,1.3c-0.5,0.9-0.8,2.3-0.8,4.1c0,1.9,0.3,3.3,0.8,4.2C510.4,43.3,511.3,43.8,512.3,43.8z
	 M520.2,44.6v-1h3V32.9h0.6l-3.4,2.1v-1.2l3-2h0.8v11.7h2.8v1L520.2,44.6L520.2,44.6z M533.9,44.8c-1.4,0-2.5-0.3-3.3-0.9
	c-0.8-0.6-1.2-1.5-1.2-2.6c0-0.9,0.3-1.6,0.8-2.2c0.6-0.6,1.3-0.9,2.2-1v0.2c-0.8-0.2-1.5-0.5-1.9-1.1c-0.5-0.6-0.7-1.3-0.7-2
	c0-1.1,0.4-1.9,1.1-2.5c0.7-0.6,1.8-0.9,3.1-0.9s2.3,0.3,3.1,0.9c0.7,0.6,1.1,1.4,1.1,2.5c0,0.8-0.2,1.5-0.7,2
	c-0.4,0.6-1.1,0.9-1.9,1.1v-0.2c0.9,0.1,1.6,0.5,2.1,1c0.5,0.6,0.8,1.3,0.8,2.2c0,1.1-0.4,1.9-1.2,2.6
	C536.5,44.5,535.4,44.8,533.9,44.8z M533.9,43.8c1.1,0,2-0.2,2.5-0.6c0.6-0.4,0.8-1.1,0.8-1.9s-0.3-1.5-0.8-1.9
	c-0.6-0.4-1.4-0.6-2.5-0.6s-2,0.2-2.6,0.6c-0.6,0.4-0.8,1.1-0.8,1.9s0.3,1.5,0.8,1.9C532,43.6,532.8,43.8,533.9,43.8z M533.9,37.7
	c1,0,1.8-0.2,2.3-0.7c0.5-0.4,0.8-1.1,0.8-1.8c0-0.8-0.3-1.4-0.8-1.8c-0.5-0.4-1.3-0.6-2.3-0.6s-1.8,0.2-2.3,0.6
	c-0.5,0.4-0.8,1-0.8,1.8s0.3,1.4,0.8,1.8C532.2,37.5,532.9,37.7,533.9,37.7z"/>
<path class="st1" d="M722.4,44.6v-0.8l4.6-4.9c0.6-0.6,1.1-1.2,1.4-1.8c0.3-0.6,0.5-1.2,0.5-1.9c0-0.8-0.2-1.4-0.7-1.8
	s-1.2-0.6-2.1-0.6c-0.7,0-1.4,0.1-1.9,0.4c-0.6,0.3-1.1,0.6-1.7,1.2l-0.5-0.9c0.5-0.5,1.1-0.9,1.8-1.2s1.5-0.5,2.3-0.5
	c1.2,0,2.2,0.3,2.9,0.9s1,1.4,1,2.5c0,0.8-0.2,1.6-0.6,2.3c-0.4,0.7-1,1.5-1.7,2.2l-4.2,4.3v-0.3h7v1h-8.1V44.6z M737,44.8
	c-1.4,0-2.5-0.6-3.3-1.7c-0.8-1.1-1.1-2.7-1.1-4.8s0.4-3.8,1.1-4.8c0.8-1.1,1.8-1.7,3.3-1.7c1.4,0,2.5,0.6,3.3,1.7s1.1,2.7,1.1,4.8
	s-0.4,3.7-1.1,4.8C739.5,44.2,738.4,44.8,737,44.8z M737,43.8c1.1,0,1.9-0.5,2.4-1.4s0.8-2.3,0.8-4.2s-0.3-3.3-0.8-4.2
	s-1.4-1.3-2.4-1.3c-1.1,0-1.9,0.4-2.4,1.3c-0.5,0.9-0.8,2.3-0.8,4.1c0,1.9,0.3,3.3,0.8,4.2C735.1,43.3,735.9,43.8,737,43.8z
	 M744.8,44.6v-1h3V32.9h0.6L745,35v-1.2l3-2h0.8v11.7h2.8v1L744.8,44.6L744.8,44.6z M757.8,44.8c-0.6,0-1.3-0.1-2-0.4
	s-1.2-0.7-1.7-1.1l0.5-0.9c0.5,0.5,1,0.9,1.5,1.1c0.6,0.2,1.1,0.4,1.7,0.4c1.3,0,2.3-0.5,3-1.4s1-2.4,1-4.2v-2h0.1
	c-0.1,0.7-0.3,1.3-0.6,1.9c-0.3,0.5-0.8,0.9-1.4,1.2c-0.6,0.3-1.2,0.4-1.9,0.4c-0.8,0-1.5-0.2-2.1-0.5s-1.1-0.8-1.4-1.4
	c-0.3-0.6-0.5-1.3-0.5-2.1s0.2-1.5,0.5-2.1s0.8-1.1,1.4-1.4c0.6-0.3,1.3-0.5,2.1-0.5c1.5,0,2.7,0.5,3.5,1.6s1.2,2.6,1.2,4.5
	c0,1.5-0.2,2.7-0.6,3.7c-0.4,1-1,1.8-1.8,2.3S758.8,44.8,757.8,44.8z M758.3,38.8c0.6,0,1.1-0.1,1.6-0.4s0.8-0.6,1.1-1.1
	s0.4-1,0.4-1.6s-0.1-1.1-0.4-1.6c-0.3-0.5-0.6-0.8-1.1-1.1s-1-0.4-1.6-0.4s-1.1,0.1-1.6,0.4s-0.8,0.6-1.1,1.1s-0.4,1-0.4,1.6
	s0.1,1.1,0.4,1.6c0.3,0.5,0.6,0.8,1.1,1.1C757.1,38.7,757.7,38.8,758.3,38.8z"/>
<path class="st1" d="M944.7,44.6v-0.8l4.6-4.9c0.6-0.6,1.1-1.2,1.4-1.8c0.3-0.6,0.5-1.2,0.5-1.9c0-0.8-0.2-1.4-0.7-1.8
	s-1.2-0.6-2.1-0.6c-0.7,0-1.4,0.1-1.9,0.4s-1.1,0.6-1.7,1.2l-0.5-0.9c0.5-0.5,1.1-0.9,1.8-1.2s1.5-0.5,2.3-0.5
	c1.2,0,2.2,0.3,2.9,0.9s1,1.4,1,2.5c0,0.8-0.2,1.6-0.6,2.3c-0.4,0.7-1,1.5-1.7,2.2l-4.2,4.3v-0.3h7v1h-8.1V44.6z M959.2,44.8
	c-1.4,0-2.5-0.6-3.3-1.7c-0.8-1.1-1.1-2.7-1.1-4.8s0.4-3.8,1.1-4.8c0.8-1.1,1.8-1.7,3.3-1.7c1.4,0,2.5,0.6,3.3,1.7s1.1,2.7,1.1,4.8
	s-0.4,3.7-1.1,4.8C961.8,44.2,960.7,44.8,959.2,44.8z M959.2,43.8c1.1,0,1.9-0.5,2.4-1.4s0.8-2.3,0.8-4.2s-0.3-3.3-0.8-4.2
	s-1.4-1.3-2.4-1.3c-1.1,0-1.9,0.4-2.4,1.3c-0.5,0.9-0.8,2.3-0.8,4.1c0,1.9,0.3,3.3,0.8,4.2C957.4,43.3,958.2,43.8,959.2,43.8z
	 M966.3,44.6v-0.8l4.6-4.9c0.6-0.6,1.1-1.2,1.4-1.8c0.3-0.6,0.5-1.2,0.5-1.9c0-0.8-0.2-1.4-0.7-1.8s-1.2-0.6-2.1-0.6
	c-0.7,0-1.4,0.1-1.9,0.4s-1.1,0.6-1.7,1.2l-0.5-0.9c0.5-0.5,1.1-0.9,1.8-1.2s1.5-0.5,2.3-0.5c1.2,0,2.2,0.3,2.9,0.9s1,1.4,1,2.5
	c0,0.8-0.2,1.6-0.6,2.3c-0.4,0.7-1,1.5-1.7,2.2l-4.2,4.3v-0.3h7v1h-8.1V44.6z M977.1,44.6v-0.8l4.6-4.9c0.6-0.6,1.1-1.2,1.4-1.8
	c0.3-0.6,0.5-1.2,0.5-1.9c0-0.8-0.2-1.4-0.7-1.8s-1.2-0.6-2.1-0.6c-0.7,0-1.4,0.1-1.9,0.4c-0.6,0.3-1.1,0.6-1.7,1.2l-0.5-0.9
	c0.5-0.5,1.1-0.9,1.8-1.2s1.5-0.5,2.3-0.5c1.2,0,2.2,0.3,2.9,0.9s1,1.4,1,2.5c0,0.8-0.2,1.6-0.6,2.3c-0.4,0.7-1,1.5-1.7,2.2
	l-4.2,4.3v-0.3h7v1h-8.1V44.6z"/>
<path class="st1" d="M1169.3,44.6v-0.8l4.6-4.9c0.6-0.6,1.1-1.2,1.4-1.8s0.5-1.2,0.5-1.9c0-0.8-0.2-1.4-0.7-1.8s-1.2-0.6-2.1-0.6
	c-0.7,0-1.4,0.1-1.9,0.4s-1.2,0.6-1.7,1.2l-0.5-0.9c0.5-0.5,1.1-0.9,1.8-1.2c0.7-0.3,1.5-0.5,2.3-0.5c1.2,0,2.2,0.3,2.9,0.9
	c0.7,0.6,1,1.4,1,2.5c0,0.8-0.2,1.6-0.6,2.3s-1,1.5-1.7,2.2l-4.2,4.3v-0.3h7v1h-8.1L1169.3,44.6L1169.3,44.6z M1183.9,44.8
	c-1.4,0-2.5-0.6-3.3-1.7c-0.8-1.1-1.1-2.7-1.1-4.8s0.4-3.8,1.1-4.8c0.8-1.1,1.8-1.7,3.3-1.7c1.4,0,2.5,0.6,3.3,1.7s1.1,2.7,1.1,4.8
	s-0.4,3.7-1.1,4.8C1186.4,44.2,1185.3,44.8,1183.9,44.8z M1183.9,43.8c1.1,0,1.9-0.5,2.4-1.4s0.8-2.3,0.8-4.2s-0.3-3.3-0.8-4.2
	s-1.4-1.3-2.4-1.3c-1.1,0-1.9,0.4-2.4,1.3c-0.5,0.9-0.8,2.3-0.8,4.1c0,1.9,0.3,3.3,0.8,4.2C1182,43.3,1182.8,43.8,1183.9,43.8z
	 M1190.9,44.6v-0.8l4.6-4.9c0.6-0.6,1.1-1.2,1.4-1.8s0.5-1.2,0.5-1.9c0-0.8-0.2-1.4-0.7-1.8s-1.2-0.6-2.1-0.6c-0.7,0-1.4,0.1-2,0.4
	s-1.1,0.6-1.7,1.2l-0.5-0.9c0.5-0.5,1.1-0.9,1.8-1.2c0.7-0.3,1.5-0.5,2.3-0.5c1.2,0,2.2,0.3,2.9,0.9c0.7,0.6,1,1.4,1,2.5
	c0,0.8-0.2,1.6-0.6,2.3s-1,1.5-1.7,2.2l-4.2,4.3v-0.3h7v1h-8L1190.9,44.6L1190.9,44.6z M1205.5,44.8c-0.9,0-1.7-0.1-2.4-0.4
	c-0.8-0.3-1.4-0.6-2-1.2l0.5-0.9c0.6,0.5,1.2,0.9,1.9,1.1c0.6,0.2,1.3,0.3,2,0.3c1,0,1.8-0.2,2.3-0.7c0.5-0.4,0.8-1.1,0.8-1.9
	s-0.3-1.4-0.8-1.9c-0.5-0.4-1.3-0.6-2.4-0.6h-1.9v-1h1.8c0.9,0,1.6-0.2,2.1-0.7s0.8-1.1,0.8-1.9c0-0.7-0.2-1.3-0.7-1.7
	s-1.2-0.6-2.1-0.6c-1.4,0-2.6,0.5-3.6,1.5l-0.4-0.9c0.5-0.5,1.1-0.9,1.8-1.2c0.7-0.3,1.5-0.4,2.3-0.4c1.2,0,2.1,0.3,2.8,0.8
	c0.7,0.6,1.1,1.3,1.1,2.4c0,0.8-0.2,1.5-0.7,2c-0.4,0.6-1.1,0.9-1.8,1.2v-0.2c0.9,0.2,1.6,0.5,2.1,1.1s0.8,1.3,0.8,2.1
	c0,1.1-0.4,2-1.1,2.6C1207.8,44.5,1206.8,44.8,1205.5,44.8z"/>
<ellipse class="st2" cx="1188.1" cy="108.3" rx="9.4" ry="9.5"/>
<line class="st3" x1="965.8" y1="108.5" x2="1189.3" y2="108.5"/>
<ellipse class="st2" cx="964.6" cy="108.3" rx="9.4" ry="9.5"/>
<linearGradient id="SVGID_1_" gradientUnits="userSpaceOnUse" x1="607.3" y1="258.3" x2="1409.4" y2="258.3" gradientTransform="matrix(1 0 0 -1 0 450)">
	<stop  offset="0" style="stop-color:#DB2878"/>
	<stop  offset="1" style="stop-color:#7B54A2"/>
</linearGradient>
<line class="st4" x1="607.3" y1="191.7" x2="1409.4" y2="191.7"/>
<linearGradient id="SVGID_00000024686992259482019950000006791879691090001800_" gradientUnits="userSpaceOnUse" x1="513.0463" y1="299.4114" x2="609.2639" y2="299.4114" gradientTransform="matrix(1 0 0 -1 0 450)">
	<stop  offset="0" style="stop-color:#DB2878"/>
	<stop  offset="1" style="stop-color:#7B54A2"/>
</linearGradient>
<path style="fill:none;stroke:url(#SVGID_00000024686992259482019950000006791879691090001800_);stroke-width:2;" d="M513.1,109.6
	c9.3-0.5,25,1.6,47.3,35.8c9.2,15.9,27.4,51.4,48.6,45.6"/>
<path class="st3" d="M607.3,191.7c13.5-0.6,35.1,8,67.6,47.7c21.1,27.2,32.6,36.1,63.9,35.9h618.3"/>
<line class="st3" x1="93.4" y1="108" x2="965.3" y2="109.2"/>
<ellipse class="st2" cx="93.1" cy="108.3" rx="9.4" ry="9.5"/>
<ellipse class="st2" cx="293.7" cy="108.3" rx="8.8" ry="9.5"/>
<ellipse class="st2" cx="741.2" cy="108.3" rx="9.4" ry="9.5"/>
<ellipse class="st2" cx="517.2" cy="108.3" rx="8.8" ry="9.5"/>
<linearGradient id="SVGID_00000028288360452185406260000017831714602333793679_" gradientUnits="userSpaceOnUse" x1="1178.7" y1="257.7" x2="1197.5" y2="257.7" gradientTransform="matrix(1 0 0 -1 0 450)">
	<stop  offset="0" style="stop-color:#DB2878"/>
	<stop  offset="1" style="stop-color:#7B54A2"/>
</linearGradient>
<ellipse style="fill:url(#SVGID_00000028288360452185406260000017831714602333793679_);" cx="1188.1" cy="192.3" rx="9.4" ry="8.9"/>
<ellipse class="st2" cx="1409.4" cy="108.6" rx="9.4" ry="9.5"/>
<line class="st3" x1="1187.1" y1="108.8" x2="1410.6" y2="108.8"/>
<g class="st7">
	<path class="st1" d="M1384.8,47.4v1.7h-9.5c0-0.4,0.1-0.8,0.2-1.2c0.2-0.6,0.6-1.3,1.2-1.9c0.5-0.6,1.3-1.4,2.3-2.2
		c1.6-1.3,2.6-2.3,3.2-3c0.5-0.7,0.8-1.5,0.8-2.1c0-0.7-0.2-1.3-0.8-1.8c-0.5-0.5-1.2-0.7-2-0.7c-0.9,0-1.5,0.3-2,0.8
		c-0.5,0.5-0.8,1.2-0.8,2.1l-1.8-0.2c0.1-1.4,0.6-2.4,1.4-3.1c0.8-0.7,1.9-1.1,3.3-1.1c1.4,0,2.5,0.4,3.3,1.1
		c0.8,0.8,1.2,1.7,1.2,2.8c0,0.6-0.1,1.1-0.4,1.7c-0.2,0.6-0.6,1.1-1.2,1.8c-0.5,0.6-1.5,1.5-2.7,2.5c-1.1,0.9-1.7,1.5-2,1.8
		s-0.5,0.6-0.7,1H1384.8z"/>
	<path class="st1" d="M1386.7,42c0-1.7,0.2-3.1,0.5-4.1c0.4-1,0.9-1.8,1.6-2.4c0.7-0.6,1.6-0.8,2.6-0.8c0.8,0,1.4,0.2,2,0.5
		s1.1,0.8,1.4,1.3s0.7,1.3,0.9,2.1c0.2,0.8,0.3,2,0.3,3.4c0,1.7-0.2,3-0.5,4.1c-0.3,1-0.9,1.8-1.6,2.4c-0.7,0.6-1.6,0.8-2.6,0.8
		c-1.4,0-2.5-0.5-3.3-1.5C1387.2,46.6,1386.7,44.7,1386.7,42z M1388.5,42c0,2.4,0.3,3.9,0.8,4.7s1.2,1.2,2,1.2s1.5-0.4,2-1.2
		c0.6-0.8,0.8-2.4,0.8-4.7c0-2.4-0.3-3.9-0.8-4.7c-0.6-0.8-1.2-1.2-2.1-1.2c-0.8,0-1.5,0.3-1.9,1C1388.8,38,1388.5,39.6,1388.5,42z"
		/>
	<path class="st1" d="M1407.2,47.4v1.7h-9.5c0-0.4,0.1-0.8,0.2-1.2c0.2-0.6,0.6-1.3,1.2-1.9c0.5-0.6,1.3-1.4,2.3-2.2
		c1.6-1.3,2.6-2.3,3.2-3c0.5-0.7,0.8-1.5,0.8-2.1c0-0.7-0.2-1.3-0.8-1.8c-0.5-0.5-1.2-0.7-2-0.7c-0.9,0-1.5,0.3-2,0.8
		c-0.5,0.5-0.8,1.2-0.8,2.1l-1.8-0.2c0.1-1.4,0.6-2.4,1.4-3.1c0.8-0.7,1.9-1.1,3.3-1.1c1.4,0,2.5,0.4,3.3,1.1
		c0.8,0.8,1.2,1.7,1.2,2.8c0,0.6-0.1,1.1-0.4,1.7c-0.2,0.6-0.6,1.1-1.2,1.8c-0.5,0.6-1.5,1.5-2.7,2.5c-1.1,0.9-1.7,1.5-2,1.8
		s-0.5,0.6-0.7,1H1407.2z"/>
	<path class="st1" d="M1414.7,49.1v-3.4h-6.2V44l6.6-9.3h1.4V44h1.9v1.6h-1.9v3.4H1414.7z M1414.7,44v-6.5l-4.5,6.5H1414.7z"/>
</g>
<linearGradient id="SVGID_00000099624502002095118640000000361127912148689820_" gradientUnits="userSpaceOnUse" x1="1401.6" y1="258.4" x2="1419.6" y2="258.4" gradientTransform="matrix(1 0 0 -1 0 450)">
	<stop  offset="0" style="stop-color:#DB2878"/>
	<stop  offset="1" style="stop-color:#7B54A2"/>
</linearGradient>
<ellipse style="fill:url(#SVGID_00000099624502002095118640000000361127912148689820_);" cx="1410.6" cy="191.6" rx="9" ry="9"/>
<path class="st1" d="M679.6,396.4v-10.6h0.9v4.8h6.8v-4.8h0.9v10.6h-0.9v-5h-6.8v5H679.6z M693.7,396.5c-0.7,0-1.3-0.2-1.8-0.5
	s-0.9-0.8-1.2-1.3c-0.3-0.6-0.4-1.3-0.4-2.1s0.1-1.5,0.4-2.1c0.3-0.6,0.7-1,1.2-1.3s1.1-0.5,1.8-0.5s1.3,0.2,1.8,0.5
	c0.5,0.4,0.8,0.9,1,1.5h-0.2l0.2-1.9h0.9c0,0.3-0.1,0.6-0.1,0.9s0,0.6,0,0.8v5.8h-0.9v-1.9h0.2c-0.2,0.6-0.5,1.1-1,1.5
	C695,396.3,694.4,396.5,693.7,396.5z M693.8,395.7c0.8,0,1.4-0.3,1.8-0.8s0.7-1.3,0.7-2.3s-0.2-1.8-0.7-2.3s-1.1-0.8-1.8-0.8
	c-0.8,0-1.4,0.3-1.8,0.8c-0.5,0.5-0.7,1.3-0.7,2.3s0.2,1.8,0.7,2.3C692.5,395.5,693.1,395.7,693.8,395.7z M702.8,396.5
	c-0.7,0-1.3-0.2-1.9-0.5c-0.5-0.3-0.9-0.8-1.2-1.4s-0.4-1.3-0.4-2.1s0.1-1.5,0.4-2.1c0.3-0.6,0.7-1,1.2-1.3s1.2-0.4,1.9-0.4
	c0.5,0,0.9,0.1,1.4,0.3c0.5,0.2,0.8,0.4,1.1,0.8l-0.4,0.7c-0.3-0.3-0.6-0.5-1-0.7c-0.4-0.1-0.7-0.2-1.1-0.2c-0.8,0-1.5,0.3-1.9,0.8
	c-0.5,0.5-0.7,1.3-0.7,2.3s0.2,1.8,0.7,2.3s1.1,0.8,1.9,0.8c0.3,0,0.7-0.1,1-0.2c0.4-0.1,0.7-0.4,1-0.7l0.4,0.7
	c-0.3,0.3-0.7,0.6-1.1,0.8C703.7,396.4,703.2,396.5,702.8,396.5z M707.1,396.4v-11h0.9v6.9l0,0l3.7-3.4h1.2l-4.3,3.9v-0.6l4.7,4.2
	h-1.2l-4.1-3.6l0,0v3.6H707.1z M717.3,396.5c-0.7,0-1.3-0.2-1.8-0.5s-0.9-0.8-1.2-1.3c-0.3-0.6-0.4-1.3-0.4-2.1s0.1-1.5,0.4-2.1
	c0.3-0.6,0.7-1,1.2-1.3s1.1-0.5,1.8-0.5s1.3,0.2,1.8,0.5c0.5,0.4,0.8,0.9,1,1.5h-0.2l0.1-1.9h0.9c0,0.3-0.1,0.6-0.1,0.9s0,0.6,0,0.8
	v5.8h-0.9v-1.9h0.2c-0.2,0.6-0.5,1.1-1,1.5S718,396.5,717.3,396.5z M717.5,395.7c0.8,0,1.4-0.3,1.8-0.8s0.7-1.3,0.7-2.3
	s-0.2-1.8-0.7-2.3s-1.1-0.8-1.8-0.8c-0.8,0-1.4,0.3-1.8,0.8c-0.5,0.5-0.7,1.3-0.7,2.3s0.2,1.8,0.7,2.3
	C716.1,395.5,716.7,395.7,717.5,395.7z M726.9,396.5c-0.7,0-1.3-0.2-1.8-0.5c-0.5-0.4-0.8-0.9-1-1.5h0.2v1.9h-0.9v-11h0.9v5.4h-0.2
	c0.2-0.6,0.5-1.1,1-1.5s1.1-0.5,1.8-0.5s1.3,0.2,1.8,0.5s0.9,0.8,1.2,1.3c0.3,0.6,0.4,1.3,0.4,2.1c0,0.8-0.1,1.5-0.4,2.1
	c-0.3,0.6-0.7,1-1.2,1.3C728.2,396.4,727.6,396.5,726.9,396.5z M726.8,395.7c0.8,0,1.4-0.3,1.8-0.8c0.5-0.5,0.7-1.3,0.7-2.3
	s-0.2-1.8-0.7-2.3s-1.1-0.8-1.8-0.8c-0.8,0-1.4,0.3-1.8,0.8c-0.5,0.5-0.7,1.3-0.7,2.3s0.2,1.8,0.7,2.3
	C725.4,395.5,726,395.7,726.8,395.7z M734.9,396.5c-0.9,0-1.5-0.2-2-0.7s-0.7-1.2-0.7-2.2v-4.7h0.9v4.7c0,0.8,0.2,1.3,0.5,1.7
	c0.3,0.3,0.8,0.5,1.4,0.5c0.7,0,1.3-0.2,1.7-0.7s0.7-1.1,0.7-1.9v-4.3h0.9v7.5h-0.9v-1.8h0.2c-0.2,0.6-0.6,1.1-1,1.4
	C736.1,396.3,735.5,396.5,734.9,396.5z M740.7,396.4v-5.8c0-0.3,0-0.6,0-0.9s0-0.6-0.1-0.9h0.9l0.1,1.7h-0.2c0.1-0.4,0.3-0.8,0.5-1
	c0.3-0.3,0.6-0.5,0.9-0.6c0.3-0.1,0.7-0.2,1-0.2c0.1,0,0.2,0,0.4,0c0.1,0,0.2,0,0.3,0.1v0.8c-0.1,0-0.2-0.1-0.4-0.1
	c-0.1,0-0.2,0-0.4,0c-0.4,0-0.8,0.1-1.2,0.3c-0.3,0.2-0.6,0.5-0.8,0.8s-0.3,0.7-0.3,1v4.6h-0.7V396.4z M749.1,399.7
	c-0.6,0-1.2-0.1-1.8-0.3c-0.5-0.2-1-0.4-1.5-0.8l0.3-0.7c0.3,0.2,0.6,0.4,0.9,0.5c0.3,0.1,0.6,0.2,0.9,0.3c0.3,0.1,0.7,0.1,1,0.1
	c0.8,0,1.3-0.2,1.7-0.6s0.6-1,0.6-1.7v-2.4h0.2c-0.2,0.6-0.5,1.1-1,1.5s-1.1,0.5-1.8,0.5s-1.3-0.1-1.8-0.5c-0.5-0.3-0.9-0.7-1.2-1.3
	c-0.3-0.6-0.4-1.2-0.4-2s0.1-1.4,0.4-2c0.3-0.6,0.7-1,1.2-1.3s1.1-0.5,1.8-0.5s1.3,0.2,1.8,0.5c0.5,0.4,0.8,0.8,1,1.5l-0.2-0.2
	l0.1-1.7h0.9c0,0.3-0.1,0.6-0.1,0.9s0,0.6,0,0.8v5.9c0,1.1-0.3,1.9-0.8,2.4C751,399.5,750.2,399.7,749.1,399.7z M748.9,395.4
	c0.8,0,1.4-0.3,1.8-0.8c0.5-0.5,0.7-1.2,0.7-2.2c0-0.9-0.2-1.7-0.7-2.2c-0.4-0.5-1.1-0.8-1.8-0.8c-0.8,0-1.4,0.3-1.9,0.8
	s-0.7,1.2-0.7,2.2c0,0.9,0.2,1.7,0.7,2.2C747.5,395.2,748.1,395.4,748.9,395.4z M762.1,396.5c-0.9,0-1.6-0.1-2.2-0.3
	c-0.7-0.2-1.2-0.5-1.7-1l0.4-0.8c0.4,0.3,0.7,0.5,1,0.7c0.4,0.2,0.7,0.3,1.1,0.4c0.4,0.1,0.9,0.1,1.4,0.1c0.9,0,1.6-0.2,2.1-0.5
	c0.5-0.4,0.7-0.9,0.7-1.5c0-0.5-0.2-0.9-0.5-1.2c-0.3-0.3-0.9-0.5-1.7-0.7l-1.5-0.3c-1-0.2-1.7-0.5-2.2-1c-0.5-0.4-0.7-1-0.7-1.8
	c0-0.6,0.2-1.2,0.5-1.6s0.8-0.8,1.3-1.1c0.6-0.2,1.2-0.4,2-0.4s1.4,0.1,2,0.3c0.6,0.2,1.2,0.5,1.6,1l-0.4,0.8
	c-0.5-0.4-1-0.8-1.5-0.9c-0.5-0.2-1.1-0.3-1.8-0.3c-0.9,0-1.6,0.2-2.1,0.6s-0.8,0.9-0.8,1.6c0,0.5,0.2,1,0.5,1.3s0.9,0.5,1.6,0.7
	l1.5,0.3c1,0.2,1.8,0.5,2.3,0.9s0.7,1,0.7,1.7c0,0.6-0.2,1.1-0.5,1.5s-0.7,0.8-1.3,1C763.6,396.4,762.9,396.5,762.1,396.5z
	 M770.9,396.5c-0.7,0-1.3-0.2-1.9-0.5c-0.5-0.3-0.9-0.8-1.2-1.4s-0.4-1.3-0.4-2.1s0.1-1.5,0.4-2.1c0.3-0.6,0.7-1,1.2-1.3
	s1.2-0.4,1.9-0.4c0.5,0,0.9,0.1,1.4,0.3c0.5,0.2,0.8,0.4,1.1,0.8l-0.4,0.7c-0.3-0.3-0.6-0.5-1-0.7c-0.4-0.1-0.7-0.2-1.1-0.2
	c-0.8,0-1.5,0.3-1.9,0.8c-0.5,0.5-0.7,1.3-0.7,2.3s0.2,1.8,0.7,2.3s1.1,0.8,1.9,0.8c0.3,0,0.7-0.1,1-0.2c0.4-0.1,0.7-0.4,1-0.7
	l0.4,0.7c-0.3,0.3-0.7,0.6-1.1,0.8C771.8,396.4,771.3,396.5,770.9,396.5z M775.2,396.4v-11h0.9v5.3h-0.2c0.2-0.6,0.6-1.1,1.1-1.4
	s1.1-0.5,1.7-0.5c0.9,0,1.6,0.2,2,0.7s0.7,1.2,0.7,2.2v4.8h-0.9v-4.7c0-0.8-0.2-1.3-0.5-1.6s-0.8-0.5-1.4-0.5
	c-0.8,0-1.4,0.2-1.8,0.7c-0.5,0.5-0.7,1.1-0.7,1.8v4.3L775.2,396.4L775.2,396.4z M786.9,396.5c-0.7,0-1.3-0.2-1.8-0.5
	s-0.9-0.8-1.2-1.3c-0.3-0.6-0.4-1.3-0.4-2.1c0-0.8,0.1-1.5,0.4-2.1c0.3-0.6,0.7-1,1.2-1.3s1.1-0.5,1.8-0.5s1.3,0.2,1.8,0.5
	s0.9,0.8,1.2,1.3c0.3,0.6,0.4,1.3,0.4,2.1c0,0.8-0.1,1.5-0.4,2.1c-0.3,0.6-0.7,1-1.2,1.3C788.2,396.4,787.6,396.5,786.9,396.5z
	 M786.9,395.7c0.8,0,1.4-0.3,1.8-0.8c0.5-0.5,0.7-1.3,0.7-2.3s-0.2-1.8-0.7-2.3s-1.1-0.8-1.8-0.8c-0.8,0-1.4,0.3-1.8,0.8
	c-0.4,0.5-0.7,1.3-0.7,2.3s0.2,1.8,0.7,2.3C785.5,395.5,786.1,395.7,786.9,395.7z M795.3,396.5c-0.7,0-1.3-0.2-1.8-0.5
	s-0.9-0.8-1.2-1.3c-0.3-0.6-0.4-1.3-0.4-2.1c0-0.8,0.1-1.5,0.4-2.1c0.3-0.6,0.7-1,1.2-1.3s1.1-0.5,1.8-0.5s1.3,0.2,1.8,0.5
	s0.9,0.8,1.2,1.3c0.3,0.6,0.4,1.3,0.4,2.1c0,0.8-0.1,1.5-0.4,2.1c-0.3,0.6-0.7,1-1.2,1.3C796.6,396.4,796,396.5,795.3,396.5z
	 M795.3,395.7c0.8,0,1.4-0.3,1.8-0.8s0.7-1.3,0.7-2.3s-0.2-1.8-0.7-2.3s-1.1-0.8-1.8-0.8c-0.8,0-1.4,0.3-1.8,0.8
	c-0.5,0.5-0.7,1.3-0.7,2.3s0.2,1.8,0.7,2.3C793.9,395.5,794.5,395.7,795.3,395.7z M800.7,396.4v-11h0.9v11H800.7z M693.4,416.4
	l-2.7-7.5h1l2.4,7h-0.4l2.5-7h0.9l2.5,7h-0.4l2.4-7h0.9l-2.7,7.5h-0.9l-2.5-7.1h0.5l-2.5,7.1H693.4z M704.3,416.4v-7.5h0.9v7.5
	H704.3z M704.2,407v-1.1h1.2v1.1H704.2z M707.7,416.4v-5.8c0-0.3,0-0.6,0-0.9s0-0.6-0.1-0.9h0.9l0.1,1.7h-0.2c0.1-0.4,0.3-0.8,0.5-1
	c0.3-0.3,0.6-0.5,0.9-0.6c0.3-0.1,0.7-0.2,1-0.2c0.1,0,0.2,0,0.4,0c0.1,0,0.2,0,0.3,0.1v0.8c-0.1,0-0.2-0.1-0.4-0.1
	c-0.1,0-0.2,0-0.4,0c-0.5,0-0.8,0.1-1.2,0.3c-0.3,0.2-0.6,0.5-0.8,0.8s-0.3,0.7-0.3,1v4.6h-0.7V416.4z M715.7,416.5
	c-0.7,0-1.3-0.2-1.8-0.5s-0.9-0.8-1.2-1.3c-0.3-0.6-0.4-1.3-0.4-2.1s0.1-1.5,0.4-2.1c0.3-0.6,0.7-1,1.2-1.3s1.1-0.5,1.8-0.5
	s1.3,0.2,1.8,0.5c0.5,0.4,0.8,0.8,1,1.5h-0.2v-5.4h0.9v11h-0.9v-1.9h0.2c-0.2,0.6-0.5,1.1-1,1.5C717,416.3,716.4,416.5,715.7,416.5z
	 M715.8,415.7c0.8,0,1.4-0.3,1.8-0.8c0.5-0.5,0.7-1.3,0.7-2.3s-0.2-1.8-0.7-2.3s-1.1-0.8-1.8-0.8s-1.4,0.3-1.8,0.8
	c-0.5,0.5-0.7,1.3-0.7,2.3s0.2,1.8,0.7,2.3C714.5,415.5,715.1,415.7,715.8,415.7z M728.8,419.7c-0.6,0-1.2-0.1-1.8-0.3
	c-0.5-0.2-1-0.4-1.5-0.8l0.3-0.7c0.3,0.2,0.6,0.4,0.9,0.5c0.3,0.1,0.6,0.2,0.9,0.3c0.3,0.1,0.7,0.1,1,0.1c0.8,0,1.3-0.2,1.7-0.6
	s0.6-1,0.6-1.7v-2.4h0.2c-0.2,0.6-0.5,1.1-1,1.5s-1.1,0.5-1.8,0.5s-1.3-0.1-1.8-0.5c-0.5-0.3-0.9-0.7-1.2-1.3
	c-0.3-0.6-0.4-1.2-0.4-2s0.1-1.4,0.4-2c0.3-0.6,0.7-1,1.2-1.3s1.1-0.5,1.8-0.5s1.3,0.2,1.8,0.5c0.5,0.4,0.8,0.8,1,1.5l-0.2-0.2
	l0.1-1.7h0.9c0,0.3-0.1,0.6-0.1,0.9s0,0.6,0,0.8v5.9c0,1.1-0.3,1.9-0.8,2.4C730.6,419.5,729.8,419.7,728.8,419.7z M728.6,415.4
	c0.8,0,1.4-0.3,1.8-0.8c0.5-0.5,0.7-1.2,0.7-2.2c0-0.9-0.2-1.7-0.7-2.2s-1.1-0.8-1.8-0.8c-0.8,0-1.4,0.3-1.9,0.8s-0.7,1.2-0.7,2.2
	c0,0.9,0.2,1.7,0.7,2.2C727.2,415.2,727.8,415.4,728.6,415.4z M737.7,416.5c-1.1,0-2-0.3-2.7-1s-1-1.6-1-2.8c0-0.8,0.1-1.5,0.4-2.1
	c0.3-0.6,0.7-1,1.2-1.4c0.5-0.3,1.1-0.5,1.8-0.5s1.2,0.1,1.7,0.4s0.8,0.7,1.1,1.2c0.2,0.5,0.4,1.1,0.4,1.9v0.4h-6V412h5.4l-0.3,0.2
	c0-0.9-0.2-1.5-0.6-2c-0.4-0.5-1-0.7-1.7-0.7c-0.8,0-1.5,0.3-1.9,0.9c-0.5,0.6-0.7,1.3-0.7,2.2v0.1c0,1,0.2,1.8,0.7,2.3
	s1.2,0.8,2.1,0.8c0.5,0,0.9-0.1,1.3-0.2c0.4-0.1,0.8-0.4,1.2-0.7l0.4,0.7c-0.3,0.3-0.7,0.6-1.2,0.8
	C738.8,416.4,738.3,416.5,737.7,416.5z M745.9,419.7c-0.6,0-1.2-0.1-1.8-0.3c-0.5-0.2-1-0.4-1.5-0.8l0.3-0.7
	c0.3,0.2,0.6,0.4,0.9,0.5c0.3,0.1,0.6,0.2,0.9,0.3c0.3,0.1,0.7,0.1,1,0.1c0.8,0,1.3-0.2,1.7-0.6s0.6-1,0.6-1.7v-2.4h0.2
	c-0.2,0.6-0.5,1.1-1,1.5s-1.1,0.5-1.8,0.5s-1.3-0.1-1.8-0.5c-0.5-0.3-0.9-0.7-1.2-1.3c-0.3-0.6-0.4-1.2-0.4-2s0.1-1.4,0.4-2
	c0.3-0.6,0.7-1,1.2-1.3s1.1-0.5,1.8-0.5s1.3,0.2,1.8,0.5c0.5,0.4,0.8,0.8,1,1.5l-0.2-0.2l0.1-1.7h0.9c0,0.3-0.1,0.6-0.1,0.9
	s0,0.6,0,0.8v5.9c0,1.1-0.3,1.9-0.8,2.4C747.7,419.5,746.9,419.7,745.9,419.7z M745.6,415.4c0.8,0,1.4-0.3,1.8-0.8
	c0.5-0.5,0.7-1.2,0.7-2.2c0-0.9-0.2-1.7-0.7-2.2c-0.4-0.5-1.1-0.8-1.8-0.8s-1.4,0.3-1.9,0.8s-0.7,1.2-0.7,2.2c0,0.9,0.2,1.7,0.7,2.2
	C744.2,415.2,744.8,415.4,745.6,415.4z M751.5,416.4v-5.8c0-0.3,0-0.6,0-0.9s0-0.6-0.1-0.9h0.9l0.1,1.7h-0.2c0.1-0.4,0.3-0.8,0.5-1
	c0.3-0.3,0.6-0.5,0.9-0.6c0.3-0.1,0.7-0.2,1-0.2c0.1,0,0.2,0,0.4,0c0.1,0,0.2,0,0.3,0.1v0.8c-0.1,0-0.2-0.1-0.4-0.1
	c-0.1,0-0.2,0-0.4,0c-0.4,0-0.8,0.1-1.2,0.3c-0.3,0.2-0.6,0.5-0.8,0.8s-0.3,0.7-0.3,1v4.6h-0.7V416.4z M759.4,416.5
	c-0.9,0-1.5-0.2-2-0.7s-0.7-1.2-0.7-2.2v-4.7h0.9v4.7c0,0.8,0.2,1.3,0.5,1.7c0.3,0.3,0.8,0.5,1.4,0.5c0.7,0,1.3-0.2,1.7-0.7
	s0.7-1.1,0.7-1.9v-4.3h0.9v7.5h-0.9v-1.8h0.2c-0.2,0.6-0.6,1.1-1,1.4C760.6,416.3,760.1,416.5,759.4,416.5z M760.5,407.1V406h1.1
	v1.1H760.5z M758,407.1V406h1.1v1.1H758z M765.3,416.4v-5.8c0-0.3,0-0.5,0-0.8s0-0.6-0.1-0.9h0.9l0.1,1.7H766
	c0.2-0.6,0.6-1.1,1.1-1.4s1.1-0.5,1.7-0.5c0.9,0,1.6,0.2,2,0.7c0.5,0.5,0.7,1.2,0.7,2.2v4.7h-0.9v-4.7c0-0.8-0.2-1.3-0.5-1.7
	c-0.3-0.3-0.8-0.5-1.4-0.5c-0.8,0-1.4,0.2-1.8,0.7c-0.4,0.5-0.7,1.1-0.7,1.9v4.3L765.3,416.4L765.3,416.4z M776.8,416.5
	c-0.7,0-1.3-0.2-1.8-0.5s-0.9-0.8-1.2-1.3c-0.3-0.6-0.4-1.3-0.4-2.1s0.1-1.5,0.4-2.1c0.3-0.6,0.7-1,1.2-1.3s1.1-0.5,1.8-0.5
	s1.3,0.2,1.8,0.5c0.5,0.4,0.8,0.8,1,1.5h-0.2v-5.4h0.9v11h-0.8v-1.9h0.2c-0.2,0.6-0.5,1.1-1,1.5
	C778.1,416.3,777.5,416.5,776.8,416.5z M776.9,415.7c0.8,0,1.4-0.3,1.8-0.8c0.5-0.5,0.7-1.3,0.7-2.3s-0.2-1.8-0.7-2.3
	s-1.1-0.8-1.8-0.8s-1.4,0.3-1.8,0.8c-0.5,0.5-0.7,1.3-0.7,2.3s0.2,1.8,0.7,2.3C775.6,415.5,776.2,415.7,776.9,415.7z M786.1,416.5
	c-1.1,0-2-0.3-2.7-1s-1-1.6-1-2.8c0-0.8,0.1-1.5,0.4-2.1c0.3-0.6,0.7-1,1.2-1.4c0.5-0.3,1.1-0.5,1.8-0.5s1.2,0.1,1.7,0.4
	s0.8,0.7,1.1,1.2c0.2,0.5,0.4,1.1,0.4,1.9v0.4h-6V412h5.4l-0.3,0.2c0-0.9-0.2-1.5-0.6-2c-0.4-0.5-1-0.7-1.7-0.7
	c-0.8,0-1.5,0.3-1.9,0.9c-0.5,0.6-0.7,1.3-0.7,2.2v0.1c0,1,0.2,1.8,0.7,2.3s1.2,0.8,2.1,0.8c0.5,0,0.9-0.1,1.3-0.2
	c0.4-0.1,0.8-0.4,1.2-0.7l0.4,0.7c-0.3,0.3-0.7,0.6-1.2,0.8C787.2,416.4,786.6,416.5,786.1,416.5z M793.4,416.5
	c-0.7,0-1.2-0.2-1.5-0.6c-0.4-0.4-0.5-1-0.5-1.8v-4.5h-1.5v-0.7h1.5v-2.1l0.9-0.3v2.4h2.2v0.7h-2.2v4.3c0,0.6,0.1,1.1,0.3,1.4
	s0.5,0.4,1,0.4c0.2,0,0.4,0,0.5-0.1c0.2,0,0.3-0.1,0.4-0.1v0.8c-0.1,0-0.3,0.1-0.5,0.1C793.8,416.5,793.6,416.5,793.4,416.5z"/>
<ellipse class="st9" cx="1185.8" cy="364.7" rx="9.4" ry="9.5"/>
<line class="st0" x1="843" y1="363.7" x2="1181.6" y2="363.7"/>
<ellipse class="st2" cx="738.9" cy="364.7" rx="9.4" ry="9.5"/>
<ellipse class="st2" cx="842.4" cy="364.1" rx="8.8" ry="8.9"/>
<path class="st3" d="M606.1,197.1l26.7,70.7c17.9,47.5,57.5,83.5,106.5,96.8l0,0l104,0.6"/>
<ellipse class="st2" cx="1247.5" cy="274.8" rx="9.4" ry="9.5"/>
<ellipse class="st2" cx="1301.2" cy="275.3" rx="9.4" ry="9.5"/>
<ellipse class="st2" cx="1359.4" cy="274.8" rx="9.4" ry="9.5"/>
<g>
	<g>
		<path class="st1" d="M1209.7,294v4.7h5.5V294h1.5v11.3h-1.5V300h-5.5v5.3h-1.5V294H1209.7z"/>
	</g>
	<g>
		<path class="st1" d="M1223.7,305.4l-0.1-1h-0.1c-0.5,0.6-1.3,1.2-2.5,1.2c-1.6,0-2.5-1.2-2.5-2.3c0-2,1.7-3,4.9-3V300
			c0-0.7-0.2-1.9-1.8-1.9c-0.8,0-1.5,0.2-2.1,0.6l-0.3-1c0.7-0.4,1.6-0.7,2.7-0.7c2.5,0,3.1,1.7,3.1,3.3v3c0,0.7,0,1.4,0.1,2h-1.4
			V305.4z M1223.5,301.2c-1.6,0-3.4,0.3-3.4,1.8c0,1,0.6,1.4,1.4,1.4c1.1,0,1.7-0.7,2-1.4c0-0.2,0.1-0.3,0.1-0.5L1223.5,301.2
			L1223.5,301.2z"/>
	</g>
	<g>
		<path class="st1" d="M1233.1,305.1c-0.4,0.2-1.2,0.5-2.3,0.5c-2.5,0-4.1-1.7-4.1-4.2s1.7-4.3,4.4-4.3c0.9,0,1.6,0.2,2.1,0.4
			l-0.3,1.1c-0.4-0.2-0.9-0.4-1.7-0.4c-1.9,0-2.9,1.4-2.9,3.1c0,1.9,1.2,3,2.8,3c0.8,0,1.4-0.2,1.8-0.4L1233.1,305.1z"/>
	</g>
	<g>
		<path class="st1" d="M1236.3,301L1236.3,301c0.2-0.3,0.5-0.6,0.8-0.9l2.4-2.8h1.8l-3.1,3.3l3.6,4.8h-1.8l-2.8-3.9l-0.8,0.8v3.1
			h-1.5v-11.9h1.5L1236.3,301L1236.3,301z"/>
	</g>
	<g>
		<path class="st1" d="M1243.4,297.2l1.8,4.8c0.2,0.5,0.4,1.2,0.5,1.7l0,0c0.2-0.5,0.3-1.1,0.5-1.7l1.6-4.8h1.6l-2.2,5.8
			c-1.1,2.8-1.8,4.2-2.8,5.1c-0.7,0.6-1.4,0.9-1.8,1l-0.4-1.2c0.4-0.1,0.9-0.4,1.3-0.7c0.4-0.3,0.9-0.9,1.2-1.6
			c0.1-0.2,0.1-0.3,0.1-0.4s0-0.2-0.1-0.4l-3-7.5L1243.4,297.2L1243.4,297.2z"/>
	</g>
	<g>
		<path class="st1" d="M1252.3,294v4.7h5.5V294h1.5v11.3h-1.5V300h-5.5v5.3h-1.5V294H1252.3z"/>
	</g>
	<g>
		<path class="st1" d="M1269.1,301.2c0,3-2.1,4.3-4.1,4.3c-2.2,0-3.9-1.6-3.9-4.2c0-2.7,1.8-4.3,4-4.3
			C1267.6,297,1269.1,298.7,1269.1,301.2z M1262.7,301.3c0,1.8,1,3.1,2.5,3.1c1.4,0,2.5-1.3,2.5-3.2c0-1.4-0.7-3.1-2.4-3.1
			C1263.4,298.2,1262.7,299.8,1262.7,301.3z"/>
	</g>
	<g>
		<path class="st1" d="M1277.8,303.1c0,0.8,0,1.6,0.1,2.2h-1.3l-0.1-1.3l0,0c-0.4,0.7-1.2,1.5-2.7,1.5c-1.3,0-2.8-0.7-2.8-3.6v-4.8
			h1.5v4.5c0,1.5,0.5,2.6,1.8,2.6c1,0,1.7-0.7,2-1.3c0.1-0.2,0.1-0.5,0.1-0.8v-5h1.5L1277.8,303.1L1277.8,303.1z"/>
	</g>
	<g>
		<path class="st1" d="M1280.3,299.8c0-1,0-1.8-0.1-2.5h1.3l0.1,1.6h0.1c0.4-1.1,1.3-1.8,2.3-1.8c0.2,0,0.3,0,0.4,0v1.4
			c-0.2,0-0.3-0.1-0.5-0.1c-1,0-1.8,0.8-2,1.9c0,0.2-0.1,0.4-0.1,0.7v4.3h-1.5L1280.3,299.8L1280.3,299.8z"/>
	</g>
	<g>
		<path class="st1" d="M1225.7,324c0.4,0.3,1.2,0.6,2,0.6c1.1,0,1.6-0.5,1.6-1.2s-0.4-1.1-1.5-1.5c-1.5-0.5-2.2-1.3-2.2-2.3
			c0-1.3,1.1-2.4,2.8-2.4c0.8,0,1.5,0.2,2,0.5l-0.4,1.1c-0.3-0.2-0.9-0.5-1.7-0.5c-0.9,0-1.4,0.5-1.4,1.1c0,0.7,0.5,1,1.5,1.4
			c1.4,0.5,2.1,1.2,2.1,2.5c0,1.4-1.1,2.4-3,2.4c-0.9,0-1.7-0.2-2.3-0.6L1225.7,324z"/>
	</g>
	<g>
		<path class="st1" d="M1234.4,315.1v2.3h2.1v1.1h-2.1v4.4c0,1,0.3,1.6,1.1,1.6c0.4,0,0.7,0,0.9-0.1l0.1,1.1
			c-0.3,0.1-0.7,0.2-1.3,0.2c-0.7,0-1.2-0.2-1.6-0.6s-0.6-1.2-0.6-2.1v-4.4h-1.3v-1.1h1.3v-2L1234.4,315.1z"/>
	</g>
	<g>
		<path class="st1" d="M1242.7,325.5l-0.1-1h-0.1c-0.5,0.6-1.3,1.2-2.5,1.2c-1.6,0-2.5-1.2-2.5-2.3c0-2,1.7-3,4.9-3v-0.2
			c0-0.7-0.2-1.9-1.8-1.9c-0.8,0-1.5,0.2-2.1,0.6l-0.3-1c0.7-0.4,1.6-0.7,2.7-0.7c2.5,0,3.1,1.7,3.1,3.3v3c0,0.7,0,1.4,0.1,2H1242.7
			z M1242.4,321.4c-1.6,0-3.4,0.3-3.4,1.8c0,1,0.6,1.4,1.4,1.4c1.1,0,1.7-0.7,2-1.4c0-0.2,0.1-0.3,0.1-0.5L1242.4,321.4
			L1242.4,321.4z"/>
	</g>
	<g>
		<path class="st1" d="M1246.3,319.9c0-1,0-1.8-0.1-2.5h1.3l0.1,1.6h0.1c0.4-1.1,1.3-1.8,2.3-1.8c0.2,0,0.3,0,0.4,0v1.4
			c-0.2,0-0.3-0.1-0.5-0.1c-1,0-1.8,0.8-2,1.9c0,0.2-0.1,0.4-0.1,0.7v4.3h-1.5L1246.3,319.9L1246.3,319.9z"/>
	</g>
	<g>
		<path class="st1" d="M1253.9,315.1v2.3h2.1v1.1h-2.1v4.4c0,1,0.3,1.6,1.1,1.6c0.4,0,0.7,0,0.9-0.1l0.1,1.1
			c-0.3,0.1-0.7,0.2-1.3,0.2c-0.7,0-1.2-0.2-1.6-0.6s-0.6-1.2-0.6-2.1v-4.4h-1.3v-1.1h1.3v-2L1253.9,315.1z"/>
	</g>
	<g>
		<path class="st1" d="M1258.4,321.7c0,2,1.3,2.8,2.8,2.8c1.1,0,1.7-0.2,2.3-0.4l0.3,1.1c-0.5,0.2-1.4,0.5-2.7,0.5
			c-2.5,0-4-1.6-4-4.1s1.4-4.4,3.8-4.4c2.7,0,3.4,2.3,3.4,3.8c0,0.3,0,0.5-0.1,0.7H1258.4z M1262.8,320.7c0-0.9-0.4-2.4-2.1-2.4
			c-1.5,0-2.2,1.4-2.3,2.4H1262.8z"/>
	</g>
	<g>
		<path class="st1" d="M1267.8,315.1v2.3h2.1v1.1h-2.1v4.4c0,1,0.3,1.6,1.1,1.6c0.4,0,0.7,0,0.9-0.1l0.1,1.1
			c-0.3,0.1-0.7,0.2-1.3,0.2c-0.7,0-1.2-0.2-1.6-0.6s-0.6-1.2-0.6-2.1v-4.4h-1.3v-1.1h1.3v-2L1267.8,315.1z"/>
	</g>
</g>
<ellipse class="st9" cx="1410.9" cy="275.3" rx="9.4" ry="9.5"/>
<linearGradient id="SVGID_00000063604810528717398630000006869835970534668192_" gradientUnits="userSpaceOnUse" x1="597.3" y1="257.7" x2="614.9" y2="257.7" gradientTransform="matrix(1 0 0 -1 0 450)">
	<stop  offset="0" style="stop-color:#DB2878"/>
	<stop  offset="1" style="stop-color:#7B54A2"/>
</linearGradient>
<ellipse style="fill:url(#SVGID_00000063604810528717398630000006869835970534668192_);" cx="606.1" cy="192.3" rx="8.8" ry="8.9"/>
</svg>
