<svg id="Ebene_1" data-name="Ebene 1" xmlns="http://www.w3.org/2000/svg" viewBox="0 0 301.6 452.4"><defs><style>.cls-1{fill:#473437;}.cls-2{fill:#82bd53;}.cls-12,.cls-3{fill:#44a84e;}.cls-13,.cls-24,.cls-3,.cls-9{isolation:isolate;}.cls-3{opacity:0.57;}.cls-4{fill:#056938;}.cls-5{fill:#f9b03d;}.cls-6{fill:#009245;}.cls-7{fill:#754d24;}.cls-8{fill:#48ae4d;}.cls-11,.cls-13,.cls-9{fill:#010202;}.cls-9{opacity:0.39;}.cls-10,.cls-13{opacity:0.41;}.cls-14{fill:#c3c4c6;}.cls-15{fill:#97989a;}.cls-16{fill:#bc6817;}.cls-17{fill:#de9f5c;}.cls-18{fill:#d3842f;}.cls-19{fill:#bc6818;}.cls-20{fill:#a34617;}.cls-21{fill:#bb6417;}.cls-22{fill:#adadb1;}.cls-23{fill:#77797d;}.cls-24,.cls-25{fill:#515152;}.cls-24{opacity:0.49;}.cls-26{fill:#474649;}.cls-27{fill:#d5d5d6;}.cls-28{fill:#8f9194;}.cls-29{fill:#4e4d4f;}.cls-30{fill:#747476;}.cls-31{fill:none;stroke:#474649;stroke-miterlimit:10;stroke-width:2px;}.cls-32{font-size:25.92px;fill:#f3f7e8;font-family:Roboto-Bold, Roboto;font-weight:700;}</style></defs><polygon class="cls-1" points="292.6 343.7 150.5 423.1 8.6 343.7 8.6 291 150.3 372.8 292.3 291 292.6 343.7"/><polygon class="cls-2" points="301.2 271.8 150.8 357.1 0.2 271.8 156.6 188.6 301.2 271.8"/><path class="cls-3" d="M106.5,401.1" transform="translate(-36.7 -75.2)"/><path class="cls-4" d="M313.3,411l-13-7.6V384.2s9.3-18.5,13-7Z" transform="translate(-36.7 -75.2)"/><polygon class="cls-4" points="240.1 343.3 231.6 338.6 231.6 324 240.6 324 240.1 343.3"/><polygon class="cls-4" points="24.6 331.3 36.6 325 37.2 295.3 21.8 291.4 24.6 331.3"/><polygon class="cls-4" points="111.6 382 119.9 377 121.5 353.6 109.7 355.2 111.6 382"/><path class="cls-5" d="M169.3,378.6s5.8,6.3.5,7.5-13.2-3.4-15.3.9-7.1,21.9-11.9,19.6-39.7-22.1-39.7-22.1-9.8-4.5,0-5.7,24.7-24.2,24.7-24.2Z" transform="translate(-36.7 -75.2)"/><ellipse class="cls-6" cx="162.3" cy="330.1" rx="6.7" ry="3.8"/><ellipse class="cls-6" cx="63.3" cy="262.1" rx="6.7" ry="3.8"/><ellipse class="cls-6" cx="145.4" cy="333.9" rx="4.6" ry="2.6"/><g id="tree_1"><ellipse class="cls-6" cx="275.2" cy="272.8" rx="9.8" ry="5.5"/><path class="cls-7" d="M310.7,349.5h1.6a2.43,2.43,0,0,0,2.4-2.4V336.6a2.43,2.43,0,0,0-2.4-2.4h-1.6a2.43,2.43,0,0,0-2.4,2.4v10.5A2.43,2.43,0,0,0,310.7,349.5Z" transform="translate(-36.7 -75.2)"/><path class="cls-6" d="M325.2,317.2l3.3,7.5s-.9.9-2.4,2.1l-3.4-7.7C323.7,318.3,324.6,317.7,325.2,317.2Z" transform="translate(-36.7 -75.2)"/><path class="cls-6" d="M296.5,326.4c-.6-.5-1.3-1.1-1.9-1.7l3.2-7.6c.7.6,1.3,1.1,2,1.6Z" transform="translate(-36.7 -75.2)"/><path class="cls-4" d="M296.5,326.4c12.8,10.6,24.6,4.1,29.5.3l2.4,5.6s-16.6,17.1-34.4,0Z" transform="translate(-36.7 -75.2)"/><path class="cls-6" d="M296.5,326.4l3.2-7.7c9.5,6.8,18.2,3.4,23,.3l3.4,7.7C321.1,330.5,309.3,337,296.5,326.4Z" transform="translate(-36.7 -75.2)"/><path class="cls-8" d="M311.2,280.8,326.5,316a6.12,6.12,0,0,1-1.3,1.1,20.58,20.58,0,0,1-2.5,1.8c-4.8,3.1-13.5,6.5-23-.3-.7-.5-1.3-1-2-1.6a12,12,0,0,1-1.2-1.1Z" transform="translate(-36.7 -75.2)"/><path class="cls-8" d="M325.2,317.2l-6.7-15.5.9-2,7.1,16.3S326,316.5,325.2,317.2Z" transform="translate(-36.7 -75.2)"/><path class="cls-6" d="M325.2,317.2l3.3,7.5s-.9.9-2.4,2.1l-3.4-7.7C323.7,318.3,324.6,317.7,325.2,317.2Z" transform="translate(-36.7 -75.2)"/><path class="cls-9" d="M325.2,317.2l3.3,7.5s-.9.9-2.4,2.1l-3.4-7.7C323.7,318.3,324.6,317.7,325.2,317.2Z" transform="translate(-36.7 -75.2)"/><path class="cls-8" d="M316.8,305.4l1.7-3.8,6.7,15.5a20.58,20.58,0,0,1-2.5,1.8Z" transform="translate(-36.7 -75.2)"/><path class="cls-4" d="M326.1,326.7l2.4,5.6s-11.8,12.2-26.2,5.7l3-6.8C314.5,334.1,322.3,329.6,326.1,326.7Z" transform="translate(-36.7 -75.2)"/><path class="cls-9" d="M326.1,326.7l2.4,5.6s-11.8,12.2-26.2,5.7l3-6.8C314.5,334.1,322.3,329.6,326.1,326.7Z" transform="translate(-36.7 -75.2)"/><path class="cls-6" d="M305.3,331.3l3.9-8.8a21,21,0,0,0,13.5-3.5l3.4,7.7C322.3,329.6,314.5,334.1,305.3,331.3Z" transform="translate(-36.7 -75.2)"/><path class="cls-9" d="M305.3,331.3l3.9-8.8a21,21,0,0,0,13.5-3.5l3.4,7.7C322.3,329.6,314.5,334.1,305.3,331.3Z" transform="translate(-36.7 -75.2)"/><path class="cls-8" d="M309.2,322.5l7.6-17.1,5.9,13.6A20.45,20.45,0,0,1,309.2,322.5Z" transform="translate(-36.7 -75.2)"/><path class="cls-9" d="M316.8,305.4l1.7-3.8.9-2,7.1,16.3a6.12,6.12,0,0,1-1.3,1.1,23.28,23.28,0,0,1-16,5.3Z" transform="translate(-36.7 -75.2)"/></g><g class="cls-10"><path class="cls-11" d="M280,420.8l-46.4,27.1s-13.5,1.2-2.2-9.1L272.3,416Z" transform="translate(-36.7 -75.2)"/><path class="cls-11" d="M116.6,450l-15-7.1s-7.7-7.3,0-8.1l15,7.6C116.6,442.5,124.6,451.7,116.6,450Z" transform="translate(-36.7 -75.2)"/><path class="cls-11" d="M127.7,437.3,76.9,411.7s-11.8-15.2,1.3-10.2l53.5,28.4Z" transform="translate(-36.7 -75.2)"/><path class="cls-11" d="M45.3,409.9l42.2,25s8.3-2.1,0-9.3L45.3,401.5Z" transform="translate(-36.7 -75.2)"/><path class="cls-11" d="M174.1,461.7l-12.9-8.5s-5.5-4.6,0-6.4l12.9,7.4C174.1,454.3,181.4,461.2,174.1,461.7Z" transform="translate(-36.7 -75.2)"/><path class="cls-11" d="M255.8,450l18.2-9.3s5.2-6.2-.2-5.9l-18,8.1C255.8,443,249.3,450.2,255.8,450Z" transform="translate(-36.7 -75.2)"/><ellipse class="cls-11" cx="213.93" cy="450.78" rx="5.6" ry="3.2" transform="translate(-185.74 33.2) rotate(-21.28)"/></g><polygon class="cls-4" points="60.4 339.6 68.6 334 68.6 322 57.6 317 60.4 339.6"/><path class="cls-12" d="M97.3,399.1l20.6,11.1s6.9,4.5,5.9,10.4,0,21.6,0,21.6,7.5,23.6,24.5,15v-21s-6-16.8,39.7,12.8l-7.8-16.7-82.9-43Z" transform="translate(-36.7 -75.2)"/><path class="cls-12" d="M36.9,361.2s.5,27,2.4,31.1c1.4,3,6,27.5,22,14.3V375.2s5-7.5,12,7.5v17.5s8,24.1,24,14.5V389.2l-58.4-34Z" transform="translate(-36.7 -75.2)"/><polygon class="cls-12" points="0.2 271.8 150.8 357.1 301.2 271.8 301.6 286.9 151.3 373.8 0 287.8 0.2 271.8"/><path class="cls-12" d="M338.3,362.2v37s-12,24.5-25,11.7V377.2s-3-11.7-13,6.8v22.2s-13,24.2-23,12.3V406.2s-2.4-6.5-9.4-3.4-6.2-4.7-6.2-4.7L324,359.7Z" transform="translate(-36.7 -75.2)"/><polygon class="cls-13" points="46.1 365.2 150.5 423.1 254.1 365.2 280.1 379.2 151.3 452.4 18 379.2 46.1 365.2"/><g id="tree_2"><ellipse class="cls-6" cx="240.2" cy="248.8" rx="9.8" ry="5.5"/><path class="cls-7" d="M275.7,325.5h1.6a2.43,2.43,0,0,0,2.4-2.4V312.6a2.43,2.43,0,0,0-2.4-2.4h-1.6a2.43,2.43,0,0,0-2.4,2.4v10.5A2.43,2.43,0,0,0,275.7,325.5Z" transform="translate(-36.7 -75.2)"/><path class="cls-6" d="M290.2,293.2l3.3,7.5s-.9.9-2.4,2.1l-3.4-7.7C288.7,294.3,289.6,293.7,290.2,293.2Z" transform="translate(-36.7 -75.2)"/><path class="cls-6" d="M261.5,302.4c-.6-.5-1.3-1.1-1.9-1.7l3.2-7.6c.7.6,1.3,1.1,2,1.6Z" transform="translate(-36.7 -75.2)"/><path class="cls-4" d="M261.5,302.4c12.8,10.6,24.6,4.1,29.5.3l2.4,5.6s-16.6,17.1-34.4,0Z" transform="translate(-36.7 -75.2)"/><path class="cls-6" d="M261.5,302.4l3.2-7.7c9.5,6.8,18.2,3.4,23,.3l3.4,7.7C286.1,306.5,274.3,313,261.5,302.4Z" transform="translate(-36.7 -75.2)"/><path class="cls-8" d="M276.2,256.8,291.5,292a6.12,6.12,0,0,1-1.3,1.1,20.58,20.58,0,0,1-2.5,1.8c-4.8,3.1-13.5,6.5-23-.3-.7-.5-1.3-1-2-1.6a12,12,0,0,1-1.2-1.1Z" transform="translate(-36.7 -75.2)"/><path class="cls-8" d="M290.2,293.2l-6.7-15.5.9-2,7.1,16.3S291,292.5,290.2,293.2Z" transform="translate(-36.7 -75.2)"/><path class="cls-6" d="M290.2,293.2l3.3,7.5s-.9.9-2.4,2.1l-3.4-7.7C288.7,294.3,289.6,293.7,290.2,293.2Z" transform="translate(-36.7 -75.2)"/><path class="cls-9" d="M290.2,293.2l3.3,7.5s-.9.9-2.4,2.1l-3.4-7.7C288.7,294.3,289.6,293.7,290.2,293.2Z" transform="translate(-36.7 -75.2)"/><path class="cls-8" d="M281.8,281.4l1.7-3.8,6.7,15.5a20.58,20.58,0,0,1-2.5,1.8Z" transform="translate(-36.7 -75.2)"/><path class="cls-4" d="M291.1,302.7l2.4,5.6s-11.8,12.2-26.2,5.7l3-6.8C279.5,310.1,287.3,305.6,291.1,302.7Z" transform="translate(-36.7 -75.2)"/><path class="cls-9" d="M291.1,302.7l2.4,5.6s-11.8,12.2-26.2,5.7l3-6.8C279.5,310.1,287.3,305.6,291.1,302.7Z" transform="translate(-36.7 -75.2)"/><path class="cls-6" d="M270.3,307.3l3.9-8.8a21,21,0,0,0,13.5-3.5l3.4,7.7C287.3,305.6,279.5,310.1,270.3,307.3Z" transform="translate(-36.7 -75.2)"/><path class="cls-9" d="M270.3,307.3l3.9-8.8a21,21,0,0,0,13.5-3.5l3.4,7.7C287.3,305.6,279.5,310.1,270.3,307.3Z" transform="translate(-36.7 -75.2)"/><path class="cls-8" d="M274.2,298.5l7.6-17.1,5.9,13.6A20.45,20.45,0,0,1,274.2,298.5Z" transform="translate(-36.7 -75.2)"/><path class="cls-9" d="M281.8,281.4l1.7-3.8.9-2,7.1,16.3a6.12,6.12,0,0,1-1.3,1.1,23.28,23.28,0,0,1-16,5.3Z" transform="translate(-36.7 -75.2)"/></g><g id="tree_3"><ellipse class="cls-6" cx="30.2" cy="269.8" rx="9.8" ry="5.5"/><path class="cls-7" d="M65.7,346.5h1.6a2.43,2.43,0,0,0,2.4-2.4V333.6a2.43,2.43,0,0,0-2.4-2.4H65.7a2.43,2.43,0,0,0-2.4,2.4v10.5A2.43,2.43,0,0,0,65.7,346.5Z" transform="translate(-36.7 -75.2)"/><path class="cls-6" d="M80.2,314.2l3.3,7.5s-.9.9-2.4,2.1l-3.4-7.7C78.7,315.3,79.6,314.7,80.2,314.2Z" transform="translate(-36.7 -75.2)"/><path class="cls-6" d="M51.5,323.4c-.6-.5-1.3-1.1-1.9-1.7l3.2-7.6c.7.6,1.3,1.1,2,1.6Z" transform="translate(-36.7 -75.2)"/><path class="cls-4" d="M51.5,323.4c12.8,10.6,24.6,4.1,29.5.3l2.4,5.6s-16.6,17.1-34.4,0Z" transform="translate(-36.7 -75.2)"/><path class="cls-6" d="M51.5,323.4l3.2-7.7c9.5,6.8,18.2,3.4,23,.3l3.4,7.7C76.1,327.5,64.3,334,51.5,323.4Z" transform="translate(-36.7 -75.2)"/><path class="cls-8" d="M66.2,277.8,81.5,313a6.12,6.12,0,0,1-1.3,1.1,20.58,20.58,0,0,1-2.5,1.8c-4.8,3.1-13.5,6.5-23-.3-.7-.5-1.3-1-2-1.6a12,12,0,0,1-1.2-1.1Z" transform="translate(-36.7 -75.2)"/><path class="cls-8" d="M80.2,314.2l-6.7-15.5.9-2L81.5,313S81,313.5,80.2,314.2Z" transform="translate(-36.7 -75.2)"/><path class="cls-6" d="M80.2,314.2l3.3,7.5s-.9.9-2.4,2.1l-3.4-7.7C78.7,315.3,79.6,314.7,80.2,314.2Z" transform="translate(-36.7 -75.2)"/><path class="cls-9" d="M80.2,314.2l3.3,7.5s-.9.9-2.4,2.1l-3.4-7.7C78.7,315.3,79.6,314.7,80.2,314.2Z" transform="translate(-36.7 -75.2)"/><path class="cls-8" d="M71.8,302.4l1.7-3.8,6.7,15.5a20.58,20.58,0,0,1-2.5,1.8Z" transform="translate(-36.7 -75.2)"/><path class="cls-4" d="M81.1,323.7l2.4,5.6S71.7,341.5,57.3,335l3-6.8C69.5,331.1,77.3,326.6,81.1,323.7Z" transform="translate(-36.7 -75.2)"/><path class="cls-9" d="M81.1,323.7l2.4,5.6S71.7,341.5,57.3,335l3-6.8C69.5,331.1,77.3,326.6,81.1,323.7Z" transform="translate(-36.7 -75.2)"/><path class="cls-6" d="M60.3,328.3l3.9-8.8A21,21,0,0,0,77.7,316l3.4,7.7C77.3,326.6,69.5,331.1,60.3,328.3Z" transform="translate(-36.7 -75.2)"/><path class="cls-9" d="M60.3,328.3l3.9-8.8A21,21,0,0,0,77.7,316l3.4,7.7C77.3,326.6,69.5,331.1,60.3,328.3Z" transform="translate(-36.7 -75.2)"/><path class="cls-8" d="M64.2,319.5l7.6-17.1L77.7,316A20.45,20.45,0,0,1,64.2,319.5Z" transform="translate(-36.7 -75.2)"/><path class="cls-9" d="M71.8,302.4l1.7-3.8.9-2,7.1,16.3a6.12,6.12,0,0,1-1.3,1.1,20.58,20.58,0,0,1-2.5,1.8,20.45,20.45,0,0,1-13.5,3.5Z" transform="translate(-36.7 -75.2)"/></g><path class="cls-14" d="M187.7,229.4l-.1,160-18.4-10.7.6-63a42,42,0,0,0-14.1-32.5c-.9-.7-.7-.9-1.8-1.2-18.7-5.6-19.2,16-19.2,16l.4,61-16.3-9.5-.2-160Z" transform="translate(-36.7 -75.2)"/><path class="cls-15" d="M127.7,354.4l7.5,4.4-.1-61.5s-1.5-20.1,18.6-16c0,0-20.5-11-25,3.5Z" transform="translate(-36.7 -75.2)"/><path class="cls-16" d="M173.2,379.5l-44.3-24.2.6-67.3s2.2-9.1,10.8-10.7l1.6-.2c1.4.2,2.9.5,4.6.9a39.74,39.74,0,0,1,5.2,1.7c7,5.5,9.4,7.7,10,8.5,0,.1,1.3,1.7,1.3,1.7h0s9.5,15.1,9.9,25.3Z" transform="translate(-36.7 -75.2)"/><path class="cls-17" d="M160.2,289.5a51.9,51.9,0,0,1,6.6,12.9,55.74,55.74,0,0,1,2.9,16.5c.6,14,.2,52.8.2,60.7L159,373.2Z" transform="translate(-36.7 -75.2)"/><path class="cls-17" d="M150.2,280.6s7.8,6.2,9,8.3l-.6,84-9.5-5.5Z" transform="translate(-36.7 -75.2)"/><path class="cls-17" d="M140.4,277.8s7,1,8.9,2.6l-.8,86.6-9.8-5.7Z" transform="translate(-36.7 -75.2)"/><path class="cls-17" d="M129.5,288.2s1.9-9.6,9.9-10.6L138,360.4l-9.1-5.3Z" transform="translate(-36.7 -75.2)"/><path class="cls-18" d="M169.8,322.9c-.1-1.5-.3-6.5-.4-7.4l-39.7-22.4.1,6.8C144.8,308.8,167.2,322.1,169.8,322.9Z" transform="translate(-36.7 -75.2)"/><path class="cls-19" d="M130,293.5l39.2,22.1c0,1.1.2,5.1.3,6.9-3.6-1.5-25.1-14.1-39.5-22.8v-6.2m-.5-.9Zm0,0v7.3s38.6,23.2,40.5,23.2h.1c-.1-1.2-.4-7.8-.4-7.8l-40.2-22.7Z" transform="translate(-36.7 -75.2)"/><path class="cls-18" d="M170.2,359.5c-.1-1.5-.3-6.5-.4-7.4l-40.7-22.5.1,6.8C144.6,345.5,167.6,358.7,170.2,359.5Z" transform="translate(-36.7 -75.2)"/><path class="cls-19" d="M129.4,330.1l40.2,22.1c0,1.1.2,5.2.3,6.9-3.7-1.5-25.7-14.1-40.5-22.8v-6.2m-.5-.9Zm0,0,.1,7.3s39.5,23.2,41.4,23.2h.1c-.1-1.2-.4-7.8-.4-7.8l-41.2-22.7Z" transform="translate(-36.7 -75.2)"/><path class="cls-20" d="M134.4,329.5h0a1.32,1.32,0,0,0,1.3-1.3V315.7a1.32,1.32,0,0,0-1.3-1.3h0a1.32,1.32,0,0,0-1.3,1.3v12.5A1.32,1.32,0,0,0,134.4,329.5Z" transform="translate(-36.7 -75.2)"/><rect class="cls-20" x="96.7" y="239.1" width="1" height="0.9"/><rect class="cls-20" x="96.8" y="253.4" width="1" height="0.9"/><path class="cls-21" d="M133.5,329.5h0a1.32,1.32,0,0,0,1.3-1.3V315.7a1.32,1.32,0,0,0-1.3-1.3h0a1.32,1.32,0,0,0-1.3,1.3v12.5A1.32,1.32,0,0,0,133.5,329.5Z" transform="translate(-36.7 -75.2)"/><polygon class="cls-22" points="219.9 273.1 151.1 313.1 151 153.2 220.2 113.1 219.9 273.1"/><polygon class="cls-23" points="179.95 176.85 195.95 167.15 195.85 180.85 185.85 199.35 180.15 196.15 179.95 176.85"/><polygon class="cls-15" points="185.85 199.35 195.95 167.15 204.35 162.85 193.15 195.15 185.85 199.35"/><polygon class="cls-24" points="180.23 261.61 180.43 261.51 183.23 262.91 168.83 270.81 166.53 269.11 180.23 261.61"/><path class="cls-24" d="M216.13,309.21l1,27.5,2.8,1.4v-24.7S219.13,309.21,216.13,309.21Z" transform="translate(-36.7 -75.2)"/><path class="cls-25" d="M217.13,336.71l-13.9,7.5-.4-24s4.2-12.9,14.2-10.8l.1,27.3Z" transform="translate(-36.7 -75.2)"/><polygon class="cls-26" points="180.43 261.51 166.53 254.41 166.53 269.11 180.43 261.51"/><polygon class="cls-24" points="211.38 247.19 211.58 247.09 214.38 248.49 199.98 256.39 197.68 254.69 211.38 247.19"/><path class="cls-24" d="M247.28,294.79l1,27.5,2.8,1.4V299S250.28,294.79,247.28,294.79Z" transform="translate(-36.7 -75.2)"/><path class="cls-25" d="M248.28,322.29l-13.9,7.5-.4-24s4.2-12.9,14.2-10.8l.1,27.3Z" transform="translate(-36.7 -75.2)"/><polygon class="cls-26" points="211.58 247.09 197.68 239.99 197.68 254.69 211.58 247.09"/><path class="cls-14" d="M166.8,296.9a83.14,83.14,0,0,1,21-3.5v95.9l-18.4-10.7.6-63C170.1,308.2,169,301.8,166.8,296.9Z" transform="translate(-36.7 -75.2)"/><polygon class="cls-15" points="150.9 246.5 159.2 241.7 159.2 232.4 151 236.7 150.9 246.5"/><polygon class="cls-27" points="151 246.5 142.7 241.7 142.7 232.4 150.9 236.7 151 246.5"/><polygon class="cls-23" points="159.2 232.4 157.7 231.7 151 235.2 151 236.7 159.2 232.4"/><polygon class="cls-15" points="142.8 232.4 144.3 231.7 151 235.2 151 236.7 142.8 232.4"/><polygon class="cls-15" points="151 261.6 159.3 256.9 159.3 247.6 151.1 251.9 151 261.6"/><polygon class="cls-27" points="151.1 261.6 142.8 256.9 142.8 247.6 151 251.9 151.1 261.6"/><polygon class="cls-23" points="159.3 247.6 157.8 246.9 151.1 250.4 151.1 251.9 159.3 247.6"/><polygon class="cls-15" points="142.8 247.6 144.3 246.9 151 250.4 151 251.9 142.8 247.6"/><path class="cls-23" d="M251.2,273.6" transform="translate(-36.7 -75.2)"/><polygon class="cls-23" points="150.55 193.85 166.95 184.15 166.85 197.85 156.85 216.35 150.55 212.95 150.55 193.85"/><polygon class="cls-15" points="156.85 216.35 166.95 184.15 175.35 179.55 164.15 212.15 156.85 216.35"/><polygon class="cls-23" points="207.55 161.05 223.95 151.65 223.85 163.85 213.85 182.35 207.55 178.95 207.55 161.05"/><polygon class="cls-15" points="213.85 182.35 223.95 151.65 231.85 147.05 221.15 178.15 213.85 182.35"/><polygon class="cls-15" points="150.55 193.85 134.25 184.15 134.45 197.85 144.35 216.35 150.55 212.95 150.55 193.85"/><polygon class="cls-27" points="144.35 216.35 134.25 184.15 125.95 179.65 137.15 212.15 144.35 216.35"/><polygon class="cls-15" points="93.15 160.75 77.25 151.65 77.35 164.85 87.15 183.35 93.15 179.95 93.15 160.75"/><polygon class="cls-27" points="87.35 183.35 77.25 151.65 68.95 146.85 80.15 179.15 87.35 183.35"/><polygon class="cls-15" points="121.15 176.75 105.25 167.65 105.35 180.85 115.15 199.35 121.15 195.95 121.15 176.75"/><polygon class="cls-27" points="115.35 199.35 105.25 167.65 96.95 162.85 108.15 195.15 115.35 199.35"/><polygon class="cls-22" points="168.26 85.8 223.26 116.9 210.16 125.6 190.26 114.7 154.26 93.7 168.26 85.8"/><polygon class="cls-22" points="140.46 58.9 140.16 85.6 154.26 93.7 154.46 65.9 140.46 58.9"/><polygon class="cls-27" points="154.46 51.9 168.46 58.9 154.46 65.9 140.46 58.9 154.46 51.9"/><polygon class="cls-28" points="154.36 65.9 168.46 58.9 168.26 85.8 154.26 93.7 154.36 65.9"/><polygon class="cls-28" points="92.96 127.2 118.26 114.7 154.26 93.7 140.16 85.6 81.96 115.9 92.96 127.2"/><polygon class="cls-26" points="210.16 125.6 154.26 93.7 85.76 130.7 151.86 166.9 210.16 125.6"/><polygon class="cls-29" points="154.26 125.1 154.26 93.7 210.16 125.6 154.26 165.2 154.26 125.1"/><path class="cls-30" d="M118.66,232.5" transform="translate(-36.7 -75.2)"/><path class="cls-15" d="M246.86,200.8" transform="translate(-36.7 -75.2)"/><polygon class="cls-30" points="151.36 158.9 210.16 125.6 224.26 133.7 151.26 175.7 151.36 158.9"/><polygon class="cls-28" points="92.76 126.2 151.66 159.5 151.26 175.7 78.26 133.7 92.76 126.2"/><path class="cls-15" d="M246.86,200.8" transform="translate(-36.7 -75.2)"/><polygon class="cls-28" points="238.06 145.9 150.86 196.1 151.26 175.7 237.86 125.6 238.06 145.9"/><polygon class="cls-22" points="150.86 196.1 64.46 145.5 64.46 125.7 151.26 175.7 150.86 196.1"/><polygon class="cls-28" points="192.66 72.9 192.46 99.8 178.46 107.7 178.56 79.9 192.66 72.9"/><polygon class="cls-22" points="164.66 72.9 164.36 99.6 178.46 107.7 178.66 79.9 164.66 72.9"/><polygon class="cls-27" points="178.66 65.9 192.66 72.9 178.66 79.9 164.66 72.9 178.66 65.9"/><polygon class="cls-28" points="140.96 127 141.16 153.4 126.76 161.4 126.86 134 140.96 127"/><polygon class="cls-28" points="144.36 71.9 144.16 98.8 130.16 106.7 130.26 78.9 144.36 71.9"/><polygon class="cls-22" points="116.36 71.9 116.06 98.6 130.16 106.7 130.36 78.9 116.36 71.9"/><polygon class="cls-27" points="130.36 64.9 144.36 71.9 130.36 78.9 116.36 71.9 130.36 64.9"/><polygon class="cls-28" points="120.56 85.1 120.36 112 106.36 119.9 106.46 92.1 120.56 85.1"/><polygon class="cls-22" points="92.56 85.1 92.26 111.8 106.36 119.9 106.56 92.1 92.56 85.1"/><polygon class="cls-27" points="106.56 78.1 120.56 85.1 106.56 92.1 92.56 85.1 106.56 78.1"/><rect class="cls-28" x="96.16" y="119.1" width="8.6" height="7.8"/><path d="M133.36,194.8H141v6.8h-7.6v-6.8m-1-1v8.8H142v-8.8Z" transform="translate(-36.7 -75.2)"/><polygon class="cls-27" points="78.46 91.9 92.46 98.9 78.46 105.9 64.46 98.9 78.46 91.9"/><polygon class="cls-28" points="92.46 98.9 92.96 126.1 78.26 133.7 78.36 105.9 92.46 98.9"/><polygon class="cls-22" points="64.46 98.9 64.46 126.7 78.26 133.7 78.46 105.9 64.46 98.9"/><polygon class="cls-27" points="102.06 105.4 116.06 112.4 102.06 119.4 88.06 112.4 102.06 105.4"/><polygon class="cls-28" points="116.06 112.4 116.26 138.8 101.86 146.8 101.96 119.4 116.06 112.4"/><polygon class="cls-22" points="88.06 112.4 87.76 139.1 101.86 147.2 102.06 119.4 88.06 112.4"/><polygon class="cls-27" points="126.96 120 140.96 127 126.96 134 112.96 127 126.96 120"/><polygon class="cls-22" points="112.96 127 112.66 153.7 126.76 161.8 126.96 134 112.96 127"/><polygon class="cls-28" points="216.66 86.9 216.46 113.8 202.46 121.7 202.56 93.9 216.66 86.9"/><polygon class="cls-22" points="188.66 86.9 188.36 113.6 202.46 121.7 202.66 93.9 188.66 86.9"/><polygon class="cls-27" points="202.66 79.9 216.66 86.9 202.66 93.9 188.66 86.9 202.66 79.9"/><polygon class="cls-28" points="238.06 98.7 237.86 125.6 224.06 133.6 223.96 105.7 238.06 98.7"/><polygon class="cls-22" points="210.06 98.7 209.76 125.4 224.06 133.6 224.06 105.7 210.06 98.7"/><polygon class="cls-27" points="223.96 91.7 238.06 98.7 223.96 105.7 209.96 98.7 223.96 91.7"/><polygon class="cls-28" points="214.46 112.4 214.66 139 200.26 147.4 200.36 119.4 214.46 112.4"/><polygon class="cls-22" points="186.46 112.4 186.16 139.1 200.26 147.4 200.46 119.4 186.46 112.4"/><polygon class="cls-27" points="200.46 105.4 214.46 112.4 200.46 119.4 186.46 112.4 200.46 105.4"/><polygon class="cls-28" points="190.06 127 190.26 153.4 175.86 161.6 175.96 134 190.06 127"/><polygon class="cls-22" points="162.06 127 161.76 153.7 175.86 161.6 176.06 134 162.06 127"/><polygon class="cls-27" points="176.06 120 190.06 127 176.06 134 162.06 127 176.06 120"/><polygon class="cls-27" points="151.46 133.9 165.46 140.9 151.46 147.9 137.46 140.9 151.46 133.9"/><polygon class="cls-28" points="165.46 140.9 165.66 167.3 151.26 175.7 151.36 147.9 165.46 140.9"/><polygon class="cls-22" points="137.46 140.9 137.16 167.6 151.26 175.7 151.46 147.9 137.46 140.9"/><line class="cls-31" x1="162.68" y1="94" x2="162.98" y2="3"/><ellipse class="cls-26" cx="162.88" cy="94" rx="1.9" ry="0.7"/><ellipse class="cls-17" cx="163.08" cy="2.1" rx="2.4" ry="2.1"/><polygon class="cls-8" points="249.58 0.5 189.98 0.5 189.78 29.5 249.58 29.5 231.78 15 249.58 0.5"/><polygon class="cls-26" points="203.68 5.5 189.78 0.5 189.78 5.5 203.68 5.5"/><g id="flag_0"><rect class="cls-2" x="159.68" y="5.5" width="44" height="29"/><text class="cls-32" transform="translate(172.79 29.57)">H</text></g></svg>