<svg id="Ebene_1" data-name="Ebene 1" xmlns="http://www.w3.org/2000/svg" xmlns:xlink="http://www.w3.org/1999/xlink" viewBox="0 0 324.6 410.61"><defs><style>.cls-1{fill:none;}.cls-2,.cls-26,.cls-27,.cls-3,.cls-8{isolation:isolate;}.cls-2,.cls-3{opacity:0.08;}.cls-3{fill:#3f3a35;}.cls-4{fill:#dca064;}.cls-5{fill:#ce8d4a;}.cls-6{fill:#f3bd77;}.cls-7{fill:#d98c3d;}.cls-8{fill:#cca372;opacity:0.35;}.cls-9{fill:#8f9194;}.cls-10{fill:#adadb1;}.cls-11{fill:#d5d5d6;}.cls-12{fill:#c3c4c6;}.cls-13{fill:#97989a;}.cls-14{fill:#bc6817;}.cls-15{fill:#de9f5c;}.cls-16{fill:#d3842f;}.cls-17{fill:#bc6818;}.cls-18{fill:#a34617;}.cls-19{fill:#bb6417;}.cls-20{fill:#77797d;}.cls-21{fill:#474649;}.cls-22{fill:#47b054;}.cls-23{fill:#82bd53;}.cls-24{clip-path:url(#clip-path);}.cls-25{fill:#f3f7e8;}.cls-26,.cls-27{font-size:14.41px;fill:#f3f7e9;font-family:Arial-BoldMT, Arial;font-weight:700;}.cls-27{letter-spacing:-0.07em;}.cls-28{fill:#f9e638;}.cls-29{fill:#fff;}.cls-30{fill:#747476;}.cls-31{fill:#dbdbdc;}.cls-32{fill:#cccdce;}.cls-33{fill:#b9b9bd;}</style><clipPath id="clip-path" transform="translate(0 0.01)"><rect class="cls-1" x="149" y="5.6" width="13.9" height="22.1"/></clipPath></defs><polygon class="cls-2" points="168.5 400.71 324.6 311.41 306.9 301.41 185.6 232.21 49.1 306.71 37.2 312.61 43.2 330.91 72.1 315.01 176.5 375.11 168.5 379.71 168.5 400.71"/><polygon class="cls-3" points="163.8 367.91 291.5 296.01 289.1 294.31 162 366.41 163.8 367.91"/><polygon class="cls-3" points="140.3 353.11 268 281.21 265.7 279.51 137.8 351.61 140.3 353.11"/><polygon class="cls-3" points="108.2 335.61 235.5 264.11 233.2 262.31 105.8 334.51 108.2 335.61"/><polygon class="cls-3" points="84.8 322.31 212.5 250.51 210.1 248.71 82.2 320.91 84.8 322.31"/><polygon class="cls-4" points="150.2 410.61 131.8 400.61 131.8 330.81 150.2 341.51 150.2 410.61"/><polygon class="cls-5" points="150.2 410.61 168.5 400.61 168.5 330.71 150.2 341.31 150.2 410.61"/><polygon class="cls-4" points="24.8 340.91 6.5 330.81 6.5 261.11 24.8 271.71 24.8 340.91"/><polygon class="cls-5" points="24.8 340.91 43.2 330.81 43.2 260.91 24.8 271.61 24.8 340.91"/><polygon class="cls-4" points="280.8 336.41 262.5 326.31 262.5 256.61 280.8 267.21 280.8 336.41"/><polygon class="cls-5" points="280.8 336.41 299.2 326.31 299.2 256.41 280.8 267.11 280.8 336.41"/><polygon class="cls-6" points="0 239.91 153.1 151.21 189.2 170.71 34.9 260.01 0 239.91"/><polygon class="cls-7" points="34.9 278.91 189.2 190.21 189.2 170.71 34.9 260.01 34.9 278.91"/><polygon class="cls-4" points="34.9 278.91 0 259.41 0 239.91 34.9 260.01 34.9 278.91"/><polygon class="cls-6" points="38.4 261.71 191.6 173.11 227.6 192.61 73.3 281.81 38.4 261.71"/><polygon class="cls-7" points="73.3 300.81 227.6 212.11 227.6 192.61 73.3 281.81 73.3 300.81"/><polygon class="cls-4" points="73.3 300.81 38.4 281.21 38.4 261.71 73.3 281.81 73.3 300.81"/><polygon class="cls-6" points="76.9 282.41 230 193.81 266 213.21 111.7 302.51 76.9 282.41"/><polygon class="cls-7" points="111.7 321.51 266 232.81 266 213.21 111.7 302.51 111.7 321.51"/><polygon class="cls-4" points="111.7 321.51 76.9 301.91 76.9 282.41 111.7 302.51 111.7 321.51"/><polygon class="cls-6" points="114.7 304.91 267.8 216.21 303.9 235.71 149.6 325.01 114.7 304.91"/><polygon class="cls-7" points="149.6 343.91 303.9 255.21 303.9 235.71 149.6 325.01 149.6 343.91"/><polygon class="cls-4" points="149.6 343.91 114.7 324.41 114.7 304.91 149.6 325.01 149.6 343.91"/><polygon class="cls-8" points="201.6 240.51 256.6 207.91 230 193.81 227.6 194.91 227.6 192.61 201.6 178.41 201.6 240.51"/><polygon class="cls-9" points="137 66.21 95.3 89.81 105.2 96.41 120.3 88.11 147.6 72.21 137 66.21"/><polygon class="cls-9" points="194.1 97.61 174.9 88.11 147.6 72.21 158.3 66.01 202.5 89.01 194.1 97.61"/><polygon class="cls-10" points="158.1 45.81 158.3 66.01 147.6 72.21 147.5 51.11 158.1 45.81"/><polygon class="cls-11" points="147.5 40.51 136.9 45.81 147.5 51.11 158.1 45.81 147.5 40.51"/><polygon class="cls-9" points="147.6 51.11 136.9 45.81 137 66.21 147.6 72.21 147.6 51.11"/><polygon class="cls-9" points="118.5 56.41 118.7 76.81 129.3 82.81 129.2 61.71 118.5 56.41"/><polygon class="cls-10" points="139.8 56.41 140 76.71 129.3 82.81 129.1 61.71 139.8 56.41"/><polygon class="cls-11" points="129.1 51.11 118.5 56.41 129.1 61.71 139.8 56.41 129.1 51.11"/><polygon class="cls-9" points="155.1 55.71 155.3 76.11 165.9 82.01 165.8 61.01 155.1 55.71"/><polygon class="cls-10" points="176.4 55.71 176.6 75.91 165.9 82.01 165.8 61.01 176.4 55.71"/><polygon class="cls-11" points="165.8 50.31 155.1 55.71 165.8 61.01 176.4 55.71 165.8 50.31"/><polygon class="cls-9" points="173.2 65.71 173.3 86.11 184 92.11 183.9 71.01 173.2 65.71"/><polygon class="cls-10" points="194.4 65.71 194.6 85.91 184 92.11 183.8 71.01 194.4 65.71"/><polygon class="cls-11" points="183.8 60.31 173.2 65.71 183.8 71.01 194.4 65.71 183.8 60.31"/><polygon class="cls-9" points="100.3 67.01 100.5 87.41 111.1 93.41 111 72.31 100.3 67.01"/><polygon class="cls-11" points="110.9 61.71 100.3 67.01 110.9 72.31 121.6 67.01 110.9 61.71"/><path class="cls-12" d="M149.8,149.3l.1,121.4,14-8.1-.4-47.8a31.92,31.92,0,0,1,10.7-24.6c.7-.5.5-.7,1.4-.9,14.2-4.2,14.6,12.1,14.6,12.1l-.3,46.2,12.4-7.2.1-121.3Z" transform="translate(0 0.01)"/><path class="cls-13" d="M195.3,244.1l-5.7,3.3.1-46.6s1.1-15.2-14.1-12.1c0,0,15.5-8.3,19,2.7Z" transform="translate(0 0.01)"/><path class="cls-14" d="M160.8,263.1l33.6-18.4-.5-51s-1.7-6.9-8.2-8.1l-1.2-.1a27,27,0,0,0-3.5.7,31,31,0,0,0-4,1.3c-5.3,4.2-7.1,5.8-7.6,6.4a14.7,14.7,0,0,1-1,1.3s-7.2,11.4-7.5,19.2Z" transform="translate(0 0.01)"/><path class="cls-15" d="M170.6,194.9a39.41,39.41,0,0,0-5,9.8,41.08,41.08,0,0,0-2.2,12.5c-.4,10.6-.1,40-.1,46l8.3-4.9Z" transform="translate(0 0.01)"/><path class="cls-15" d="M178.2,188.1s-5.9,4.7-6.8,6.3l.5,63.7,7.2-4.2Z" transform="translate(0 0.01)"/><path class="cls-15" d="M185.6,186s-5.3.8-6.8,2l.6,65.7,7.4-4.3Z" transform="translate(0 0.01)"/><path class="cls-15" d="M193.9,193.9s-1.5-7.3-7.5-8l1.1,62.8,6.9-4Z" transform="translate(0 0.01)"/><path class="cls-16" d="M163.3,220.2c.1-1.1.2-4.9.3-5.6l30.1-17-.1,5.2c-11.3,6.7-28.3,16.8-30.3,17.4" transform="translate(0 0.01)"/><path class="cls-17" d="M193.5,197.9v4.8c-10.9,6.6-27.2,16.1-30,17.3.1-1.4.2-4.4.2-5.2l29.8-16.9m.4-.6-30.5,17.2s-.2,5-.3,5.9h.1c1.4,0,30.7-17.6,30.7-17.6Z" transform="translate(0 0.01)"/><path class="cls-16" d="M163,247.9c.1-1.1.2-4.9.3-5.6l30.8-17.1-.1,5.1c-11.6,7-29,17-31,17.6" transform="translate(0 0.01)"/><path class="cls-17" d="M194,225.6v4.7c-11.2,6.6-27.9,16.2-30.7,17.3.1-1.3.2-4.4.2-5.2L194,225.6m.3-.6-31.2,17.2s-.2,5-.3,5.9h.1c1.4,0,31.4-17.6,31.4-17.6Z" transform="translate(0 0.01)"/><path class="cls-18" d="M190.2,225.2h0a.94.94,0,0,1-1-1v-9.5a1,1,0,0,1,2,0v9.5a1,1,0,0,1-1,1" transform="translate(0 0.01)"/><rect class="cls-18" x="190.2" y="213.71" width="0.8" height="0.7"/><rect class="cls-18" x="190.1" y="224.51" width="0.8" height="0.7"/><path class="cls-19" d="M190.9,225.2h0a.94.94,0,0,1-1-1v-9.5a1,1,0,0,1,2,0v9.5a1,1,0,0,1-1,1" transform="translate(0 0.01)"/><polygon class="cls-10" points="97.5 239.41 149.7 269.81 149.8 148.51 97.3 118.11 97.5 239.41"/><polygon class="cls-20" points="127.5 136.41 115.3 129.11 115.4 139.41 123 153.51 127.3 151.01 127.5 136.41"/><polygon class="cls-13" points="123 153.51 115.3 129.11 109 125.81 117.5 150.31 123 153.51"/><path class="cls-12" d="M165.6,200.5a57.48,57.48,0,0,0-15.9-2.6v72.7l13.9-8.1-.5-47.8a36.07,36.07,0,0,1,2.5-14.2" transform="translate(0 0.01)"/><polygon class="cls-13" points="149.6 207.11 143.3 203.61 143.3 196.51 149.5 199.71 149.6 207.11"/><polygon class="cls-11" points="149.5 207.11 155.8 203.61 155.8 196.51 149.6 199.71 149.5 207.11"/><polygon class="cls-20" points="143.3 196.51 144.5 195.91 149.5 198.61 149.5 199.71 143.3 196.51"/><polygon class="cls-13" points="155.8 196.51 154.7 195.91 149.5 198.61 149.5 199.71 155.8 196.51"/><polygon class="cls-13" points="149.8 219.31 143.5 215.61 143.5 208.61 149.8 211.91 149.8 219.31"/><polygon class="cls-11" points="149.8 219.31 156.1 215.61 156.1 208.61 149.8 211.91 149.8 219.31"/><polygon class="cls-20" points="143.5 208.61 144.7 208.11 149.8 210.71 149.8 211.91 143.5 208.61"/><polygon class="cls-13" points="156 208.61 154.8 208.11 149.8 210.71 149.8 211.91 156 208.61"/><polygon class="cls-13" points="149.8 230.71 143.5 227.21 143.5 220.11 149.7 223.41 149.8 230.71"/><polygon class="cls-11" points="149.7 230.71 156 227.21 156 220.11 149.8 223.41 149.7 230.71"/><polygon class="cls-20" points="143.5 220.11 144.6 219.61 149.7 222.21 149.7 223.41 143.5 220.11"/><polygon class="cls-13" points="156 220.11 154.8 219.61 149.8 222.21 149.8 223.41 156 220.11"/><polygon class="cls-20" points="149.8 149.31 137.3 141.91 137.4 152.31 145 166.41 149.8 163.81 149.8 149.31"/><polygon class="cls-13" points="145 166.41 137.3 141.91 131 138.41 139.4 163.21 145 166.41"/><polygon class="cls-20" points="106.5 124.41 94.1 117.31 94.2 126.61 101.8 140.61 106.5 138.01 106.5 124.41"/><polygon class="cls-13" points="101.8 140.61 94.1 117.31 88.1 113.81 96.2 137.41 101.8 140.61"/><polygon class="cls-13" points="149.8 149.31 162.1 141.91 162 152.31 154.5 166.41 149.8 163.81 149.8 149.31"/><polygon class="cls-11" points="154.5 166.41 162.1 141.91 168.4 138.51 159.9 163.21 154.5 166.41"/><polygon class="cls-13" points="193.3 124.21 205.3 117.31 205.3 127.31 197.8 141.31 193.3 138.81 193.3 124.21"/><polygon class="cls-11" points="197.7 141.31 205.3 117.31 211.6 113.71 203.1 138.11 197.7 141.31"/><polygon class="cls-13" points="172.1 136.31 184.1 129.41 184 139.41 176.6 153.51 172.1 150.91 172.1 136.31"/><polygon class="cls-11" points="176.4 153.51 184.1 129.41 190.4 125.81 181.9 150.31 176.4 153.51"/><rect class="cls-21" x="106.93" y="36.06" width="69" height="1.5" transform="translate(104.15 178.13) rotate(-89.81)"/><path class="cls-21" d="M141.5,70.8c.8,0,1.4.2,1.4.5s-.6.5-1.4.5-1.4-.2-1.4-.5.6-.5,1.4-.5" transform="translate(0 0.01)"/><path class="cls-15" d="M141.6,0A1.59,1.59,0,0,1,143,1.8a1.59,1.59,0,0,1-1.8,1.4,1.62,1.62,0,0,1-1.4-1.6A1.75,1.75,0,0,1,141.6,0" transform="translate(0 0.01)"/><polygon class="cls-22" points="286.7 0.41 162.4 0.41 161.9 22.41 286.7 22.41 276.7 11.41 286.7 0.41"/><polygon class="cls-21" points="172.4 4.21 161.9 0.41 161.9 4.21 172.4 4.21"/><rect class="cls-23" x="139.1" y="4.21" width="33.4" height="22"/><g class="cls-24"><path class="cls-25" d="M150.5,22.4V8.4h2.8v5.5h5.6V8.4h2.8V22.5h-2.8V16.3h-5.6v6.2h-2.8Z" transform="translate(0 0.01)"/></g><text class="cls-26" transform="translate(176.48 17.15)">S</text><text class="cls-27" transform="translate(186.09 17.15)">T</text><text class="cls-26" transform="translate(193.82 17.15)">AMMTISCH</text><polygon class="cls-28" points="105.2 96.41 147.6 72.21 199.6 100.21 149.5 127.71 105.2 96.41"/><polygon class="cls-28" points="147.6 96.01 147.6 72.21 105.2 96.41 147.6 126.41 147.6 96.01"/><ellipse class="cls-29" cx="122.5" cy="97.11" rx="13.3" ry="11.5"/><ellipse class="cls-29" cx="139.2" cy="82.91" rx="13.3" ry="11.5"/><ellipse class="cls-29" cx="135.5" cy="98.81" rx="13.3" ry="11.5"/><ellipse class="cls-29" cx="152.2" cy="85.01" rx="16.9" ry="14.8"/><ellipse class="cls-29" cx="151.6" cy="104.81" rx="13.3" ry="11.5"/><ellipse class="cls-29" cx="174.6" cy="98.31" rx="13.3" ry="11.5"/><ellipse class="cls-29" cx="168.69" cy="83.49" rx="13.3" ry="11.5" transform="translate(-3.65 7.84) rotate(-2.63)"/><ellipse class="cls-29" cx="140.3" cy="73.41" rx="13.3" ry="11.5"/><ellipse class="cls-29" cx="125.6" cy="81.41" rx="10.9" ry="5.9"/><ellipse class="cls-29" cx="123.6" cy="76.91" rx="5.8" ry="5.9"/><polygon class="cls-30" points="149.8 121.61 105.2 96.41 94.6 102.51 149.9 134.41 149.8 121.61"/><polygon class="cls-9" points="194.3 96.81 149.6 122.11 149.9 134.41 205.3 102.51 194.3 96.81"/><polygon class="cls-9" points="84.1 111.81 150.2 149.81 149.9 134.41 84.2 96.41 84.1 111.81"/><polygon class="cls-10" points="150.2 149.81 215.7 111.51 215.7 96.41 149.9 134.41 150.2 149.81"/><rect class="cls-9" x="185.2" y="91.41" width="6.5" height="5.9"/><path d="M191.3,97h-5.8V91.9h5.8Zm.8-5.9h-7.3v6.7h7.3Z" transform="translate(0 0.01)"/><polygon class="cls-11" points="205.1 70.81 194.5 76.11 205.1 81.41 215.7 76.11 205.1 70.81"/><polygon class="cls-9" points="194.5 76.11 194.1 96.81 205.3 102.51 205.2 81.41 194.5 76.11"/><polygon class="cls-10" points="215.7 76.11 215.7 97.21 205.3 102.51 205.1 81.41 215.7 76.11"/><polygon class="cls-11" points="187.2 81.11 176.6 86.41 187.2 91.71 197.8 86.41 187.2 81.11"/><polygon class="cls-9" points="176.6 86.41 176.4 106.41 187.4 112.41 187.3 91.71 176.6 86.41"/><polygon class="cls-10" points="197.8 86.41 198.1 106.61 187.4 112.81 187.2 91.71 197.8 86.41"/><polygon class="cls-9" points="84.1 76.01 84.2 96.41 94.7 102.41 94.8 81.31 84.1 76.01"/><polygon class="cls-10" points="105.3 76.01 105.6 96.21 94.7 102.41 94.7 81.31 105.3 76.01"/><polygon class="cls-11" points="94.8 70.71 84.1 76.01 94.8 81.31 105.4 76.01 94.8 70.71"/><polygon class="cls-10" points="141.7 97.41 141.9 117.71 131.3 123.71 131.1 102.71 141.7 97.41"/><ellipse class="cls-29" cx="176" cy="109.61" rx="9.5" ry="6.8"/><path class="cls-29" d="M181.2,106.8c-3.9-.4-7.4,1.9-7.7,5.2a4.62,4.62,0,0,0,.4,2.6.52.52,0,0,1,.4-.2,4.19,4.19,0,0,1,1.5-.4,2.79,2.79,0,0,1,1.8.6,3.27,3.27,0,0,1,1.1,1.5,8.8,8.8,0,0,1,.5,1.5h0l.3.3.1.1a13.17,13.17,0,0,0,3.4.4,6.08,6.08,0,0,0,4.7-5C187.9,110.3,185,107.2,181.2,106.8Z" transform="translate(0 0.01)"/><polygon class="cls-9" points="157.7 97.41 157.6 117.41 168.5 123.51 168.4 102.71 157.7 97.41"/><polygon class="cls-11" points="168.3 92.11 157.7 97.41 168.3 102.71 178.9 97.41 168.3 92.11"/><polygon class="cls-10" points="178.9 97.41 179.2 117.71 168.5 123.81 168.3 102.71 178.9 97.41"/><ellipse class="cls-29" cx="142.01" cy="114.99" rx="9.8" ry="6.2" transform="translate(-28.97 50.54) rotate(-18.34)"/><polygon class="cls-11" points="149.8 102.71 139.1 108.01 149.8 113.31 160.4 108.01 149.8 102.71"/><polygon class="cls-10" points="160.4 108.01 160.6 128.21 149.9 134.41 149.8 113.31 160.4 108.01"/><polygon class="cls-10" points="121.6 67.01 121.8 87.31 111.1 93.41 110.9 72.31 121.6 67.01"/><ellipse class="cls-29" cx="103.7" cy="99.8" rx="9.8" ry="6.2" transform="translate(-26.14 37.71) rotate(-18.34)"/><ellipse class="cls-29" cx="97.68" cy="101.23" rx="5.1" ry="5.2" transform="translate(-29.14 162.09) rotate(-71.66)"/><polygon class="cls-9" points="102 86.41 101.8 106.51 112.8 112.91 112.7 91.71 102 86.41"/><polygon class="cls-10" points="123.2 86.41 123.4 106.61 112.8 112.91 112.6 91.71 123.2 86.41"/><polygon class="cls-11" points="112.6 81.11 102 86.41 112.6 91.71 123.2 86.41 112.6 81.11"/><polygon class="cls-9" points="120.5 97.41 120.3 117.41 131.3 123.71 131.2 102.71 120.5 97.41"/><polygon class="cls-11" points="131.1 92.11 120.5 97.41 131.1 102.71 141.7 97.41 131.1 92.11"/><ellipse class="cls-29" cx="135.39" cy="122.88" rx="5.1" ry="5.2" transform="translate(-23.85 212.73) rotate(-71.66)"/><polygon class="cls-9" points="139.1 108.01 139 128.01 149.9 134.41 149.8 113.31 139.1 108.01"/><polygon class="cls-31" points="127.7 217.51 120.6 212.91 100.2 224.61 101.4 232.11 127.7 217.51"/><polygon class="cls-32" points="127.7 226.71 91.4 247.61 92.3 178.41 128.3 157.11 128.1 167.91 101.9 182.11 101.4 232.11 127.7 217.51 127.7 226.71"/><polygon class="cls-33" points="91.4 247.61 83.5 243.01 83.9 173.31 92.3 178.41 91.4 247.61"/><polygon class="cls-33" points="83.9 173.31 92.3 178.41 128.1 157.11 119.8 152.91 83.9 173.31"/><ellipse class="cls-29" cx="129.8" cy="81.41" rx="10.9" ry="5.9"/></svg>