<svg id="Layer_1" data-name="Layer 1" xmlns="http://www.w3.org/2000/svg" viewBox="0 0 555.34 113.65"><defs><style>.cls-1{fill:#010101;}</style></defs><path class="cls-1" d="M104.75,428.82l77.11-111.55H153.74L76.61,428.82Z" transform="translate(-19.97 -316.22)"/><path class="cls-1" d="M153.19,316.22,74.6,429.87h30.7l.32-.46,78.25-113.19Zm1.1,2.1h25.57L104.2,427.77H78.61Z" transform="translate(-19.97 -316.22)"/><path class="cls-1" d="M50.12,428.82l77.11-111.55H99.1L22,428.82Z" transform="translate(-19.97 -316.22)"/><path class="cls-1" d="M98.55,316.22,20,429.87h30.7l.31-.46,78.25-113.19Zm1.11,2.1h25.57L49.56,427.77H24Z" transform="translate(-19.97 -316.22)"/><path class="cls-1" d="M228.33,317.26v44.36h10.11V344.09L252,361.62h12.86l-15.28-18.34c5.43-1.72,9.09-6.18,9.09-12.85,0-8.71-6.24-13.17-14.46-13.17Zm10.11,19.68V325.33h1.19c3.81,0,8.38.26,8.38,5.8s-4.57,5.81-8.38,5.81Z" transform="translate(-19.97 -316.22)"/><path class="cls-1" d="M292.87,317.26h-9.36L265.6,361.62h10.87l3.28-8.87h16.88l3.28,8.87h10.86Zm.32,26.62h-10L288.14,331h.1Z" transform="translate(-19.97 -316.22)"/><path class="cls-1" d="M308.18,326.13h10.54v35.49h10.11V326.13h10.54v-8.87H308.18Z" transform="translate(-19.97 -316.22)"/><path class="cls-1" d="M354.27,317.26H344.16v44.36h10.11Z" transform="translate(-19.97 -316.22)"/><path class="cls-1" d="M378.37,316.45c-7.15,0-14.46,5.27-14.46,13.55,0,4.63,3.11,8.77,8.44,11.4s10,4.09,10,7.32c0,4.14-4.2,4.35-6.4,4.35-4.95,0-10.86-5-10.86-5l-5.06,8.5a25.92,25.92,0,0,0,16.67,5.86c8.66,0,16.73-3.71,16.73-14.31,0-5.8-5.44-10-10.38-12.09s-9.25-3.93-9.25-6.4,1.83-4,5.27-4c4.57,0,9,3.06,9,3.06l4.09-8.06a25.21,25.21,0,0,0-13.77-4.2Z" transform="translate(-19.97 -316.22)"/><path class="cls-1" d="M399.42,317.26v44.36h16.83c9.19,0,14.52-5.05,14.52-12.37,0-7.15-3.93-10.21-9.47-11.18a10.13,10.13,0,0,0,5.54-9.52c0-8.44-6-11.29-13.66-11.29Zm10.11,17.37v-9.57h.8c4.41,0,6.73,1.34,6.73,4.51,0,3.71-2.37,5.06-6.73,5.06Zm0,19.19V343.34h3.17c4.79,0,7.42,1.45,7.42,5.54,0,3.49-2.63,4.94-7.42,4.94Z" transform="translate(-19.97 -316.22)"/><path class="cls-1" d="M434.4,339.41c0,13,9.25,23,22.37,23,12.74,0,22.31-10.05,22.31-23s-10-23-22.31-23A22.59,22.59,0,0,0,434.4,339.41Zm10.92,0c0-6.61,3.65-13.23,11.45-13.23s11.4,6.62,11.4,13.23-3.33,13.23-11.4,13.23C448.49,352.64,445.32,346,445.32,339.41Z" transform="translate(-19.97 -316.22)"/><path class="cls-1" d="M494.8,334.09h.11l17.64,27.53h10.1V317.26h-10.1v27.53h-.11L494.8,317.26H484.69v44.36H494.8Z" transform="translate(-19.97 -316.22)"/><path class="cls-1" d="M554.54,317.26h-9.36l-17.9,44.36h10.86l3.28-8.87H558.3l3.28,8.87h10.86Zm.32,26.62h-10L549.81,331h.1Z" transform="translate(-19.97 -316.22)"/><path class="cls-1" d="M251.94,419.69c-10.16,0-14.63-7.1-14.63-13.07s4.46-13,14.63-13a15.42,15.42,0,0,1,8.71,2.74l4.3-8.6s-4.95-4.09-14.57-4.09c-12.58,0-24,10.33-24,23.07s11.51,22.91,24,22.91c9.62,0,14.57-4.09,14.57-4.09l-4.3-8.6a15.42,15.42,0,0,1-8.71,2.74Z" transform="translate(-19.97 -316.22)"/><path class="cls-1" d="M268,406.63c0,13,9.25,23,22.37,23,12.75,0,22.32-10.05,22.32-23s-10-23-22.32-23A22.59,22.59,0,0,0,268,406.63Zm10.92,0c0-6.62,3.66-13.23,11.45-13.23s11.4,6.61,11.4,13.23-3.33,13.23-11.4,13.23C282.12,419.86,279,413.24,279,406.63Z" transform="translate(-19.97 -316.22)"/><path class="cls-1" d="M318.33,384.47v44.36h12.85c12.21,0,22.37-9.24,22.37-22.2s-10.22-22.16-22.37-22.16Zm10.11,35.33V393.51H330c7.52,0,12.63,5.75,12.63,13.17S337.47,419.8,330,419.8Z" transform="translate(-19.97 -316.22)"/><path class="cls-1" d="M369.29,384.47H359.18v44.36h10.11Z" transform="translate(-19.97 -316.22)"/><path class="cls-1" d="M387,401.3h.1l17.64,27.53h10.11V384.47H404.78V412h-.11L387,384.47H376.93v44.36H387Z" transform="translate(-19.97 -316.22)"/><path class="cls-1" d="M462.63,404H442.14v7.8h10.22c0,5.43-4.79,8.55-9.63,8.55-6.24,0-11.29-6.13-11.29-13.66,0-7.69,5.05-13.87,11.29-13.87,3.93,0,7.31,1.56,9.89,5.7l6.62-7.26c-3.87-4.68-9.3-7.58-17.1-7.58-12.48,0-21.62,10.27-21.62,23s9.68,23,21.62,23c8.71,0,18.07-4.78,20.49-16Z" transform="translate(-19.97 -316.22)"/><path class="cls-1" d="M507.12,384.47H481.74v44.36h25.38V420H491.85V411h14.63v-8.88H491.85v-8.82h15.27Z" transform="translate(-19.97 -316.22)"/><path class="cls-1" d="M518.6,417.33a6.16,6.16,0,1,0,6.19,6.18A6.13,6.13,0,0,0,518.6,417.33Z" transform="translate(-19.97 -316.22)"/><path class="cls-1" d="M545.15,428.84h8l18.6-44.37h-11.4l-11.18,29.15-11.19-29.15h-11.4Z" transform="translate(-19.97 -316.22)"/><path class="cls-1" d="M569.13,417.33a6.16,6.16,0,1,0,6.18,6.18A6.14,6.14,0,0,0,569.13,417.33Z" transform="translate(-19.97 -316.22)"/></svg>